<svg width="55" height="55" viewBox="0 0 55 55" fill="none" xmlns="http://www.w3.org/2000/svg">
<path d="M23.1223 31.2041H31.7652V54.4388H23.1223V31.2041Z" fill="#676767"/>
<path d="M48.3775 0.561218H6.62237C3.92849 0.561218 1.68359 2.80612 1.68359 5.49999V29.1837C1.68359 31.8775 3.92849 34.1224 6.62237 34.1224H48.4897C51.1836 34.1224 53.4285 31.8775 53.4285 29.1837V5.49999C53.4285 2.80612 51.1836 0.561218 48.3775 0.561218Z" fill="#FFCC67"/>
<path d="M22.7856 17.3979L11.7856 6.39795H5.83667L16.7244 17.3979L5.94892 28.2857H11.8979L22.7856 17.3979Z" fill="#676767"/>
<path d="M35.9183 17.3979L25.0305 6.39795H19.0815L29.9693 17.3979L19.0815 28.2857H25.0305L35.9183 17.3979Z" fill="#676767"/>
<path d="M49.1631 17.3979L38.1631 6.39795H32.2141L43.2141 17.3979L32.3264 28.2857H38.2753L49.1631 17.3979Z" fill="#676767"/>
</svg>
