<svg width="64" height="64" viewBox="0 0 64 64" fill="none" xmlns="http://www.w3.org/2000/svg">
<ellipse cx="32" cy="32" rx="29" ry="29" fill="#B79EF9" stroke="white" stroke-width="5"/>
<path d="M38 42H27V30.1818V23.0909C27 22.4884 27.4925 22 28.1 22H36.9C37.5076 22 38 22.4884 38 23.0909V33.8182V42Z" fill="#FCED74"/>
<path d="M38 42V43C38.5523 43 39 42.5523 39 42H38ZM27 42H26C26 42.5523 26.4477 43 27 43V42ZM38 41H27V43H38V41ZM28 42V30.1818H26V42H28ZM28 30.1818V23.0909H26V30.1818H28ZM28 23.0909C28 23.0485 28.0369 23 28.1 23V21C26.948 21 26 21.9283 26 23.0909H28ZM28.1 23H36.9V21H28.1V23ZM36.9 23C36.9631 23 37 23.0485 37 23.0909H39C39 21.9284 38.052 21 36.9 21V23ZM37 23.0909V33.8182H39V23.0909H37ZM37 33.8182V42H39V33.8182H37Z" fill="#3C3F41"/>
<path d="M47.9 42H38V35.0667C38 34.4775 38.4924 34 39.1 34H47.9C48.5076 34 49 34.4775 49 35.0667V40.9333C49 41.5225 48.5076 42 47.9 42Z" fill="#E6643C" stroke="#3C3F41" stroke-width="1.5" stroke-linecap="round" stroke-linejoin="round"/>
<path d="M27 42V30.2C27 29.5372 26.5075 29 25.9 29H17.1C16.4925 29 16 29.5372 16 30.2V40.8C16 41.4628 16.4925 42 17.1 42H27Z" fill="#F5B641"/>
<path d="M27 42V42.75C27.4142 42.75 27.75 42.4142 27.75 42H27ZM27.75 42V30.2H26.25V42H27.75ZM27.75 30.2C27.75 29.1857 26.9818 28.25 25.9 28.25V29.75C26.0332 29.75 26.25 29.8887 26.25 30.2H27.75ZM25.9 28.25H17.1V29.75H25.9V28.25ZM17.1 28.25C16.0182 28.25 15.25 29.1857 15.25 30.2H16.75C16.75 29.8887 16.9668 29.75 17.1 29.75V28.25ZM15.25 30.2V40.8H16.75V30.2H15.25ZM15.25 40.8C15.25 41.8143 16.0182 42.75 17.1 42.75V41.25C16.9668 41.25 16.75 41.1113 16.75 40.8H15.25ZM17.1 42.75H27V41.25H17.1V42.75Z" fill="#3C3F41"/>
</svg>
