<svg width="390" height="844" viewBox="0 0 390 844" fill="none" xmlns="http://www.w3.org/2000/svg">
<g clip-path="url(#clip0_147_117)">
<rect width="390" height="844" fill="#FFDEA4"/>
<rect x="45" width="300" height="844" fill="#756F6F"/>
<rect x="338.57" width="3.21429" height="844" fill="white"/>
<rect x="189.644" width="3.21429" height="844" fill="#EFA66F"/>
<rect x="266.785" y="91.4421" width="3.21429" height="21.0212" fill="white"/>
<rect x="266.785" y="121.923" width="3.21429" height="21.0212" fill="white"/>
<rect x="266.785" y="152.404" width="3.21429" height="21.0212" fill="white"/>
<rect x="266.785" width="3.21429" height="21.0212" fill="white"/>
<rect x="266.785" y="30.4807" width="3.21429" height="21.0212" fill="white"/>
<rect x="266.785" y="60.9614" width="3.21429" height="21.0212" fill="white"/>
<rect x="266.785" y="274.326" width="3.21429" height="21.0212" fill="white"/>
<rect x="266.785" y="304.807" width="3.21429" height="21.0212" fill="white"/>
<rect x="266.785" y="335.288" width="3.21429" height="21.0212" fill="white"/>
<rect x="266.785" y="182.884" width="3.21429" height="21.0212" fill="white"/>
<rect x="266.785" y="213.365" width="3.21429" height="21.0212" fill="white"/>
<rect x="266.785" y="243.846" width="3.21429" height="21.0212" fill="white"/>
<rect x="266.785" y="487.691" width="3.21429" height="21.0212" fill="white"/>
<rect x="266.785" y="518.172" width="3.21429" height="21.0212" fill="white"/>
<rect x="266.785" y="548.653" width="3.21429" height="21.0212" fill="white"/>
<rect x="266.785" y="579.133" width="3.21429" height="21.0212" fill="white"/>
<rect x="266.785" y="396.249" width="3.21429" height="21.0212" fill="white"/>
<rect x="266.785" y="365.768" width="3.21429" height="21.0212" fill="white"/>
<rect x="266.785" y="426.73" width="3.21429" height="21.0212" fill="white"/>
<rect x="266.785" y="457.21" width="3.21429" height="21.0212" fill="white"/>
<rect x="266.785" y="701.056" width="3.21429" height="21.0212" fill="white"/>
<rect x="266.785" y="731.537" width="3.21429" height="21.0212" fill="white"/>
<rect x="266.785" y="762.017" width="3.21429" height="21.0212" fill="white"/>
<rect x="266.785" y="792.498" width="3.21429" height="21.0212" fill="white"/>
<rect x="266.785" y="822.979" width="3.21429" height="21.0212" fill="white"/>
<rect x="266.785" y="609.614" width="3.21429" height="21.0212" fill="white"/>
<rect x="266.785" y="640.095" width="3.21429" height="21.0212" fill="white"/>
<rect x="266.785" y="670.575" width="3.21429" height="21.0212" fill="white"/>
<rect x="118.927" y="91.4421" width="3.21429" height="21.0212" fill="white"/>
<rect x="118.927" y="121.923" width="3.21429" height="21.0212" fill="white"/>
<rect x="118.927" y="152.404" width="3.21429" height="21.0212" fill="white"/>
<rect x="118.927" width="3.21429" height="21.0212" fill="white"/>
<rect x="118.927" y="30.4807" width="3.21429" height="21.0212" fill="white"/>
<rect x="118.927" y="60.9614" width="3.21429" height="21.0212" fill="white"/>
<rect x="118.927" y="274.326" width="3.21429" height="21.0212" fill="white"/>
<rect x="118.927" y="304.807" width="3.21429" height="21.0212" fill="white"/>
<rect x="118.927" y="335.288" width="3.21429" height="21.0212" fill="white"/>
<rect x="118.927" y="182.884" width="3.21429" height="21.0212" fill="white"/>
<rect x="118.927" y="213.365" width="3.21429" height="21.0212" fill="white"/>
<rect x="118.927" y="243.846" width="3.21429" height="21.0212" fill="white"/>
<rect x="118.927" y="487.691" width="3.21429" height="21.0212" fill="white"/>
<rect x="118.927" y="518.172" width="3.21429" height="21.0212" fill="white"/>
<rect x="118.927" y="548.653" width="3.21429" height="21.0212" fill="white"/>
<rect x="118.927" y="579.133" width="3.21429" height="21.0212" fill="white"/>
<rect x="118.927" y="396.249" width="3.21429" height="21.0212" fill="white"/>
<rect x="118.927" y="365.768" width="3.21429" height="21.0212" fill="white"/>
<rect x="118.927" y="426.73" width="3.21429" height="21.0212" fill="white"/>
<rect x="118.927" y="457.21" width="3.21429" height="21.0212" fill="white"/>
<rect x="118.927" y="701.056" width="3.21429" height="21.0212" fill="white"/>
<rect x="118.927" y="731.537" width="3.21429" height="21.0212" fill="white"/>
<rect x="118.927" y="762.017" width="3.21429" height="21.0212" fill="white"/>
<rect x="118.927" y="792.498" width="3.21429" height="21.0212" fill="white"/>
<rect x="118.927" y="822.979" width="3.21429" height="21.0212" fill="white"/>
<rect x="118.927" y="609.614" width="3.21429" height="21.0212" fill="white"/>
<rect x="118.927" y="640.095" width="3.21429" height="21.0212" fill="white"/>
<rect x="118.927" y="670.575" width="3.21429" height="21.0212" fill="white"/>
<rect x="196.073" width="3.21429" height="844" fill="#EFA66F"/>
<rect x="48.2148" width="3.21429" height="844" fill="white"/>
<path d="M375.561 690.283L378.594 682.159L381.735 679.364C382.145 678.998 382.18 678.369 381.817 677.959C381.451 677.548 380.822 677.511 380.411 677.877L378.505 679.573L377.882 674.473C377.812 673.93 377.318 673.538 376.772 673.605C376.226 673.672 375.838 674.168 375.905 674.714L376.729 681.46L374.164 688.33L374.862 689.307L375.561 690.283Z" fill="#7C624A"/>
<path d="M363.493 711.866L356.61 711.21L350.697 703.922C350.35 703.495 349.724 703.431 349.297 703.776C348.981 704.032 348.863 704.44 348.963 704.809C348.998 704.94 349.06 705.065 349.151 705.176L354.362 711.599L351.997 712.237C351.466 712.38 351.152 712.926 351.296 713.457C351.439 713.989 351.985 714.302 352.516 714.159L356.186 713.169L364.748 713.985L364.122 712.925L363.493 711.866Z" fill="#7C624A"/>
<path d="M388.981 719.786L385.283 709.5L384.605 707.616L381.556 699.155L381.203 698.173L380.641 697.387L375.561 690.283L374.165 688.33L367.176 678.545C366.683 677.864 365.814 677.583 365.035 677.793C364.882 677.834 364.723 677.898 364.58 677.977C363.543 678.566 363.247 679.914 363.929 680.875L377.609 700.174L380.03 709.15L380.424 710.61L380.82 712.071L382.704 719.025L370.149 714.557L364.085 705.224C363.625 704.513 362.752 704.181 361.945 704.399C360.695 704.736 360.111 706.162 360.771 707.272L363.493 711.866L364.747 713.985L366.833 717.513L384.512 726.146L395.147 734.617L406.688 731.503L388.981 719.786Z" fill="#8E7760"/>
<path d="M385.721 720.094L377.609 700.174L380.03 709.15L373.599 704.856L370.231 699.775C369.928 699.318 369.311 699.191 368.852 699.496C368.486 699.739 368.333 700.182 368.441 700.585C368.468 700.685 368.512 700.783 368.573 700.875L372.051 706.122C372.124 706.232 372.217 706.327 372.327 706.4L380.821 712.076L382.704 719.025L385.721 720.094Z" fill="#7C624A"/>
<path d="M392.613 208.569C392.838 208.569 393.063 208.481 393.235 208.305C393.579 207.955 393.579 207.387 393.235 207.036L391.048 204.805C390.704 204.454 390.147 204.454 389.803 204.805C389.459 205.156 389.459 205.724 389.803 206.074L391.991 208.305C392.163 208.481 392.388 208.569 392.613 208.569Z" fill="#FFE17D"/>
<path d="M397.895 222.035C402.756 222.035 406.698 218.015 406.698 213.057C406.698 208.099 402.756 204.08 397.895 204.08C393.033 204.08 389.092 208.099 389.092 213.057C389.092 218.015 393.033 222.035 397.895 222.035Z" fill="#B4D26E"/>
<path d="M405.12 218.184C403.696 219.193 401.961 219.79 400.095 219.79C395.234 219.79 391.293 215.771 391.293 210.813C391.293 208.913 391.883 207.139 392.87 205.688C390.587 207.309 389.092 210.005 389.092 213.057C389.092 218.015 393.033 222.035 397.895 222.035C400.887 222.035 403.529 220.511 405.12 218.184Z" fill="#9BB96E"/>
<path d="M356.521 210.364H353.88C353.394 210.364 353 209.962 353 209.466C353 208.97 353.394 208.569 353.88 208.569H356.521C357.008 208.569 357.401 208.97 357.401 209.466C357.401 209.962 357.008 210.364 356.521 210.364Z" fill="#FFE17D"/>
<path d="M366.204 200.489C365.718 200.489 365.324 200.087 365.324 199.591V196.898C365.324 196.402 365.718 196 366.204 196C366.691 196 367.085 196.402 367.085 196.898V199.591C367.085 200.087 366.691 200.489 366.204 200.489Z" fill="#FFE17D"/>
<path d="M366.204 222.933C365.718 222.933 365.324 222.531 365.324 222.035V219.342C365.324 218.846 365.718 218.444 366.204 218.444C366.691 218.444 367.085 218.846 367.085 219.342V222.035C367.085 222.531 366.691 222.933 366.204 222.933Z" fill="#FFE17D"/>
<path d="M359.162 203.182C358.937 203.182 358.712 203.094 358.54 202.919L356.868 201.214C356.524 200.863 356.524 200.295 356.868 199.944C357.211 199.594 357.768 199.594 358.112 199.944L359.784 201.65C360.128 202 360.128 202.568 359.784 202.919C359.612 203.094 359.387 203.182 359.162 203.182Z" fill="#FFE17D"/>
<path d="M357.49 219.251C357.265 219.251 357.04 219.164 356.868 218.988C356.524 218.637 356.524 218.069 356.868 217.719L358.54 216.014C358.884 215.663 359.441 215.663 359.784 216.014C360.128 216.364 360.128 216.932 359.784 217.283L358.112 218.988C357.941 219.164 357.715 219.251 357.49 219.251Z" fill="#FFE17D"/>
<path d="M375.887 210.364H378.528C379.015 210.364 379.409 209.962 379.409 209.466C379.409 208.97 379.015 208.569 378.528 208.569H375.887C375.401 208.569 375.007 208.97 375.007 209.466C375.007 209.962 375.401 210.364 375.887 210.364Z" fill="#FFE17D"/>
<path d="M373.247 203.182C373.472 203.182 373.697 203.094 373.869 202.919L375.541 201.214C375.885 200.863 375.885 200.295 375.541 199.944C375.197 199.594 374.64 199.594 374.296 199.944L372.624 201.65C372.28 202 372.28 202.568 372.624 202.919C372.796 203.094 373.021 203.182 373.247 203.182Z" fill="#FFE17D"/>
<path d="M366.204 220.239C372.038 220.239 376.768 215.416 376.768 209.466C376.768 203.516 372.038 198.693 366.204 198.693C360.37 198.693 355.641 203.516 355.641 209.466C355.641 215.416 360.37 220.239 366.204 220.239Z" fill="#B4D26E"/>
<path d="M368.405 217.995C362.571 217.995 357.842 213.172 357.842 207.222C357.842 204.82 358.607 202.606 359.91 200.814C359.905 200.813 359.915 200.815 359.91 200.814C357.32 202.777 355.641 205.922 355.641 209.466C355.641 215.416 360.37 220.239 366.204 220.239C369.683 220.239 372.769 218.524 374.694 215.877C374.691 215.875 374.688 215.872 374.684 215.87C372.928 217.199 370.76 217.995 368.405 217.995Z" fill="#9BB96E"/>
<path d="M365.324 231.91H362.683C362.197 231.91 361.803 231.508 361.803 231.012C361.803 230.516 362.197 230.114 362.683 230.114H365.324C365.811 230.114 366.204 230.516 366.204 231.012C366.204 231.508 365.811 231.91 365.324 231.91Z" fill="#FFE17D"/>
<path d="M381.169 215.75C380.683 215.75 380.289 215.348 380.289 214.853V212.159C380.289 211.664 380.683 211.262 381.169 211.262C381.656 211.262 382.05 211.664 382.05 212.159V214.853C382.05 215.348 381.656 215.75 381.169 215.75Z" fill="#FFE17D"/>
<path d="M369.466 220.018C369.237 220.018 369.008 219.927 368.835 219.746L367.462 218.306C367.124 217.951 367.131 217.382 367.479 217.037C367.828 216.691 368.385 216.699 368.724 217.055L370.097 218.494C370.436 218.85 370.428 219.418 370.08 219.763C369.909 219.933 369.687 220.018 369.466 220.018Z" fill="#FFE17D"/>
<path d="M368.098 245.241C367.872 245.241 367.647 245.153 367.475 244.978C367.131 244.627 367.131 244.059 367.475 243.708L369.103 242.048C369.447 241.698 370.004 241.698 370.348 242.048C370.692 242.399 370.692 242.967 370.348 243.318L368.72 244.978C368.548 245.153 368.323 245.241 368.098 245.241Z" fill="#FFE17D"/>
<path d="M364.091 239.125C363.746 239.125 363.417 238.916 363.277 238.57C363.092 238.112 363.305 237.587 363.754 237.397L365.689 236.58C366.137 236.391 366.654 236.607 366.84 237.065C367.025 237.524 366.812 238.049 366.363 238.239L364.427 239.056C364.318 239.102 364.203 239.125 364.091 239.125Z" fill="#FFE17D"/>
<path d="M374.905 216.486C374.56 216.486 374.232 216.277 374.092 215.932L373.282 213.938C373.096 213.48 373.309 212.955 373.758 212.765C374.205 212.577 374.723 212.792 374.908 213.251L375.718 215.244C375.904 215.702 375.691 216.227 375.242 216.417C375.132 216.464 375.018 216.486 374.905 216.486Z" fill="#FFE17D"/>
<path d="M366.021 225.511C365.909 225.511 365.794 225.489 365.684 225.442L363.754 224.627C363.305 224.437 363.092 223.913 363.277 223.454C363.463 222.996 363.981 222.779 364.427 222.968L366.358 223.784C366.807 223.973 367.02 224.498 366.835 224.957C366.694 225.302 366.366 225.511 366.021 225.511Z" fill="#FFE17D"/>
<path d="M387.434 216.486C387.778 216.486 388.107 216.277 388.247 215.932L389.057 213.938C389.242 213.48 389.029 212.955 388.581 212.765C388.134 212.577 387.616 212.792 387.43 213.251L386.621 215.244C386.435 215.702 386.648 216.227 387.097 216.417C387.207 216.464 387.321 216.486 387.434 216.486Z" fill="#FFE17D"/>
<path d="M373.733 246.274H388.606C394.107 243.481 397.895 237.705 397.895 231.012C397.895 221.592 390.407 213.955 381.169 213.955C371.932 213.955 364.444 221.592 364.444 231.012C364.444 237.705 368.232 243.481 373.733 246.274Z" fill="#B4D26E"/>
<path d="M367.085 228.319C367.085 224.303 368.46 220.595 370.737 217.681C366.902 220.806 364.444 225.616 364.444 231.012C364.444 237.705 368.232 243.481 373.733 246.274H383.81V245.376C374.573 245.376 367.085 237.739 367.085 228.319Z" fill="#9BB96E"/>
<path d="M370.62 231.91C370.134 231.91 369.735 231.508 369.735 231.012C369.735 230.516 370.123 230.115 370.61 230.115H370.62C371.107 230.115 371.501 230.516 371.501 231.012C371.501 231.508 371.107 231.91 370.62 231.91Z" fill="#FFE17D"/>
<path d="M381.179 231.91C380.692 231.91 380.293 231.508 380.293 231.012C380.293 230.516 380.683 230.115 381.169 230.115H381.179C381.665 230.115 382.059 230.516 382.059 231.012C382.059 231.508 381.665 231.91 381.179 231.91Z" fill="#FFD164"/>
<path d="M381.174 221.148C380.687 221.148 380.293 220.746 380.293 220.25C380.293 219.754 380.687 219.347 381.174 219.347C381.66 219.347 382.054 219.743 382.054 220.239V220.25C382.054 220.746 381.66 221.148 381.174 221.148Z" fill="#FFE17D"/>
<path d="M381.174 242.683C380.687 242.683 380.293 242.281 380.293 241.785C380.293 241.289 380.687 240.882 381.174 240.882C381.66 240.882 382.054 241.278 382.054 241.774V241.785C382.054 242.281 381.66 242.683 381.174 242.683Z" fill="#FFE17D"/>
<path d="M373.712 224.3C373.486 224.3 373.261 224.213 373.089 224.037C372.745 223.686 372.742 223.114 373.085 222.764C373.428 222.413 373.982 222.408 374.326 222.76L374.334 222.768C374.678 223.118 374.678 223.686 374.334 224.037C374.162 224.213 373.937 224.3 373.712 224.3Z" fill="#FFE17D"/>
<path d="M388.643 239.528C388.418 239.528 388.193 239.44 388.021 239.265C387.677 238.914 387.674 238.342 388.017 237.991C388.359 237.641 388.912 237.635 389.258 237.987L389.266 237.995C389.61 238.346 389.61 238.914 389.266 239.265C389.094 239.44 388.869 239.528 388.643 239.528Z" fill="#FFE17D"/>
<path d="M388.635 224.3C388.41 224.3 388.185 224.213 388.013 224.037C387.669 223.686 387.669 223.118 388.013 222.768C388.357 222.418 388.918 222.412 389.262 222.764C389.605 223.114 389.609 223.679 389.266 224.029L389.258 224.037C389.086 224.213 388.861 224.3 388.635 224.3Z" fill="#FFE17D"/>
<path d="M373.704 239.528C373.479 239.528 373.254 239.44 373.082 239.265C372.738 238.914 372.738 238.346 373.082 237.995C373.425 237.646 373.987 237.64 374.331 237.991C374.674 238.342 374.678 238.906 374.334 239.257L374.326 239.265C374.154 239.44 373.929 239.528 373.704 239.528Z" fill="#FFE17D"/>
<path d="M377.334 227.995C377.092 227.995 376.85 227.893 376.677 227.693C376.353 227.322 376.384 226.753 376.748 226.424C377.11 226.094 377.667 226.126 377.988 226.496L377.992 226.5C378.315 226.871 378.282 227.438 377.919 227.768C377.751 227.92 377.542 227.995 377.334 227.995Z" fill="#FFD164"/>
<path d="M385.017 235.829C384.807 235.829 384.597 235.753 384.428 235.599C384.067 235.267 384.035 234.698 384.36 234.329C384.685 233.962 385.239 233.928 385.602 234.261L385.606 234.264C385.967 234.596 385.996 235.164 385.671 235.532C385.498 235.729 385.258 235.829 385.017 235.829Z" fill="#FFD164"/>
<path d="M385.013 227.995C384.772 227.995 384.533 227.894 384.359 227.697C384.034 227.329 384.063 226.761 384.424 226.43C384.785 226.096 385.344 226.125 385.67 226.494C385.995 226.863 385.967 227.429 385.606 227.76L385.602 227.764C385.433 227.919 385.223 227.995 385.013 227.995Z" fill="#FFD164"/>
<path d="M377.331 235.829C377.123 235.829 376.914 235.755 376.746 235.603C376.383 235.273 376.35 234.706 376.673 234.335C376.995 233.965 377.554 233.929 377.917 234.259C378.281 234.588 378.315 235.153 377.992 235.524L377.989 235.528C377.815 235.728 377.573 235.829 377.331 235.829Z" fill="#FFD164"/>
<path d="M366.204 210.364C365.718 210.364 365.32 209.962 365.32 209.466C365.32 208.97 365.708 208.569 366.195 208.569H366.204C366.691 208.569 367.085 208.97 367.085 209.466C367.085 209.962 366.691 210.364 366.204 210.364Z" fill="#FFD164"/>
<path d="M362.36 206.449C362.118 206.449 361.876 206.347 361.702 206.147C361.379 205.776 361.41 205.207 361.774 204.878C362.136 204.548 362.693 204.58 363.014 204.95L363.018 204.954C363.341 205.325 363.308 205.892 362.944 206.222C362.777 206.374 362.568 206.449 362.36 206.449Z" fill="#FFE17D"/>
<path d="M370.043 214.283C369.833 214.283 369.622 214.208 369.454 214.053C369.093 213.721 369.061 213.152 369.386 212.783C369.711 212.416 370.265 212.382 370.627 212.715L370.632 212.718C370.993 213.05 371.022 213.618 370.697 213.986C370.523 214.183 370.283 214.283 370.043 214.283Z" fill="#FFD164"/>
<path d="M370.038 206.449C369.798 206.449 369.558 206.348 369.384 206.151C369.059 205.783 369.088 205.215 369.45 204.884C369.81 204.551 370.369 204.579 370.695 204.948C371.02 205.317 370.993 205.883 370.632 206.214L370.627 206.218C370.459 206.373 370.248 206.449 370.038 206.449Z" fill="#FFE17D"/>
<path d="M362.356 214.283C362.148 214.283 361.94 214.209 361.772 214.057C361.408 213.727 361.376 213.16 361.699 212.789C362.02 212.42 362.579 212.383 362.943 212.713C363.307 213.042 363.341 213.607 363.018 213.978L363.014 213.982C362.841 214.182 362.599 214.283 362.356 214.283Z" fill="#FFE17D"/>
<path d="M391.733 247.172H370.606C370.119 247.172 369.726 246.77 369.726 246.274C369.726 245.778 370.119 245.376 370.606 245.376H391.733C392.219 245.376 392.613 245.778 392.613 246.274C392.613 246.77 392.219 247.172 391.733 247.172Z" fill="#E3AA75"/>
<path fill-rule="evenodd" clip-rule="evenodd" d="M374.051 238L372.154 249.702L375.781 248.681L374.051 238Z" fill="#457E3B"/>
<path fill-rule="evenodd" clip-rule="evenodd" d="M369.381 250.483C367.466 246.522 364.436 243.14 360.456 241.327C363.243 245.12 364.934 248.977 365.722 253.572L368.657 250.685L369.381 250.483Z" fill="#61AB52"/>
<path fill-rule="evenodd" clip-rule="evenodd" d="M363.11 256.139L390.943 268.058L404.315 262.301L412.932 252.503L388.764 245.028L368.657 250.685L363.11 256.139Z" fill="#C68659"/>
<path fill-rule="evenodd" clip-rule="evenodd" d="M363.11 256.139L360.339 266.947L374.503 276.34L374.844 284.187L391.935 284.422L390.943 268.059L363.11 256.139Z" fill="#B0764E"/>
<path fill-rule="evenodd" clip-rule="evenodd" d="M355.188 273.109L368.164 276.543L374.503 276.341L360.339 266.947L355.188 273.109Z" fill="#C68659"/>
<path fill-rule="evenodd" clip-rule="evenodd" d="M354 281.999L355.188 273.108L368.164 276.543L374.502 276.34L374.846 284.187L363.052 284.51L354 281.999Z" fill="#B0764E"/>
<path d="M8.4029 78.5217C9.93645 79.9912 10.1232 82.3383 8.92969 84.02L14.0545 88.9302C14.2101 89.0788 14.2664 89.3031 14.2003 89.5081L14.0236 90.0528C13.9681 90.2251 14.0903 90.4031 14.2707 90.4131L15.4785 90.4809C15.6121 90.4884 15.7384 90.5433 15.8351 90.6359L21.8311 96.3793C22.0544 96.5934 22.062 96.9479 21.8481 97.172L19.199 99.9372C19.0045 100.14 18.6889 100.168 18.4625 100.001L16.295 98.41C15.8938 98.116 15.4002 98.6316 15.7112 99.0194L17.3938 101.117C17.5694 101.337 17.5555 101.653 17.3607 101.856L16.708 102.537C16.4935 102.761 16.1388 102.769 15.9149 102.555L8.1331 95.0999L7.39295 94.3906L3.01366 90.1954C1.38432 91.4596 -0.968046 91.3748 -2.50199 89.9051C-4.18548 88.292 -4.23729 85.5877 -2.61797 83.9115C-1.54047 82.7961 0.00207201 82.4011 1.40973 82.7371C1.01367 81.3449 1.34171 79.7871 2.40927 78.6633C2.68866 78.3688 3.00115 78.1243 3.33579 77.9286C3.57033 77.7918 3.81496 77.6795 4.06753 77.5911C5.525 77.0815 7.21691 77.3856 8.4029 78.5217V78.5217Z" fill="#FBDBB7"/>
<path d="M4.06742 77.5911L5.89365 79.3125C5.96783 79.3835 6.01054 79.4808 6.01274 79.5833L6.02344 80.0821L7.22004 80.0564C7.4332 80.0518 7.60967 80.221 7.61424 80.434C7.61882 80.6472 7.44958 80.8236 7.23661 80.8282L6.04002 80.8539L6.05122 81.3759C6.05579 81.5888 5.88656 81.7655 5.67359 81.7701C5.45984 81.7747 5.28377 81.6054 5.27919 81.3925L5.24413 79.7594L3.33568 77.9287C3.57002 77.7918 3.81485 77.6795 4.06742 77.5911V77.5911Z" fill="#F4BC8E"/>
<path d="M8.40238 78.5219C9.93651 79.9913 10.1228 82.3385 8.92937 84.0202L14.0546 88.9303C14.2101 89.0789 14.2665 89.3033 14.2004 89.5082L14.0236 90.053C13.9682 90.2252 14.0903 90.4033 14.2708 90.4132L15.4786 90.4811C15.6121 90.4885 15.7385 90.5434 15.8352 90.6361L21.8312 96.3794C22.0545 96.5935 22.0621 96.9486 21.8482 97.1721L18.859 100.292L20.6201 98.4533L7.76163 86.1357C7.51338 85.898 7.45245 85.525 7.61114 85.2208C8.33973 83.8268 8.23547 82.1181 7.31431 80.819L7.31373 80.819C7.16086 80.603 6.985 80.3982 6.7868 80.2083C6.73675 80.1604 6.68577 80.1142 6.63382 80.0691C6.43819 79.8987 6.23012 79.7493 6.01351 79.6205C5.55401 79.3488 5.05553 79.1714 4.54442 79.0882C3.58805 78.9326 2.58973 79.1064 1.7318 79.6064C1.91194 79.2647 2.14135 78.9432 2.42194 78.6503C4.03811 76.9638 6.71532 76.9063 8.40238 78.5219V78.5219Z" fill="#F4BC8E"/>
<path d="M9.2579 91.388C9.33467 91.4615 9.37505 91.5597 9.37717 91.6585C9.37929 91.7572 9.34316 91.8568 9.26962 91.9336L8.25249 92.9962L8.13342 95.1001L7.39307 94.391L7.4793 92.986L6.65242 92.1939C6.49829 92.0462 6.49304 91.8018 6.64069 91.6477C6.78836 91.4941 7.03275 91.4889 7.18687 91.636L7.86383 92.2852L8.71192 91.3999C8.85958 91.2458 9.10397 91.2405 9.2579 91.388Z" fill="#F4BC8E"/>
<path d="M-0.0675804 85.6177C-0.651238 85.6302 -1.10936 86.3324 -1.09104 87.1858C-1.07271 88.0392 -0.584884 88.7209 -0.0012267 88.7083C0.582236 88.6958 1.04056 87.9938 1.02223 87.1404C1.00391 86.287 0.515882 85.6052 -0.0675804 85.6177V85.6177Z" fill="#F4BC8E"/>
<path d="M1.02229 87.1404C1.04062 87.994 0.582488 88.6957 -0.00136453 88.7083C-0.154989 88.7116 -0.302028 88.6669 -0.435252 88.5834C-0.0714856 88.3348 0.173976 87.788 0.160469 87.1589C0.146962 86.5297 -0.121742 85.9939 -0.495848 85.761C-0.366324 85.6721 -0.221343 85.6209 -0.0677182 85.6176C0.516134 85.6051 1.00397 86.2871 1.02229 87.1404Z" fill="#EFA66F"/>
<path d="M13.4781 93.7183C12.7367 93.0081 11.7421 92.8432 11.2563 93.3502C10.7708 93.8571 10.9781 94.8439 11.7196 95.5541C12.461 96.2643 13.4556 96.4293 13.9414 95.9222C14.4269 95.4153 14.2196 94.4285 13.4781 93.7183Z" fill="#F4BC8E"/>
<path d="M13.4784 93.7183C14.2201 94.4289 14.4274 95.4153 13.9415 95.9224C13.8137 96.0558 13.6506 96.1427 13.4663 96.1851C13.5643 95.6643 13.3079 94.9906 12.7613 94.467C12.2148 93.9434 11.5307 93.7162 11.0144 93.8364C11.0489 93.6505 11.1287 93.4838 11.2565 93.3504C11.7424 92.8431 12.7373 93.0083 13.4784 93.7183V93.7183Z" fill="#EFA66F"/>
<path d="M3.24668 86.6C3.2467 86.601 3.24673 86.6022 3.24675 86.6033L3.24688 86.6092C3.2497 86.8226 3.07891 86.9977 2.86554 87.0005C2.65313 87.0033 2.47868 86.8343 2.47413 86.6225L2.47406 86.6192L2.47393 86.6133C2.47131 86.3999 2.64209 86.2246 2.85547 86.222C3.06767 86.2192 3.24213 86.3881 3.24668 86.6V86.6Z" fill="#EFA66F"/>
<path d="M11.3277 90.411L11.3279 90.4168C11.3324 90.6302 11.1631 90.8068 10.9497 90.8113C10.7364 90.8159 10.5598 90.6467 10.5552 90.4334L10.5551 90.4275C10.5505 90.2142 10.7197 90.0376 10.933 90.033C11.1463 90.0284 11.3232 90.1976 11.3277 90.411Z" fill="#F4BC8E"/>
<path d="M2.75181 85.4417L2.75193 85.4475C2.75651 85.6609 2.58713 85.8375 2.37379 85.842C2.16045 85.8466 1.98384 85.6774 1.97926 85.4641L1.97913 85.4582C1.97455 85.2449 2.14374 85.0683 2.35708 85.0637C2.57042 85.0591 2.74723 85.2283 2.75181 85.4417Z" fill="#EFA66F"/>
<path d="M6.78688 80.2077C6.73698 80.1597 6.68595 80.1135 6.63397 80.0683L7.22066 80.0557C7.4338 80.0512 7.61061 80.2205 7.61519 80.4337C7.61919 80.6201 7.49028 80.779 7.31483 80.8189L7.31425 80.8189C7.16125 80.6027 6.98524 80.3978 6.78688 80.2077V80.2077Z" fill="#EFA66F"/>
<path d="M4.0675 77.5911L5.89373 79.3124C5.9679 79.3835 6.01061 79.4808 6.01281 79.5833L6.01361 79.6204C5.55411 79.3486 5.05543 79.1713 4.54451 79.0881L3.33575 77.9286C3.5701 77.7918 3.81493 77.6795 4.0675 77.5911Z" fill="#EFA66F"/>
<path d="M4.27367 101.365C3.24159 100.98 2.20778 100.576 1.17327 100.141C-2.07806 98.7711 -5.35629 97.0751 -7.87647 94.5598C-9.67017 92.7695 -10.993 90.5197 -11.5827 88.028C-12.1085 85.7862 -12.0845 83.4581 -11.8023 81.1842C-11.7104 80.444 -11.0359 79.9185 -10.2957 80.0104C-9.66367 80.0888 -9.18825 80.5921 -9.1199 81.1982L-9.11777 81.2193C-8.89474 83.1969 -8.44786 85.1029 -7.64684 86.6596C-6.00812 89.8443 -2.67951 91.2518 0.632042 92.0427C2.50892 92.4909 4.42652 92.7727 6.34088 93.0031C8.72018 93.2896 10.4167 95.4507 10.1302 97.83C9.84367 100.209 7.68262 101.906 5.30331 101.619C4.96227 101.578 4.63533 101.499 4.32618 101.386L4.27367 101.365Z" fill="#DDAF89"/>
<path opacity="0.1" d="M10.1523 97.042C-7.82975 99.0581 -11.0002 87.2304 -11.0791 80.1495C-11.4625 80.347 -11.7452 80.724 -11.8023 81.1843C-12.0845 83.4581 -12.1085 85.7863 -11.5827 88.0281C-10.993 90.5198 -9.67017 92.7696 -7.87657 94.5597C-5.35629 97.075 -2.07816 98.771 1.17317 100.141C2.20768 100.576 3.24149 100.98 4.27357 101.365L4.32608 101.386C4.63523 101.499 4.96216 101.579 5.30321 101.62C7.68252 101.906 9.84357 100.21 10.1301 97.8303C10.1623 97.5639 10.1682 97.3005 10.1523 97.042Z" fill="black"/>
<path d="M23.7263 101.365C24.7584 100.98 25.7922 100.576 26.8267 100.141C30.078 98.7711 33.3563 97.0751 35.8764 94.5598C37.6701 92.7697 38.993 90.5199 39.5826 88.0281C40.1084 85.7863 40.0844 83.4582 39.8021 81.1843C39.7102 80.4441 39.0357 79.9186 38.2956 80.0106C37.6635 80.089 37.1881 80.5922 37.1198 81.1983L37.1176 81.2195C36.8946 83.197 36.4477 85.103 35.6467 86.6598C34.008 89.8445 30.6794 91.2519 27.3678 92.0428C25.491 92.491 23.5733 92.7728 21.659 93.0033C19.2797 93.2898 17.5832 95.4508 17.8697 97.8301C18.1562 100.209 20.3172 101.906 22.6966 101.619C23.0376 101.578 23.3645 101.499 23.6737 101.386L23.7263 101.365Z" fill="#DDAF89"/>
<path opacity="0.1" d="M29.6425 96.6214C26.1846 98.1037 25.5553 94.6494 25.6595 92.4046C24.3344 92.6548 22.9961 92.8423 21.6592 93.0033C19.2799 93.2898 17.5834 95.4509 17.8699 97.8302C18.1564 100.209 20.3175 101.906 22.6968 101.619C23.0378 101.578 23.3648 101.499 23.6739 101.386L23.7264 101.365C24.7585 100.98 25.7923 100.576 26.8268 100.14C30.0782 98.7709 33.3564 97.0749 35.8766 94.5596C37.6703 92.7695 38.9931 90.5197 39.5827 88.0279C39.6827 87.6016 39.7626 87.1722 39.8248 86.7405C37.7904 91.8522 33.2738 95.0647 29.6425 96.6214Z" fill="black"/>
<g opacity="0.1">
<path opacity="0.1" d="M28.3648 97.2855C28.1699 97.2855 27.9749 97.2112 27.8261 97.0625C27.5287 96.7649 27.5287 96.2827 27.8261 95.9852L28.9034 94.908C29.201 94.6106 29.6832 94.6106 29.9807 94.908C30.2782 95.2055 30.2782 95.6878 29.9807 95.9852L28.9035 97.0624C28.7546 97.2111 28.5597 97.2855 28.3648 97.2855Z" fill="black"/>
<path opacity="0.1" d="M36.5343 90.5966C36.3394 90.5966 36.1444 90.5223 35.9956 90.3736C35.6981 90.076 35.6981 89.5938 35.9956 89.2963L36.6747 88.6173C36.9723 88.3199 37.4545 88.3199 37.752 88.6173C38.0495 88.9148 38.0495 89.3971 37.752 89.6945L37.0729 90.3737C36.9242 90.5223 36.7292 90.5966 36.5343 90.5966Z" fill="black"/>
</g>
<path d="M13.3007 120.202C13.6363 119.71 14.3637 119.71 14.6992 120.202C15.2893 121.068 16.0407 121.839 16.7288 121.839C18.6685 121.839 20.8493 117.556 21.4664 112.72C22.0524 108.128 25.9709 107.193 25.4367 99.8921C24.7915 91.0738 18.901 88.5999 14 88.5999C9.09897 88.5999 3.20843 91.0739 2.56331 99.8922C2.02919 107.193 5.94768 108.128 6.5337 112.72C7.15079 117.556 9.33154 121.84 11.2713 121.84C11.9594 121.839 12.7106 121.068 13.3007 120.202Z" fill="#FFF0C0"/>
<g opacity="0.2">
<path opacity="0.2" d="M9.0138 102.075C8.68925 100.283 7.47669 99.0018 6.30547 99.214C5.13425 99.4261 4.4479 101.051 4.77245 102.843C5.097 104.635 6.30957 105.916 7.48078 105.704C8.652 105.492 9.33836 103.867 9.0138 102.075Z" fill="black"/>
<path opacity="0.2" d="M18.985 102.075C18.6604 103.868 19.3468 105.492 20.518 105.704C21.6892 105.917 22.9018 104.636 23.2263 102.844C23.5509 101.051 22.8645 99.4266 21.6933 99.2145C20.5221 99.0024 19.3095 100.283 18.985 102.075Z" fill="black"/>
<path opacity="0.2" d="M14 118.32C16.6358 118.32 17.1935 115.548 17.3101 114.249C17.3335 113.989 17.0372 113.826 16.8303 113.985L15.8327 114.75C15.5926 114.935 15.2432 114.842 15.1255 114.564L14.2673 112.531C14.1675 112.295 13.8324 112.295 13.7326 112.531L12.8744 114.564C12.7567 114.842 12.4073 114.935 12.1672 114.75L11.1697 113.985C10.9626 113.826 10.6664 113.989 10.6898 114.249C10.8065 115.547 11.3643 118.32 14 118.32Z" fill="black"/>
</g>
<path opacity="0.1" d="M15.875 88.7239L14.8549 91.7673C14.7907 91.959 14.8052 92.1681 14.8952 92.349L16.491 95.5535L15.9566 97.2025C15.8269 97.6028 16.0461 98.0323 16.4463 98.162C16.5244 98.1873 16.6035 98.1993 16.6814 98.1993C17.0027 98.1993 17.3014 97.9943 17.4059 97.6722L17.7361 96.6529L18.7271 97.2684C18.8522 97.3461 18.9912 97.3832 19.1284 97.3832C19.383 97.3832 19.6318 97.2555 19.7761 97.0234C19.998 96.6661 19.8884 96.1963 19.5311 95.9743L17.897 94.9591L16.3997 91.9521L17.3828 89.019C16.8822 88.8891 16.3775 88.7915 15.875 88.7239Z" fill="black"/>
<path opacity="0.1" d="M11.4591 116.87C10.931 115.995 10.7505 114.924 10.6898 114.249C10.6696 114.024 10.8899 113.871 11.0838 113.938C10.7537 111.868 10.1808 109.489 8.94845 107.048C8.6661 106.489 8.41352 105.927 8.1851 105.365C7.97822 105.539 7.74158 105.657 7.48067 105.704C6.30955 105.916 5.09709 104.635 4.7725 102.843C4.4479 101.051 5.13416 99.4261 6.30528 99.2139C6.43549 99.1904 6.5661 99.1862 6.6961 99.1982C6.3912 95.3706 7.27917 91.908 9.06057 89.5424C5.78924 90.9165 2.99607 93.9768 2.56331 99.8922C2.02919 107.193 5.94768 108.128 6.5337 112.72C7.15079 117.556 9.33154 121.84 11.2713 121.84C11.8315 121.84 12.4337 121.328 12.9566 120.671C11.9044 120.491 11.7047 119.046 11.4591 116.87Z" fill="black"/>
<g opacity="0.1">
<path opacity="0.1" d="M-0.413354 98.282C-0.608253 98.282 -0.803253 98.2076 -0.951941 98.0589C-1.24942 97.7613 -1.24942 97.2791 -0.951941 96.9817L0.131326 95.8984C0.428803 95.601 0.911123 95.601 1.2086 95.8984C1.50608 96.196 1.50608 96.6782 1.2086 96.9757L0.125334 98.0589C-0.0235569 98.2076 -0.218456 98.282 -0.413354 98.282Z" fill="black"/>
<path opacity="0.1" d="M-0.726587 95.2394C-0.921485 95.2394 -1.11638 95.165 -1.26517 95.0163C-1.56265 94.7188 -1.56265 94.2365 -1.26517 93.9391L-0.658845 93.3327C-0.361368 93.0351 0.120852 93.0352 0.418431 93.3326C0.715908 93.6301 0.715908 94.1124 0.418532 94.4098L-0.187797 95.0162C-0.336688 95.165 -0.531688 95.2394 -0.726587 95.2394Z" fill="black"/>
</g>
<g opacity="0.1">
<path opacity="0.1" d="M9.76145 96.254C9.56655 96.254 9.37155 96.1797 9.22286 96.031C8.92539 95.7334 8.92539 95.2512 9.22286 94.9537L10.3453 93.8312C10.6428 93.5339 11.1251 93.5339 11.4226 93.8312C11.7201 94.1288 11.7201 94.611 11.4226 94.9085L10.3001 96.031C10.1513 96.1796 9.95635 96.254 9.76145 96.254Z" fill="black"/>
<path opacity="0.1" d="M16.4442 109.585C16.2492 109.585 16.0543 109.511 15.9055 109.362C15.608 109.064 15.608 108.582 15.9056 108.285L17.3997 106.791C17.6971 106.493 18.1795 106.493 18.4769 106.791C18.7744 107.088 18.7744 107.571 18.4768 107.868L16.9827 109.362C16.8341 109.511 16.6391 109.585 16.4442 109.585Z" fill="black"/>
</g>
<path d="M-8.33447 552.735V513.042V501.835V469.977C-8.33447 462.81 -2.52407 457 4.64288 457C11.812 457 17.6221 462.81 17.6221 469.977V552.735H-8.33447Z" fill="#F9E17A"/>
<path d="M29.3963 462.899C27.8489 462.899 26.4489 463.526 25.4343 464.541C24.4196 465.553 23.7926 466.955 23.7926 468.503V479.956L30.4396 481.187H23.7926H17.6223V492.395H23.7926H29.3963C32.4912 492.395 35.0001 489.886 35.0001 486.791V481.187V468.503C35.0003 465.408 32.4912 462.899 29.3963 462.899Z" fill="#E0C553"/>
<path d="M32.5624 555.121H-23.2747C-19.4646 552.034 -14.7094 550.349 -9.80551 550.349H19.0931C23.9974 550.349 28.7524 552.034 32.5624 555.121Z" fill="#F99C38"/>
<path d="M-4.10745 501.835H-15.6151L-16.7911 508.873V501.835V499.567V489.151C-16.7911 486.056 -19.3001 483.546 -22.3955 483.546C-25.4907 483.546 -28 486.056 -28 489.151V501.835V507.439C-28 510.534 -25.4907 513.043 -22.3955 513.043H-16.7911H-4.10745C-1.0123 513.043 1.49703 510.534 1.49703 507.439C1.49703 504.344 -1.01207 501.835 -4.10745 501.835Z" fill="#E0C553"/>
<path d="M0.262681 472.843C-0.052298 472.843 -0.357969 472.716 -0.582033 472.494C-0.804188 472.272 -0.93042 471.964 -0.93042 471.65C-0.93042 471.335 -0.804188 471.027 -0.582033 470.805C-0.357969 470.585 -0.052298 470.456 0.262681 470.456C0.575273 470.456 0.883094 470.585 1.10477 470.805C1.32908 471.027 1.45578 471.335 1.45578 471.65C1.45578 471.964 1.32931 472.272 1.10477 472.494C0.883094 472.716 0.57742 472.843 0.262681 472.843Z" fill="#E0C553"/>
<path d="M12.4324 469.979C12.1174 469.979 11.8096 469.853 11.5876 469.631C11.3655 469.409 11.2393 469.101 11.2393 468.786C11.2393 468.474 11.3655 468.166 11.5876 467.944C11.8096 467.722 12.1174 467.593 12.4324 467.593C12.745 467.593 13.0528 467.722 13.2745 467.944C13.4966 468.166 13.6255 468.474 13.6255 468.786C13.6255 469.101 13.4966 469.409 13.2745 469.631C13.0528 469.853 12.745 469.979 12.4324 469.979Z" fill="#E0C553"/>
<path d="M7.06322 485.728C6.74824 485.728 6.44042 485.599 6.2185 485.377C5.99635 485.155 5.87012 484.85 5.87012 484.535C5.87012 484.22 5.99635 483.912 6.2185 483.69C6.44042 483.468 6.74824 483.342 7.06322 483.342C7.37581 483.342 7.68363 483.468 7.90531 483.69C8.12746 483.912 8.25632 484.22 8.25632 484.535C8.25632 484.85 8.12746 485.155 7.90531 485.377C7.68363 485.599 7.37581 485.728 7.06322 485.728Z" fill="#E0C553"/>
<path d="M0.978501 490.739C0.663522 490.739 0.355704 490.61 0.133787 490.389C-0.088368 490.167 -0.2146 489.859 -0.2146 489.546C-0.2146 489.231 -0.088368 488.923 0.133787 488.701C0.355704 488.48 0.663522 488.353 0.978501 488.353C1.29109 488.353 1.59892 488.48 1.82322 488.701C2.04275 488.923 2.1716 489.231 2.1716 489.546C2.1716 489.859 2.04275 490.167 1.82322 490.389C1.59892 490.61 1.29324 490.739 0.978501 490.739Z" fill="#E0C553"/>
<path d="M8.13719 518.655C7.82221 518.655 7.5144 518.529 7.29248 518.307C7.07032 518.085 6.94409 517.777 6.94409 517.462C6.94409 517.147 7.07032 516.842 7.29248 516.62C7.5144 516.398 7.82221 516.269 8.13719 516.269C8.45193 516.269 8.75761 516.398 8.97928 516.62C9.20144 516.842 9.33029 517.147 9.33029 517.462C9.33029 517.777 9.20144 518.085 8.97928 518.307C8.75761 518.529 8.45193 518.655 8.13719 518.655Z" fill="#E0C553"/>
<path d="M8.12059 545.448C7.80561 545.448 7.49779 545.321 7.27588 545.099C7.05372 544.877 6.92749 544.57 6.92749 544.255C6.92749 543.94 7.05372 543.634 7.27588 543.412C7.49779 543.19 7.80561 543.061 8.12059 543.061C8.43533 543.061 8.741 543.19 8.96268 543.412C9.18484 543.634 9.31369 543.94 9.31369 544.255C9.31369 544.57 9.18484 544.877 8.96268 545.099C8.74077 545.321 8.43533 545.448 8.12059 545.448Z" fill="#E0C553"/>
<path d="M32.1157 474.632C31.8031 474.632 31.4953 474.506 31.2736 474.284C31.0515 474.062 30.9226 473.754 30.9226 473.439C30.9226 473.124 31.0515 472.819 31.2736 472.597C31.4955 472.373 31.8034 472.246 32.1157 472.246C32.4307 472.246 32.7385 472.373 32.9604 472.597C33.1826 472.819 33.3088 473.127 33.3088 473.439C33.3088 473.754 33.1826 474.062 32.9604 474.284C32.7387 474.506 32.4309 474.632 32.1157 474.632Z" fill="#F9E17A"/>
<path d="M28.7683 469.934C28.4557 469.934 28.1479 469.807 27.9262 469.586C27.7041 469.364 27.5752 469.056 27.5752 468.741C27.5752 468.426 27.7041 468.12 27.9262 467.899C28.1481 467.674 28.4559 467.548 28.7683 467.548C29.0833 467.548 29.3911 467.674 29.613 467.899C29.8352 468.12 29.9614 468.428 29.9614 468.741C29.9614 469.056 29.8352 469.364 29.613 469.586C29.3911 469.807 29.0833 469.934 28.7683 469.934Z" fill="#F9E17A"/>
<path d="M0.620591 534.762C0.305612 534.762 -0.00220615 534.633 -0.224123 534.411C-0.446278 534.19 -0.57251 533.882 -0.57251 533.569C-0.57251 533.254 -0.446278 532.946 -0.224123 532.724C-0.00220615 532.503 0.305612 532.376 0.620591 532.376C0.935331 532.376 1.241 532.503 1.46531 532.724C1.68722 532.949 1.81369 533.254 1.81369 533.569C1.81369 533.882 1.68722 534.19 1.46531 534.411C1.241 534.633 0.933183 534.762 0.620591 534.762Z" fill="#E0C553"/>
<path d="M5.98949 537.626C5.67451 537.626 5.36669 537.497 5.14477 537.275C4.92262 537.053 4.79639 536.748 4.79639 536.433C4.79639 536.118 4.92262 535.81 5.14477 535.588C5.36669 535.366 5.67451 535.239 5.98949 535.239C6.30423 535.239 6.6099 535.366 6.83158 535.588C7.05373 535.81 7.18259 536.118 7.18259 536.433C7.18259 536.745 7.05373 537.053 6.83158 537.275C6.61229 537.497 6.30423 537.626 5.98949 537.626Z" fill="#E0C553"/>
<path d="M0.262681 545.5C-0.052298 545.5 -0.357969 545.371 -0.582033 545.149C-0.804188 544.927 -0.93042 544.62 -0.93042 544.307C-0.93042 543.992 -0.804188 543.684 -0.582033 543.462C-0.357969 543.24 -0.052298 543.112 0.262681 543.112C0.57742 543.112 0.883094 543.24 1.10477 543.462C1.32908 543.684 1.45578 543.992 1.45578 544.307C1.45578 544.62 1.32931 544.927 1.10477 545.149C0.883094 545.371 0.57742 545.5 0.262681 545.5Z" fill="#E0C553"/>
<path fill-rule="evenodd" clip-rule="evenodd" d="M-4.39319 548.747L18.8119 558.983L11.9468 560.718L-2.65593 558.67L-11.187 558.563L-4.39319 548.747Z" fill="#A35F3F"/>
<path fill-rule="evenodd" clip-rule="evenodd" d="M13.4008 541.683L-4.39331 548.747L18.8118 558.983L33.891 555.168L26.8855 546.177L13.4008 541.683Z" fill="#C68659"/>
<path fill-rule="evenodd" clip-rule="evenodd" d="M40.2363 570.633L33.8909 555.167L11.9475 560.718L13.4016 578.696L40.2363 570.633Z" fill="#A35F3F"/>
<path fill-rule="evenodd" clip-rule="evenodd" d="M13.4016 578.696L0.976256 580.414L-8.67456 575.127L-2.6561 558.67L11.9475 560.718L13.4016 578.696Z" fill="#A66242"/>
</g>
<defs>
<clipPath id="clip0_147_117">
<rect width="390" height="844" fill="white"/>
</clipPath>
</defs>
</svg>
