<svg width="390" height="844" viewBox="0 0 390 844" fill="none" xmlns="http://www.w3.org/2000/svg">
<g clip-path="url(#clip0_147_117)">
<rect width="390" height="844" fill="#FFDEA4"/>
<rect x="45" width="300" height="844" fill="#756F6F"/>
<rect x="338.57" width="3.21429" height="844" fill="white"/>
<rect x="189.644" width="3.21429" height="844" fill="#EFA66F"/>
<rect x="266.785" y="91.4421" width="3.21429" height="21.0212" fill="white"/>
<rect x="266.785" y="121.923" width="3.21429" height="21.0212" fill="white"/>
<rect x="266.785" y="152.404" width="3.21429" height="21.0212" fill="white"/>
<rect x="266.785" width="3.21429" height="21.0212" fill="white"/>
<rect x="266.785" y="30.4807" width="3.21429" height="21.0212" fill="white"/>
<rect x="266.785" y="60.9614" width="3.21429" height="21.0212" fill="white"/>
<rect x="266.785" y="274.326" width="3.21429" height="21.0212" fill="white"/>
<rect x="266.785" y="304.807" width="3.21429" height="21.0212" fill="white"/>
<rect x="266.785" y="335.288" width="3.21429" height="21.0212" fill="white"/>
<rect x="266.785" y="182.884" width="3.21429" height="21.0212" fill="white"/>
<rect x="266.785" y="213.365" width="3.21429" height="21.0212" fill="white"/>
<rect x="266.785" y="243.846" width="3.21429" height="21.0212" fill="white"/>
<rect x="266.785" y="487.691" width="3.21429" height="21.0212" fill="white"/>
<rect x="266.785" y="518.172" width="3.21429" height="21.0212" fill="white"/>
<rect x="266.785" y="548.653" width="3.21429" height="21.0212" fill="white"/>
<rect x="266.785" y="579.133" width="3.21429" height="21.0212" fill="white"/>
<rect x="266.785" y="396.249" width="3.21429" height="21.0212" fill="white"/>
<rect x="266.785" y="365.768" width="3.21429" height="21.0212" fill="white"/>
<rect x="266.785" y="426.73" width="3.21429" height="21.0212" fill="white"/>
<rect x="266.785" y="457.21" width="3.21429" height="21.0212" fill="white"/>
<rect x="266.785" y="701.056" width="3.21429" height="21.0212" fill="white"/>
<rect x="266.785" y="731.537" width="3.21429" height="21.0212" fill="white"/>
<rect x="266.785" y="762.017" width="3.21429" height="21.0212" fill="white"/>
<rect x="266.785" y="792.498" width="3.21429" height="21.0212" fill="white"/>
<rect x="266.785" y="822.979" width="3.21429" height="21.0212" fill="white"/>
<rect x="266.785" y="609.614" width="3.21429" height="21.0212" fill="white"/>
<rect x="266.785" y="640.095" width="3.21429" height="21.0212" fill="white"/>
<rect x="266.785" y="670.575" width="3.21429" height="21.0212" fill="white"/>
<rect x="118.927" y="91.4421" width="3.21429" height="21.0212" fill="white"/>
<rect x="118.927" y="121.923" width="3.21429" height="21.0212" fill="white"/>
<rect x="118.927" y="152.404" width="3.21429" height="21.0212" fill="white"/>
<rect x="118.927" width="3.21429" height="21.0212" fill="white"/>
<rect x="118.927" y="30.4807" width="3.21429" height="21.0212" fill="white"/>
<rect x="118.927" y="60.9614" width="3.21429" height="21.0212" fill="white"/>
<rect x="118.927" y="274.326" width="3.21429" height="21.0212" fill="white"/>
<rect x="118.927" y="304.807" width="3.21429" height="21.0212" fill="white"/>
<rect x="118.927" y="335.288" width="3.21429" height="21.0212" fill="white"/>
<rect x="118.927" y="182.884" width="3.21429" height="21.0212" fill="white"/>
<rect x="118.927" y="213.365" width="3.21429" height="21.0212" fill="white"/>
<rect x="118.927" y="243.846" width="3.21429" height="21.0212" fill="white"/>
<rect x="118.927" y="487.691" width="3.21429" height="21.0212" fill="white"/>
<rect x="118.927" y="518.172" width="3.21429" height="21.0212" fill="white"/>
<rect x="118.927" y="548.653" width="3.21429" height="21.0212" fill="white"/>
<rect x="118.927" y="579.133" width="3.21429" height="21.0212" fill="white"/>
<rect x="118.927" y="396.249" width="3.21429" height="21.0212" fill="white"/>
<rect x="118.927" y="365.768" width="3.21429" height="21.0212" fill="white"/>
<rect x="118.927" y="426.73" width="3.21429" height="21.0212" fill="white"/>
<rect x="118.927" y="457.21" width="3.21429" height="21.0212" fill="white"/>
<rect x="118.927" y="701.056" width="3.21429" height="21.0212" fill="white"/>
<rect x="118.927" y="731.537" width="3.21429" height="21.0212" fill="white"/>
<rect x="118.927" y="762.017" width="3.21429" height="21.0212" fill="white"/>
<rect x="118.927" y="792.498" width="3.21429" height="21.0212" fill="white"/>
<rect x="118.927" y="822.979" width="3.21429" height="21.0212" fill="white"/>
<rect x="118.927" y="609.614" width="3.21429" height="21.0212" fill="white"/>
<rect x="118.927" y="640.095" width="3.21429" height="21.0212" fill="white"/>
<rect x="118.927" y="670.575" width="3.21429" height="21.0212" fill="white"/>
<rect x="196.073" width="3.21429" height="844" fill="#EFA66F"/>
<rect x="48.2148" width="3.21429" height="844" fill="white"/>
<path fill-rule="evenodd" clip-rule="evenodd" d="M371.48 692.775L385.111 692.926L403.291 706.035L420.461 728.792H411.034L385.953 714.956L367.942 700.026L371.48 692.775Z" fill="#C68659"/>
<path fill-rule="evenodd" clip-rule="evenodd" d="M365.753 715.137L367.942 700.026L385.953 714.956L411.034 728.792L410.529 732.98L365.753 715.137Z" fill="#C07A49"/>
<path fill-rule="evenodd" clip-rule="evenodd" d="M365.753 715.137L359.946 716.959L357.084 724.878L403.544 733.344L410.529 732.98L365.753 715.137Z" fill="#B46D49"/>
<path fill-rule="evenodd" clip-rule="evenodd" d="M358.347 731.251L357 728.156L357.084 724.878L403.544 733.344L377.958 732.343L358.347 731.251Z" fill="#C07A49"/>
<path fill-rule="evenodd" clip-rule="evenodd" d="M366.271 692L364.384 702.692C365.379 703.97 366.239 705.362 366.956 706.827L367.942 700.027L368.379 699.131L366.271 692Z" fill="#457E3B"/>
<path fill-rule="evenodd" clip-rule="evenodd" d="M366.956 706.827C364.848 702.514 361.497 698.826 357.084 696.856C361.271 702.446 362.615 708.353 362.849 716.048L365.753 715.137L366.956 706.827Z" fill="#61AB52"/>
<path d="M14.3168 484.31C13.9472 484.31 13.5812 484.148 13.3331 483.836C12.902 483.293 12.9926 482.504 13.5352 482.073L16.4976 479.72C17.0406 479.289 17.8297 479.379 18.2611 479.922C18.6923 480.465 18.6016 481.254 18.059 481.685L15.0966 484.038C14.8656 484.221 14.5903 484.31 14.3168 484.31Z" fill="#FFD77D"/>
<path d="M18.2827 488.735C18.2784 488.735 18.274 488.735 18.2697 488.735L15.27 488.704C14.5768 488.697 14.0208 488.13 14.0277 487.437C14.0347 486.748 14.5952 486.194 15.2825 486.194C15.2868 486.194 15.2911 486.194 15.2953 486.194L18.2952 486.225C18.9883 486.232 19.5444 486.799 19.5375 487.492C19.5305 488.181 18.9699 488.735 18.2827 488.735Z" fill="#FFD77D"/>
<path d="M29.7896 509.825C29.4685 509.825 29.1472 509.702 28.902 509.457C28.4119 508.967 28.4119 508.172 28.902 507.682L31.1832 505.401C31.6736 504.911 32.4682 504.911 32.9583 505.401C33.4483 505.891 33.4483 506.686 32.9583 507.176L30.677 509.457C30.432 509.702 30.1107 509.825 29.7896 509.825Z" fill="#FFD77D"/>
<path d="M27.2313 509.034C27.133 509.034 27.0329 509.022 26.9331 508.998C26.2597 508.834 25.8469 508.155 26.0111 507.481L26.7313 504.527C26.8953 503.854 27.5741 503.441 28.248 503.605C28.9215 503.77 29.3342 504.449 29.17 505.122L28.4498 508.076C28.3098 508.649 27.7964 509.034 27.2313 509.034Z" fill="#FFD77D"/>
<path d="M0.293346 511.756H-7.98945C-15.4917 511.756 -21.5947 505.651 -21.5947 498.149V484.196C-21.5947 481.43 -19.3522 479.186 -16.5844 479.186C-13.8166 479.186 -11.5741 481.43 -11.5741 484.196V498.149C-11.5741 500.126 -9.96594 501.734 -7.98945 501.734H0.293346" fill="#96C133"/>
<path d="M8.82764 536.427H19.4503C26.2413 536.427 31.767 530.901 31.767 524.11V511.478C31.767 508.973 29.7354 506.942 27.2302 506.942C24.7251 506.942 22.6935 508.973 22.6935 511.478V524.11C22.6935 525.899 21.2393 527.355 19.4503 527.355H8.82764" fill="#96C133"/>
<path d="M29.0209 507.31C27.4043 508.003 26.2731 509.609 26.2731 511.478V524.11C26.2731 525.899 24.8189 527.355 23.0299 527.355H19.4504C21.2394 527.355 22.6936 525.899 22.6936 524.11V511.478C22.6936 508.973 24.7252 506.942 27.2303 506.942C27.8663 506.942 28.472 507.072 29.0209 507.31Z" fill="#499421"/>
<path d="M16.1201 548.352V487.449C16.1201 481.679 11.441 477 5.66929 477C-0.100821 477 -4.77979 481.679 -4.77979 487.449V548.35" fill="#96C133"/>
<path d="M5.66929 477C3.04529 477.002 0.920016 481.681 0.920016 487.449V548.35H-4.77979V487.449C-4.77995 481.679 -0.100821 477 5.66929 477Z" fill="#96C133"/>
<path d="M39.3403 559H-28C-20.5933 552.03 -8.27484 547.47 5.67013 547.47C8.19868 547.47 10.6737 547.62 13.0753 547.908C23.9211 549.204 33.2774 553.293 39.3403 559Z" fill="#FFCB47"/>
<path d="M39.3402 559H-13.1899C-7.12691 553.293 2.22942 549.204 13.0752 547.908C23.921 549.204 33.2773 553.293 39.3402 559Z" fill="#FFCB47"/>
<path d="M5.86048 510.933C5.71923 510.933 5.57589 510.909 5.43543 510.859C4.78327 510.624 4.4447 509.905 4.67949 509.253L5.68351 506.464C5.9183 505.811 6.63788 505.473 7.28956 505.708C7.94172 505.943 8.28029 506.662 8.0455 507.314L7.04147 510.103C6.8573 510.615 6.37475 510.933 5.86048 510.933Z" fill="#FFD77D"/>
<path d="M3.40664 491.791C3.25561 491.791 3.10202 491.764 2.9526 491.706C2.30653 491.455 1.98621 490.728 2.23702 490.082L3.15743 487.711C3.40808 487.065 4.13487 486.744 4.78174 486.995C5.42781 487.246 5.74812 487.973 5.49732 488.619L4.5769 490.99C4.38407 491.487 3.90953 491.791 3.40664 491.791Z" fill="#FFD77D"/>
<path d="M8.30409 530.064C8.16283 530.064 8.01949 530.04 7.87903 529.99C7.22688 529.755 6.88831 529.036 7.12309 528.384L8.12712 525.595C8.36174 524.942 9.08116 524.604 9.73316 524.839C10.3853 525.074 10.7239 525.793 10.4891 526.445L9.48508 529.234C9.3009 529.745 8.81851 530.064 8.30409 530.064Z" fill="#FFD77D"/>
<path d="M2.84785 510.487C2.30156 510.487 1.79915 510.128 1.64172 509.576L0.972264 507.233C0.781678 506.567 1.16765 505.872 1.83406 505.682C2.49999 505.491 3.19523 505.877 3.3855 506.544L4.05495 508.887C4.24553 509.553 3.85956 510.248 3.19315 510.438C3.07816 510.471 2.96204 510.487 2.84785 510.487Z" fill="#FFD77D"/>
<path d="M0.170119 491.856C-0.376174 491.856 -0.878583 491.497 -1.03602 490.945L-1.70547 488.602C-1.89606 487.936 -1.51008 487.241 -0.843671 487.051C-0.177741 486.86 0.517499 487.246 0.707765 487.913L1.37722 490.256C1.5678 490.922 1.18183 491.617 0.515417 491.807C0.400424 491.84 0.28447 491.856 0.170119 491.856Z" fill="#FFD77D"/>
<path d="M393.686 359.513C395.371 358.164 395.772 355.806 394.716 353.996L400.345 349.49C400.516 349.354 400.593 349.132 400.545 348.919L400.415 348.351C400.375 348.172 400.514 348.003 400.698 348.009L401.926 348.05C402.062 348.054 402.195 348.01 402.301 347.925L408.887 342.654C409.133 342.458 409.172 342.1 408.976 341.854L406.545 338.816C406.367 338.593 406.05 338.537 405.806 338.685L403.468 340.099C403.036 340.361 402.583 339.795 402.933 339.43L404.825 337.459C405.022 337.253 405.037 336.932 404.858 336.708L404.259 335.96C404.062 335.714 403.704 335.674 403.458 335.871L394.91 342.712L394.097 343.363L389.287 347.213C387.752 345.787 385.364 345.66 383.679 347.009C381.83 348.489 381.533 351.221 383.021 353.064C384.01 354.29 385.536 354.829 386.99 354.616C386.464 355.989 386.655 357.595 387.634 358.828C387.89 359.152 388.184 359.427 388.505 359.655C388.73 359.815 388.968 359.951 389.215 360.063C390.644 360.71 392.384 360.555 393.686 359.513V359.513Z" fill="#FBDBB7"/>
<path d="M389.215 360.063L391.219 358.486C391.3 358.421 391.352 358.326 391.364 358.223L391.419 357.719L392.628 357.853C392.843 357.877 393.037 357.722 393.061 357.507C393.085 357.291 392.93 357.097 392.715 357.074L391.506 356.939L391.564 356.412C391.588 356.197 391.433 356.003 391.218 355.979C391.002 355.955 390.809 356.111 390.785 356.326L390.602 357.975L388.505 359.656C388.73 359.815 388.968 359.951 389.215 360.063V360.063Z" fill="#F4BC8E"/>
<path d="M393.686 359.513C395.371 358.164 395.771 355.806 394.715 353.996L400.345 349.49C400.516 349.354 400.593 349.132 400.545 348.919L400.415 348.351C400.375 348.172 400.514 348.003 400.698 348.009L401.926 348.05C402.062 348.054 402.195 348.01 402.301 347.925L408.887 342.654C409.133 342.458 409.172 342.099 408.976 341.854L406.233 338.426L407.849 340.446L393.725 351.75C393.452 351.968 393.357 352.34 393.49 352.662C394.101 354.139 393.842 355.859 392.792 357.09L392.792 357.09C392.617 357.295 392.421 357.486 392.203 357.66C392.148 357.704 392.092 357.746 392.036 357.787C391.822 357.942 391.598 358.075 391.368 358.185C390.878 358.419 390.358 358.553 389.833 358.591C388.851 358.662 387.856 358.396 387.033 357.813C387.185 358.175 387.388 358.521 387.646 358.843C389.129 360.695 391.833 360.995 393.686 359.513V359.513Z" fill="#F4BC8E"/>
<path d="M385.755 351.567C385.166 351.502 384.766 350.75 384.861 349.888C384.957 349.026 385.512 348.381 386.102 348.446C386.691 348.511 387.091 349.263 386.996 350.125C386.9 350.987 386.345 351.633 385.755 351.567V351.567Z" fill="#F4BC8E"/>
<path d="M386.996 350.125C387.092 349.263 386.691 348.511 386.102 348.446C385.946 348.429 385.794 348.461 385.651 348.533C385.997 348.817 386.196 349.393 386.125 350.028C386.055 350.664 385.735 351.182 385.335 351.384C385.458 351.485 385.6 351.55 385.755 351.567C386.345 351.633 386.9 350.987 386.996 350.125Z" fill="#EFA66F"/>
<path d="M389.197 350.872C389.197 350.871 389.198 350.87 389.198 350.869L389.198 350.863C389.22 350.647 389.064 350.455 388.848 350.433C388.634 350.411 388.442 350.566 388.418 350.78L388.418 350.783L388.417 350.789C388.395 351.004 388.552 351.197 388.768 351.219C388.982 351.241 389.174 351.086 389.197 350.872V350.872Z" fill="#EFA66F"/>
<path d="M388.592 352L388.593 351.994C388.617 351.778 388.461 351.585 388.246 351.561C388.031 351.537 387.837 351.692 387.813 351.907L387.812 351.913C387.788 352.128 387.944 352.322 388.159 352.346C388.374 352.37 388.568 352.215 388.592 352Z" fill="#EFA66F"/>
<path d="M389.215 360.063L391.219 358.486C391.3 358.421 391.352 358.326 391.364 358.223L391.368 358.185C390.878 358.419 390.358 358.553 389.833 358.591L388.505 359.656C388.73 359.815 388.968 359.951 389.215 360.063Z" fill="#EFA66F"/>
<path d="M373.361 342.242C373.848 342.209 374.217 341.786 374.184 341.298L374.081 339.778C374.048 339.29 373.626 338.921 373.138 338.954C372.65 338.987 372.281 339.41 372.314 339.898L372.417 341.418C372.45 341.906 372.872 342.275 373.361 342.242Z" fill="#EFA66F"/>
<path d="M371.337 345.299C371.825 345.266 372.194 344.844 372.161 344.356L372.058 342.836C372.025 342.347 371.602 341.979 371.115 342.012C370.627 342.045 370.258 342.467 370.291 342.955L370.394 344.475C370.427 344.964 370.849 345.332 371.337 345.299V345.299Z" fill="#EFA66F"/>
<path d="M368.841 342.547C369.329 342.514 369.698 342.092 369.665 341.604L369.562 340.084C369.529 339.595 369.106 339.227 368.619 339.26C368.131 339.293 367.762 339.715 367.795 340.203L367.897 341.723C367.93 342.212 368.353 342.58 368.841 342.547Z" fill="#EFA66F"/>
<path d="M366.817 345.605C367.305 345.572 367.674 345.149 367.641 344.661L367.538 343.141C367.505 342.653 367.083 342.284 366.595 342.317C366.107 342.35 365.738 342.773 365.771 343.261L365.874 344.781C365.907 345.269 366.329 345.638 366.817 345.605V345.605Z" fill="#EFA66F"/>
<path d="M364.321 342.853C364.81 342.82 365.178 342.397 365.145 341.909L365.042 340.389C365.009 339.901 364.587 339.532 364.099 339.565C363.611 339.598 363.242 340.021 363.275 340.509L363.378 342.029C363.411 342.517 363.833 342.886 364.321 342.853Z" fill="#EFA66F"/>
<path d="M362.298 345.91C362.786 345.877 363.155 345.455 363.122 344.967L363.019 343.447C362.986 342.958 362.564 342.59 362.076 342.623C361.588 342.656 361.219 343.078 361.252 343.566L361.355 345.086C361.388 345.575 361.81 345.943 362.298 345.91V345.91Z" fill="#EFA66F"/>
<path d="M359.921 343.15C360.409 343.117 360.778 342.695 360.745 342.207L360.642 340.687C360.609 340.198 360.186 339.83 359.699 339.863C359.211 339.896 358.842 340.318 358.875 340.806L358.978 342.326C359.011 342.815 359.433 343.183 359.921 343.15Z" fill="#EFA66F"/>
<path d="M357.897 346.208C358.385 346.175 358.754 345.752 358.721 345.264L358.618 343.744C358.585 343.256 358.163 342.887 357.675 342.92C357.187 342.953 356.819 343.376 356.852 343.864L356.954 345.384C356.987 345.872 357.409 346.241 357.897 346.208V346.208Z" fill="#EFA66F"/>
<path d="M355.662 346.269C357.863 348.243 360.134 349.496 361.208 350.032C361.593 350.223 362.044 350.239 362.44 350.071C371.196 346.369 380.807 346.491 386.962 347.146C390.662 347.539 394.061 345.079 394.833 341.44L395.577 336.677C395.738 335.918 395.189 335.188 394.415 335.142C393.505 335.09 392.799 335.494 392.389 335.815C392.306 335.88 392.219 335.938 392.13 335.991C391.877 336.138 391.597 336.236 391.304 336.273L377.813 337.98L376.811 341.264L376.718 341.568C376.263 342.879 375.085 343.804 373.703 343.934L359.43 345.279C358.12 345.368 356.982 345.317 356.113 345.23C355.539 345.173 355.232 345.884 355.662 346.269V346.269Z" fill="#F4BC8E"/>
<path d="M376.811 341.264L380.541 341.012C381.47 340.949 382.306 340.565 382.938 339.963L385.323 342.586C386.037 343.372 387.051 343.782 388.102 343.711C389.743 343.6 391.056 342.391 391.298 340.771L391.889 336.812C391.961 336.5 392.042 336.228 392.13 335.991C391.877 336.138 391.597 336.236 391.304 336.272L377.814 337.98L376.811 341.264Z" fill="#EFA66F"/>
<path d="M354.249 341.355L380.444 339.584C381.576 339.508 382.497 338.658 382.672 337.545L386.38 341.624C387.53 342.888 389.632 342.25 389.883 340.56L390.482 336.548C391.486 332.06 394.643 332.787 396.054 333.366C396.545 333.569 397.101 333.543 397.579 333.313C397.815 333.199 398.047 333.085 398.275 332.971C399.139 332.538 399.948 332.101 400.702 331.658C414.098 323.811 410.651 314.702 407.123 309.718C406.35 308.625 404.637 309.283 404.776 310.616C405.158 314.253 404.471 316.932 403.196 318.902C403.069 319.098 403.068 319.35 403.197 319.545L403.627 320.206C403.898 320.622 403.566 321.166 403.072 321.116L401.663 320.969C401.503 320.953 401.346 321.004 401.222 321.105C396.416 325.061 388.58 324.22 388.58 324.22C386.221 323.782 384.057 320.94 384.057 320.94C377.853 313.199 372.175 310.595 368.301 309.826C367.265 309.62 366.707 311 367.6 311.565C372.213 314.48 374.907 319.98 376.029 322.749C376.436 323.753 376.134 324.909 375.284 325.585C373.645 326.891 370.794 328.889 368.253 329.297L363.278 329.285C362.155 329.282 361.131 329.923 360.642 330.932L359.533 333.222C359.533 333.222 354.11 333.18 352.994 339.963C352.868 340.726 353.478 341.408 354.249 341.355V341.355Z" fill="#FBDBB7"/>
<path d="M378.762 327.217C379.376 325.967 380.747 325.382 381.825 325.911C382.904 326.44 383.281 327.883 382.668 329.133C382.054 330.383 380.683 330.968 379.604 330.439C378.526 329.91 378.149 328.467 378.762 327.217Z" fill="#F4BC8E"/>
<path d="M378.512 328.939C378.636 329.591 379.015 330.152 379.603 330.44C380.682 330.969 382.054 330.384 382.667 329.133C383.274 327.897 382.911 326.472 381.859 325.931C381.964 326.475 381.89 327.083 381.611 327.652C380.998 328.902 379.626 329.487 378.547 328.958C378.536 328.953 378.524 328.946 378.512 328.939V328.939Z" fill="#EFA66F"/>
<path d="M360.615 337.611L363.366 337.856C365.152 338.015 366.896 337.14 367.767 335.573C367.987 335.176 368.157 334.736 368.236 334.258C368.354 333.546 367.887 332.861 367.183 332.699C365.762 332.373 363.499 332.634 362.759 334.398C362.463 335.106 361.934 335.688 361.247 336.031C360.878 336.215 360.507 336.453 360.252 336.746C359.972 337.068 360.19 337.574 360.615 337.611Z" fill="#F4BC8E"/>
<path d="M360.615 337.612L363.366 337.856C365.152 338.016 366.896 337.14 367.767 335.573C367.988 335.176 368.158 334.736 368.236 334.258C368.334 333.659 368.019 333.078 367.496 332.813C367.406 333.222 367.253 333.602 367.06 333.948C366.189 335.516 364.445 336.391 362.659 336.231L361.124 336.095C360.798 336.268 360.478 336.486 360.252 336.746C359.972 337.069 360.19 337.574 360.615 337.612V337.612Z" fill="#EFA66F"/>
<path d="M374.714 337.078C375.202 337.045 375.572 336.623 375.539 336.135C375.506 335.646 375.087 335.278 374.598 335.311L374.594 335.311C374.106 335.344 373.737 335.766 373.77 336.254C373.803 336.742 374.226 337.111 374.714 337.078Z" fill="#EFA66F"/>
<path d="M3.67993 209.936V172.233V161.587V131.327C3.67993 124.519 9.19909 119 16.0068 119C22.8166 119 28.3355 124.519 28.3355 131.327V209.936H3.67993Z" fill="#F9E17A"/>
<path d="M39.5193 124.603C38.0494 124.603 36.7196 125.199 35.7558 126.163C34.7921 127.125 34.1964 128.456 34.1964 129.926V140.805L40.5102 141.975H34.1964H28.3354V152.621H34.1964H39.5193C42.459 152.621 44.8421 150.238 44.8421 147.298V141.975V129.926C44.8424 126.986 42.459 124.603 39.5193 124.603Z" fill="#E0C553"/>
<path d="M42.5268 212.203H-10.5115C-6.8924 209.27 -2.37554 207.67 2.28254 207.67H29.7326C34.3911 207.67 38.9077 209.27 42.5268 212.203Z" fill="#F99C38"/>
<path d="M7.69495 161.587H-3.23593L-4.3529 168.273V161.587V159.434V149.539C-4.3529 146.599 -6.73623 144.216 -9.67645 144.216C-12.6165 144.216 -15 146.599 -15 149.539V161.587V166.911C-15 169.851 -12.6165 172.234 -9.67645 172.234H-4.3529H7.69495C10.6349 172.234 13.0185 169.851 13.0185 166.911C13.0185 163.971 10.6352 161.587 7.69495 161.587Z" fill="#E0C553"/>
<path d="M11.8459 134.049C11.5468 134.049 11.2564 133.928 11.0436 133.718C10.8326 133.507 10.7126 133.214 10.7126 132.915C10.7126 132.616 10.8326 132.324 11.0436 132.113C11.2564 131.904 11.5468 131.782 11.8459 131.782C12.1429 131.782 12.4353 131.904 12.6458 132.113C12.8589 132.324 12.9792 132.616 12.9792 132.915C12.9792 133.214 12.8591 133.507 12.6458 133.718C12.4353 133.928 12.1449 134.049 11.8459 134.049Z" fill="#E0C553"/>
<path d="M23.4055 131.329C23.1063 131.329 22.8139 131.209 22.6031 130.998C22.3921 130.787 22.2722 130.495 22.2722 130.195C22.2722 129.898 22.3921 129.606 22.6031 129.395C22.8139 129.184 23.1063 129.062 23.4055 129.062C23.7024 129.062 23.9948 129.184 24.2054 129.395C24.4164 129.606 24.5388 129.898 24.5388 130.195C24.5388 130.495 24.4164 130.787 24.2054 130.998C23.9948 131.209 23.7024 131.329 23.4055 131.329Z" fill="#E0C553"/>
<path d="M18.3057 146.288C18.0065 146.288 17.7141 146.166 17.5033 145.955C17.2923 145.744 17.1724 145.454 17.1724 145.155C17.1724 144.856 17.2923 144.563 17.5033 144.353C17.7141 144.142 18.0065 144.022 18.3057 144.022C18.6026 144.022 18.895 144.142 19.1055 144.353C19.3166 144.563 19.439 144.856 19.439 145.155C19.439 145.454 19.3166 145.744 19.1055 145.955C18.895 146.166 18.6026 146.288 18.3057 146.288Z" fill="#E0C553"/>
<path d="M12.5259 151.048C12.2267 151.048 11.9343 150.926 11.7235 150.715C11.5125 150.504 11.3926 150.212 11.3926 149.915C11.3926 149.616 11.5125 149.323 11.7235 149.112C11.9343 148.902 12.2267 148.781 12.5259 148.781C12.8228 148.781 13.1152 148.902 13.3283 149.112C13.5368 149.323 13.6592 149.616 13.6592 149.915C13.6592 150.212 13.5368 150.504 13.3283 150.715C13.1152 150.926 12.8248 151.048 12.5259 151.048Z" fill="#E0C553"/>
<path d="M19.3257 177.565C19.0265 177.565 18.7341 177.445 18.5233 177.234C18.3123 177.023 18.1924 176.731 18.1924 176.432C18.1924 176.132 18.3123 175.842 18.5233 175.632C18.7341 175.421 19.0265 175.298 19.3257 175.298C19.6246 175.298 19.915 175.421 20.1256 175.632C20.3366 175.842 20.459 176.132 20.459 176.432C20.459 176.731 20.3366 177.023 20.1256 177.234C19.915 177.445 19.6246 177.565 19.3257 177.565Z" fill="#E0C553"/>
<path d="M19.3101 203.014C19.0109 203.014 18.7185 202.894 18.5077 202.683C18.2967 202.472 18.1768 202.18 18.1768 201.881C18.1768 201.582 18.2967 201.292 18.5077 201.081C18.7185 200.87 19.0109 200.748 19.3101 200.748C19.609 200.748 19.8994 200.87 20.1099 201.081C20.321 201.292 20.4434 201.582 20.4434 201.881C20.4434 202.18 20.321 202.472 20.1099 202.683C19.8991 202.894 19.609 203.014 19.3101 203.014Z" fill="#E0C553"/>
<path d="M1.41974 169.924C1.12055 169.924 0.828162 169.802 0.617369 169.591C0.406576 169.38 0.28418 169.088 0.28418 168.791C0.28418 168.492 0.406576 168.199 0.617369 167.989C0.828162 167.778 1.12055 167.658 1.41974 167.658C1.71667 167.658 2.00906 167.778 2.21985 167.989C2.43064 168.199 2.55304 168.492 2.55304 168.791C2.55304 169.088 2.43064 169.38 2.21985 169.591C2.00906 169.802 1.71667 169.924 1.41974 169.924Z" fill="#F9E17A"/>
<path d="M42.1025 135.749C41.8056 135.749 41.5132 135.628 41.3026 135.418C41.0916 135.207 40.9692 134.914 40.9692 134.615C40.9692 134.316 41.0916 134.026 41.3026 133.815C41.5134 133.602 41.8058 133.482 42.1025 133.482C42.4017 133.482 42.6941 133.602 42.9049 133.815C43.1159 134.026 43.2358 134.318 43.2358 134.615C43.2358 134.914 43.1159 135.207 42.9049 135.418C42.6943 135.628 42.402 135.749 42.1025 135.749Z" fill="#F9E17A"/>
<path d="M38.9226 131.286C38.6257 131.286 38.3333 131.166 38.1227 130.955C37.9117 130.744 37.7893 130.452 37.7893 130.152C37.7893 129.853 37.9117 129.563 38.1227 129.352C38.3335 129.139 38.6259 129.019 38.9226 129.019C39.2218 129.019 39.5142 129.139 39.725 129.352C39.936 129.563 40.0559 129.855 40.0559 130.152C40.0559 130.452 39.936 130.744 39.725 130.955C39.5142 131.166 39.2218 131.286 38.9226 131.286Z" fill="#F9E17A"/>
<path d="M12.186 192.864C11.8868 192.864 11.5945 192.742 11.3837 192.531C11.1726 192.32 11.0527 192.028 11.0527 191.731C11.0527 191.432 11.1726 191.14 11.3837 190.929C11.5945 190.718 11.8868 190.598 12.186 190.598C12.485 190.598 12.7753 190.718 12.9884 190.929C13.1992 191.142 13.3193 191.432 13.3193 191.731C13.3193 192.028 13.1992 192.32 12.9884 192.531C12.7753 192.742 12.483 192.864 12.186 192.864Z" fill="#E0C553"/>
<path d="M17.2859 195.584C16.9867 195.584 16.6943 195.462 16.4835 195.251C16.2725 195.04 16.1526 194.75 16.1526 194.451C16.1526 194.152 16.2725 193.859 16.4835 193.649C16.6943 193.438 16.9867 193.318 17.2859 193.318C17.5848 193.318 17.8752 193.438 18.0858 193.649C18.2968 193.859 18.4192 194.152 18.4192 194.451C18.4192 194.748 18.2968 195.04 18.0858 195.251C17.8775 195.462 17.5848 195.584 17.2859 195.584Z" fill="#E0C553"/>
<path d="M6.61718 198.937C6.31799 198.937 6.0256 198.814 5.81481 198.603C5.60379 198.393 5.48389 198.103 5.48389 197.803C5.48389 197.504 5.60379 197.212 5.81481 197.001C6.0256 196.79 6.31799 196.67 6.61718 196.67C6.91615 196.67 7.2065 196.79 7.41707 197.001C7.62809 197.212 7.75048 197.504 7.75048 197.803C7.75048 198.1 7.62809 198.393 7.41707 198.603C7.20854 198.814 6.91615 198.937 6.61718 198.937Z" fill="#E0C553"/>
<path d="M11.8459 203.064C11.5468 203.064 11.2564 202.942 11.0436 202.731C10.8326 202.52 10.7126 202.228 10.7126 201.931C10.7126 201.632 10.8326 201.339 11.0436 201.128C11.2564 200.918 11.5468 200.795 11.8459 200.795C12.1449 200.795 12.4353 200.918 12.6458 201.128C12.8589 201.339 12.9792 201.632 12.9792 201.931C12.9792 202.228 12.8591 202.52 12.6458 202.731C12.4353 202.942 12.1449 203.064 11.8459 203.064Z" fill="#E0C553"/>
<path fill-rule="evenodd" clip-rule="evenodd" d="M1.84787 190L0.348877 199.069L3.21574 198.278L1.84787 190Z" fill="#457E3B"/>
<path fill-rule="evenodd" clip-rule="evenodd" d="M-6.79932 204.058L15.1996 213.296L25.768 208.834L32.5792 201.24L13.4772 195.447L-2.41507 199.831L-6.79932 204.058Z" fill="#C68659"/>
<path fill-rule="evenodd" clip-rule="evenodd" d="M32.5792 201.241L38.7111 207.961L25.7686 208.833L32.5792 201.241Z" fill="#B0764E"/>
<path fill-rule="evenodd" clip-rule="evenodd" d="M15.1997 213.296L15.9836 225.978L25.065 226.291L29.7621 224.568L25.7682 208.834L15.1997 213.296Z" fill="#B0764E"/>
<path fill-rule="evenodd" clip-rule="evenodd" d="M38.7111 207.961L38.3056 223.957L29.763 224.569L25.7686 208.833L38.7111 207.961Z" fill="#B0764E"/>
<path fill-rule="evenodd" clip-rule="evenodd" d="M-6.79977 204.058L-8.9895 212.435L2.20495 219.714L2.47485 225.796L15.983 225.978L15.1994 213.297L-6.79977 204.058Z" fill="#B0764E"/>
<path fill-rule="evenodd" clip-rule="evenodd" d="M-13.0608 217.21L-2.80523 219.872L2.20527 219.715L-8.9899 212.435L-13.0608 217.21Z" fill="#C68659"/>
<path fill-rule="evenodd" clip-rule="evenodd" d="M-14 224.1L-13.0613 217.209L-2.8053 219.871L2.20472 219.714L2.47629 225.796L-6.84562 226.046L-14 224.1Z" fill="#B0764E"/>
</g>
<defs>
<clipPath id="clip0_147_117">
<rect width="390" height="844" fill="white"/>
</clipPath>
</defs>
</svg>
