<svg width="55" height="54" viewBox="0 0 55 54" fill="none" xmlns="http://www.w3.org/2000/svg">
<path d="M52.6551 29.4133L50.4023 28.6917C49.8632 28.5191 49.4445 28.0934 49.2746 27.5535C46.6822 19.3097 37.0556 15.5239 27.3659 15.5239C16.0294 15.5239 6.83936 20.7043 6.83936 32.1444C6.83936 38.7377 10.0732 43.3558 15.0695 46.023C15.1924 46.0886 15.2799 46.2052 15.3062 46.3419L16.4256 52.156C16.5292 52.7038 17.0079 53.1003 17.5653 53.1003H21.3452C21.9026 53.1003 22.3813 52.7038 22.4849 52.156L23.0968 48.9236C23.1419 48.6851 23.3642 48.5244 23.6052 48.5524C24.8244 48.694 26.0812 48.765 27.3657 48.765C29.0827 48.765 30.7974 48.6383 32.4717 48.3852C32.7177 48.348 32.9496 48.5098 32.9959 48.7543L33.6398 52.1561C33.7435 52.7039 34.2222 53.1004 34.7796 53.1004H38.5594C39.1168 53.1004 39.5955 52.7039 39.6992 52.1561L40.8618 46.0003C40.888 45.8613 40.9774 45.7429 41.103 45.6776C44.0701 44.1349 46.5248 42.0126 48.0903 39.3069C48.2989 38.9462 48.6288 38.6716 49.0256 38.5445L52.6552 37.3819C53.5754 37.0871 54.1997 36.2316 54.1997 35.2654V31.5297C54.1996 30.5635 53.5753 29.708 52.6551 29.4133Z" fill="#FF7BAC"/>
<path d="M53.9166 30.4477C53.8186 30.2723 53.6983 30.1101 53.5569 29.9671C53.5539 29.9641 53.5512 29.9607 53.5481 29.9577C53.3036 29.7132 53.0001 29.5238 52.6551 29.4133L50.985 28.8783V30.8429C50.985 33.2837 49.4299 35.4532 47.1184 36.2371C46.0672 36.5738 45.1584 37.2398 44.4925 38.12C43.6772 39.1979 42.7083 40.1664 41.6162 41.0261C40.3289 42.0395 39.4605 43.4897 39.2123 45.1091C39.0354 46.2639 38.8982 47.8162 38.8109 48.6894C38.7436 49.3609 38.1791 49.8723 37.5042 49.8723H35.6333C35.0759 49.8723 34.5973 49.4758 34.4936 48.9281L33.8497 45.206C33.8034 44.9615 33.5716 44.7997 33.3256 44.8369C31.6514 45.0899 29.0828 45.2167 27.3658 45.2167C26.0813 45.2167 23.7572 45.1457 22.5381 45.0041C22.297 44.9761 22.0748 45.1368 22.0295 45.3754L21.4177 48.8213C21.314 49.369 20.8353 49.7655 20.2779 49.7655H18.4191C17.8617 49.7655 17.383 49.369 17.2794 48.8213L16.3735 43.4341C16.3471 43.2973 16.2596 43.1807 16.1368 43.1151C11.5966 40.6915 7.4452 36.016 6.91969 30.3522C6.91969 30.3523 6.91969 30.3524 6.91969 30.3526C6.90723 30.4916 6.89627 30.6316 6.8865 30.7726C6.88628 30.7754 6.88618 30.7782 6.88596 30.7809C6.88499 30.7949 6.88414 30.8089 6.88328 30.8227C6.8749 30.9495 6.86759 31.077 6.86158 31.2053C6.85911 31.2585 6.85739 31.3124 6.85545 31.3659C6.85169 31.4637 6.84783 31.5615 6.84536 31.6603C6.8417 31.8205 6.83923 31.9816 6.83923 32.1443C6.83923 32.9685 6.88972 33.7618 6.98791 34.5243C7.10822 35.4584 7.30072 36.3458 7.55885 37.1876C7.57292 37.2336 7.58764 37.2792 7.60214 37.325C7.63802 37.4382 7.6753 37.551 7.71386 37.6633C7.72922 37.7081 7.74448 37.753 7.76016 37.7975C7.86629 38.0972 7.98124 38.3907 8.10456 38.6781C8.11766 38.7086 8.13066 38.7391 8.14398 38.7695C8.20478 38.9085 8.2673 39.0463 8.33208 39.1824C8.34282 39.205 8.35399 39.2272 8.36473 39.2497C8.4251 39.3749 8.48752 39.4992 8.55132 39.6227C8.56228 39.6439 8.57302 39.6653 8.58409 39.6864C8.6537 39.819 8.72556 39.9499 8.79904 40.0796C8.81504 40.1077 8.83116 40.1358 8.84738 40.1638C9.08532 40.5771 9.34249 40.9753 9.61813 41.3587C9.64445 41.3953 9.6713 41.4316 9.69805 41.4679C9.76498 41.5591 9.83297 41.6495 9.90194 41.7389C9.92912 41.7742 9.95608 41.8095 9.98358 41.8445C10.0769 41.9632 10.1715 42.0809 10.2685 42.1966C10.2693 42.1976 10.2703 42.1987 10.2711 42.1998C10.3683 42.3155 10.4677 42.4291 10.5684 42.5418C10.5989 42.576 10.6299 42.6097 10.6608 42.6435C10.736 42.7262 10.8121 42.8078 10.8893 42.8887C10.9204 42.9213 10.9513 42.9541 10.9827 42.9864C11.0883 43.0951 11.1951 43.2028 11.3041 43.3085C11.3043 43.3087 11.3047 43.309 11.3049 43.3092C11.4264 43.427 11.55 43.5428 11.6758 43.6566C11.9273 43.8844 12.187 44.1045 12.4547 44.317C12.7224 44.5294 12.9982 44.7343 13.2814 44.9314C13.4231 45.03 13.5666 45.1267 13.7121 45.2216C13.843 45.3069 13.9759 45.3902 14.1098 45.4724C14.1482 45.496 14.1871 45.5193 14.2259 45.5426C14.3271 45.6037 14.4288 45.6638 14.5311 45.7229C14.5716 45.7463 14.612 45.7698 14.6528 45.7929C14.7905 45.871 14.9291 45.9481 15.0696 46.0231C15.1003 46.0396 15.1288 46.0591 15.1547 46.0814C15.178 46.1015 15.1984 46.1243 15.2171 46.1484C15.2227 46.1555 15.2275 46.163 15.2325 46.1705C15.2454 46.1891 15.2567 46.2087 15.2667 46.2291C15.2707 46.2372 15.2749 46.2451 15.2784 46.2536C15.2902 46.282 15.3002 46.3114 15.3062 46.3422L16.4256 52.1563C16.4386 52.2247 16.4574 52.2909 16.4814 52.3541C16.4935 52.3856 16.5069 52.4166 16.5215 52.4468C16.5361 52.4769 16.552 52.5063 16.569 52.5348C16.5859 52.5634 16.6042 52.5911 16.6235 52.618C16.643 52.645 16.6635 52.6709 16.685 52.6961C16.7094 52.7246 16.7355 52.7513 16.7624 52.7772C16.7709 52.7854 16.7799 52.793 16.7888 52.8009C16.8082 52.8184 16.8281 52.8355 16.8487 52.8516C16.859 52.8598 16.8695 52.8677 16.8802 52.8755C16.9013 52.891 16.923 52.9056 16.9452 52.9196C16.9552 52.926 16.9649 52.9326 16.9751 52.9386C17.0073 52.9577 17.0401 52.9756 17.0741 52.9915C17.0746 52.9917 17.075 52.9919 17.0756 52.9921C17.1095 53.0079 17.1445 53.0218 17.1801 53.0343C17.1914 53.0382 17.2029 53.0414 17.2143 53.0451C17.2396 53.0532 17.2653 53.0606 17.2913 53.0668C17.3044 53.07 17.3176 53.0729 17.3309 53.0757C17.3572 53.0811 17.3839 53.0855 17.4108 53.089C17.423 53.0906 17.435 53.0927 17.4473 53.0939C17.486 53.0978 17.5251 53.1003 17.5648 53.1004C17.565 53.1004 17.5652 53.1004 17.5653 53.1004H21.3452C21.5194 53.1004 21.6859 53.0618 21.8357 52.9917C21.8956 52.9637 21.9527 52.9307 22.0068 52.8932C22.0607 52.8557 22.1115 52.8137 22.1583 52.7676C22.2287 52.6986 22.2904 52.6204 22.3415 52.5347C22.4096 52.4205 22.459 52.293 22.4849 52.1562L23.0968 48.9238V48.9236C23.1018 48.8968 23.1099 48.8712 23.1192 48.8465C23.122 48.8391 23.1252 48.8322 23.1285 48.825C23.1363 48.8073 23.145 48.7902 23.1549 48.7738C23.1588 48.7672 23.1625 48.7607 23.1667 48.7543C23.181 48.7331 23.1964 48.7127 23.2138 48.6943C23.2611 48.6441 23.3203 48.6069 23.3851 48.5819C23.3913 48.5795 23.3976 48.5772 23.4039 48.575C23.4195 48.5697 23.4351 48.5652 23.4512 48.5616C23.4634 48.5588 23.476 48.5571 23.4886 48.5553C23.5007 48.5537 23.5126 48.5515 23.525 48.5509C23.5513 48.5493 23.578 48.5494 23.6052 48.5526C23.8083 48.5762 24.013 48.5971 24.2183 48.6167C24.2696 48.6217 24.3211 48.6265 24.3725 48.6311C24.5777 48.6498 24.7835 48.6672 24.9906 48.6819C24.9916 48.6821 24.9927 48.6821 24.9936 48.6822C25.2007 48.6969 25.409 48.7089 25.618 48.7198C25.6706 48.7224 25.7232 48.725 25.776 48.7276C25.9858 48.7374 26.1962 48.7461 26.4077 48.752C26.7253 48.7609 27.0446 48.7653 27.3658 48.7653C27.7951 48.7653 28.2241 48.7574 28.6525 48.7416C28.8719 48.7335 29.091 48.7232 29.3099 48.7108C29.3321 48.7096 29.3543 48.7078 29.3766 48.7065C29.5754 48.6949 29.774 48.6822 29.9723 48.6671C29.9769 48.6668 29.9816 48.6663 29.9862 48.6659C30.421 48.6329 30.8545 48.5916 31.2859 48.5422C31.2872 48.5421 31.2886 48.5419 31.2899 48.5418C31.4872 48.5191 31.684 48.4949 31.8805 48.469C31.9754 48.4565 32.07 48.4423 32.1646 48.4289C32.2688 48.4141 32.3732 48.4004 32.4771 48.3846C32.6876 48.3527 32.8864 48.4712 32.9665 48.6599C32.9676 48.6624 32.9692 48.6645 32.9701 48.667C32.9813 48.6947 32.99 48.7239 32.9958 48.7545L33.3178 50.4554L33.6397 52.1563C33.7434 52.704 34.222 53.1005 34.7795 53.1005H38.5593C38.5595 53.1005 38.5597 53.1005 38.5598 53.1005C38.5995 53.1005 38.6386 53.098 38.6774 53.094C38.6896 53.0927 38.7016 53.0908 38.7138 53.0891C38.7406 53.0856 38.7674 53.0812 38.7937 53.0758C38.8069 53.0731 38.8201 53.0701 38.8332 53.067C38.8593 53.0607 38.8849 53.0534 38.9104 53.0452C38.9217 53.0416 38.9332 53.0383 38.9444 53.0344C38.9802 53.0218 39.0153 53.0079 39.0495 52.992C39.0497 52.9919 39.0498 52.9918 39.05 52.9918C39.0842 52.9759 39.1171 52.9579 39.1495 52.9388C39.1597 52.9327 39.1695 52.9261 39.1795 52.9197C39.2017 52.9057 39.2234 52.8911 39.2445 52.8755C39.2551 52.8677 39.2655 52.8598 39.2758 52.8517C39.2964 52.8355 39.3164 52.8184 39.3359 52.8009C39.3446 52.7931 39.3536 52.7855 39.3621 52.7773C39.389 52.7514 39.4151 52.7246 39.4395 52.6962C39.4491 52.6851 39.4577 52.6731 39.4668 52.6616C39.4988 52.6213 39.529 52.5795 39.5556 52.535C39.5897 52.4779 39.6191 52.4174 39.6432 52.3542C39.6673 52.2909 39.6862 52.2248 39.6991 52.1564L39.9539 50.8075L40.2187 49.4056L40.3847 48.5265L40.8618 46.0006L40.9045 45.774C40.9828 45.7353 41.0144 45.7196 41.0927 45.6808C41.0958 45.6818 41.0976 45.6813 41.0991 45.6805C41.1005 45.6797 41.1016 45.6786 41.1029 45.6779C41.1936 45.6307 41.2822 45.5813 41.3719 45.5332C41.4657 45.4827 41.5606 45.4334 41.6534 45.3817C41.7337 45.3369 41.8121 45.2901 41.8917 45.2444C41.9919 45.187 42.0928 45.1306 42.1916 45.0718C42.2729 45.0234 42.352 44.9728 42.4324 44.9235C42.5271 44.8652 42.6229 44.808 42.7163 44.7485C42.8001 44.6951 42.8816 44.6394 42.9644 44.585C43.0521 44.5272 43.1411 44.4704 43.2276 44.4114C43.3094 44.3556 43.3888 44.2976 43.4695 44.2408C43.5545 44.1809 43.6408 44.1219 43.7245 44.0608C43.8026 44.0037 43.8783 43.9445 43.9552 43.8864C44.0391 43.8231 44.1242 43.7608 44.2068 43.6963C44.2815 43.6378 44.3537 43.5773 44.4272 43.5179C44.5094 43.4515 44.5928 43.386 44.6735 43.3184C44.7479 43.2561 44.8195 43.1916 44.8926 43.1282C44.9699 43.0611 45.0486 42.995 45.1245 42.9267C45.1954 42.8629 45.2635 42.7971 45.3331 42.7322C45.4085 42.6619 45.4852 42.5927 45.5591 42.5213C45.6266 42.456 45.6914 42.3885 45.7576 42.3222C45.8308 42.249 45.9051 42.1769 45.9767 42.1024C46.0418 42.0346 46.1041 41.9645 46.1679 41.8957C46.2376 41.8205 46.3086 41.7463 46.3766 41.6698C46.4387 41.5999 46.4979 41.528 46.5586 41.4572C46.6253 41.3793 46.6934 41.3026 46.7584 41.2235C46.8176 41.1517 46.8737 41.0776 46.9314 41.0045C46.9949 40.9243 47.0598 40.8451 47.1216 40.7636C47.1783 40.6887 47.232 40.6116 47.2873 40.5356C47.3468 40.4539 47.4078 40.3731 47.4655 40.29C47.5196 40.2124 47.5704 40.1326 47.6228 40.0538C47.6786 39.9701 47.7358 39.8875 47.7897 39.8027C47.8568 39.6973 47.918 39.588 47.985 39.4828C48.0248 39.4202 48.0621 39.3563 48.0992 39.2923C48.3033 38.9409 48.6254 38.6732 49.0125 38.5493L49.0256 38.5451H49.0257L50.8775 37.952L52.6554 37.3826C53.5756 37.0878 54.1998 36.2323 54.1998 35.2661V31.5297C54.1998 31.1996 54.1255 30.8831 53.9928 30.5968C53.9691 30.5461 53.9437 30.4964 53.9166 30.4477Z" fill="#FF7BAC"/>
<path d="M36.1707 17.5415C36.2857 16.9958 36.6631 16.5421 37.1702 16.3101C39.1184 15.4184 44.0821 13.2724 45.3581 13.9409C46.9561 14.7779 46.1191 23.814 43.684 25.1932C41.332 26.5252 34.5075 25.4348 36.1707 17.5415Z" fill="#E8679C"/>
<path d="M25.1246 24.249C30.7162 24.249 35.2491 19.7161 35.2491 14.1245C35.2491 8.5329 30.7162 4 25.1246 4C19.533 4 15.0001 8.5329 15.0001 14.1245C15.0001 19.7161 19.533 24.249 25.1246 24.249Z" fill="#FFB125"/>
<path d="M44.6807 14.9877C43.5695 14.9877 40.8789 15.9034 37.6588 17.3774C37.483 17.4579 37.3561 17.6098 37.3195 17.7835C36.8502 20.0106 37.1012 21.803 38.0454 22.9668C38.1558 23.1029 38.2769 23.231 38.4073 23.3507C38.5592 23.4903 38.804 23.4121 38.8545 23.2122C39.9737 18.78 45.4048 14.9877 44.6807 14.9877Z" fill="#FF7BAC"/>
<path d="M24.8919 19.1477C23.1422 19.1194 21.9569 18.174 21.9569 17.4826C21.9569 17.1439 22.2532 16.6782 22.606 16.6782C23.0716 16.6782 23.4525 17.666 24.8919 17.7789V14.4629C23.6219 14.0114 22.2109 13.5034 22.2109 11.6972C22.2109 9.91926 23.5514 9.21371 24.8919 9.07256V8.66339C24.8919 8.49409 25.0612 8.33887 25.3012 8.33887C25.5128 8.33887 25.7245 8.49409 25.7245 8.66339V9.04441C26.684 9.07267 28.0387 9.36894 28.0387 10.0604C28.0387 10.3285 27.8412 10.8647 27.4178 10.8647C27.0792 10.8647 26.7123 10.4132 25.7245 10.3426V13.207C26.9521 13.6585 28.2927 14.2794 28.2927 16.1985C28.2927 17.9341 27.2485 18.8936 25.7245 19.1053V19.5851C25.7245 19.7544 25.5129 19.9096 25.3012 19.9096C25.0613 19.9096 24.8919 19.7544 24.8919 19.5851V19.1477ZM24.9766 12.9389V10.3709C24.1865 10.4696 23.6221 10.8224 23.6221 11.5562C23.6219 12.3604 24.2287 12.6567 24.9766 12.9389ZM25.6398 14.7733V17.7506C26.4017 17.6095 26.8815 17.158 26.8815 16.3536C26.8816 15.4647 26.3312 15.0696 25.6398 14.7733Z" fill="#DD7219"/>
<path d="M46.1865 29.3206C46.1865 28.8785 45.8281 28.5202 45.3861 28.5202C44.9441 28.5202 44.5857 28.8786 44.5857 29.3206C44.5857 29.881 44.1298 30.3369 43.5694 30.3369C43.0091 30.3369 42.5531 29.881 42.5531 29.3206C42.5531 28.8785 42.1947 28.5202 41.7527 28.5202C41.3106 28.5202 40.9523 28.8786 40.9523 29.3206C40.9523 30.7637 42.1264 31.9377 43.5694 31.9377C45.0124 31.9377 46.1865 30.7636 46.1865 29.3206Z" fill="#FFFEFE"/>
</svg>
