<svg width="64" height="64" viewBox="0 0 64 64" fill="none" xmlns="http://www.w3.org/2000/svg">
<path d="M31.9989 60.6371C47.8148 60.6371 60.6361 47.8159 60.6361 32C60.6361 16.1842 47.8148 3.36292 31.9989 3.36292C16.1831 3.36292 3.36182 16.1842 3.36182 32C3.36182 47.8159 16.1831 60.6371 31.9989 60.6371Z" fill="#F77F00" stroke="#FEFAE0" stroke-width="6"/>
<path d="M25.2124 17.4613H22.5667C20.7616 17.4613 19.2983 18.9246 19.2983 20.7296V43.2708C19.2983 45.0758 20.7616 46.5391 22.5667 46.5391H25.2124C27.0174 46.5391 28.4807 45.0758 28.4807 43.2708V20.7296C28.4807 18.9246 27.0174 17.4613 25.2124 17.4613Z" fill="white"/>
<path d="M35.5164 37.404V43.2709C35.5164 43.7001 35.6009 44.1251 35.7651 44.5217C35.9294 44.9182 36.1701 45.2785 36.4736 45.582C36.7771 45.8855 37.1374 46.1262 37.534 46.2905C37.9305 46.4547 38.3555 46.5393 38.7847 46.5393H41.4304C41.8596 46.5393 42.2846 46.4547 42.6811 46.2905C43.0777 46.1262 43.438 45.8855 43.7415 45.582C44.045 45.2785 44.2857 44.9182 44.4499 44.5217C44.6142 44.1251 44.6987 43.7001 44.6987 43.2709V20.7298C44.6981 19.8633 44.3535 19.0326 43.7406 18.4202C43.1278 17.8078 42.2968 17.4637 41.4304 17.4637H38.7847C37.9179 17.4637 37.0866 17.8081 36.4736 18.421C35.8607 19.0339 35.5164 19.8653 35.5164 20.7321V37.404Z" fill="white"/>
</svg>
