<svg width="390" height="844" viewBox="0 0 390 844" fill="none" xmlns="http://www.w3.org/2000/svg">
<g clip-path="url(#clip0_147_117)">
<rect width="390" height="844" fill="#FFDEA4"/>
<rect x="45" width="300" height="844" fill="#756F6F"/>
<rect x="338.57" width="3.21429" height="844" fill="white"/>
<rect x="189.644" width="3.21429" height="844" fill="#EFA66F"/>
<rect x="266.785" y="91.4421" width="3.21429" height="21.0212" fill="white"/>
<rect x="266.785" y="121.923" width="3.21429" height="21.0212" fill="white"/>
<rect x="266.785" y="152.404" width="3.21429" height="21.0212" fill="white"/>
<rect x="266.785" width="3.21429" height="21.0212" fill="white"/>
<rect x="266.785" y="30.4807" width="3.21429" height="21.0212" fill="white"/>
<rect x="266.785" y="60.9614" width="3.21429" height="21.0212" fill="white"/>
<rect x="266.785" y="274.326" width="3.21429" height="21.0212" fill="white"/>
<rect x="266.785" y="304.807" width="3.21429" height="21.0212" fill="white"/>
<rect x="266.785" y="335.288" width="3.21429" height="21.0212" fill="white"/>
<rect x="266.785" y="182.884" width="3.21429" height="21.0212" fill="white"/>
<rect x="266.785" y="213.365" width="3.21429" height="21.0212" fill="white"/>
<rect x="266.785" y="243.846" width="3.21429" height="21.0212" fill="white"/>
<rect x="266.785" y="487.691" width="3.21429" height="21.0212" fill="white"/>
<rect x="266.785" y="518.172" width="3.21429" height="21.0212" fill="white"/>
<rect x="266.785" y="548.653" width="3.21429" height="21.0212" fill="white"/>
<rect x="266.785" y="579.133" width="3.21429" height="21.0212" fill="white"/>
<rect x="266.785" y="396.249" width="3.21429" height="21.0212" fill="white"/>
<rect x="266.785" y="365.768" width="3.21429" height="21.0212" fill="white"/>
<rect x="266.785" y="426.73" width="3.21429" height="21.0212" fill="white"/>
<rect x="266.785" y="457.21" width="3.21429" height="21.0212" fill="white"/>
<rect x="266.785" y="701.056" width="3.21429" height="21.0212" fill="white"/>
<rect x="266.785" y="731.537" width="3.21429" height="21.0212" fill="white"/>
<rect x="266.785" y="762.017" width="3.21429" height="21.0212" fill="white"/>
<rect x="266.785" y="792.498" width="3.21429" height="21.0212" fill="white"/>
<rect x="266.785" y="822.979" width="3.21429" height="21.0212" fill="white"/>
<rect x="266.785" y="609.614" width="3.21429" height="21.0212" fill="white"/>
<rect x="266.785" y="640.095" width="3.21429" height="21.0212" fill="white"/>
<rect x="266.785" y="670.575" width="3.21429" height="21.0212" fill="white"/>
<rect x="118.927" y="91.4421" width="3.21429" height="21.0212" fill="white"/>
<rect x="118.927" y="121.923" width="3.21429" height="21.0212" fill="white"/>
<rect x="118.927" y="152.404" width="3.21429" height="21.0212" fill="white"/>
<rect x="118.927" width="3.21429" height="21.0212" fill="white"/>
<rect x="118.927" y="30.4807" width="3.21429" height="21.0212" fill="white"/>
<rect x="118.927" y="60.9614" width="3.21429" height="21.0212" fill="white"/>
<rect x="118.927" y="274.326" width="3.21429" height="21.0212" fill="white"/>
<rect x="118.927" y="304.807" width="3.21429" height="21.0212" fill="white"/>
<rect x="118.927" y="335.288" width="3.21429" height="21.0212" fill="white"/>
<rect x="118.927" y="182.884" width="3.21429" height="21.0212" fill="white"/>
<rect x="118.927" y="213.365" width="3.21429" height="21.0212" fill="white"/>
<rect x="118.927" y="243.846" width="3.21429" height="21.0212" fill="white"/>
<rect x="118.927" y="487.691" width="3.21429" height="21.0212" fill="white"/>
<rect x="118.927" y="518.172" width="3.21429" height="21.0212" fill="white"/>
<rect x="118.927" y="548.653" width="3.21429" height="21.0212" fill="white"/>
<rect x="118.927" y="579.133" width="3.21429" height="21.0212" fill="white"/>
<rect x="118.927" y="396.249" width="3.21429" height="21.0212" fill="white"/>
<rect x="118.927" y="365.768" width="3.21429" height="21.0212" fill="white"/>
<rect x="118.927" y="426.73" width="3.21429" height="21.0212" fill="white"/>
<rect x="118.927" y="457.21" width="3.21429" height="21.0212" fill="white"/>
<rect x="118.927" y="701.056" width="3.21429" height="21.0212" fill="white"/>
<rect x="118.927" y="731.537" width="3.21429" height="21.0212" fill="white"/>
<rect x="118.927" y="762.017" width="3.21429" height="21.0212" fill="white"/>
<rect x="118.927" y="792.498" width="3.21429" height="21.0212" fill="white"/>
<rect x="118.927" y="822.979" width="3.21429" height="21.0212" fill="white"/>
<rect x="118.927" y="609.614" width="3.21429" height="21.0212" fill="white"/>
<rect x="118.927" y="640.095" width="3.21429" height="21.0212" fill="white"/>
<rect x="118.927" y="670.575" width="3.21429" height="21.0212" fill="white"/>
<rect x="196.073" width="3.21429" height="844" fill="#EFA66F"/>
<rect x="48.2148" width="3.21429" height="844" fill="white"/>
<path d="M351.632 719.526H348.158C347.518 719.526 347 719.008 347 718.368C347 717.729 347.518 717.211 348.158 717.211H351.632C352.272 717.211 352.789 717.729 352.789 718.368C352.789 719.008 352.272 719.526 351.632 719.526Z" fill="#FFE17D"/>
<path d="M364.368 706.789C363.728 706.789 363.21 706.271 363.21 705.632V702.158C363.21 701.518 363.728 701 364.368 701C365.008 701 365.526 701.518 365.526 702.158V705.632C365.526 706.271 365.008 706.789 364.368 706.789Z" fill="#FFE17D"/>
<path d="M364.368 735.737C363.728 735.737 363.21 735.218 363.21 734.579V731.105C363.21 730.466 363.728 729.947 364.368 729.947C365.008 729.947 365.526 730.466 365.526 731.105V734.579C365.526 735.218 365.008 735.737 364.368 735.737Z" fill="#FFE17D"/>
<path d="M355.105 710.263C354.809 710.263 354.513 710.15 354.287 709.924L352.087 707.725C351.635 707.272 351.635 706.54 352.087 706.087C352.54 705.635 353.272 705.635 353.725 706.087L355.924 708.287C356.376 708.739 356.376 709.472 355.924 709.924C355.698 710.15 355.402 710.263 355.105 710.263Z" fill="#FFE17D"/>
<path d="M352.906 730.989C352.61 730.989 352.313 730.876 352.087 730.649C351.635 730.197 351.635 729.464 352.087 729.012L354.287 726.813C354.739 726.361 355.472 726.361 355.924 726.813C356.376 727.265 356.376 727.998 355.924 728.45L353.725 730.649C353.498 730.876 353.202 730.989 352.906 730.989Z" fill="#FFE17D"/>
<path d="M377.105 719.526H380.579C381.219 719.526 381.737 719.008 381.737 718.368C381.737 717.729 381.219 717.211 380.579 717.211H377.105C376.465 717.211 375.948 717.729 375.948 718.368C375.948 719.008 376.465 719.526 377.105 719.526Z" fill="#FFE17D"/>
<path d="M373.631 710.263C373.928 710.263 374.224 710.15 374.45 709.924L376.649 707.725C377.102 707.272 377.102 706.54 376.649 706.087C376.197 705.635 375.464 705.635 375.012 706.087L372.813 708.287C372.361 708.739 372.361 709.472 372.813 709.924C373.039 710.15 373.335 710.263 373.631 710.263Z" fill="#FFE17D"/>
<path d="M364.368 732.263C372.042 732.263 378.263 726.042 378.263 718.368C378.263 710.695 372.042 704.474 364.368 704.474C356.695 704.474 350.474 710.695 350.474 718.368C350.474 726.042 356.695 732.263 364.368 732.263Z" fill="#B4D26E"/>
<path d="M367.263 729.368C359.589 729.368 353.368 723.147 353.368 715.474C353.368 712.376 354.375 709.52 356.089 707.209C356.083 707.207 356.096 707.211 356.089 707.209C352.682 709.741 350.474 713.797 350.474 718.368C350.474 726.042 356.695 732.263 364.368 732.263C368.945 732.263 373.004 730.05 375.535 726.637C375.531 726.634 375.527 726.631 375.523 726.628C373.212 728.342 370.361 729.368 367.263 729.368Z" fill="#9BB96E"/>
<path d="M363.21 747.316H359.737C359.097 747.316 358.579 746.797 358.579 746.158C358.579 745.518 359.097 745 359.737 745H363.21C363.85 745 364.368 745.518 364.368 746.158C364.368 746.797 363.85 747.316 363.21 747.316Z" fill="#FFE17D"/>
<path d="M384.052 726.474C383.412 726.474 382.895 725.955 382.895 725.316V721.842C382.895 721.203 383.412 720.684 384.052 720.684C384.692 720.684 385.21 721.203 385.21 721.842V725.316C385.21 725.955 384.692 726.474 384.052 726.474Z" fill="#FFE17D"/>
<path d="M368.658 731.978C368.357 731.978 368.056 731.861 367.829 731.627L366.023 729.77C365.577 729.312 365.587 728.579 366.045 728.133C366.504 727.687 367.237 727.698 367.683 728.156L369.488 730.012C369.934 730.471 369.924 731.204 369.466 731.65C369.241 731.868 368.949 731.978 368.658 731.978Z" fill="#FFE17D"/>
<path d="M366.858 764.51C366.562 764.51 366.266 764.396 366.04 764.17C365.587 763.718 365.587 762.985 366.04 762.533L368.181 760.392C368.634 759.94 369.366 759.94 369.819 760.392C370.271 760.844 370.271 761.577 369.819 762.029L367.677 764.17C367.451 764.396 367.155 764.51 366.858 764.51Z" fill="#FFE17D"/>
<path d="M361.588 756.621C361.134 756.621 360.702 756.352 360.518 755.906C360.274 755.315 360.554 754.638 361.144 754.393L363.691 753.339C364.28 753.095 364.96 753.374 365.204 753.965C365.448 754.557 365.168 755.233 364.577 755.478L362.031 756.533C361.886 756.593 361.736 756.621 361.588 756.621Z" fill="#FFE17D"/>
<path d="M375.813 727.422C375.359 727.422 374.927 727.153 374.743 726.707L373.678 724.136C373.434 723.546 373.714 722.868 374.304 722.624C374.892 722.381 375.573 722.659 375.817 723.25L376.882 725.821C377.126 726.412 376.846 727.089 376.256 727.334C376.111 727.393 375.961 727.422 375.813 727.422Z" fill="#FFE17D"/>
<path d="M364.127 739.063C363.979 739.063 363.829 739.034 363.684 738.974L361.145 737.923C360.554 737.678 360.274 737.001 360.518 736.41C360.762 735.819 361.444 735.539 362.031 735.783L364.571 736.835C365.161 737.08 365.442 737.756 365.197 738.348C365.013 738.793 364.581 739.063 364.127 739.063Z" fill="#FFE17D"/>
<path d="M374.271 765.842H393.834C401.07 762.239 406.053 754.79 406.053 746.158C406.053 734.008 396.203 724.158 384.053 724.158C371.903 724.158 362.053 734.008 362.053 746.158C362.053 754.79 367.036 762.239 374.271 765.842Z" fill="#B4D26E"/>
<path d="M365.526 742.684C365.526 737.505 367.335 732.722 370.33 728.963C365.285 732.994 362.053 739.198 362.053 746.158C362.053 754.79 367.036 762.239 374.271 765.842H387.526V764.684C375.376 764.684 365.526 754.834 365.526 742.684Z" fill="#9BB96E"/>
<path d="M370.177 747.316C369.537 747.316 369.012 746.797 369.012 746.158C369.012 745.518 369.524 745 370.164 745H370.177C370.817 745 371.335 745.518 371.335 746.158C371.335 746.797 370.817 747.316 370.177 747.316Z" fill="#FFE17D"/>
<path d="M384.065 747.316C383.425 747.316 382.9 746.797 382.9 746.158C382.9 745.518 383.413 745 384.053 745H384.065C384.705 745 385.223 745.518 385.223 746.158C385.223 746.797 384.705 747.316 384.065 747.316Z" fill="#FFD164"/>
<path d="M384.058 733.435C383.418 733.435 382.9 732.917 382.9 732.277C382.9 731.638 383.418 731.112 384.058 731.112C384.698 731.112 385.216 731.624 385.216 732.263V732.277C385.216 732.917 384.698 733.435 384.058 733.435Z" fill="#FFE17D"/>
<path d="M384.058 761.211C383.418 761.211 382.9 760.692 382.9 760.053C382.9 759.413 383.418 758.888 384.058 758.888C384.698 758.888 385.216 759.399 385.216 760.038V760.053C385.216 760.692 384.698 761.211 384.058 761.211Z" fill="#FFE17D"/>
<path d="M374.243 737.501C373.947 737.501 373.651 737.388 373.425 737.161C372.972 736.709 372.968 735.971 373.419 735.519C373.87 735.067 374.598 735.06 375.052 735.514L375.062 735.524C375.514 735.976 375.514 736.709 375.062 737.161C374.836 737.388 374.539 737.501 374.243 737.501Z" fill="#FFE17D"/>
<path d="M374.233 757.141C373.937 757.141 373.641 757.028 373.414 756.802C372.962 756.349 372.962 755.617 373.414 755.164C373.867 754.714 374.605 754.706 375.057 755.159C375.509 755.612 375.514 756.339 375.062 756.792L375.052 756.802C374.826 757.028 374.529 757.141 374.233 757.141Z" fill="#FFE17D"/>
<path d="M379.008 742.266C378.689 742.266 378.372 742.135 378.143 741.877C377.718 741.399 377.759 740.665 378.237 740.24C378.713 739.814 379.446 739.856 379.869 740.333L379.873 740.338C380.298 740.817 380.255 741.548 379.777 741.974C379.557 742.169 379.282 742.266 379.008 742.266Z" fill="#FFD164"/>
<path d="M389.114 752.371C388.838 752.371 388.561 752.273 388.339 752.073C387.865 751.646 387.823 750.911 388.25 750.436C388.677 749.962 389.406 749.918 389.883 750.347L389.889 750.353C390.363 750.78 390.402 751.512 389.974 751.988C389.746 752.241 389.431 752.371 389.114 752.371Z" fill="#FFD164"/>
<path d="M389.108 742.266C388.791 742.266 388.476 742.136 388.248 741.883C387.82 741.407 387.859 740.675 388.334 740.247C388.809 739.818 389.544 739.854 389.972 740.331C390.4 740.806 390.363 741.536 389.888 741.963L389.883 741.968C389.661 742.168 389.384 742.266 389.108 742.266Z" fill="#FFD164"/>
<path d="M379.004 752.371C378.73 752.371 378.455 752.275 378.235 752.079C377.756 751.653 377.714 750.922 378.139 750.443C378.562 749.966 379.298 749.919 379.775 750.345C380.253 750.77 380.299 751.499 379.873 751.977L379.869 751.982C379.64 752.24 379.323 752.371 379.004 752.371Z" fill="#FFD164"/>
<path d="M364.368 719.526C363.728 719.526 363.205 719.008 363.205 718.368C363.205 717.729 363.716 717.211 364.356 717.211H364.368C365.008 717.211 365.526 717.729 365.526 718.368C365.526 719.008 365.008 719.526 364.368 719.526Z" fill="#FFD164"/>
<path d="M359.312 714.476C358.993 714.476 358.675 714.345 358.447 714.088C358.021 713.609 358.062 712.875 358.54 712.451C359.016 712.025 359.749 712.066 360.172 712.544L360.177 712.549C360.602 713.027 360.559 713.759 360.08 714.184C359.86 714.38 359.585 714.476 359.312 714.476Z" fill="#FFE17D"/>
<path d="M369.417 724.581C369.141 724.581 368.864 724.484 368.643 724.284C368.168 723.857 368.126 723.122 368.553 722.646C368.981 722.173 369.709 722.129 370.186 722.558L370.192 722.563C370.667 722.99 370.705 723.723 370.278 724.198C370.049 724.452 369.734 724.581 369.417 724.581Z" fill="#FFD164"/>
<path d="M369.412 714.476C369.095 714.476 368.78 714.347 368.551 714.093C368.124 713.618 368.162 712.885 368.637 712.458C369.111 712.029 369.847 712.066 370.276 712.541C370.703 713.016 370.667 713.746 370.192 714.174L370.186 714.179C369.965 714.379 369.688 714.476 369.412 714.476Z" fill="#FFE17D"/>
<path d="M359.307 724.581C359.033 724.581 358.759 724.485 358.538 724.289C358.06 723.864 358.017 723.132 358.442 722.654C358.864 722.178 359.6 722.13 360.078 722.556C360.557 722.98 360.602 723.71 360.177 724.188L360.172 724.193C359.944 724.45 359.626 724.581 359.307 724.581Z" fill="#FFE17D"/>
<path d="M397.947 767H370.158C369.518 767 369 766.482 369 765.842C369 765.203 369.518 764.684 370.158 764.684H397.947C398.587 764.684 399.105 765.203 399.105 765.842C399.105 766.482 398.587 767 397.947 767Z" fill="#E3AA75"/>
<path d="M21.2176 64.9479C20.8663 64.9479 20.5185 64.7934 20.2827 64.4971C19.873 63.9812 19.9591 63.231 20.4748 62.8211L23.2903 60.5849C23.8063 60.1752 24.5562 60.2612 24.9663 60.777C25.3761 61.2928 25.2899 62.0431 24.7742 62.453L21.9587 64.6893C21.7393 64.8633 21.4776 64.9479 21.2176 64.9479Z" fill="#FFD77D"/>
<path d="M24.9869 69.1526C24.9828 69.1526 24.9787 69.1526 24.9746 69.1526L22.1236 69.1238C21.4649 69.1171 20.9364 68.5778 20.9429 67.9191C20.9496 67.2644 21.4824 66.7383 22.1355 66.7383C22.1396 66.7383 22.1437 66.7383 22.1477 66.7383L24.9988 66.7671C25.6575 66.7738 26.186 67.3131 26.1795 67.9719C26.1728 68.6265 25.64 69.1526 24.9869 69.1526Z" fill="#FFD77D"/>
<path d="M3.86417 105.175C3.72916 105.175 3.59202 105.152 3.45761 105.103L0.167395 103.911C-0.451956 103.686 -0.771906 103.002 -0.547393 102.383C-0.32288 101.763 0.36101 101.443 0.980513 101.668L4.27073 102.861C4.89008 103.085 5.21003 103.769 4.98552 104.388C4.80986 104.874 4.35216 105.175 3.86417 105.175Z" fill="#FFD77D"/>
<path d="M0.812603 110.185C0.304823 110.185 -0.16597 109.858 -0.325488 109.348C-0.521994 108.719 -0.171755 108.05 0.457033 107.853L3.50858 106.899C4.13798 106.703 4.80649 107.053 5.003 107.682C5.19951 108.31 4.84927 108.979 4.22048 109.176L1.16893 110.13C1.05036 110.167 0.930415 110.185 0.812603 110.185Z" fill="#FFD77D"/>
<path d="M35.9229 89.1965C35.6177 89.1965 35.3123 89.0801 35.0793 88.8471C34.6135 88.3811 34.6135 87.626 35.0793 87.1603L37.2474 84.9921C37.7135 84.5262 38.4686 84.5262 38.9344 84.9921C39.4002 85.4581 39.4002 86.2132 38.9344 86.679L36.7663 88.8471C36.5334 89.0801 36.2281 89.1965 35.9229 89.1965Z" fill="#FFD77D"/>
<path d="M33.4918 88.4448C33.3983 88.4448 33.3032 88.4337 33.2084 88.4106C32.5683 88.2545 32.1761 87.6092 32.3321 86.9691L33.0166 84.162C33.1724 83.522 33.8175 83.1296 34.458 83.2857C35.0981 83.4417 35.4903 84.0871 35.3343 84.7272L34.6498 87.5343C34.5168 88.0793 34.0288 88.4448 33.4918 88.4448Z" fill="#FFD77D"/>
<path d="M7.89001 91.0323H0.01806C-7.11201 91.0323 -12.9124 85.2303 -12.9124 78.1002V64.8391C-12.9124 62.2101 -10.7811 60.0773 -8.15055 60.0773C-5.52002 60.0773 -3.38875 62.2101 -3.38875 64.8391V78.1004C-3.38875 79.9787 -1.86039 81.5072 0.01806 81.5072H7.89001" fill="#96C133"/>
<path d="M3.50895 91.0323H0.0178183C-7.11225 91.0323 -12.9126 85.2303 -12.9126 78.1002V64.8391C-12.9126 62.2101 -10.7813 60.0773 -8.1508 60.0773C-7.53525 60.0773 -6.9468 60.1934 -6.40599 60.4097C-8.17302 61.1047 -9.42146 62.8256 -9.42146 64.8391V78.1004C-9.42146 85.2303 -3.62112 91.0323 3.50895 91.0323Z" fill="#96C133"/>
<path d="M16.001 114.479H26.0967C32.5508 114.479 37.8025 109.227 37.8025 102.773V90.7683C37.8025 88.3874 35.8717 86.4565 33.4908 86.4565C31.1099 86.4565 29.179 88.3874 29.179 90.7683V102.773C29.179 104.473 27.797 105.857 26.0967 105.857H16.001" fill="#96C133"/>
<path d="M35.1927 86.8065C33.6562 87.4649 32.5812 88.9918 32.5812 90.7683V102.773C32.5812 104.473 31.1991 105.857 29.4989 105.857H26.0969C27.7971 105.857 29.1792 104.473 29.1792 102.773V90.7683C29.1792 88.3874 31.11 86.4565 33.4909 86.4565C34.0954 86.4565 34.671 86.5806 35.1927 86.8065Z" fill="#499421"/>
<path d="M22.9316 125.812V67.9308C22.9316 62.4469 18.4845 58 12.9991 58C7.51523 58 3.06836 62.4469 3.06836 67.9308V125.811" fill="#96C133"/>
<path d="M12.9991 58C10.5053 58.0015 8.48544 62.4485 8.48544 67.9308V125.811H3.06836V67.9308C3.06821 62.4469 7.51523 58 12.9991 58Z" fill="#96C133"/>
<path d="M45 135.933H-19C-11.9606 129.308 -0.253257 124.974 13 124.974C15.4031 124.974 17.7554 125.117 20.0378 125.391C30.3456 126.622 39.2379 130.509 45 135.933Z" fill="#FFCB47"/>
<path d="M44.9999 135.933H-4.92456C0.837731 130.509 9.72996 126.622 20.0378 125.391C30.3456 126.622 39.2378 130.509 44.9999 135.933Z" fill="#FFCB47"/>
<path d="M13.1813 90.2499C13.047 90.2499 12.9108 90.2273 12.7773 90.1792C12.1575 89.956 11.8357 89.2726 12.0589 88.6528L13.0131 86.002C13.2362 85.3822 13.9201 85.0607 14.5395 85.2837C15.1593 85.5069 15.481 86.1903 15.2579 86.8101L14.3037 89.4609C14.1286 89.9472 13.67 90.2499 13.1813 90.2499Z" fill="#FFD77D"/>
<path d="M10.849 72.0574C10.7055 72.0574 10.5595 72.0314 10.4175 71.9763C9.80348 71.7379 9.49906 71.0469 9.73742 70.4325L10.6122 68.1794C10.8504 67.5653 11.5411 67.2606 12.1559 67.4991C12.7699 67.7375 13.0744 68.4285 12.836 69.0429L11.9612 71.296C11.778 71.7684 11.327 72.0574 10.849 72.0574Z" fill="#FFD77D"/>
<path d="M15.5035 108.432C15.3693 108.432 15.233 108.409 15.0996 108.361C14.4798 108.138 14.158 107.455 14.3811 106.835L15.3353 104.184C15.5583 103.564 16.2421 103.242 16.8617 103.466C17.4815 103.689 17.8033 104.372 17.5802 104.992L16.6259 107.643C16.4509 108.129 15.9924 108.432 15.5035 108.432Z" fill="#FFD77D"/>
<path d="M10.3178 89.8258C9.79864 89.8258 9.32115 89.4844 9.17152 88.9603L8.53528 86.7336C8.35415 86.1001 8.72098 85.44 9.35433 85.259C9.98723 85.078 10.648 85.4445 10.8288 86.0782L11.4651 88.3049C11.6462 88.9384 11.2794 89.5986 10.646 89.7795C10.5367 89.811 10.4264 89.8258 10.3178 89.8258Z" fill="#FFD77D"/>
<path d="M7.77291 72.1188C7.25372 72.1188 6.77623 71.7774 6.6266 71.2533L5.99036 69.0266C5.80922 68.3931 6.17606 67.7329 6.80941 67.552C7.44231 67.3711 8.10306 67.7375 8.28389 68.3712L8.92013 70.5979C9.10127 71.2314 8.73444 71.8915 8.10108 72.0725C7.99179 72.1037 7.88159 72.1188 7.77291 72.1188Z" fill="#FFD77D"/>
<path d="M22.3833 144.202C19.7239 146.033 16.4353 147.117 12.7422 147.17C12.7422 147.17 11.3703 147.175 8.97807 147.01C8.6765 147.121 8.37638 147.234 8.07861 147.353C19.2847 149.381 31.5273 149.421 31.8298 149.422V143.944C31.8298 143.944 27.7847 143.705 22.3833 144.202V144.202Z" fill="#FFAB80"/>
<path d="M-19.2295 145.435C-19.2295 145.435 -9.08315 143.238 3.23373 146.32C15.5506 149.402 31.8361 149.422 31.8361 149.422V154.167H-19.2295V145.435Z" fill="#FFDBA9"/>
<path d="M10.1825 141.802C11.522 141.207 12.7429 140.386 13.7938 139.385C13.2268 138.483 12.223 137.882 11.0784 137.882C9.9828 137.882 9.01605 138.432 8.43799 139.271C9.35933 139.79 10.0218 140.714 10.1825 141.802V141.802Z" fill="#ECBC7C"/>
<path d="M5.53205 139.033C4.52944 137.121 4.00204 134.929 4.1015 132.622C4.22849 129.674 5.35214 126.928 7.26119 124.775L4.38734 122.755C2.10696 125.456 0.76764 128.844 0.611361 132.471C0.481385 135.489 1.19209 138.351 2.53398 140.832C2.8491 140.912 3.14574 141.035 3.41925 141.193C3.75914 140.192 4.54033 139.394 5.53205 139.033V139.033Z" fill="#ECBC7C"/>
<path d="M4.90476 142.887C6.77723 142.91 8.56617 142.521 10.1825 141.802C9.93385 140.117 8.48171 138.823 6.72709 138.823C5.19101 138.823 3.88745 139.815 3.41943 141.193C4.08514 141.578 4.61049 142.174 4.90476 142.887V142.887Z" fill="#F0CE9E"/>
<path d="M8.41605 142.434C9.0235 142.266 9.61389 142.055 10.1826 141.802C9.93395 140.117 8.48181 138.823 6.72719 138.823C6.3646 138.823 6.01556 138.88 5.68677 138.983C7.01283 139.397 8.24025 140.604 8.41605 142.434Z" fill="#ECBC7C"/>
<path d="M25.1681 119.662L22.583 122.013C24.8443 124.478 26.0368 127.719 25.8906 131.112C25.62 137.396 20.793 142.426 14.7402 143.15C14.7279 143.148 14.7158 143.147 14.7034 143.146C11.8201 145.301 8.1918 146.567 4.25708 146.567C9.48858 147.182 12.7422 147.17 12.7422 147.17C22.195 147.033 28.998 140.147 29.3809 131.262C29.5672 126.937 28.0485 122.806 25.1681 119.662V119.662Z" fill="#F0CE9E"/>
<path d="M25.168 119.662L24.0026 120.722C26.3025 123.707 27.492 127.407 27.3258 131.262C26.9537 139.9 20.512 146.649 11.467 147.143C12.2949 147.172 12.7422 147.17 12.7422 147.17C22.195 147.033 28.9981 140.147 29.3809 131.262C29.5672 126.937 28.0485 122.806 25.168 119.662V119.662Z" fill="#ECBC7C"/>
<path d="M-3.13155 142.381C-2.57733 142.496 -2.00975 142.576 -1.43046 142.617C-1.00508 141.793 -0.262729 141.165 0.628197 140.885C-2.94527 138.507 -5.22966 134.372 -5.03176 129.78C-4.88555 126.386 -3.41883 123.261 -0.953707 120.998L-3.32708 118.434C-6.46725 121.319 -8.33552 125.304 -8.5219 129.629C-8.7388 134.66 -6.62066 139.26 -3.13155 142.381V142.381Z" fill="#F0CE9E"/>
<path d="M-7.05873 144.769C-3.96746 144.945 -0.464995 145.394 3.23372 146.32C3.57196 146.405 3.91329 146.487 4.25698 146.567C13.3586 146.567 20.8251 139.795 21.2079 130.91C21.3424 127.789 20.5891 124.769 19.0773 122.149L16.1189 124.017C17.2563 126.042 17.8209 128.363 17.7177 130.759C17.4226 137.61 11.7139 142.971 4.9047 142.887C4.40206 141.669 3.22838 140.787 1.82474 140.727C0.42028 140.667 -0.825331 141.444 -1.43062 142.616C-8.24701 142.14 -13.5008 136.295 -13.2049 129.427C-13.1135 127.307 -12.5063 125.29 -11.4619 123.524L-14.4746 121.751C-15.805 124.003 -16.5785 126.573 -16.695 129.277C-16.9895 136.115 -12.9711 142.157 -7.05873 144.769V144.769Z" fill="#FFF3E2"/>
<path d="M19.0774 122.149L17.5387 123.121C18.7035 125.504 19.271 128.168 19.1529 130.91C18.7945 139.229 12.2256 145.696 3.91919 146.485C4.03211 146.512 4.14349 146.54 4.25692 146.567C13.3585 146.567 20.825 139.795 21.2078 130.91C21.3424 127.789 20.5892 124.769 19.0774 122.149V122.149Z" fill="#F0CE9E"/>
<path d="M374.836 311.549L376.095 304.17L378.307 301.292C378.596 300.915 378.523 300.376 378.149 300.087C377.773 299.798 377.233 299.869 376.944 300.245L375.601 301.991L374.249 297.767C374.102 297.318 373.62 297.066 373.168 297.211C372.715 297.356 372.466 297.839 372.611 298.292L374.401 303.878L373.336 310.119L374.085 310.834L374.836 311.549Z" fill="#7C624A"/>
<path d="M368.091 331.802L362.148 332.358L355.956 327.134C355.592 326.828 355.052 326.874 354.745 327.236C354.519 327.504 354.485 327.869 354.629 328.166C354.68 328.271 354.752 328.367 354.847 328.447L360.305 333.051L358.403 333.974C357.975 334.182 357.797 334.695 358.005 335.122C358.212 335.55 358.726 335.728 359.153 335.52L362.105 334.088L369.498 333.396L368.795 332.598L368.091 331.802Z" fill="#7C624A"/>
<path d="M390.985 334.398L386.186 326.274L385.306 324.786L381.354 318.104L380.895 317.328L380.292 316.753L374.836 311.549L373.337 310.118L365.829 302.951C365.3 302.453 364.518 302.355 363.892 302.659C363.768 302.719 363.644 302.798 363.535 302.889C362.751 303.556 362.718 304.747 363.451 305.451L378.171 319.605L381.675 326.826L382.245 328L382.817 329.175L385.539 334.768L374.17 333.008L367.519 326.074C367.014 325.545 366.22 325.405 365.571 325.72C364.566 326.208 364.301 327.511 365.04 328.346L368.091 331.801L369.497 333.396L371.836 336.051L388.222 340.514L398.61 345.978L407.894 341.473L390.985 334.398Z" fill="#8E7760"/>
<path d="M388.27 335.186L378.171 319.605L381.675 326.826L375.527 324.224L371.851 320.46C371.52 320.121 370.976 320.114 370.636 320.446C370.365 320.711 370.307 321.112 370.464 321.436C370.503 321.516 370.556 321.592 370.622 321.66L374.419 325.548C374.499 325.63 374.594 325.695 374.698 325.739L382.819 329.179L385.539 334.768L388.27 335.186Z" fill="#7C624A"/>
<path fill-rule="evenodd" clip-rule="evenodd" d="M30.0258 518.695L17.812 518.83L1.52244 530.576L-13.8621 550.967H-5.41576L17.0575 538.569L33.1962 525.192L30.0258 518.695Z" fill="#C68659"/>
<path fill-rule="evenodd" clip-rule="evenodd" d="M35.1568 538.732L33.1962 525.192L17.0575 538.569L-5.41577 550.967L-4.96326 554.719L35.1568 538.732Z" fill="#C07A49"/>
<path fill-rule="evenodd" clip-rule="evenodd" d="M35.1567 538.732L40.3603 540.364L42.9242 547.46L1.29554 555.046L-4.96338 554.719L35.1567 538.732Z" fill="#B46D49"/>
<path fill-rule="evenodd" clip-rule="evenodd" d="M41.7931 553.169L43 550.396L42.9243 547.46L1.29565 555.046L24.2214 554.148L41.7931 553.169Z" fill="#C07A49"/>
<path fill-rule="evenodd" clip-rule="evenodd" d="M34.6928 518L36.3835 527.58C35.4924 528.726 34.7212 529.973 34.0791 531.285L33.1958 525.192L32.8037 524.39L34.6928 518Z" fill="#457E3B"/>
<path fill-rule="evenodd" clip-rule="evenodd" d="M34.0789 531.285C35.9682 527.421 38.9702 524.117 42.9242 522.351C39.1727 527.36 37.9683 532.652 37.7594 539.548L35.1569 538.732L34.0789 531.285Z" fill="#61AB52"/>
</g>
<defs>
<clipPath id="clip0_147_117">
<rect width="390" height="844" fill="white"/>
</clipPath>
</defs>
</svg>
