<svg width="55" height="55" viewBox="0 0 55 55" fill="none" xmlns="http://www.w3.org/2000/svg">
<path d="M21.9297 6.04678L0.871258 42.5212C-1.60428 46.8091 1.49022 52.1691 6.4414 52.1691H48.5584C53.5097 52.1691 56.6042 46.8092 54.1286 42.5212L33.0701 6.04678C30.5944 1.75882 24.4053 1.75882 21.9297 6.04678Z" fill="#E94F4E"/>
<path d="M6.8822 45.4827L27.4999 9.77155L48.1178 45.4827H6.8822Z" fill="#EAEAEA"/>
<path d="M29.618 20.2505H25.3833V35.1831H29.618V20.2505Z" fill="#4E555E"/>
<path d="M27.5006 42.0923C28.6699 42.0923 29.6179 41.1444 29.6179 39.975C29.6179 38.8057 28.6699 37.8577 27.5006 37.8577C26.3312 37.8577 25.3833 38.8057 25.3833 39.975C25.3833 41.1444 26.3312 42.0923 27.5006 42.0923Z" fill="#4E555E"/>
</svg>
