<svg width="64" height="64" viewBox="0 0 64 64" fill="none" xmlns="http://www.w3.org/2000/svg">
<rect x="2" y="2" width="60" height="60" rx="30" fill="#A3C4BC" stroke="#E8E8E8" stroke-width="4"/>
<path d="M32 14C22.0587 14 14 22.0587 14 32C14 41.9413 22.0587 50 32 50C41.9413 50 50 41.9413 50 32C50 22.0587 41.9413 14 32 14Z" fill="#395F80"/>
<path d="M31.9999 46.5231C23.9791 46.5231 17.4768 40.0208 17.4768 32C17.4768 23.9792 23.9791 17.4769 31.9999 17.4769C40.0208 17.4769 46.523 23.9792 46.523 32C46.523 40.0208 40.0208 46.5231 31.9999 46.5231Z" fill="#E1EFFB"/>
<path d="M33.9496 23.9665C33.9496 24.8792 33.0924 25.7087 32.0138 25.7087C30.9078 25.7087 30.0503 24.8789 30.0503 23.9665C30.0503 23.0264 30.9078 22.2244 32.0138 22.2244C33.0924 22.2244 33.9496 23.0264 33.9496 23.9665ZM33.8115 29.7462V40.6418C33.8115 41.195 33.0095 41.7756 32.0138 41.7756C30.9907 41.7756 30.2439 41.1947 30.2439 40.6418V29.7462C30.2439 29.0826 30.9907 28.6401 32.0138 28.6401C33.0095 28.6401 33.8115 29.0826 33.8115 29.7462Z" fill="#F9644B"/>
</svg>
