<svg width="50" height="50" viewBox="0 0 50 50" fill="none" xmlns="http://www.w3.org/2000/svg">
<path d="M9.25928 46.2963L21.1161 0.692969C21.2223 0.284863 21.5906 0 22.0123 0H27.9878C28.4095 0 28.7778 0.284863 28.884 0.692969L40.7408 46.2963" fill="#FF9B46"/>
<path d="M24.297 0H22.0122C21.5905 0 21.2222 0.284863 21.116 0.692969L9.25928 46.2963H21.2963L24.0861 0.692969C24.1111 0.284863 24.1978 0 24.297 0Z" fill="#FF9B46"/>
<path d="M45.3704 46.2963H4.62961C4.11829 46.2963 3.70374 46.7108 3.70374 47.2222V49.0741C3.70374 49.5854 4.11829 50 4.62961 50H45.3703C45.8817 50 46.2962 49.5854 46.2962 49.0741V47.2222C46.2963 46.7107 45.8818 46.2963 45.3704 46.2963Z" fill="#FF9B46"/>
<path d="M19.4445 49.0741V47.2222C19.4445 46.7109 19.859 46.2963 20.3703 46.2963H4.62961C4.11829 46.2963 3.70374 46.7108 3.70374 47.2222V49.0741C3.70374 49.5854 4.11829 50 4.62961 50H20.3703C19.8589 50 19.4445 49.5854 19.4445 49.0741Z" fill="#FF9B46"/>
<path d="M11.6667 37.037H38.3333L36.8889 31.4814H13.1112L11.6667 37.037Z" fill="#E4EAF8"/>
<path d="M16.4814 18.5186H33.5186L32.0741 12.963H17.9259L16.4814 18.5186Z" fill="#E4EAF8"/>
<path d="M16.4814 18.5186H22.9956L23.3355 12.963H17.9259L16.4814 18.5186Z" fill="#E4EAF8"/>
<path d="M11.6667 37.037H21.8627L22.2026 31.4814H13.1112L11.6667 37.037Z" fill="#E4EAF8"/>
</svg>
