<svg width="308" height="62" viewBox="0 0 308 62" fill="none" xmlns="http://www.w3.org/2000/svg">
<path d="M0 12C0 5.37258 5.37258 0 12 0H296C302.627 0 308 5.37258 308 12V50C308 56.6274 302.627 62 296 62H12C5.37259 62 0 56.6274 0 50V12Z" fill="#ED725C"/>
<path d="M3.86621 17.2224C3.86621 15.5035 4.18287 13.8015 4.79813 12.2135C5.41338 10.6255 6.31517 9.18256 7.45201 7.96715C8.58884 6.75173 9.93847 5.78761 11.4238 5.12983C12.9092 4.47206 14.5012 4.1335 16.1089 4.1335L16.1089 7.54044C14.9196 7.54044 13.742 7.79087 12.6433 8.27744C11.5446 8.764 10.5463 9.47717 9.70533 10.3762C8.8644 11.2753 8.19734 12.3426 7.74223 13.5173C7.28712 14.6919 7.05289 15.9509 7.05289 17.2224H3.86621Z" fill="#FCED74"/>
<path d="M16.1089 57.8666C14.5012 57.8666 12.9092 57.5281 11.4238 56.8703C9.93847 56.2125 8.58884 55.2484 7.452 54.033C6.31517 52.8176 5.41338 51.3747 4.79812 49.7866C4.18287 48.1986 3.86621 46.4966 3.86621 44.7777H7.05289C7.05289 46.0492 7.28712 47.3082 7.74223 48.4829C8.19734 49.6575 8.8644 50.7249 9.70533 51.6239C10.5463 52.523 11.5446 53.2361 12.6433 53.7227C13.742 54.2093 14.9196 54.4597 16.1089 54.4597V57.8666Z" fill="#FCED74"/>
<path d="M304.134 44.7777C304.134 46.4966 303.817 48.1986 303.202 49.7866C302.587 51.3747 301.685 52.8176 300.548 54.033C299.411 55.2484 298.062 56.2125 296.576 56.8703C295.091 57.5281 293.499 57.8666 291.891 57.8666V54.4597C293.08 54.4597 294.258 54.2093 295.357 53.7227C296.455 53.2361 297.454 52.523 298.295 51.6239C299.136 50.7249 299.803 49.6575 300.258 48.4829C300.713 47.3082 300.947 46.0492 300.947 44.7777H304.134Z" fill="#FCED74"/>
<path d="M291.891 4.1335C293.499 4.1335 295.091 4.47206 296.576 5.12983C298.062 5.78761 299.411 6.75173 300.548 7.96715C301.685 9.18256 302.587 10.6255 303.202 12.2135C303.817 13.8015 304.134 15.5035 304.134 17.2224H300.947C300.947 15.9509 300.713 14.6919 300.258 13.5173C299.803 12.3426 299.136 11.2753 298.295 10.3762C297.454 9.47717 296.455 8.764 295.357 8.27744C294.258 7.79087 293.08 7.54044 291.891 7.54044V4.1335Z" fill="#FCED74"/>
</svg>
