<svg width="65" height="130" viewBox="0 0 65 130" fill="none" xmlns="http://www.w3.org/2000/svg">
<path d="M32.4773 0.0010376C33.4203 -0.00473022 42.8245 -0.0244751 46.6352 1.43797L46.989 1.5731C51.0216 3.1091 59.4579 6.30547 61.3797 19.2181L61.4253 19.2402V42.3186L60.3787 43.7811C60.3504 45.2252 59.6685 78.4575 60.2233 80.8657C60.9988 84.2297 61.397 89.2847 61.4635 96.3192C61.4685 96.7907 61.4698 97.2787 61.476 97.7817C61.5857 106.302 61.7497 119.176 53.9249 124.797C46.0779 130.434 33.5585 130.023 32.471 129.975C31.8324 130.003 27.2439 130.157 21.9747 129.134C18.2799 128.416 14.2522 127.12 11.0172 124.797C4.15528 119.868 3.43408 109.365 3.43408 101.104C3.43408 99.9371 3.44887 98.8157 3.4612 97.7608C3.4686 97.2658 3.47476 96.7837 3.47846 96.3192C3.54627 89.2299 3.95064 84.1762 4.71265 80.8657C5.26743 78.4599 4.57581 45.267 4.54499 43.7835L3.47365 42.3208L3.47501 19.2156C5.57699 6.26917 13.9158 3.08913 17.9237 1.56024L18.2455 1.43785C19.3452 1.01625 20.9158 0.717117 22.6171 0.506317C26.8124 -0.0141449 31.8005 -0.00361633 32.4773 0.0010376Z" fill="#B4B4B5"/>
<path opacity="0.2" d="M19.1394 36.0661C19.1394 36.0661 26.3335 33.7597 30.9348 30.965C35.5361 28.1702 38.0027 24.3276 39.0501 18.156C40.0976 11.9843 41.629 9.27784 42.7125 12.4359C43.796 15.5941 44.1659 21.6525 47.0014 27.5896C49.8369 33.5268 53.9053 41.8381 53.5354 44.3198C53.1656 46.8016 19.1394 36.0661 19.1394 36.0661Z" fill="#B7BDC1"/>
<path opacity="0.4" d="M32.3787 97.646C32.7241 96.4948 35.7823 66.8304 34.0572 55.244C32.2336 42.9965 34.5581 54.9783 36.1873 53.8011C37.8165 52.624 54.1811 52.434 54.0197 56.4667C53.8582 60.4994 49.9082 77.2769 50.221 94.4646C50.5337 111.652 30.8993 102.576 32.3787 97.646Z" fill="#B4B4B5"/>
<path fill-rule="evenodd" clip-rule="evenodd" d="M22.617 0.506241L23.5773 0.96402C11.1874 53.6953 25.1332 124.59 25.1332 124.59L25.6732 124.338C25.2688 126.103 23.7869 127.736 21.9747 129.134C18.2799 128.416 14.2522 127.12 11.0172 124.797C4.15528 119.868 3.43408 109.364 3.43408 101.104C3.43408 99.937 3.44887 98.8156 3.4612 97.7607C3.4686 97.2657 3.47476 96.7836 3.47846 96.3191C3.48216 95.9091 3.48709 95.5063 3.49326 95.1103C3.59435 88.651 3.99502 83.9852 4.71265 80.8655C5.26743 78.4596 4.57581 45.2667 4.54499 43.7832L3.47365 42.3205L3.47501 19.2154C3.63035 18.2606 3.81897 17.3593 4.03829 16.5081C6.78258 5.809 14.2118 2.97588 17.9237 1.55994L18.2455 1.43757C19.345 1.01617 20.9158 0.717056 22.617 0.506241Z" fill="#B4B4B5"/>
<path d="M4.03815 16.5082C5.24632 19.6989 7.2731 26.1464 6.99953 32.9061C6.6123 42.4547 10.2628 45.3461 11.577 64.8194C12.8912 84.2937 11.8285 104.74 10.6659 107.703C9.50452 110.665 5.08482 101.531 4.50921 97.2134C4.50921 97.2134 4.11224 96.396 3.49336 95.1104C3.59445 88.6511 3.99512 83.9853 4.71275 80.8656C5.26752 78.4598 4.57591 45.2669 4.54509 43.7833L3.47375 42.3207L3.47511 19.2155C3.6302 18.2607 3.81882 17.3595 4.03815 16.5082Z" fill="#B4B4B5"/>
<path opacity="0.4" fill-rule="evenodd" clip-rule="evenodd" d="M54.1105 118.999C54.4109 118.779 59.0887 112.52 59.6611 104.619C60.2336 96.7179 59.332 89.8285 59.0533 89.3045C58.7747 88.7805 56.9868 88.4312 56.8637 87.8489C56.7405 87.2668 56.1421 108.454 52.1768 109.741C46.0766 111.72 39.0499 130 54.1105 118.999Z" fill="#B7BDC1"/>
<path opacity="0.4" fill-rule="evenodd" clip-rule="evenodd" d="M55.9457 50.1785C55.3241 48.1845 56.6691 35.39 54.3624 27.5882C52.0556 19.7863 46.3901 4.34394 45.0313 3.85576C43.6725 3.36747 47.5174 1.62144 50.0525 4.64839C52.5876 7.67534 60.6282 14.5725 59.661 24.9099C58.6935 35.2474 58.8495 59.4943 55.9457 50.1785Z" fill="#B4B4B5"/>
<path d="M10.3622 41.2507C10.3613 32.4401 17.4321 10.5226 18.8992 7.48169C20.678 3.79692 32.0568 3.85228 32.5402 3.85628L32.5368 4.18536C32.4209 4.18425 20.9097 4.12678 19.2259 7.61528C17.764 10.6443 10.716 32.4653 10.7155 41.2145C10.7155 41.9259 10.7617 42.5496 10.8618 43.0712L10.5102 43.1284C10.4092 42.6017 10.3622 41.969 10.3622 41.2507Z" fill="black"/>
<path d="M10.2961 45.261L10.3466 45.1975C14.0785 40.5089 19.9194 38.5208 24.1621 37.6784C28.7502 36.7675 32.5123 36.9642 32.5499 36.9664L32.5282 37.2947C32.4913 37.2925 28.77 37.0989 24.2281 38.0018C20.0681 38.8288 14.3508 40.7713 10.6851 45.3287L14.8682 59.856C16.3498 59.7028 28.1087 58.4948 32.5298 58.2837L32.5482 58.6121C27.8608 58.8362 14.8857 60.185 14.7554 60.1987L14.6021 60.2147L10.2961 45.261Z" fill="black"/>
<path d="M14.5818 10.852L18.3319 9.14424L18.411 9.29169L14.6609 10.9997L14.5818 10.852Z" fill="black"/>
<path d="M3.48254 19.7863L5.69535 15.1634L7.3063 13.8979L7.42046 14.0176L5.84256 15.2676L3.48254 20.1392V19.7863Z" fill="black"/>
<path d="M32.4082 3.85616C32.892 3.85216 44.2709 3.7968 46.049 7.48158C47.6403 10.7788 55.8119 36.1908 54.4725 43.17L54.1206 43.1126C55.4464 36.1869 47.3075 10.899 45.7224 7.61515C44.0386 4.12666 32.5275 4.18413 32.4115 4.18524L32.4082 3.85616Z" fill="black"/>
<path d="M32.3994 36.9664C32.437 36.9642 36.199 36.7675 40.787 37.6784C45.0302 38.5208 50.8712 40.5089 54.6031 45.1975L54.6533 45.261L54.6317 45.3369L50.3474 60.2147L50.1943 60.1987C50.0636 60.185 37.0886 58.8362 32.401 58.6121L32.4194 58.2837C36.8406 58.4948 48.5996 59.7028 50.0812 59.856L54.2643 45.3287C47.2232 36.5738 32.5687 37.2863 32.421 37.2947L32.3994 36.9664Z" fill="black"/>
<path d="M46.5377 9.29169L46.6169 9.14424L50.3672 10.852L50.288 10.9997L46.5377 9.29169Z" fill="black"/>
<path d="M57.5304 14.0115L57.6453 13.8856L59.2581 15.1389L59.2699 15.1565L61.4258 19.6713V19.9705L59.1146 15.24L57.5304 14.0115Z" fill="black"/>
<path d="M14.7629 8.12175C15.7406 13.4805 11.0879 15.9504 9.03027 16.5769C6.9998 17.1951 6.35749 15.4776 6.35749 15.4776C6.35614 15.4475 6.3549 15.4183 6.3549 15.388C6.27353 12.6747 8.69852 9.79731 10.9695 8.29527C12.7915 7.08657 14.5151 6.76515 14.7629 8.12175Z" fill="#696767"/>
<path d="M8.86072 14.8132L9.38295 11.2616C9.38295 11.2616 9.04046 14.0805 8.86072 14.8132Z" fill="#696767"/>
<path d="M8.39799 14.7207C8.39799 14.7207 6.34063 15.1726 7.58888 13.1563C7.58888 13.1563 6.49474 14.9172 8.39799 14.7207Z" fill="#696767"/>
<path d="M49.8812 8.12175C48.9036 13.4805 53.5563 15.9504 55.6139 16.5769C57.6444 17.1951 58.2867 15.4776 58.2867 15.4776C58.288 15.4475 58.2892 15.4183 58.2892 15.388C58.3706 12.6747 55.9456 9.79731 53.6746 8.29527C51.8525 7.08657 50.129 6.76515 49.8812 8.12175Z" fill="#696767"/>
<path d="M56.2462 14.7207C56.2462 14.7207 58.3036 15.1726 57.0553 13.1563C57.0552 13.1563 58.1493 14.9172 56.2462 14.7207Z" fill="#696767"/>
<path d="M8.45421 46.7185C8.45421 46.7185 10.5088 58.2911 11.413 59.766C12.3172 61.2411 13.6321 60.4648 14.9472 60.3095C16.2622 60.1544 29.9878 56.9324 47.6173 60.0765C47.6173 60.0765 50.4119 60.7751 50.9051 60.814C51.3982 60.8527 51.8913 60.9305 52.4255 59.4165C52.9597 57.9027 55.3225 47.5003 55.3225 45.8699C55.3225 44.2396 48.9117 35.2346 31.8884 34.3029C14.8651 33.3713 7.92693 43.8682 8.45421 46.7185Z" fill="#070707"/>
<path d="M10.2627 45.3461C10.2627 45.3461 10.5709 51.6924 12.6667 57.049C12.6667 57.049 28.1388 53.9049 50.6996 57.049L53.1755 45.4044C53.1755 45.4044 32.2666 28.881 10.2627 45.3461Z" fill="#261E13"/>
<path d="M12.6055 51.1489C12.6055 51.1489 16.6738 47.5003 18.6464 47.2674C20.6189 47.0346 24.9337 46.9764 26.7829 49.4799C28.6322 51.9835 31.2828 52.0417 37.8168 52.391C44.3508 52.7403 51.592 52.4755 51.592 52.4755L51.3033 53.9807C51.3033 53.9807 33.9333 54.8364 28.6937 53.9048C23.4542 52.9733 16.7352 52.2746 13.0984 53.3226L12.6055 51.1489Z" fill="#261E13"/>
<path d="M38.2406 52.5911C38.2406 52.5911 38.618 45.6761 39.2754 45.2102C39.9329 44.7445 41.5356 45.1714 43.4671 45.7147C45.3986 46.2582 46.5902 46.8405 46.7135 47.772C46.8368 48.7036 47.0012 52.5654 47.0012 52.5654" fill="#261E13"/>
<path d="M12.0504 50.1786C12.0504 50.1786 15.8106 49.1307 14.8859 43.2502C14.8859 43.2502 16.3345 48.7813 12.0504 50.1786Z" fill="#261E13"/>
<path d="M29.8647 39.744V49.597L26.9207 47.4937L25.9648 41.5078C25.2983 41.5622 18.9795 42.1483 15.1983 44.9842L15.1217 44.893C19.1271 41.889 25.9444 41.3918 26.0128 41.3872L26.0698 41.3832L27.0351 47.4295L29.7414 49.363V39.744H29.8647Z" fill="#261E13"/>
<path d="M29.8048 44.1816L26.4607 44.2703L26.4574 44.1539L29.8015 44.0653L29.8048 44.1816Z" fill="#261E13"/>
<path d="M26.5359 44.846V44.9586H29.8645V44.846H26.5359Z" fill="#261E13"/>
<path d="M26.7823 45.9555V46.0681H29.8644V45.9555H26.7823Z" fill="#261E13"/>
<path d="M27.0294 47.5089V47.6215H29.8649V47.5089H27.0294Z" fill="#261E13"/>
<path d="M28.1388 48.1746V48.2872H29.8648V48.1746H28.1388Z" fill="#261E13"/>
<path d="M29.3716 39.6417V41.4083H29.2483V39.7562C28.563 39.7537 22.1647 39.8295 15.1502 43.3017L15.0929 43.1984C22.5101 39.527 29.2443 39.6387 29.3115 39.6402L29.3716 39.6417Z" fill="#261E13"/>
<path d="M28.6316 39.7441V41.4083H28.7549V39.7441H28.6316Z" fill="#261E13"/>
<path d="M27.769 39.855V41.4083H27.8923V39.855H27.769Z" fill="#261E13"/>
<path d="M27.0294 39.855V41.4083H27.1527V39.855H27.0294Z" fill="#261E13"/>
<path d="M26.2896 39.966V41.4083H26.4128V39.966H26.2896Z" fill="#261E13"/>
<path d="M25.5498 40.0769V41.4083H25.6731V40.0769H25.5498Z" fill="#261E13"/>
<path d="M24.9335 40.0768V41.5192H25.0568V40.0768H24.9335Z" fill="#261E13"/>
<path d="M24.1938 40.1877V41.6301H24.3171V40.1877H24.1938Z" fill="#261E13"/>
<path d="M23.4541 40.4097V41.7411H23.5774V40.4097H23.4541Z" fill="#261E13"/>
<path d="M22.5909 40.5206V41.9629H22.7142V40.5206H22.5909Z" fill="#261E13"/>
<path d="M21.9745 40.7426V42.074H22.0978V40.7426H21.9745Z" fill="#261E13"/>
<path d="M21.235 40.8534V42.2958H21.3583V40.8534H21.235Z" fill="#261E13"/>
<path d="M20.3717 41.1864V42.5178H20.495V41.1864H20.3717Z" fill="#261E13"/>
<path d="M19.6322 41.4083V42.7397H19.7555V41.4083H19.6322Z" fill="#261E13"/>
<path d="M18.8925 41.6301V42.9615H19.0157V41.6301H18.8925Z" fill="#261E13"/>
<path d="M18.1528 41.9629V43.2943H18.2761V41.9629H18.1528Z" fill="#261E13"/>
<path d="M17.4132 42.2959V43.5163H17.5365V42.2959H17.4132Z" fill="#261E13"/>
<path d="M16.7968 42.5177V43.8492H16.92V42.5177H16.7968Z" fill="#261E13"/>
<path d="M16.0571 42.7396V44.2929H16.1804V42.7396H16.0571Z" fill="#261E13"/>
<path d="M15.3173 43.1835V44.8477H15.4405V43.1835H15.3173Z" fill="#261E13"/>
<path d="M15.1943 44.8477V44.9586H14.3107L12.1012 49.9491L11.9874 49.912L14.2286 44.8477H15.1943Z" fill="#261E13"/>
<path d="M12.2351 49.506V49.6186H13.2214V49.506H12.2351Z" fill="#261E13"/>
<path d="M12.4819 48.731V48.9529H13.9613V48.731H12.4819Z" fill="#261E13"/>
<path d="M12.8519 48.0637V48.1763H14.4546V48.0637H12.8519Z" fill="#261E13"/>
<path d="M13.0983 47.398V47.5106H14.701V47.398H13.0983Z" fill="#261E13"/>
<path d="M13.468 46.7322V46.8449H14.9474V46.7322H13.468Z" fill="#261E13"/>
<path d="M13.7144 45.9555V46.0681H15.0705V45.9555H13.7144Z" fill="#261E13"/>
<path d="M14.0844 45.2899V45.4026H15.0706V45.2899H14.0844Z" fill="#261E13"/>
<path d="M51.5561 50.1786C51.5561 50.1786 47.796 49.1307 48.7206 43.2502C48.7206 43.2502 47.2721 48.7813 51.5561 50.1786Z" fill="#261E13"/>
<path d="M48.4558 44.8929L48.3792 44.9841C44.5976 42.1479 38.3032 41.5621 37.6385 41.5077L37.0022 45.4712L36.6722 47.4939L33.6868 49.5958V39.7441H33.8101V49.3641L36.558 47.4293L36.8803 45.4537L37.5337 41.3831L37.5905 41.3871C37.6587 41.3918 44.4504 41.889 48.4558 44.8929Z" fill="#261E13"/>
<path d="M37.149 44.1539L37.1457 44.2703L33.8016 44.1816L33.805 44.0653L37.149 44.1539Z" fill="#261E13"/>
<path d="M33.6868 44.846V44.9586H37.0154V44.846H33.6868Z" fill="#261E13"/>
<path d="M33.6868 45.9555V46.0681H36.7689V45.9555H33.6868Z" fill="#261E13"/>
<path d="M33.6868 46.8431V46.9557H36.6456V46.8431H33.6868Z" fill="#261E13"/>
<path d="M33.6868 47.5089V47.6215H36.5223V47.5089H33.6868Z" fill="#261E13"/>
<path d="M33.6868 48.1746V48.2872H35.4127V48.1746H33.6868Z" fill="#261E13"/>
<path d="M48.7041 43.32L48.6948 43.4245C41.6786 39.9514 34.9883 39.7535 34.3032 39.7561V41.1864H34.1799V39.6416L34.24 39.6402C34.3072 39.6387 41.2869 39.6487 48.7041 43.32Z" fill="#261E13"/>
<path d="M34.7961 39.7439V41.2972H34.9194V39.7439H34.7961Z" fill="#261E13"/>
<path d="M35.6588 39.8549V41.2972H35.7821V39.8549H35.6588Z" fill="#261E13"/>
<path d="M36.3986 39.8549V41.2972H36.5218V39.8549H36.3986Z" fill="#261E13"/>
<path d="M37.1384 39.966V41.4083H37.2617V39.966H37.1384Z" fill="#261E13"/>
<path d="M37.8781 40.0769V41.4083H38.0013V40.0769H37.8781Z" fill="#261E13"/>
<path d="M38.4949 40.0768V41.5192H38.6182V40.0768H38.4949Z" fill="#261E13"/>
<path d="M39.2345 40.1877V41.6301H39.3578V40.1877H39.2345Z" fill="#261E13"/>
<path d="M39.9741 40.4097V41.7411H40.0974V40.4097H39.9741Z" fill="#261E13"/>
<path d="M40.8369 40.5206V41.9629H40.9602V40.5206H40.8369Z" fill="#261E13"/>
<path d="M41.4535 40.7426V42.074H41.5768V40.7426H41.4535Z" fill="#261E13"/>
<path d="M42.1934 40.8534V42.2958H42.3166V40.8534H42.1934Z" fill="#261E13"/>
<path d="M43.0559 41.1864V42.5178H43.1792V41.1864H43.0559Z" fill="#261E13"/>
<path d="M43.7958 41.4083V42.7397H43.9191V41.4083H43.7958Z" fill="#261E13"/>
<path d="M44.5354 41.6301V42.9615H44.6587V41.6301H44.5354Z" fill="#261E13"/>
<path d="M45.3984 41.963V43.3082L45.2751 43.2172V41.963H45.3984Z" fill="#261E13"/>
<path d="M46.1381 42.2604V43.5163H46.0148V42.2057L46.1381 42.2604Z" fill="#261E13"/>
<path d="M46.6315 42.5177V43.8492H46.7548V42.5177H46.6315Z" fill="#261E13"/>
<path d="M47.4945 42.8024V44.3199L47.3712 44.2398V42.726L47.4945 42.8024Z" fill="#261E13"/>
<path d="M48.2336 43.1919V44.8222L48.1104 44.7566V43.13L48.2336 43.1919Z" fill="#261E13"/>
<path d="M52.085 50.9424L51.9711 50.9968L49.2961 44.9586H48.3574V44.8476H49.3787L49.3944 44.8708L52.085 50.9424Z" fill="#261E13"/>
<path d="M51.3159 49.506L51.3813 49.6186H50.3912L50.3296 49.506H51.3159Z" fill="#261E13"/>
<path d="M49.59 48.731V48.9529H51.0694V48.731H49.59Z" fill="#261E13"/>
<path d="M50.6999 48.0637L50.7923 48.1763H49.1626L49.0972 48.0637H50.6999Z" fill="#261E13"/>
<path d="M48.8503 47.398V47.5106H50.453V47.398H48.8503Z" fill="#261E13"/>
<path d="M50.0835 46.7322L50.1566 46.8448H48.7043L48.6453 46.7322H50.0835Z" fill="#261E13"/>
<path d="M49.8365 45.9555V46.0681H48.5805L48.5497 45.9555H49.8365Z" fill="#261E13"/>
<path d="M49.4666 45.2899L49.5551 45.4026H48.4803V45.2899H49.4666Z" fill="#261E13"/>
<path d="M46.7199 52.5863L46.5967 52.5911C46.5952 52.557 46.4439 49.0485 46.3319 48.2021C46.2324 47.451 45.3781 46.9157 43.383 46.3543C41.8071 45.911 40.1775 45.4524 39.574 45.88C39.0957 46.219 38.7409 50.7557 38.6446 52.4753L38.5216 52.4691C38.5574 51.8307 38.8886 46.22 39.5001 45.7868C40.108 45.3561 41.4461 45.6876 43.4183 46.2426C45.4682 46.8194 46.3477 47.3827 46.4543 48.1874C46.5668 49.0388 46.7185 52.5519 46.7199 52.5863Z" fill="#1C160E"/>
<path d="M12.4819 52.9864C12.4819 52.9864 21.2349 50.4036 27.7691 53.9787L28.3239 54.0731C28.3239 54.0731 24.7795 49.9391 12.4819 52.5077" fill="#261E13"/>
<path d="M37.1384 34.8466L38.3714 36.3991C38.3714 36.3991 45.7649 37.8741 51.5917 41.1152C51.5917 41.1152 47.6175 36.341 37.1384 34.8466Z" fill="#191919"/>
<path d="M14.3308 38.8834H16.6732C16.6732 38.8834 23.7416 35.5841 27.2757 34.8465C27.2757 34.8465 19.3031 35.6618 14.3308 38.8834Z" fill="#191919"/>
<path d="M12.0948 40.6619L16.8787 40.4097H12.3583L12.0948 40.6619Z" fill="#111111"/>
<path d="M8.53658 52.0545C8.53658 52.0545 8.67712 52.5506 8.90273 53.361C9.00875 53.7428 9.1345 54.1948 9.27393 54.6966C10.1306 57.8115 11.4955 62.8758 11.9886 65.3165C12.7283 68.9846 13.3583 78.4166 12.9885 89.9448C12.7739 96.6475 12.6507 102.287 12.33 104.954C12.2659 105.488 12.1944 105.904 12.1118 106.183C12.1118 106.184 12.1118 106.184 12.1118 106.184C11.8652 106.908 11.5669 106.727 11.1391 105.374C9.72133 100.891 6.9339 65.0511 8.53658 52.0545Z" fill="#261E13"/>
<path d="M8.53659 52.0545C8.53659 52.0545 8.69069 52.5506 8.9163 53.361C7.6921 81.8413 11.2488 102.091 12.1118 106.183C12.1118 106.184 12.1118 106.184 12.1118 106.184C11.8652 106.908 11.5669 106.727 11.139 105.374C9.72123 100.891 6.93391 65.0511 8.53659 52.0545Z" fill="#11110F"/>
<path d="M13.0009 89.0862L9.78005 86.0246L9.03012 86.0828C9.03012 86.0828 6.53153 87.9333 4.15833 87.3561C4.15833 87.3561 6.87266 87.7518 8.93667 85.9277L9.80458 85.8602C9.8047 85.8602 11.7006 87.2667 13.0009 89.0862Z" fill="#11110F"/>
<path d="M5.13276 73.6554C5.04905 73.9318 5.06988 78.2153 5.13276 78.9614C5.19551 79.7077 6.02175 80.6886 6.02175 80.6886C6.02175 80.6297 6.02336 79.6581 6.02151 78.4768C6.02175 78.4771 6.022 78.4775 6.02224 78.4777C6.02224 78.4777 6.47704 78.5052 6.55027 77.773C6.6235 77.0406 6.81076 74.3326 5.94778 74.1529C5.94778 74.1529 5.94778 74.1549 5.94778 74.155C5.94778 74.1144 5.95727 74.0829 5.95419 74.0698C5.89156 73.8074 5.21634 73.3789 5.13276 73.6554Z" fill="#17242C"/>
<path d="M59.6992 73.6554C59.7829 73.9318 59.7621 78.2153 59.6992 78.9614C59.6364 79.7077 58.8102 80.6886 58.8102 80.6886C58.8102 80.6297 58.8086 79.6581 58.8105 78.4768C58.8102 78.4771 58.81 78.4775 58.8097 78.4777C58.8097 78.4777 58.331 78.5052 58.2578 77.773C58.1846 77.0406 57.9734 74.3326 58.8364 74.1529C58.8364 74.1529 58.8364 74.1549 58.8364 74.155C58.8364 74.1144 58.8506 74.0829 58.8539 74.0698C58.9166 73.8074 59.6156 73.3789 59.6992 73.6554Z" fill="#17242C"/>
<path d="M56.4029 52.0547C56.4029 52.0547 56.2623 52.5508 56.0367 53.3612C55.9307 53.743 55.805 54.195 55.6655 54.6968C54.8088 57.8117 53.444 62.876 52.9508 65.3167C52.2111 68.9848 51.5811 78.4168 51.951 89.945C52.1655 96.6477 52.2728 102.287 52.5934 104.954C52.6575 105.488 52.7956 105.904 52.7956 106.183C52.7956 106.185 52.7956 106.185 52.7956 106.185C53.0422 106.908 53.3565 106.727 53.7843 105.374C55.2021 100.891 58.0056 65.0513 56.4029 52.0547Z" fill="#261E13"/>
<path d="M56.4027 52.0547C56.4027 52.0547 56.2486 52.5508 56.023 53.3612C57.2472 81.8415 53.6905 102.091 52.8275 106.183C52.8275 106.185 52.8275 106.185 52.8275 106.185C53.0741 106.908 53.3724 106.727 53.8003 105.374C55.2181 100.891 58.0054 65.0513 56.4027 52.0547Z" fill="#11110F"/>
<path d="M51.9385 89.0862L55.1594 86.0246L55.9093 86.0828C55.9093 86.0828 58.4079 87.9333 60.7811 87.356C60.7811 87.356 57.6961 87.645 56.0028 85.9276L55.1348 85.8602C55.1348 85.8602 53.239 87.2667 51.9385 89.0862Z" fill="#11110F"/>
<path d="M58.1596 48.9558C58.1572 49.0793 58.1757 49.3157 58.2077 49.6232C58.3359 50.8341 58.6812 53.1374 58.7982 53.9082C58.7982 53.9119 58.7996 53.9152 58.7996 53.9175C58.8229 54.0761 58.8378 54.1668 58.8378 54.1668C60.5145 54.7618 64.2783 56.6647 64.8997 55.6457C64.9477 55.5676 64.9773 55.4734 64.986 55.3604C65.0057 55.1018 65.0043 54.848 64.9847 54.6012C64.7295 51.3255 61.2344 49.0432 59.9166 48.2712C59.6959 48.143 59.5023 48.0534 59.3322 47.9962C58.4062 47.6889 58.1733 48.3539 58.1596 48.9558Z" fill="#B4B4B5"/>
<path d="M58.798 53.9083C58.8226 54.0725 58.8374 54.1669 58.8374 54.1669C60.5141 54.7618 64.2779 56.6647 64.8993 55.6458C64.8993 55.6458 64.4924 55.2975 62.9218 54.6013C61.4621 53.9549 59.063 52.5308 58.798 53.9083Z" fill="#17181C"/>
<path d="M58.1599 48.9396C59.1006 48.0173 60.4271 49.2169 61.3036 49.6838C61.9854 50.047 63.2157 51.1148 63.8654 51.6971C62.6573 49.9819 60.7994 48.7883 59.9167 48.2713C58.51 47.448 58.1809 48.2316 58.1599 48.9396Z" fill="#3F4247"/>
<path d="M6.84047 48.8395C6.84294 48.963 6.82444 49.1993 6.79239 49.5068C6.66417 50.7178 6.31886 53.0212 6.20186 53.7919C6.20186 53.7955 6.2005 53.799 6.2005 53.8012C6.1772 53.9598 6.16229 54.0505 6.16229 54.0505C4.48563 54.6454 0.721794 56.5483 0.100447 55.5293C0.0523661 55.4512 0.0227766 55.357 0.0141467 55.2441C-0.00557859 54.9855 -0.00422127 54.7317 0.0153808 54.4848C0.270577 51.2093 3.76566 48.9268 5.08356 48.1548C5.30423 48.0267 5.49779 47.937 5.66793 47.8799C6.59391 47.5725 6.82679 48.2375 6.84047 48.8395Z" fill="#B4B4B5"/>
<path d="M6.20188 53.7919C6.17722 53.9561 6.16243 54.0505 6.16243 54.0505C4.48577 54.6454 0.721934 56.5483 0.100586 55.5294C0.100586 55.5294 0.507418 55.1811 2.07805 54.4849C3.53772 53.8386 5.93682 52.4144 6.20188 53.7919Z" fill="#17181C"/>
<path d="M6.81005 48.8231V48.8394C6.81005 48.9629 6.81005 49.1993 6.778 49.5068C6.46855 49.2877 5.97172 49.3636 5.38243 49.6011C4.69081 49.8783 3.87098 50.3801 3.08073 50.8914C1.84297 51.6925 0.603967 53.5312 0.012207 54.4849C0.0960397 53.4018 0.536164 52.4285 1.13286 51.5807C2.34103 49.8655 4.18535 48.6719 5.06806 48.1549C5.29613 48.0222 5.49462 47.9313 5.66968 47.8743C6.57458 47.583 6.81005 48.2294 6.81005 48.8231Z" fill="#B4B4B5"/>
<path d="M6.84069 48.823C5.90004 47.9007 4.57351 49.1003 3.69696 49.5671C3.01521 49.9305 1.78484 50.9983 1.13513 51.5804C2.34331 49.8653 4.20119 48.6717 5.0839 48.1546C6.49057 47.3315 6.81973 48.115 6.84069 48.823Z" fill="#3F4247"/>
<path d="M49.8554 92.664C51.3805 93.0242 51.3805 94.7049 51.3805 94.7049C50.9483 102.787 49.6736 112.397 48.9021 117.719C48.5398 120.222 48.2881 121.777 48.2881 121.777C33.2051 128.56 16.9996 122.677 16.4912 121.777C16.3666 121.557 16.1672 119.934 15.9371 117.582C15.2228 110.314 14.2187 96.0807 14.2669 94.7649C14.3305 93.0243 16.0896 92.664 16.0896 92.664C16.0896 92.664 48.3301 92.3038 49.8554 92.664Z" fill="#020204"/>
<path d="M16.809 94.4047H48.9656L49.9823 95.185L48.0834 112.224L48.0758 112.292C48.0758 112.292 41.8237 114.37 33.942 114.762C32.8211 114.818 31.6671 114.84 30.4938 114.816C29.8826 114.805 29.266 114.781 28.647 114.743C24.9663 114.519 21.1621 113.811 17.6301 112.3C17.6249 112.297 17.6186 112.295 17.6136 112.292L15.9369 95.4647L16.809 94.4047Z" fill="#130E08"/>
<path d="M42.3563 104.65H43.5003C43.5435 104.65 43.6017 104.663 43.6424 104.671C43.9322 104.727 44.1657 104.979 44.1657 105.269V107.07C44.1657 107.36 43.9321 107.646 43.6424 107.701C43.6017 107.71 43.5434 107.756 43.5003 107.756H42.3563C42.0056 107.756 41.7002 107.401 41.7002 107.07V105.269C41.7002 104.938 42.0056 104.65 42.3563 104.65Z" fill="#020204"/>
<path d="M22.1469 104.65H23.2909C23.3341 104.65 23.3877 104.663 23.4283 104.671C23.7182 104.727 23.947 104.979 23.947 105.269V107.07C23.947 107.36 23.7182 107.646 23.4283 107.701C23.3877 107.71 23.334 107.756 23.2909 107.756H22.1469C21.7962 107.756 21.4814 107.401 21.4814 107.07V105.269C21.4814 104.938 21.7962 104.65 22.1469 104.65Z" fill="#020204"/>
<path d="M22.1467 104.669H22.7301C22.7632 104.742 22.7823 104.824 22.7823 104.909V107.43C22.7823 107.515 22.7632 107.597 22.7301 107.67H22.1467C21.796 107.67 21.5114 107.401 21.5114 107.07V105.269C21.5114 104.938 21.796 104.669 22.1467 104.669Z" fill="#1A1706"/>
<path d="M30.9345 119.854C22.2215 120.988 16.3723 117.8 16.3141 117.768L16.4433 117.561C16.5006 117.593 22.279 120.738 30.8997 119.617L30.9345 119.854Z" fill="black"/>
<path d="M30.9345 120.695C22.2215 121.828 16.3723 118.641 16.3141 118.608L16.4433 118.402C16.5006 118.433 22.279 121.578 30.8997 120.457L30.9345 120.695Z" fill="black"/>
<path d="M30.9345 121.535C22.2215 122.668 16.3723 119.481 16.3141 119.449L16.4433 119.242C16.5006 119.274 22.279 122.419 30.8997 121.298L30.9345 121.535Z" fill="black"/>
<path d="M30.9345 122.256C22.2215 123.389 16.3723 120.201 16.3141 120.169L16.4433 119.962C16.5006 119.994 22.279 123.139 30.8997 122.018L30.9345 122.256Z" fill="black"/>
<path d="M33.9813 121.535C42.6944 122.668 48.5435 119.481 48.6017 119.449L48.4725 119.242C48.4152 119.274 42.6368 122.419 34.0161 121.298L33.9813 121.535Z" fill="black"/>
<path d="M33.9813 122.256C42.6944 123.389 48.5435 120.201 48.6017 120.169L48.4725 119.962C48.4152 119.994 42.6368 123.139 34.0161 122.018L33.9813 122.256Z" fill="black"/>
<path d="M19.1522 117.755H19.3427L19.5466 122.098L19.4368 122.026L19.1522 117.755Z" fill="#000004"/>
<path d="M20.6169 117.995H20.8073L21.0112 122.338L20.9014 122.266L20.6169 117.995Z" fill="#000004"/>
<path d="M25.1339 118.715H25.3243L25.5282 123.059L25.4182 122.987L25.1339 118.715Z" fill="#000004"/>
<path d="M26.6656 118.827L26.856 118.833L26.93 123.18L26.8221 123.105L26.6656 118.827Z" fill="#000004"/>
<path d="M28.1305 118.947L28.3207 118.953L28.3947 123.3L28.2871 123.225L28.1305 118.947Z" fill="#000004"/>
<path d="M29.5953 119.068L29.7856 119.073L29.8597 123.421L29.7519 123.345L29.5953 119.068Z" fill="#000004"/>
<path d="M31.4204 123.997C31.5888 123.997 31.7256 123.819 31.7256 123.6V122.804C31.7256 122.585 31.5889 122.407 31.4204 122.407C31.2517 122.407 31.1151 122.585 31.1151 122.804V123.6C31.1151 123.819 31.2517 123.997 31.4204 123.997Z" fill="#000004"/>
<path d="M47.1064 117.394H46.916L46.7122 121.738L46.822 121.666L47.1064 117.394Z" fill="#000004"/>
<path d="M48.0833 117.035H47.893L47.6891 121.378L47.7989 121.306L48.0833 117.035Z" fill="#000004"/>
<path d="M45.6418 117.755H45.4515L45.2476 122.098L45.3576 122.026L45.6418 117.755Z" fill="#000004"/>
<path d="M44.177 117.995H43.9865L43.7826 122.338L43.8926 122.266L44.177 117.995Z" fill="#000004"/>
<path d="M42.7121 118.355H42.5217L42.3176 122.698L42.4276 122.626L42.7121 118.355Z" fill="#000004"/>
<path d="M41.2473 118.475H41.0568L40.8528 122.819L40.9628 122.747L41.2473 118.475Z" fill="#000004"/>
<path d="M38.1279 118.827L37.9375 118.833L37.8635 123.18L37.9714 123.105L38.1279 118.827Z" fill="#000004"/>
<path d="M36.6632 118.947L36.4731 118.953L36.399 123.3L36.5069 123.225L36.6632 118.947Z" fill="#000004"/>
<path d="M35.1984 119.068L35.0081 119.073L34.9342 123.421L35.0418 123.345L35.1984 119.068Z" fill="#000004"/>
<path d="M33.3735 123.997C33.205 123.997 33.0682 123.819 33.0682 123.6V122.804C33.0682 122.585 33.2048 122.407 33.3735 122.407C33.542 122.407 33.6786 122.585 33.6786 122.804V123.6C33.6786 123.819 33.5421 123.997 33.3735 123.997Z" fill="#000004"/>
<path d="M33.3735 117.995C33.205 117.995 33.0682 117.817 33.0682 117.597V116.802C33.0682 116.582 33.2048 116.404 33.3735 116.404C33.542 116.404 33.6786 116.582 33.6786 116.802V117.597C33.6786 117.817 33.5421 117.995 33.3735 117.995Z" fill="#000004"/>
<path d="M18.1119 94.2041L17.8104 97.6609L47.8531 98.2708L49.0888 94.1718L18.1119 94.2041Z" fill="#020204"/>
<path d="M47.5411 111.688L48.0836 112.225L48.076 112.292C48.076 112.292 41.7604 114.39 33.8208 114.769L29.6612 114.793C25.6693 114.643 21.4875 113.95 17.63 112.3C17.6733 112.237 17.8125 112.06 18.101 111.861C18.101 111.861 18.101 111.861 18.1022 111.861C18.2613 111.931 29.7601 116.881 47.5411 111.688Z" fill="#14130C"/>
<path d="M19.1394 127.68C19.1394 127.68 33.679 131.749 46.424 126.907L46.8 125.491C46.8 125.491 32.454 130.497 19.1394 126.145V127.68Z" fill="black"/>
<path d="M3.59688 106.801L3.53857 105.791C5.77888 117.926 13.7501 124.09 19.7972 126.214C26.3576 128.517 32.4692 127.94 32.5301 127.934L32.5475 128.115C32.4864 128.121 26.3414 128.702 19.7444 126.387C15.8673 125.027 12.5937 122.947 10.0149 120.206C6.7914 116.78 4.59326 112.197 3.59688 106.801Z" fill="black"/>
<path d="M18.7696 126.124C18.7696 126.124 12.1123 122.79 8.59851 118.226C8.59851 118.226 10.6329 123.887 18.7696 127.325V126.124Z" fill="#B50000"/>
<path d="M32.4014 128.115L32.4188 127.934C32.4797 127.94 38.5913 128.517 45.1519 126.214C51.199 124.09 59.1636 117.843 61.4041 105.708L61.3356 106.898C60.3392 112.294 58.1575 116.78 54.9341 120.206C52.3551 122.947 49.0817 125.027 45.2043 126.387C38.6075 128.702 32.4625 128.121 32.4014 128.115Z" fill="black"/>
<path d="M46.3849 125.737C46.3849 125.737 53.7444 122.813 56.8639 117.84C56.8639 117.84 54.6449 123.501 46.3849 126.938V125.737Z" fill="#B50000"/>
<path d="M9.22302 118.999C9.22302 118.999 16.2339 129.061 32.4016 128.115C32.4016 128.115 46.335 128.797 55.6748 119.376C55.6748 119.376 49.4684 128.145 32.4539 128.547C18.0452 128.887 11.1419 122.419 9.22302 118.999Z" fill="#B50000"/>
<path d="M18.7155 127.559L19.1393 127.68V126.457L18.7339 126.264L18.7155 127.559Z" fill="#B50000"/>
<path d="M17.9886 126.972L17.8859 125.92L17.1945 125.514L17.161 126.504L17.9886 126.972Z" fill="#B50000"/>
<path d="M16.444 126.264L16.5674 125.414L15.7694 124.805L15.6216 125.702L16.444 126.264Z" fill="#B50000"/>
<path d="M14.8225 125.363L15.112 124.468L14.249 123.946L13.9191 124.542L14.8225 125.363Z" fill="#B50000"/>
<path d="M13.098 123.947L13.3863 123.303L12.3304 122.523L12.1123 123.048L13.098 123.947Z" fill="#B50000"/>
<path d="M19.1392 127.68C19.1392 127.68 11.6972 125.38 8.69922 118.613C8.69922 118.613 12.3845 125.298 19.0289 127.186L19.1392 127.68Z" fill="#B50000"/>
<path d="M46.8281 126.786L46.3849 126.908V125.684L46.7999 125.491L46.8281 126.786Z" fill="#B50000"/>
<path d="M47.5742 126.2L47.6769 125.148L48.3682 124.741L48.4018 125.731L47.5742 126.2Z" fill="#B50000"/>
<path d="M49.1189 125.491L48.9955 124.642L49.7936 124.032L49.9413 124.93L49.1189 125.491Z" fill="#B50000"/>
<path d="M50.7404 124.59L50.4509 123.696L51.3139 123.174L51.6438 123.769L50.7404 124.59Z" fill="#B50000"/>
<path d="M52.4657 123.174L52.1774 122.53L53.2332 121.751L53.4514 122.275L52.4657 123.174Z" fill="#B50000"/>
<path d="M46.4241 126.908C46.4241 126.908 53.8661 124.608 56.8641 117.84C56.8641 117.84 53.1788 124.526 46.5344 126.414L46.4241 126.908Z" fill="#B50000"/>
<path d="M42.3177 128.165C42.3177 128.165 42.0494 127.984 42.8918 127.596C43.7342 127.207 46.3847 126.431 46.3847 126.431L46.4237 126.907C46.4238 126.907 43.0586 128.133 42.3177 128.165Z" fill="#DDDDDD"/>
<path d="M23.206 128.514C23.206 128.514 23.2293 128.362 22.3869 127.974C21.5446 127.586 19.1389 127.193 19.1389 127.193L19.1392 127.68C19.1393 127.68 22.4651 128.482 23.206 128.514Z" fill="#DDDDDD"/>
<path fill-rule="evenodd" clip-rule="evenodd" d="M10.9647 120.762L14.4543 120.279L16.4782 121.514L16.5089 121.776C16.5089 121.776 14.5468 120.59 14.4646 120.57C14.3824 120.551 11.0675 120.857 11.0675 120.857L10.9647 120.762Z" fill="black"/>
<path fill-rule="evenodd" clip-rule="evenodd" d="M54.1105 120.762L50.3743 120.279L48.3504 121.514L48.3197 121.776C48.3197 121.776 50.2818 120.59 50.364 120.57C50.4462 120.551 54.0076 120.857 54.0076 120.857L54.1105 120.762Z" fill="black"/>
<path d="M55.3231 43.4246C55.3231 43.4246 55.211 26.5524 49.0973 13.7423C49.0973 13.7423 49.1281 12.4143 49.9449 13.7423C50.7616 15.0702 53.2189 15.8854 54.8566 18.2725C56.4943 20.6596 57.0491 45.5786 55.3231 43.4246Z" fill="#B4B4B5"/>
<path d="M52.5625 104.681C52.5625 104.681 50.9586 79.2899 51.9387 70.4983C52.9188 61.7067 56.4028 52.0544 56.4028 52.0544C56.4028 52.0544 52.1878 66.1316 52.245 71.8957C52.3025 77.6597 51.713 98.3987 52.5625 104.681Z" fill="black"/>
<path d="M12.3127 104.681C12.3127 104.681 13.9166 79.2899 12.9365 70.4983C11.9564 61.7067 8.47241 52.0544 8.47241 52.0544C8.47241 52.0544 12.6873 66.1316 12.6301 71.8957C12.5728 77.6597 13.1622 98.3987 12.3127 104.681Z" fill="black"/>
<path fill-rule="evenodd" clip-rule="evenodd" d="M31.2826 125.491C31.2826 125.491 39.5089 125.773 46.1382 123.181C46.1382 123.181 40.4672 126.686 31.2826 125.491Z" fill="#B7BDC1"/>
<path fill-rule="evenodd" clip-rule="evenodd" d="M34.91 114.706C34.91 114.706 35.4479 114.146 36.663 113.913C37.878 113.68 46.8344 111.269 47.4727 111.621C48.1111 111.973 48.234 112.283 48.234 112.283C48.234 112.283 39.8506 114.706 34.91 114.706Z" fill="#14130C"/>
<path d="M17.783 8.91772C17.783 8.91772 18.3069 6.10402 20.6493 5.34712C20.6493 5.34723 18.3365 5.87846 17.783 8.91772Z" fill="white"/>
</svg>
