<svg width="67" height="67" viewBox="0 0 67 67" fill="none" xmlns="http://www.w3.org/2000/svg">
<path d="M33.3618 63.3629C49.9304 63.3629 63.3618 49.9315 63.3618 33.3629C63.3618 16.7944 49.9304 3.36292 33.3618 3.36292C16.7933 3.36292 3.36182 16.7944 3.36182 33.3629C3.36182 49.9315 16.7933 63.3629 33.3618 63.3629Z" fill="white" stroke="#84A59D" stroke-width="6"/>
<path d="M26.2523 18.1323H23.4806C21.5897 18.1323 20.0568 19.6652 20.0568 21.5561V45.17C20.0568 47.061 21.5897 48.5939 23.4806 48.5939H26.2523C28.1432 48.5939 29.6761 47.061 29.6761 45.17V21.5561C29.6761 19.6652 28.1432 18.1323 26.2523 18.1323Z" fill="#F28482"/>
<path d="M37.0466 39.024V45.1702C37.0466 45.6198 37.1352 46.0651 37.3073 46.4805C37.4793 46.8959 37.7315 47.2733 38.0495 47.5913C38.3674 47.9092 38.7448 48.1614 39.1602 48.3335C39.5757 48.5055 40.0209 48.5941 40.4705 48.5941H43.2421C43.6918 48.5941 44.137 48.5055 44.5524 48.3335C44.9678 48.1614 45.3452 47.9092 45.6632 47.5913C45.9811 47.2733 46.2333 46.8959 46.4054 46.4805C46.5774 46.0651 46.666 45.6198 46.666 45.1702V21.5563C46.6654 20.6486 46.3043 19.7784 45.6623 19.1368C45.0203 18.4952 44.1498 18.1348 43.2421 18.1348H40.4705C39.5624 18.1348 38.6916 18.4956 38.0495 19.1377C37.4074 19.7798 37.0466 20.6506 37.0466 21.5587V39.024Z" fill="#F28482"/>
</svg>
