<svg width="66" height="66" viewBox="0 0 66 66" fill="none" xmlns="http://www.w3.org/2000/svg">
<path d="M33 63C49.5685 63 63 49.5685 63 33C63 16.4315 49.5685 3 33 3C16.4315 3 3 16.4315 3 33C3 49.5685 16.4315 63 33 63Z" fill="white" stroke="#84A59D" stroke-width="6"/>
<path d="M43.5079 18H19.6231C18.7267 18 18 18.7267 18 19.6231V46.3769C18 47.2733 18.7267 48 19.6231 48H46.3769C47.2733 48 48 47.2733 48 46.3769V22.4923C48 22.1873 47.8789 21.895 47.6632 21.6793L44.3207 18.3368C44.1052 18.1212 43.8129 18 43.5079 18Z" fill="#478CF7"/>
<path d="M41.9103 28.9043H24.0899C23.4549 28.9043 22.9402 28.3897 22.9402 27.7547V18H43.0601V27.7545C43.0599 28.3895 42.5452 28.9043 41.9103 28.9043Z" fill="#E6E7E8"/>
<path d="M41.9103 28.9043H28.3535C27.7185 28.9043 27.2038 28.3897 27.2038 27.7547V18H43.0601V27.7545C43.0599 28.3895 42.5452 28.9043 41.9103 28.9043Z" fill="#E6E7E8"/>
<path d="M43.0599 48.0002V34.4052C43.0599 33.8673 42.624 33.4313 42.0861 33.4313H23.9141C23.3762 33.4313 22.9402 33.8673 22.9402 34.4052V48.0002H43.0599Z" fill="#F1F2F2"/>
<path d="M40.6168 26.9282H38.3174C37.9999 26.9282 37.7425 26.6708 37.7425 26.3533V20.0659C37.7425 19.7484 37.9999 19.491 38.3174 19.491H40.6168C40.9343 19.491 41.1917 19.7484 41.1917 20.0659V26.3533C41.1917 26.6708 40.9343 26.9282 40.6168 26.9282Z" fill="#377DE2"/>
<path d="M21.6468 45.1438H19.7426C19.5838 45.1438 19.4551 45.0151 19.4551 44.8564V43.6707C19.4551 43.512 19.5838 43.3832 19.7426 43.3832H21.6468C21.8055 43.3832 21.9342 43.512 21.9342 43.6707V44.8564C21.9342 45.0151 21.8055 45.1438 21.6468 45.1438Z" fill="#2266D3"/>
<path d="M46.2576 45.1438H44.3534C44.1947 45.1438 44.0659 45.015 44.0659 44.8563V43.6706C44.0659 43.5119 44.1947 43.3832 44.3534 43.3832H46.2576C46.4164 43.3832 46.5451 43.5119 46.5451 43.6706V44.8563C46.5451 45.015 46.4164 45.1438 46.2576 45.1438Z" fill="#2266D3"/>
</svg>
