<svg width="67" height="132" viewBox="0 0 67 132" fill="none" xmlns="http://www.w3.org/2000/svg">
<path d="M33.4424 1.34682L38.7757 1.12357C38.7757 1.12357 47.2493 4.69837 50.9022 6.1881C54.555 7.67784 57.0384 8.71967 58.0618 10.0606C59.0852 11.4015 60.1072 12.1456 61.2766 13.933C62.446 15.7204 62.884 18.4008 62.884 18.4008C62.884 18.4008 63.322 32.2521 62.592 35.6781C61.862 39.1041 61.2766 40.2947 60.8386 52.3601C60.4006 64.4254 60.6926 76.4878 60.6926 79.765C60.6926 83.0421 60.4006 87.8076 61.1306 90.0415C61.8606 92.2754 62.738 94.5093 63.03 98.9785C63.322 103.446 63.4681 111.191 62.738 114.915C62.008 118.639 59.8152 123.106 59.5232 124.001C59.2312 124.894 52.949 127.576 52.949 127.576C52.949 127.576 45.6433 130.107 44.7673 130.256C43.8913 130.405 38.193 130.851 33.9548 131H33.2441C29.0073 130.851 23.309 130.405 22.4316 130.256C21.5556 130.107 14.25 127.576 14.25 127.576C14.25 127.576 7.96772 124.895 7.67571 124.001C7.3837 123.108 5.19228 118.639 4.46089 114.915C3.73088 111.191 3.87688 103.446 4.16889 98.9785C4.46089 94.5107 5.33828 92.2768 6.0683 90.0415C6.79831 87.8076 6.50631 83.0407 6.50631 79.765C6.50631 76.4893 6.79832 64.424 6.36031 52.3601C5.9223 40.2961 5.33691 39.1041 4.6069 35.6781C3.87688 32.2521 4.31489 18.4008 4.31489 18.4008C4.31489 18.4008 4.7529 15.7204 5.92229 13.933C7.09169 12.1456 8.11372 11.4015 9.13711 10.0606C10.1605 8.71967 12.6439 7.67784 16.2968 6.1881C19.9496 4.69837 28.4233 1.12357 28.4233 1.12357L33.4424 1.34682Z" fill="#204D8E"/>
<path d="M60.6084 63.5324C60.6084 63.5324 60.3068 67.1325 60.169 67.2729C60.0313 67.4133 59.8935 67.9749 59.7558 69.379C59.6181 70.7831 59.6181 74.1529 59.4803 75.9782C59.3426 77.8035 58.5162 82.7178 58.5162 82.7178C58.5162 82.7178 58.1029 78.0844 58.1029 74.855C58.1029 71.6256 58.1029 63.7627 58.1029 63.7627L57.9652 53.6533L57.4142 46.4924L56.7256 40.3144L56.0369 37.6467C56.0369 37.6467 55.0727 30.4858 49.9764 24.7291C44.88 18.9723 41.1611 17.7086 37.8554 17.849C36.7356 17.8968 35.9078 17.9431 35.5138 18.4107C34.6874 19.3935 34.5497 20.236 34.5497 20.236L32.4836 20.0956L31.9326 19.1127C31.9326 19.1127 31.6572 17.9894 30.2798 17.9894C28.9024 17.9894 26.0099 17.5682 23.2551 19.2531C20.5003 20.938 17.4701 23.6058 15.5418 26.5544C13.6134 29.503 12.0983 33.5748 11.6851 34.5577C11.2719 35.5405 11.2719 36.2426 11.2719 36.2426C11.2719 36.2426 9.89448 41.2973 9.61901 43.6842C9.34353 46.0712 8.93032 54.6361 8.93032 54.6361L8.65484 76.3995L8.79258 78.0844L8.5171 82.8583L7.69067 76.6803C7.69067 76.6803 7.27745 71.6256 7.27745 70.5023C7.27745 69.379 7.00198 67.9749 7.00198 67.9749V67.6941L6.86424 67.4133L6.7265 66.0092L6.19345 48.4525C6.19345 48.4525 5.67418 41.3394 5.44278 39.6334C5.21138 37.9275 4.52269 37.085 4.38495 35.2597C4.24721 33.4344 4.10947 21.9209 4.10947 21.9209L4.24721 18.4107C4.24721 18.4107 4.52269 16.7258 5.62459 14.3388C6.7265 11.9519 7.37662 12.2327 7.74025 11.6711C8.10388 11.1094 9.34353 9.70534 9.34353 9.70534L11.2801 8.39673L18.1257 5.45657L28.4892 1L33.4478 1.28082L38.6818 1L56.0369 8.30125L57.4501 9.49613L58.3123 10.4467L58.8219 11.0027L59.9294 12.2032C59.9294 12.2032 61.7516 14.065 62.3384 16.3074C62.9238 18.5511 62.9238 19.3935 62.9238 19.3935L63.0615 27.6776L62.786 34.4173L62.056 38.2827C62.056 38.2827 61.4087 40.4548 61.2709 43.4034C61.1332 46.352 60.6084 63.5324 60.6084 63.5324Z" fill="#E1E7EF"/>
<path d="M56.7257 39.7528C56.7257 39.7528 55.2106 46.7732 54.7974 52.1087C54.3841 57.4443 54.6596 64.0435 54.6596 64.0435C54.6596 64.0435 54.7974 70.081 55.3483 73.5912C55.8993 77.1015 57.0012 82.5774 57.0012 82.5774L58.1347 77.0004C58.1347 77.0004 58.3785 59.2696 57.9653 52.6704C57.5521 46.0712 56.7257 39.7528 56.7257 39.7528Z" fill="#515559"/>
<path d="M10.3214 39.7528C10.3214 39.7528 11.8365 46.7732 12.2497 52.1087C12.6629 57.4443 12.3875 64.0435 12.3875 64.0435C12.3875 64.0435 12.2497 70.081 11.6988 73.5912C11.1478 77.1015 10.0459 82.5774 10.0459 82.5774L8.91233 77.0004C8.91233 77.0004 8.66853 59.2696 9.08175 52.6704C9.49496 46.0712 10.3214 39.7528 10.3214 39.7528Z" fill="#515559"/>
<path d="M63.0232 23.405L59.4806 39.6123V53.6532C59.4806 53.6532 59.4806 62.6393 59.2051 66.5708C58.9296 70.5022 58.3786 79.4883 58.3786 79.4883L58.5164 82.7177C58.5164 82.7177 59.3428 78.0842 59.4806 75.9781C59.6183 73.872 59.6183 70.783 59.756 69.5193C59.8938 68.2557 60.0315 67.5536 60.0315 67.5536L60.1692 67.4132L60.4447 64.7454L60.8579 54.636L61.1417 45.9363L61.4764 41.0614L62.5108 36.3829L62.7863 34.4172L62.9006 31.2033L63.0232 23.405Z" fill="#C5CCD1"/>
<path d="M4.10936 23.405L7.652 39.6123L7.652 53.6532C7.652 53.6532 7.652 62.6393 7.92747 66.5708C8.20295 70.5022 8.75391 79.4883 8.75391 79.4883L8.61617 82.7177C8.61617 82.7177 7.78974 78.0842 7.652 75.9781C7.51426 73.872 7.51426 70.783 7.37652 69.5193C7.23878 68.2557 7.10104 67.5536 7.10104 67.5536L6.9633 67.4132L6.68783 64.7454L6.27461 54.636L5.99087 45.9363L5.65617 41.0614L4.62175 36.3829L4.34627 34.4172L4.23195 31.2033L4.10936 23.405Z" fill="#C5CCD1"/>
<path d="M34.96 101.103L34.825 107.851L34.5495 109.255C34.5495 109.255 34.825 114.31 34.4118 121.471C33.9985 128.631 33.5853 130.316 33.3099 130.176C33.0344 130.035 32.4834 120.628 32.4834 120.628L32.3457 109.255L32.0702 107.711V100.831L34.96 101.103Z" fill="#1B487F"/>
<path d="M34.2452 95.7012C34.2452 95.7012 40.6734 95.85 43.3042 96.2965C45.9336 96.743 46.957 98.5304 46.957 99.7225C46.957 100.915 46.519 102.403 46.519 102.403C46.519 102.403 45.4956 112.531 45.2036 112.531C44.9116 112.531 43.8882 102.105 43.7422 102.105C43.5962 102.105 43.0122 102.701 41.9888 102.701C40.9654 102.701 38.92 102.701 38.92 102.701C38.92 102.701 37.6046 100.913 37.1666 100.913C36.7286 100.913 35.1212 100.913 35.1212 100.913L34.0978 101.211L34.2452 95.7012Z" fill="#353535"/>
<path d="M43.7504 96.4694L43.7421 100.02L42.4281 101.957H39.0673L37.4598 100.02L37.4089 95.8109" fill="#636363"/>
<path d="M41.6968 95.9992V98.0842L41.2588 100.765H39.9434L39.5054 98.0842L39.5728 95.9879" fill="#8C8C8C"/>
<path d="M32.7271 95.7012C32.7271 95.7012 26.2989 95.85 23.6681 96.2965C21.0373 96.743 20.0153 98.5304 20.0153 99.7225C20.0153 100.915 20.4533 102.403 20.4533 102.403C20.4533 102.403 21.4767 112.531 21.7687 112.531C22.0607 112.531 23.0841 102.105 23.2301 102.105C23.3761 102.105 23.9601 102.701 24.9835 102.701C26.0069 102.701 28.0523 102.701 28.0523 102.701C28.0523 102.701 29.3677 100.913 29.8057 100.913C30.2437 100.913 31.8511 100.913 31.8511 100.913L32.8745 101.211L32.7271 95.7012Z" fill="#353535"/>
<path d="M23.2219 96.4694L23.2301 100.02L24.5442 101.957H27.905L29.5124 100.02L29.5634 95.8109" fill="#636363"/>
<path d="M25.2755 95.9992V98.0842L25.7135 100.765H27.0289L27.4669 98.0842L27.3994 95.9879" fill="#8C8C8C"/>
<path d="M10.8117 37.6256C10.8117 37.6256 13.2001 30.0646 17.1945 25.9927C21.189 21.9209 25.7343 20.0956 32.4835 20.0956C39.2327 20.0956 43.2271 21.0784 46.2573 23.0441C49.2876 25.0098 53.282 31.3282 53.282 31.3282L56.0367 37.6466L55.7613 37.9274C55.7613 37.9274 49.1498 26.6948 34.6873 26.9756C20.2248 27.2564 11.1781 36.762 10.8117 37.6256Z" fill="#424242"/>
<path d="M54.9348 36.9445C54.9348 36.9445 54.2461 41.1568 53.8329 43.1225C53.4197 45.0882 52.5933 49.7217 51.9046 49.8621C51.2159 50.0025 45.0176 49.7217 41.9874 49.5813C38.9572 49.4409 33.1721 49.16 33.1721 49.16C33.1721 49.16 24.2191 49.8621 20.9134 50.0025C17.6077 50.1429 15.2661 50.4237 14.9907 50.0025C14.7152 49.5813 11.8227 36.6637 11.8227 36.6637L12.7869 35.2596C12.7869 35.2596 17.6077 31.609 20.7757 30.0645C23.9437 28.52 28.489 27.2564 31.5193 26.9755C34.5495 26.6947 39.0398 27.1342 41.4778 27.8264C43.9157 28.52 47.7586 30.2695 49.074 31.2201C50.3894 32.1706 51.7668 33.2939 51.7668 33.2939L54.9348 36.9445Z" fill="#BDC9D6"/>
<path d="M53.9708 42.2801C53.9708 42.2801 52.5934 38.489 51.2161 36.9445C49.8387 35.4001 47.6349 34.1364 45.5688 33.8556C43.5027 33.5747 41.0234 34.5576 39.2328 36.6637C37.4422 38.7699 36.6158 41.1568 35.9271 43.8246C35.2384 46.4923 35.1007 49.3005 35.1007 49.3005L46.6707 49.8621L50.7147 49.886L51.8166 49.8733L52.0508 49.7301L52.318 49.1601L53.9708 42.2801Z" fill="#0F3356"/>
<path d="M13.0622 42.2801C13.0622 42.2801 14.5773 38.489 15.9547 36.9445C17.3321 35.4001 19.5359 34.1364 21.6019 33.8556C23.668 33.5747 26.1473 34.5576 27.9379 36.6637C29.7285 38.7699 30.5549 41.1568 31.2436 43.8246C31.9323 46.4923 32.0701 49.3005 32.0701 49.3005L20.5 50.0025L16.5056 50.2834L15.4037 50.1429L14.9905 50.0025L14.715 49.3005L13.0622 42.2801Z" fill="#0F3356"/>
<path d="M57.7133 125.288C57.7133 125.288 60.3758 117.048 60.789 114.942C61.2022 112.835 62.0286 110.168 62.1664 108.202C62.3041 106.236 62.7173 104.411 61.8909 102.024C61.0645 99.637 60.1003 99.0754 59.8248 99.7774C59.5493 100.479 59.5493 103.147 59.5493 103.99C59.5493 104.832 59.4116 110.589 58.9984 113.116C58.5852 115.644 56.7036 126.228 57.7133 125.288Z" fill="#2866A3"/>
<path d="M9.34321 125.288C9.34321 125.288 6.68072 117.048 6.2675 114.942C5.85429 112.835 5.02785 110.168 4.89012 108.202C4.75238 106.236 4.33916 104.411 5.16559 102.024C5.99202 99.637 6.9562 99.0754 7.23167 99.7774C7.50715 100.479 7.50715 103.147 7.50715 103.99C7.50715 104.832 7.64489 110.589 8.05811 113.116C8.47132 115.644 10.3528 126.228 9.34321 125.288Z" fill="#2866A3"/>
<path d="M56.4502 39.0507C56.4502 39.1911 56.7643 40.1108 56.7643 40.1108C56.7643 40.1108 55.2409 46.644 54.8125 51.8335C54.3842 57.023 54.5839 63.1083 54.5839 63.1083C54.5839 63.1083 55.1817 73.3104 55.8855 76.8206C56.5894 80.3308 57.0012 83.2794 57.6899 85.2451C58.3786 87.2108 59.0673 88.6149 59.4805 88.4745C59.8937 88.3341 60.3069 86.5088 60.3069 84.1219C60.3069 81.7349 60.3069 76.961 60.3069 76.961L60.4447 72.3275C60.4447 72.3275 60.7201 87.2108 60.5824 87.9129C60.4447 88.6149 60.1692 89.5978 59.756 89.4574C59.3428 89.317 58.7918 89.4574 57.9654 87.4917C57.1389 85.5259 56.3883 82.4496 56.3883 82.4496L55.4503 76.5103L54.6596 70.2214C54.6596 70.2214 54.3842 66.0091 54.2464 63.4818C54.1087 60.9544 54.2464 55.0573 54.2464 55.0573C54.2464 55.0573 54.3842 52.1087 54.3842 51.5471C54.3842 50.9854 55.0729 46.0711 55.0729 46.0711L55.4861 43.2629L56.4502 39.0507Z" fill="#E0E1E2"/>
<path d="M10.5829 39.0507C10.5829 39.1911 10.2688 40.1108 10.2688 40.1108C10.2688 40.1108 11.7922 46.644 12.2206 51.8335C12.6489 57.023 12.4492 63.1083 12.4492 63.1083C12.4492 63.1083 11.8514 73.3104 11.1476 76.8206C10.4437 80.3308 10.0319 83.2794 9.34321 85.2451C8.65452 87.2108 7.96583 88.6149 7.55261 88.4745C7.1394 88.3341 6.72618 86.5088 6.72618 84.1219C6.72618 81.7349 6.72618 76.961 6.72618 76.961L6.58844 72.3275C6.58844 72.3275 6.31296 87.2108 6.4507 87.9129C6.58844 88.6149 6.86392 89.5978 7.27713 89.4574C7.69035 89.317 8.2413 89.4574 9.06774 87.4917C9.89417 85.5259 10.6448 82.4496 10.6448 82.4496L11.5828 76.5103L12.3735 70.2214C12.3735 70.2214 12.6489 66.0091 12.7867 63.4818C12.9244 60.9544 12.7867 55.0573 12.7867 55.0573C12.7867 55.0573 12.6489 52.1087 12.6489 51.5471C12.6489 50.9854 11.9603 46.0711 11.9603 46.0711L11.547 43.2629L10.5829 39.0507Z" fill="#E0E1E2"/>
<path d="M37.6321 1.06036C37.6321 1.06036 44.6045 9.42452 46.5328 11.8115C48.7008 14.4947 54.1773 29.5732 54.1773 29.5732L54.4528 31.5389L55.1415 29.4328C55.1415 29.4328 52.3178 16.445 48.1857 11.2498C44.6444 6.79887 39.1321 1.75118 37.6321 1.06036Z" fill="#D5D9DB"/>
<path d="M29.3844 1.06036C29.3844 1.06036 22.4121 9.42452 20.4837 11.8115C18.3157 14.4947 12.8392 29.5732 12.8392 29.5732L12.5638 31.5389L11.8751 29.4328C11.8751 29.4328 14.6987 16.445 18.8309 11.2498C22.3721 6.79887 27.8858 1.75118 29.3844 1.06036Z" fill="#D5D9DB"/>
<path d="M34.4117 49.3005L33.9627 26.9067L33.2479 26.9432L32.4834 49.3005L33.4476 49.1601L34.4117 49.3005Z" fill="#9EA3A8"/>
<path d="M56.5879 125.121C56.5879 125.121 57.8276 117.539 58.5163 110.097C59.2049 102.656 58.9295 93.6696 58.9295 93.6696C58.9295 93.6696 55.0728 106.166 52.869 112.484C50.6652 118.803 46.6708 127.789 45.8443 128.07C45.0179 128.351 33.1724 130.457 33.1724 130.457L21.327 128.21C21.327 128.21 15.9552 117.118 13.4759 109.957C10.9966 102.796 8.10409 92.5464 8.10409 92.5464C8.10409 92.5464 8.24183 105.745 8.37957 109.255C8.51731 112.765 10.4456 125.542 10.4456 125.542C10.4456 125.542 13.8891 127.508 15.9552 128.07C18.0212 128.631 22.5666 130.176 22.5666 130.176L33.5856 130.878L45.1584 130.2L53.986 127.153L56.3124 125.964L56.5879 125.121Z" fill="#19467C"/>
<path d="M10.4453 39.0507C10.4453 39.0507 11.9604 44.667 12.5114 50.5642C13.0623 56.4613 12.7607 65.8687 12.1532 71.7658C11.5472 77.663 12.4783 94.0486 13.3901 98.2819C14.302 102.515 20.3625 121.47 20.3625 121.47L21.0511 121.33C21.0511 121.33 17.0567 91.423 16.5058 87.0703C15.9548 82.7177 15.5829 56.7099 15.5829 56.7099L15.9548 51.2662L14.8529 50.143L11.9604 36.5978L10.4453 39.0507Z" fill="#19467C"/>
<path d="M56.3123 39.0507C56.3123 39.0507 54.7971 44.667 54.2462 50.5642C53.6952 56.4613 53.9969 65.8687 54.6043 71.7658C55.2103 77.663 54.2792 94.0486 53.3674 98.2819C52.4556 102.515 47.0838 121.47 47.0838 121.47H45.7064C45.7064 121.47 49.7008 91.423 50.2518 87.0703C50.8027 82.7177 51.1746 56.7099 51.1746 56.7099L50.8027 51.2662L52.1801 49.5813L53.6952 43.8246L54.7971 36.5978L56.3123 39.0507Z" fill="#19467C"/>
<path d="M11.6849 76.3994C11.6849 76.3994 12.7868 97.4607 14.1642 102.094C15.5416 106.728 22.7039 127.789 21.602 127.649C20.5001 127.508 12.6491 107.009 11.2717 102.515C9.8943 98.0223 7.6905 90.4403 7.6905 90.4403C7.6905 90.4403 11.9604 82.0158 11.6849 76.3994Z" fill="#235796"/>
<path d="M55.4627 76.3994C55.4627 76.3994 53.7616 97.3681 52.7313 102.094C51.3539 108.413 44.4436 127.789 45.5455 127.649C46.6474 127.508 54.1087 108.834 55.8759 102.515C57.1417 97.9887 59.3428 89.4574 59.3428 89.4574C59.3428 89.4574 55.1872 82.0158 55.4627 76.3994Z" fill="#235796"/>
<path d="M59.5767 11.9336L60.9266 16.6556C60.9266 16.6556 62.0285 19.7446 62.3039 20.7274C62.5794 21.7103 63.0078 23.7027 62.9995 23.5496C62.9926 23.3952 62.8549 17.9192 62.8549 17.9192L61.753 14.6898C61.753 14.6898 60.1552 12.4068 59.5767 11.9336Z" fill="#D6D6D6" stroke="#ADADAD" stroke-miterlimit="10"/>
<path d="M7.62842 11.7932L6.27859 16.5152C6.27859 16.5152 5.17668 19.6042 4.9012 20.587C4.62573 21.5699 4.19736 23.5623 4.20563 23.4092C4.21252 23.2548 4.35025 17.7789 4.35025 17.7789L5.45216 14.5495C5.45353 14.5495 7.04992 12.2664 7.62842 11.7932Z" fill="#D6D6D6"/>
<path d="M23.6681 2.96569L21.602 6.19509L25.4587 4.36978L29.157 1.19654L28.489 1.14038L23.6681 2.96569Z" fill="#B7B7B7"/>
<path d="M42.5383 2.82528L45.4308 6.05468L41.4157 4.36978L37.7174 1.19654L38.3855 1.14038L42.5383 2.82528Z" fill="#B7B7B7"/>
<path d="M56.0606 43.3613C56.0606 43.3613 57.1763 50.6218 57.4669 58.5619C57.7575 66.502 57.4201 71.516 57.4201 71.516L57.3305 75.1484L55.8017 75.9375C55.8017 75.9375 54.8072 69.6331 54.6295 65.47C54.4518 61.3069 54.5896 55.2694 54.5896 55.2694C54.5896 55.2694 54.5923 52.2099 55.0041 49.4579C55.416 46.7059 56.0606 43.3613 56.0606 43.3613Z" fill="#85898E"/>
<path d="M11.0238 43.3613C11.0238 43.3613 9.90814 50.6218 9.61752 58.5619C9.32551 66.5006 9.66435 71.516 9.66435 71.516L9.75388 75.1484L11.2828 75.9375C11.2828 75.9375 12.2773 69.6331 12.4549 65.47C12.6326 61.3069 12.4949 55.2694 12.4949 55.2694C12.4949 55.2694 12.4921 52.2099 12.0803 49.4579C11.6684 46.7059 11.0238 43.3613 11.0238 43.3613Z" fill="#85898E"/>
<path d="M55.3481 47.6156L56.5877 46.7732L56.7255 47.7561L55.169 48.8344L55.3481 47.6156Z" fill="#515559"/>
<path d="M10.5649 46.8983L10.3074 47.8966L11.901 48.9187L11.7261 47.8193L10.5649 46.8983Z" fill="#515559"/>
<path d="M55.7612 37.9274L46.5327 27.5372C46.5327 27.5372 45.293 25.5715 43.0892 24.729C40.8854 23.8865 37.1665 22.9037 33.4475 23.0441C29.7286 23.1845 24.77 23.8865 21.8775 25.7119C18.9849 27.5372 17.3321 29.0817 15.6792 31.0474C14.0264 33.0131 12.6641 35.4506 12.6641 35.4506L11.0471 38.0313L10.8005 37.8165C10.8005 37.8165 12.5126 31.7494 15.6806 27.9584C18.8486 24.1674 20.7921 22.2817 23.8829 21.4701C26.9738 20.6585 30.0839 19.8414 35.3469 20.1798C40.6099 20.5167 45.0176 21.7804 47.7723 24.1674C50.5271 26.5543 53.0064 30.4858 53.0064 30.4858L54.6593 34.1364L55.9719 37.2619L55.7612 37.9274Z" fill="#151616"/>
<path d="M33.0344 10.6882C33.0344 15.7674 33.2502 19.8849 33.5165 19.8849C33.7827 19.8849 33.9985 15.7674 33.9985 10.6882C33.9985 5.60895 33.7827 1.49142 33.5165 1.49142C33.2502 1.49142 33.0344 5.60895 33.0344 10.6882Z" fill="#D8DEE5"/>
<path d="M33.4424 1.34682L38.7757 1.12357C38.7757 1.12357 47.2493 4.69837 50.9022 6.1881C54.555 7.67784 57.0384 8.71967 58.0618 10.0606C59.0852 11.4015 60.1072 12.1456 61.2766 13.933C62.446 15.7204 62.884 18.4008 62.884 18.4008C62.884 18.4008 63.322 32.2521 62.592 35.6781C61.862 39.1041 61.2766 40.2947 60.8386 52.3601C60.4006 64.4254 60.6926 76.4879 60.6926 79.765C60.6926 83.0421 60.4006 87.8076 61.1306 90.0415C61.8606 92.2754 62.738 94.5093 63.03 98.9785C63.322 103.446 63.4681 111.191 62.738 114.915C62.008 118.639 59.8152 123.106 59.5232 124.001C59.2312 124.894 52.949 127.576 52.949 127.576C52.949 127.576 45.6433 130.107 44.7673 130.256C43.8913 130.405 38.193 130.851 33.9548 131H33.2441C29.0073 130.851 23.309 130.405 22.4316 130.256C21.5556 130.107 14.25 127.576 14.25 127.576C14.25 127.576 7.96772 124.895 7.67571 124.001C7.38371 123.108 5.19228 118.639 4.46089 114.915C3.73088 111.191 3.87688 103.446 4.16889 98.9785C4.46089 94.5107 5.33828 92.2768 6.0683 90.0415C6.79831 87.8076 6.50631 83.0407 6.50631 79.765C6.50631 76.4893 6.79832 64.424 6.36031 52.3601C5.9223 40.2961 5.33691 39.1041 4.60689 35.6781C3.87688 32.2521 4.31489 18.4008 4.31489 18.4008C4.31489 18.4008 4.7529 15.7204 5.9223 13.933C7.09169 12.1456 8.11372 11.4015 9.13711 10.0606C10.1605 8.71967 12.6439 7.67784 16.2968 6.1881C19.9496 4.69837 28.4233 1.12357 28.4233 1.12357L33.4424 1.34682Z" stroke="#E0E0E0" stroke-width="2" stroke-miterlimit="10"/>
<path d="M58.7919 87.9565L58.1211 78.7218C58.1211 78.7218 58.8387 45.5405 56.1528 37.6804C56.128 37.606 56.1018 37.5344 56.0757 37.4656C53.3002 30.0183 49.7934 24.5072 44.3872 22.1245C39.6572 20.0394 34.9934 20.1209 33.9012 20.1742C33.7414 20.1827 33.583 20.1827 33.4232 20.1756C32.2896 20.1223 27.3104 20.0296 22.557 22.1259C17.1508 24.5086 13.644 30.0197 10.8685 37.467C8.09311 44.9142 8.82311 78.7232 8.82311 78.7232L8.28043 87.9144" stroke="#080B0F" stroke-width="3" stroke-miterlimit="10"/>
<path d="M55.87 37.3167L53.41 49.4606C53.2268 50.362 52.4362 50.9995 51.534 50.9714L33.5164 50.4238L15.7219 51.2424C14.7715 51.2859 13.9244 50.6358 13.7027 49.6923L10.8501 37.5525" stroke="#0C0C0C" stroke-width="2" stroke-miterlimit="10"/>
<path d="M56.4586 38.9523C56.4586 38.9523 54.4821 46.6242 54.1887 56.3054C53.8967 65.9865 55.6501 81.3275 57.4035 85.9442C59.1569 90.5608 60.4723 90.3867 60.6183 86.6757" stroke="#0C0B0B" stroke-miterlimit="10"/>
<path d="M60.3993 72.3177C60.3993 72.3177 60.2533 83.4886 60.2533 85.1272C60.2533 86.7658 59.9613 88.4043 59.5233 88.4043C59.0853 88.4043 57.9159 87.9578 56.3085 79.4673C54.7011 70.9782 54.555 62.3389 54.555 62.3389C54.555 62.3389 54.555 52.8065 54.9931 49.6782C55.4311 46.5499 56.6831 39.91 56.6831 39.91" stroke="#0C0C0C" stroke-miterlimit="10"/>
<path d="M56.0606 43.0284C56.0606 43.0284 57.1845 50.2748 57.4765 57.8695C57.7685 65.4656 57.3305 75.1468 57.3305 75.1468" stroke="#0C0C0C" stroke-miterlimit="10"/>
<path d="M58.1624 74.5784C58.1624 74.5784 56.7739 75.5599 55.7382 76.0232" stroke="#0C0C0C" stroke-miterlimit="10"/>
<path d="M58.1624 75.06C58.1624 75.06 56.8924 76.0414 55.8704 76.6368" stroke="#0C0C0C" stroke-miterlimit="10"/>
<path d="M58.0619 77.0831L56.982 82.6658" stroke="#0C0C0C" stroke-miterlimit="10"/>
<path d="M56.5217 46.8434L55.2848 47.742" stroke="#0C0C0C" stroke-miterlimit="10"/>
<path d="M56.7462 47.7419L55.103 48.8217" stroke="#0C0C0C" stroke-miterlimit="10"/>
<path d="M10.5719 39.0268C10.5719 39.0268 12.5484 46.6987 12.8418 56.3798C13.1352 66.061 11.3804 81.402 9.62701 86.0186C7.8736 90.6352 6.55819 90.4611 6.41219 86.7501" stroke="#0C0B0B" stroke-miterlimit="10"/>
<path d="M6.63122 72.3921C6.63122 72.3921 6.77722 83.563 6.77722 85.2016C6.77722 86.8402 7.06923 88.4787 7.50724 88.4787C7.94524 88.4787 9.11465 88.0322 10.7221 79.5417C12.3295 71.0526 12.4755 62.4133 12.4755 62.4133C12.4755 62.4133 12.4755 52.8809 12.0375 49.7526C11.5994 46.6243 10.3474 39.9844 10.3474 39.9844" stroke="#0C0C0C" stroke-miterlimit="10"/>
<path d="M10.9686 43.1028C10.9686 43.1028 9.84469 50.3493 9.55268 57.944C9.26068 65.5401 9.69868 75.2213 9.69868 75.2213" stroke="#0C0C0C" stroke-miterlimit="10"/>
<path d="M8.86803 74.6527C8.86803 74.6527 10.2564 75.6342 11.2922 76.0975" stroke="#0C0C0C" stroke-miterlimit="10"/>
<path d="M8.86803 75.1342C8.86803 75.1342 10.138 76.1157 11.1614 76.711" stroke="#0C0C0C" stroke-miterlimit="10"/>
<path d="M8.96872 77.1578L10.0486 82.7404" stroke="#0C0C0C" stroke-miterlimit="10"/>
<path d="M10.5088 46.9178L11.7457 47.8164" stroke="#0C0C0C" stroke-miterlimit="10"/>
<path d="M10.284 47.8163L11.9272 48.8961" stroke="#0C0C0C" stroke-miterlimit="10"/>
<path d="M36.2905 72.5339V58.2488C36.2905 56.7239 37.504 55.4869 38.9998 55.4869H46.5851C48.081 55.4869 49.2944 56.7239 49.2944 58.2488V72.5339C49.2944 74.0588 48.081 75.2958 46.5851 75.2958H38.9998C37.504 75.2958 36.2905 74.0602 36.2905 72.5339Z" fill="#576670" stroke="#0C0C0C" stroke-width="5" stroke-miterlimit="10"/>
<path d="M17.7357 72.5339V58.2488C17.7357 56.7239 18.9492 55.4869 20.445 55.4869H28.0303C29.5261 55.4869 30.7396 56.7239 30.7396 58.2488V72.5339C30.7396 74.0588 29.5261 75.2958 28.0303 75.2958H20.445C18.9478 75.2958 17.7357 74.0602 17.7357 72.5339Z" fill="#576670" stroke="#0C0C0C" stroke-width="5" stroke-miterlimit="10"/>
<path d="M34.2452 95.7012C34.2452 95.7012 40.6734 95.85 43.3042 96.2965C45.9336 96.743 46.957 98.5304 46.957 99.7225C46.957 100.915 46.519 102.403 46.519 102.403C46.519 102.403 45.4956 112.531 45.2036 112.531C44.9116 112.531 43.8882 102.105 43.7422 102.105C43.5962 102.105 43.0122 102.701 41.9888 102.701C40.9654 102.701 38.92 102.701 38.92 102.701C38.92 102.701 37.6046 100.913 37.1666 100.913C36.7286 100.913 35.1212 100.913 35.1212 100.913L34.0978 101.211L34.2452 95.7012Z" stroke="#0C0C0C" stroke-miterlimit="10"/>
<path d="M43.7504 96.4694L43.7421 100.02L42.4281 101.957H39.0673L37.4598 100.02L37.4089 95.8109" stroke="#0C0C0C" stroke-miterlimit="10"/>
<path d="M41.6968 95.9992V98.0842L41.2588 100.765H39.9434L39.5054 98.0842L39.5728 95.9879" stroke="#0C0C0C" stroke-miterlimit="10"/>
<path d="M36.3388 95.7856C36.3388 95.7856 36.2906 99.5738 36.4366 99.8715C36.5826 100.169 36.8746 100.915 36.8746 100.915" stroke="#0C0C0C" stroke-miterlimit="10"/>
<path d="M34.9764 95.8504V100.914" stroke="#0C0C0C" stroke-miterlimit="10"/>
<path d="M32.7271 95.7012C32.7271 95.7012 26.2989 95.85 23.6681 96.2965C21.0373 96.743 20.0152 98.5304 20.0152 99.7225C20.0152 100.915 20.4533 102.403 20.4533 102.403C20.4533 102.403 21.4767 112.531 21.7687 112.531C22.0607 112.531 23.0841 102.105 23.2301 102.105C23.3761 102.105 23.9601 102.701 24.9835 102.701C26.0069 102.701 28.0523 102.701 28.0523 102.701C28.0523 102.701 29.3677 100.913 29.8057 100.913C30.2437 100.913 31.8511 100.913 31.8511 100.913L32.8745 101.211L32.7271 95.7012Z" stroke="#0C0C0C" stroke-miterlimit="10"/>
<path d="M23.2219 96.4694L23.2301 100.02L24.5442 101.957H27.905L29.5124 100.02L29.5634 95.8109" stroke="#0C0C0C" stroke-miterlimit="10"/>
<path d="M25.2755 95.9992V98.0842L25.7135 100.765H27.0289L27.4669 98.0842L27.3994 95.9879" stroke="#0C0C0C" stroke-miterlimit="10"/>
<path d="M30.6336 95.7856C30.6336 95.7856 30.6818 99.5738 30.5358 99.8715C30.3898 100.169 30.0978 100.915 30.0978 100.915" stroke="#0C0C0C" stroke-miterlimit="10"/>
<path d="M31.9958 95.8504V100.914" stroke="#0C0C0C" stroke-miterlimit="10"/>
<path d="M50.1719 81.2535C48.7793 81.1356 47.3868 81.019 45.9929 80.925C44.6004 80.8225 43.2064 80.7312 41.8112 80.6568C39.0233 80.5037 36.2314 80.3858 33.4408 80.3858C32.0455 80.3802 30.6502 80.4054 29.2549 80.4504C27.8596 80.4981 26.4657 80.5697 25.0704 80.6427C23.6765 80.72 22.2826 80.8112 20.8901 80.9165C19.4961 81.0134 18.105 81.1314 16.7125 81.2549C18.0981 81.0696 19.4879 80.9236 20.879 80.7803C22.2702 80.647 23.6641 80.5304 25.058 80.4279C27.8472 80.2285 30.6433 80.1148 33.4422 80.1064C34.8416 80.119 36.2396 80.1485 37.6363 80.2089C39.033 80.2693 40.4296 80.3352 41.8235 80.4434C43.2175 80.5445 44.6114 80.6596 46.0025 80.7902C47.3951 80.9292 48.7848 81.0724 50.1719 81.2535Z" fill="#042A44"/>
<path d="M58.2079 95.7012C57.4531 97.9449 56.6873 100.184 55.9132 102.421C55.1322 104.655 54.3402 106.886 53.5344 109.11C51.9215 113.56 50.2301 117.981 48.4023 122.345C47.9381 123.433 47.4643 124.517 46.9547 125.584C46.6971 126.117 46.4354 126.649 46.1324 127.16C46.0552 127.288 45.9753 127.412 45.8858 127.533C45.8403 127.594 45.7921 127.653 45.7357 127.707C45.7081 127.735 45.6751 127.761 45.6351 127.783C45.6131 127.793 45.591 127.804 45.5594 127.804C45.5304 127.807 45.4932 127.796 45.4698 127.776C45.4574 127.769 45.4437 127.749 45.434 127.731C45.4299 127.719 45.4244 127.702 45.423 127.692C45.4189 127.668 45.4189 127.647 45.4175 127.626C45.4175 127.585 45.4202 127.547 45.423 127.508C45.4299 127.432 45.4409 127.358 45.4533 127.283C45.4781 127.136 45.507 126.99 45.5387 126.844C45.7977 125.684 46.12 124.544 46.4395 123.404C46.7618 122.264 47.0938 121.128 47.4312 119.992C48.1048 117.721 48.7962 115.457 49.4946 113.195C50.1998 110.934 50.9133 108.676 51.6336 106.421C50.9339 108.683 50.2425 110.948 49.5593 113.214C48.8692 115.479 48.186 117.745 47.5194 120.019C47.1861 121.154 46.8582 122.292 46.5401 123.432C46.2246 124.572 45.9065 125.715 45.653 126.868C45.6227 127.012 45.5938 127.157 45.5704 127.302C45.558 127.373 45.5483 127.446 45.5415 127.518C45.5387 127.553 45.5359 127.589 45.5359 127.622C45.5346 127.651 45.5456 127.695 45.5428 127.678C45.5483 127.683 45.5566 127.683 45.5828 127.672C45.6062 127.658 45.6324 127.64 45.6558 127.615C45.704 127.568 45.7494 127.512 45.7921 127.455C45.8775 127.339 45.956 127.216 46.0304 127.091C46.3279 126.587 46.5869 126.055 46.8417 125.524C47.3472 124.458 47.8169 123.373 48.2769 122.285C50.1185 117.931 51.8237 113.516 53.4504 109.074C54.2644 106.852 55.0619 104.624 55.8526 102.394C56.6459 100.169 57.4324 97.9365 58.2079 95.7012Z" fill="#1D64AA"/>
<path d="M9.09406 95.7012C9.86953 97.9379 10.656 100.169 11.4508 102.397C12.2414 104.628 13.0389 106.855 13.8529 109.077C15.4796 113.519 17.1848 117.933 19.0264 122.288C19.4878 123.376 19.9575 124.46 20.4616 125.527C20.7165 126.059 20.9754 126.59 21.2729 127.094C21.3487 127.219 21.4258 127.344 21.5112 127.457C21.5539 127.515 21.5994 127.57 21.6476 127.617C21.671 127.641 21.6972 127.661 21.7206 127.675C21.7467 127.686 21.755 127.686 21.7605 127.681C21.7564 127.697 21.7688 127.654 21.7674 127.624C21.7674 127.591 21.766 127.556 21.7619 127.521C21.755 127.449 21.7454 127.377 21.733 127.304C21.7096 127.16 21.6806 127.015 21.6503 126.87C21.3969 125.716 21.0773 124.575 20.7633 123.435C20.4451 122.295 20.1159 121.157 19.784 120.021C19.1173 117.75 18.4341 115.482 17.7441 113.217C17.0595 110.951 16.3694 108.686 15.6697 106.424C16.3901 108.679 17.1036 110.937 17.8088 113.197C18.5071 115.459 19.1986 117.724 19.8721 119.995C20.2082 121.131 20.5415 122.266 20.8638 123.407C21.182 124.548 21.5057 125.687 21.7647 126.847C21.7963 126.993 21.8253 127.137 21.8501 127.286C21.8624 127.36 21.8735 127.435 21.8804 127.511C21.8845 127.549 21.8859 127.588 21.8859 127.629C21.8859 127.65 21.8845 127.671 21.8804 127.695C21.879 127.706 21.8735 127.721 21.8693 127.734C21.8611 127.752 21.8459 127.772 21.8335 127.779C21.8115 127.799 21.7729 127.811 21.744 127.807C21.7123 127.806 21.6903 127.794 21.6682 127.786C21.6283 127.763 21.5952 127.738 21.5677 127.71C21.5112 127.655 21.4616 127.596 21.4176 127.536C21.3266 127.415 21.2481 127.289 21.171 127.163C20.868 126.651 20.6063 126.121 20.3487 125.587C19.8391 124.52 19.3639 123.436 18.9011 122.348C17.0719 117.984 15.3805 113.563 13.7689 109.113C12.9618 106.888 12.1711 104.658 11.3902 102.424C10.6133 100.184 9.84887 97.9449 9.09406 95.7012Z" fill="#1D64AA"/>
<path d="M55.578 37.6143C55.578 37.6143 53.7585 35.5026 51.6029 33.0539C51.5505 32.9935 51.4968 32.9331 51.4431 32.8727C48.7062 29.7669 45.4914 26.1921 44.7655 25.6993C43.4501 24.8063 40.2367 23.0189 33.953 23.0189C27.6694 23.0189 24.6019 24.0621 20.3651 26.5937C16.1282 29.1252 11.16 37.7646 11.16 37.7646" stroke="#0C0C0C" stroke-miterlimit="10"/>
<path d="M51.1938 32.9962C51.1938 32.9962 45.2036 26.741 33.6611 26.8899C22.1186 27.0387 12.7386 35.3214 12.7386 35.3214" stroke="#0C0C0C" stroke-miterlimit="10"/>
<path d="M54.8922 36.9952C54.8922 36.9952 52.9473 49.3806 51.9253 49.8285C50.9019 50.275 33.3692 49.2331 33.3692 49.2331C33.3692 49.2331 15.3985 50.574 14.9591 50.1261C14.5211 49.6796 11.8793 36.6161 11.8793 36.6161" stroke="#0C0C0C" stroke-miterlimit="10"/>
<path d="M33.256 26.9559L32.4915 49.2317" stroke="#0C0C0C" stroke-miterlimit="10"/>
<path d="M33.953 26.7411L34.3497 49.2135" stroke="#0C0C0C" stroke-miterlimit="10"/>
<path d="M35.1225 49.2317C35.4145 43.7207 37.606 33.8907 44.7656 33.8907C51.9252 33.8907 53.9596 42.2422 53.9596 42.2422" stroke="#0C0C0C" stroke-miterlimit="10"/>
<path d="M13.2058 42.2422C13.2058 42.2422 15.2402 33.8907 22.3998 33.8907C29.5594 33.8907 31.7508 43.7207 32.0428 49.2317" stroke="#0C0C0C" stroke-miterlimit="10"/>
<path d="M59.8151 42.2227C59.8151 42.2227 60.1071 42.6692 60.2531 42.6692C60.3991 42.6692 60.6911 41.925 62.0065 42.0738C63.3219 42.2227 65.3673 45.4998 65.8053 46.5416C66.2433 47.5835 65.8053 49.6699 65.8053 49.6699L61.1305 46.9895" fill="#CACBCC"/>
<path d="M59.8151 42.2227C59.8151 42.2227 60.1071 42.6692 60.2531 42.6692C60.3991 42.6692 60.6911 41.925 62.0065 42.0738C63.3219 42.2227 65.3673 45.4998 65.8053 46.5416C66.2433 47.5835 65.8053 49.6699 65.8053 49.6699L61.1305 46.9895" stroke="#AAAAAA" stroke-miterlimit="10"/>
<path d="M7.18494 42.2227C7.18494 42.2227 6.89293 42.6692 6.74693 42.6692C6.60093 42.6692 6.30891 41.925 4.99351 42.0738C3.67811 42.2227 1.63269 45.4998 1.19469 46.5416C0.756677 47.5849 1.19469 49.6699 1.19469 49.6699L5.86953 46.9895" fill="#CACBCC"/>
<path d="M7.18494 42.2227C7.18494 42.2227 6.89293 42.6692 6.74693 42.6692C6.60093 42.6692 6.30891 41.925 4.99351 42.0738C3.67811 42.2227 1.63269 45.4998 1.19469 46.5416C0.756677 47.5849 1.19469 49.6699 1.19469 49.6699L5.86953 46.9895" stroke="#AAAAAA" stroke-miterlimit="10"/>
</svg>
