<svg width="64" height="64" viewBox="0 0 64 64" fill="none" xmlns="http://www.w3.org/2000/svg">
<ellipse cx="32" cy="32" rx="29" ry="29" fill="#B79EF9" stroke="white" stroke-width="5"/>
<path d="M47.8118 25.8026H16.6465V47.3531H47.8118V25.8026Z" fill="#E8E8E8"/>
<path d="M43.0376 43.0098H21.4208V37.8377C21.4208 36.8489 22.2224 36.0474 23.2112 36.0474H41.2472C42.236 36.0474 43.0376 36.8489 43.0376 37.8377V43.0098H43.0376Z" fill="#F07057"/>
<path d="M36.2438 40.4236H28.2145V43.0097H36.2438V40.4236Z" fill="#E8E8E8"/>
<path d="M25.7969 43.0101H22.6804V47.3532H25.7969V43.0101Z" fill="#84B3D2"/>
<path d="M41.7779 43.0101H38.6614V47.3532H41.7779V43.0101Z" fill="#84B3D2"/>
<path d="M22.9461 36.0474H41.5126L38.3297 29.085H26.1289L22.9461 36.0474Z" fill="#E8E8E8"/>
<path d="M42.6397 17.6468H21.8187L16.6465 25.8028H47.8118L42.6397 17.6468Z" fill="#F07057"/>
<path d="M48.3582 25.4581C48.358 25.4575 48.3582 25.457 48.3579 25.4564L43.1857 17.3004C43.0671 17.1134 42.8612 17 42.6397 17H21.8187C21.5973 17 21.3913 17.1134 21.2727 17.3004L16.1005 25.4563C16.0999 25.4573 16.1 25.4582 16.0995 25.4592C16.0368 25.5588 16 25.6763 16 25.8026V47.353C16 47.7101 16.2895 47.9996 16.6466 47.9996H47.8118C48.1689 47.9996 48.4584 47.7101 48.4584 47.353V25.8026C48.4584 25.6758 48.4214 25.5579 48.3582 25.4581ZM22.1743 18.2932H42.2841L46.6362 25.156H17.8222L22.1743 18.2932ZM31.102 30.2286C30.7449 30.2286 30.4554 30.5182 30.4554 30.8752C30.4554 31.2322 30.7449 31.5218 31.102 31.5218H33.0912C33.4484 31.5218 33.7378 31.2322 33.7378 30.8752C33.7378 30.5182 33.4484 30.2286 33.0912 30.2286H32.7432V29.7316H37.9144L40.506 35.4009H23.9524L26.5441 29.7316H31.4499V30.2286H31.102ZM23.2112 36.6939H41.2472C41.8778 36.6939 42.3909 37.2071 42.3909 37.8377V42.3631H36.8902V40.4236C36.8902 40.0666 36.6007 39.777 36.2436 39.777H28.2146C27.8575 39.777 27.5681 40.0666 27.5681 40.4236V42.3631H22.0674V37.8377C22.0674 37.2071 22.5805 36.6939 23.2112 36.6939ZM41.1312 46.7065H39.3078V43.6564H41.1312V46.7065ZM38.0146 43.6564V46.7065H26.4438V43.6564H38.0146ZM35.5972 42.3633H28.8612V41.0704H35.5971V42.3633H35.5972ZM23.3272 43.6564H25.1506V46.7065H23.3272V43.6564ZM47.1653 46.7065H42.4243V43.6564H43.0376C43.3947 43.6564 43.6842 43.3669 43.6842 43.0098V37.8378C43.6842 36.749 42.9664 35.8249 41.9793 35.5134L38.9177 28.8163C38.8125 28.5861 38.5827 28.4385 38.3297 28.4385H26.1288C25.8757 28.4385 25.6459 28.5861 25.5407 28.8163L22.4792 35.5134C21.4921 35.825 20.7743 36.7491 20.7743 37.8378V43.0098C20.7743 43.3669 21.0638 43.6564 21.4209 43.6564H22.0342V46.7065H17.2931V26.4492H47.1652V46.7065H47.1653Z" fill="#3C3F41"/>
<path d="M34.8816 38.6169H35.4784C35.8355 38.6169 36.1249 38.3273 36.1249 37.9703C36.1249 37.6133 35.8355 37.3237 35.4784 37.3237H34.8816C34.5245 37.3237 34.235 37.6133 34.235 37.9703C34.235 38.3273 34.5246 38.6169 34.8816 38.6169Z" fill="#3C3F41"/>
<path d="M37.7328 38.6169H40.8493C41.2064 38.6169 41.4959 38.3273 41.4959 37.9703C41.4959 37.6133 41.2064 37.3237 40.8493 37.3237H37.7328C37.3757 37.3237 37.0862 37.6133 37.0862 37.9703C37.0862 38.3273 37.3757 38.6169 37.7328 38.6169Z" fill="#3C3F41"/>
</svg>
