<svg width="62" height="62" viewBox="0 0 62 62" fill="none" xmlns="http://www.w3.org/2000/svg">
<path d="M31 50.283C41.6497 50.283 50.283 41.6497 50.283 31C50.283 20.3503 41.6497 11.717 31 11.717C20.3503 11.717 11.717 20.3503 11.717 31C11.717 41.6497 20.3503 50.283 31 50.283Z" fill="#FFDC64"/>
<path d="M31 45.9978C39.2831 45.9978 45.9978 39.2831 45.9978 31C45.9978 22.7169 39.2831 16.0022 31 16.0022C22.717 16.0022 16.0022 22.7169 16.0022 31C16.0022 39.2831 22.717 45.9978 31 45.9978Z" fill="#FFF082"/>
<path d="M35.3522 26.7818C35.3522 27.3364 35.8018 27.7862 36.3566 27.7862C36.9113 27.7862 37.3609 27.3365 37.3609 26.7818C37.3609 24.6098 35.0778 22.8635 32.0046 22.548V21.3585C32.0046 20.8039 31.5549 20.3542 31.0002 20.3542C30.4455 20.3542 29.9959 20.8038 29.9959 21.3585V22.548C26.9226 22.8635 24.6395 24.6098 24.6395 26.7818C24.6395 29.691 27.0953 30.8506 29.9959 31.7471V37.4301C27.9811 37.1684 26.6481 36.1478 26.6481 35.2182C26.6481 34.6636 26.1985 34.2138 25.6438 34.2138C25.089 34.2138 24.6394 34.6634 24.6394 35.2182C24.6394 37.3902 26.9225 39.1365 29.9957 39.452V40.6415C29.9957 41.1961 30.4454 41.6458 31.0001 41.6458C31.5548 41.6458 32.0044 41.1962 32.0044 40.6415V39.452C35.0777 39.1365 37.3608 37.3902 37.3608 35.2182C37.3608 32.309 34.905 31.1494 32.0044 30.2528V24.5699C34.0192 24.8316 35.3522 25.8523 35.3522 26.7818ZM26.648 26.7818C26.648 25.8522 27.9809 24.8316 29.9957 24.5699V29.6344C27.4931 28.7889 26.648 28.0288 26.648 26.7818ZM35.3522 35.2182C35.3522 36.1478 34.0193 37.1684 32.0044 37.4301V32.3656C34.5071 33.211 35.3522 33.9712 35.3522 35.2182Z" fill="#826DB2"/>
</svg>
