<svg width="64" height="64" viewBox="0 0 64 64" fill="none" xmlns="http://www.w3.org/2000/svg">
<ellipse cx="32" cy="32" rx="29" ry="29" fill="#B79EF9" stroke="white" stroke-width="5"/>
<path d="M47.2395 35.848L45.271 35.0348C45.6124 33.3381 45.6024 31.6213 45.271 29.9748L47.2496 29.1616C47.9527 28.8705 48.2942 28.0573 48.0029 27.3545L47.109 25.206C46.8177 24.5033 46.0042 24.1619 45.3011 24.4531L43.3224 25.2663C42.3884 23.8708 41.1831 22.6459 39.7468 21.6821L40.5604 19.7144C40.8516 19.0116 40.5202 18.1984 39.8171 17.9073L37.6677 17.0138C36.9647 16.7226 36.1511 17.0539 35.8598 17.7567L35.0463 19.7244C33.3489 19.3831 31.6314 19.3931 29.9842 19.7244L29.1706 17.7466C28.8793 17.0439 28.0658 16.7025 27.3627 16.9937L25.2133 17.8872C24.5103 18.1783 24.1688 18.9915 24.46 19.6943L25.2736 21.6721C23.8775 22.6058 22.6521 23.8105 21.6879 25.2462L19.7193 24.433C19.0163 24.1418 18.2027 24.4731 17.9114 25.1759L17.0175 27.3244C16.7263 28.0271 17.0577 28.8403 17.7608 29.1315L19.7294 29.9447C19.3879 31.6414 19.3979 33.3581 19.7294 35.0046L17.7507 35.8178C17.0477 36.109 16.7062 36.9222 16.9974 37.625L17.8914 39.7734C18.1826 40.4762 18.9962 40.8175 19.6992 40.5264L21.6779 39.7132C22.612 41.1087 23.8172 42.3335 25.2535 43.2973L24.44 45.2651C24.1487 45.9678 24.4801 46.781 25.1832 47.0722L27.3326 47.9657C28.0357 48.2568 28.8492 47.9255 29.1405 47.2228L29.954 45.255C31.6515 45.5964 33.369 45.5863 35.0162 45.255L35.8297 47.2328C36.121 47.9356 36.9345 48.2769 37.6376 47.9858L39.787 47.0923C40.4901 46.8011 40.8316 45.9879 40.5403 45.2851L39.7267 43.3073C41.1228 42.3737 42.3482 41.1689 43.3124 39.7333L45.281 40.5465C45.9841 40.8376 46.7976 40.5063 47.0889 39.8035L47.9828 37.6551C48.2841 36.9423 47.9426 36.1391 47.2395 35.848ZM30.1348 38.2173C26.971 36.9121 25.4745 33.2879 26.7802 30.1254C28.0859 26.963 31.7117 25.4671 34.8755 26.7722C38.0394 28.0773 39.5359 31.7016 38.2302 34.8641C36.9245 38.0265 33.2987 39.5224 30.1348 38.2173Z" fill="#FDFFFF"/>
<path d="M48.8267 28.7502C49.0578 28.188 49.0578 27.5656 48.8267 26.9933L47.9328 24.8448C47.5813 23.9814 46.7477 23.4293 45.8136 23.4293C45.5123 23.4293 45.221 23.4895 44.9398 23.5999L43.6341 24.1421C42.8406 23.0779 41.9065 22.1542 40.8519 21.3611L41.3943 20.056C41.8764 18.8914 41.324 17.5461 40.1589 17.0642L38.0095 16.1707C37.7283 16.0502 37.437 16 37.1357 16C36.2016 16 35.378 16.5522 35.0164 17.4156L34.474 18.7207C33.1683 18.53 31.8426 18.53 30.5368 18.7207L29.9945 17.4156C29.6429 16.5522 28.8093 16 27.8752 16C27.5739 16 27.2826 16.0602 27.0014 16.1707L24.852 17.0642C24.2896 17.2951 23.8476 17.7368 23.6066 18.3091C23.3756 18.8713 23.3756 19.4938 23.6066 20.066L24.1489 21.3712C23.0843 22.1643 22.1603 23.098 21.3668 24.1521L20.0611 23.61C19.7799 23.4895 19.4886 23.4393 19.1873 23.4393C18.2532 23.4393 17.4296 23.9915 17.068 24.8549L16.1741 27.0033C15.692 28.1679 16.2444 29.5132 17.4196 29.9951L18.7253 30.5373C18.5344 31.8424 18.5344 33.1676 18.7253 34.4728L17.4196 35.0149C16.2545 35.4968 15.692 36.8421 16.1741 38.0067L17.068 40.1552C17.4196 41.0186 18.2532 41.5707 19.1873 41.5707C19.4886 41.5707 19.7799 41.5105 20.0611 41.4001L21.3668 40.8579C22.1603 41.9221 23.0943 42.8458 24.1489 43.6389L23.6066 44.944C23.1245 46.1086 23.6769 47.4539 24.842 47.9358L26.9914 48.8293C27.2726 48.9498 27.5639 49 27.8652 49C28.7993 49 29.6229 48.4478 29.9844 47.5844L30.5268 46.2793C31.8325 46.47 33.1583 46.47 34.464 46.2793L35.0064 47.5844C35.3579 48.4478 36.1916 49 37.1256 49C37.4269 49 37.7182 48.9398 37.9994 48.8293L40.1488 47.9358C41.3139 47.4539 41.8764 46.1086 41.3943 44.944L40.8519 43.6389C41.9166 42.8458 42.8406 41.9121 43.6341 40.8579L44.9398 41.4001C45.221 41.5205 45.5123 41.5707 45.8136 41.5707C46.7477 41.5707 47.5713 41.0186 47.9328 40.1552L48.8267 38.0067C49.0578 37.4445 49.0578 36.822 48.8267 36.2498C48.5957 35.6876 48.1538 35.2458 47.5813 35.0049L46.2756 34.4627C46.4664 33.1576 46.4664 31.8324 46.2756 30.5272L47.5813 29.9851C48.1538 29.7542 48.5957 29.3124 48.8267 28.7502ZM47.1494 28.0575C47.0992 28.178 47.0088 28.2683 46.8983 28.3085L44.9197 29.1217C44.5179 29.2924 44.2869 29.714 44.3773 30.1357C44.6887 31.7019 44.6887 33.2781 44.3773 34.8442C44.297 35.2659 44.5179 35.6976 44.9197 35.8582L46.8883 36.6714C47.0088 36.7216 47.0992 36.812 47.1394 36.9224C47.1896 37.0429 47.1896 37.1634 47.1394 37.2838L46.2455 39.4323C46.145 39.6632 45.8638 39.7837 45.6328 39.6833L43.6642 38.8701C43.2624 38.6994 42.8004 38.84 42.5594 39.2014C41.6755 40.5266 40.5606 41.641 39.2348 42.5245C38.8733 42.7654 38.7326 43.2273 38.9034 43.6288L39.7169 45.6066C39.8174 45.8476 39.6969 46.1287 39.4659 46.219L37.3165 47.1126C37.0754 47.213 36.7942 47.0925 36.7038 46.8616L35.8902 44.8838C35.7496 44.5424 35.4081 44.3216 35.0465 44.3216C34.9863 44.3216 34.926 44.3316 34.8658 44.3416C33.319 44.6529 31.7019 44.6529 30.1552 44.3416C29.7333 44.2613 29.3015 44.4822 29.1408 44.8838L28.3272 46.8515C28.2268 47.0824 27.9455 47.2029 27.7145 47.1025L25.5651 46.209C25.3241 46.1086 25.2136 45.8375 25.314 45.5966L26.1276 43.6288C26.2983 43.2273 26.1577 42.7654 25.7961 42.5245C24.4704 41.641 23.3555 40.5266 22.4716 39.1914C22.2306 38.8299 21.7685 38.6894 21.3668 38.8601L19.3882 39.6733C19.1471 39.7737 18.8659 39.6532 18.7755 39.4223L17.8816 37.2738C17.7811 37.0329 17.9017 36.7517 18.1327 36.6614L20.1113 35.8482C20.5131 35.6775 20.7441 35.2559 20.6537 34.8342C20.3423 33.268 20.3423 31.6918 20.6537 30.1256C20.734 29.704 20.5131 29.2723 20.1113 29.1117L18.1427 28.2984C17.9017 28.1981 17.7912 27.927 17.8916 27.686L18.7855 25.5376C18.886 25.3067 19.1672 25.1862 19.3982 25.2866L21.3668 26.0998C21.7685 26.2705 22.2306 26.1299 22.4716 25.7685C23.3555 24.4433 24.4704 23.3289 25.7961 22.4454C26.1577 22.2044 26.2983 21.7426 26.1276 21.341L25.314 19.3632C25.2638 19.2428 25.2638 19.1223 25.314 19.0018C25.3643 18.8814 25.4547 18.791 25.5651 18.7508L27.7145 17.8573C27.9556 17.7569 28.2368 17.8774 28.3272 18.1083L29.1408 20.0861C29.3115 20.4877 29.7333 20.7186 30.1552 20.6282C31.7019 20.317 33.319 20.317 34.8658 20.6282C35.2876 20.7085 35.7195 20.4877 35.8802 20.0861L36.6937 18.1183C36.7942 17.8874 37.0754 17.767 37.3064 17.8674L39.4558 18.7609C39.6969 18.8613 39.8073 19.1323 39.7069 19.3733L38.8934 21.341C38.7226 21.7426 38.8632 22.2044 39.2248 22.4454C40.5506 23.3289 41.6655 24.4433 42.5493 25.7785C42.7904 26.1399 43.2524 26.2805 43.6541 26.1098L45.6328 25.2966C45.8738 25.1962 46.1551 25.3167 46.2455 25.5476L47.1394 27.6961C47.1996 27.8065 47.1996 27.937 47.1494 28.0575Z" fill="#3C3F41"/>
<path d="M35.2272 25.939C34.3534 25.5776 33.4394 25.3969 32.5053 25.3969C29.6228 25.3969 27.0415 27.1136 25.9367 29.7841C25.2135 31.5411 25.2135 33.4686 25.9367 35.2155C26.6598 36.9725 28.0258 38.3378 29.7835 39.0607C30.6573 39.4221 31.5713 39.6028 32.5053 39.6028C35.3879 39.6028 37.9692 37.8861 39.074 35.2155C39.7972 33.4586 39.7972 31.531 39.074 29.7841C38.3408 28.0272 36.9749 26.6618 35.2272 25.939ZM37.3867 34.5128C36.5631 36.4906 34.6447 37.7756 32.5053 37.7756C31.8123 37.7756 31.1293 37.6351 30.4865 37.374C29.1808 36.8319 28.1664 35.8179 27.624 34.5128C27.0817 33.2076 27.0817 31.772 27.624 30.4668C28.4476 28.489 30.366 27.204 32.5053 27.204C33.1984 27.204 33.8814 27.3445 34.5242 27.6056C35.8299 28.1477 36.8443 29.1617 37.3867 30.4668C37.929 31.782 37.929 33.2177 37.3867 34.5128Z" fill="#3C3F41"/>
<path d="M37.3867 34.5128C36.5631 36.4906 34.6447 37.7756 32.5053 37.7756C31.8123 37.7756 31.1293 37.6351 30.4865 37.374C29.1808 36.8319 28.1664 35.8179 27.624 34.5128C27.0817 33.2076 27.0817 31.772 27.624 30.4668C28.4476 28.489 30.366 27.204 32.5053 27.204C33.1984 27.204 33.8814 27.3445 34.5242 27.6056C35.8299 28.1477 36.8443 29.1617 37.3867 30.4668C37.929 31.782 37.929 33.2177 37.3867 34.5128Z" fill="#F5B641"/>
</svg>
