<svg width="50" height="61" viewBox="0 0 50 61" fill="none" xmlns="http://www.w3.org/2000/svg">
<path d="M47.4991 0.937469H2.50073V60.9353H47.4991V0.937469Z" fill="#CCD1D9"/>
<path d="M1.2505 2.49924H48.7475C49.4396 2.49924 50 1.94081 50 1.25062C50 0.560428 49.4397 0 48.7475 0H1.2505C0.560194 0 0 0.560311 0 1.25062C0 1.94093 0.560194 2.49924 1.2505 2.49924Z" fill="#E6E9ED"/>
<path d="M48.7475 57.499H1.2505C0.560194 57.499 0 58.0576 0 58.7478C0 59.438 0.560194 59.9983 1.2505 59.9983H48.7475C49.4396 59.9983 50 59.4381 50 58.7478C50 58.0575 49.4395 57.499 48.7475 57.499Z" fill="#E6E9ED"/>
<path d="M48.7475 17.4988H1.2505C0.560194 17.4988 0 18.0591 0 18.7494C0 19.4397 0.560194 20 1.2505 20H48.7475C49.4396 20 50 19.4397 50 18.7494C50 18.0591 49.4395 17.4988 48.7475 17.4988Z" fill="#E6E9ED"/>
<path d="M48.7475 39.9984H1.2505C0.560194 39.9984 0 40.5585 0 41.2489C0 41.9392 0.560194 42.4995 1.2505 42.4995H48.7475C49.4396 42.4995 50 41.9392 50 41.2489C50 40.5585 49.4395 39.9984 48.7475 39.9984Z" fill="#E6E9ED"/>
<path d="M38.2523 19.2439C34.7093 15.7027 30.0018 13.7508 24.9932 13.7508C19.9853 13.7508 15.277 15.7027 11.7358 19.2439C8.19372 22.785 6.24365 27.4925 6.24365 32.5004C6.24365 37.5099 8.19372 42.2174 11.7358 45.7585C15.277 49.2998 19.9853 51.2498 24.9932 51.2498C30.0019 51.2498 34.7094 49.2998 38.2523 45.7585C41.7935 42.2174 43.7417 37.5099 43.7417 32.5004C43.7417 27.4925 41.7935 22.785 38.2523 19.2439Z" fill="#F6BB42"/>
<path d="M38.2522 16.7427C34.7092 13.2016 30.0016 11.2515 24.993 11.2515C19.9851 11.2515 15.2767 13.2016 11.7355 16.7427C8.19348 20.2839 6.24341 24.9932 6.24341 30.0009C6.24341 35.0087 8.19348 39.718 11.7355 43.2592C15.2767 46.8004 19.9851 48.7504 24.993 48.7504C30.0016 48.7504 34.7092 46.8004 38.252 43.2592C41.7933 39.718 43.7414 35.0087 43.7414 30.0009C43.7414 24.9932 41.7934 20.2839 38.2522 16.7427Z" fill="#FFCE54"/>
<path d="M24.9994 29.9588L18.1387 41.842C20.1583 43.0067 22.5011 43.6731 24.9994 43.6731C27.4969 43.6731 29.8406 43.0065 31.8602 41.842L24.9994 29.9588Z" fill="#434A54"/>
<path d="M25.0308 29.9057H38.7504C38.7431 24.8302 35.9855 20.3992 31.8915 18.0226L25.0308 29.9057Z" fill="#434A54"/>
<path d="M24.9683 29.9057L18.1075 18.0226C14.0124 20.3992 11.256 24.8302 11.2495 29.9057H24.9683Z" fill="#434A54"/>
<path d="M20.9895 29.9588C20.9895 27.7451 22.7847 25.949 24.9994 25.949C27.2148 25.949 29.0092 27.7451 29.0092 29.9588C29.0092 32.1743 27.2148 33.9707 24.9994 33.9707C22.7848 33.9707 20.9895 32.1744 20.9895 29.9588Z" fill="#656D78"/>
</svg>
