<svg width="72" height="72" viewBox="0 0 72 72" fill="none" xmlns="http://www.w3.org/2000/svg">
<path d="M35.9995 68.9503C54.1969 68.9503 68.9487 54.1984 68.9487 36.0011C68.9487 17.8037 54.1969 3.05188 35.9995 3.05188C17.8022 3.05188 3.05029 17.8037 3.05029 36.0011C3.05029 54.1984 17.8022 68.9503 35.9995 68.9503Z" fill="#F77F00" stroke="#FEFAE0" stroke-width="6"/>
<path d="M11.8372 36.0007C11.8372 37.2144 12.3288 38.3122 13.1238 39.1074L25.5496 51.5336C27.2653 53.249 30.0471 53.249 31.7628 51.5336C33.4785 49.8175 33.4785 47.0361 31.7628 45.3206L26.8363 40.3941H55.7694C58.196 40.3941 60.1627 38.4274 60.1627 36.0009C60.1627 33.5743 58.196 31.6076 55.7694 31.6076H26.8372L31.7628 26.682C33.4785 24.9659 33.4789 22.1841 31.7632 20.4684C30.0475 18.7527 27.2657 18.7527 25.55 20.4684L13.1268 32.8916C12.33 33.6869 11.8372 34.7861 11.8372 36.0007V36.0007Z" fill="#E7F0EF"/>
</svg>
