<svg width="70" height="70" viewBox="0 0 70 70" fill="none" xmlns="http://www.w3.org/2000/svg">
<circle cx="35" cy="35" r="35" fill="#F2E8CF"/>
<circle cx="35" cy="35" r="30" fill="#BC4749"/>
<path d="M12.903 40C12.793 40 12.703 39.965 12.633 39.895C12.563 39.825 12.528 39.735 12.528 39.625V29.875C12.528 29.765 12.563 29.675 12.633 29.605C12.703 29.535 12.793 29.5 12.903 29.5H16.878C18.128 29.5 19.113 29.79 19.833 30.37C20.553 30.94 20.913 31.765 20.913 32.845C20.913 33.575 20.738 34.185 20.388 34.675C20.038 35.165 19.568 35.53 18.978 35.77L21.093 39.52C21.123 39.58 21.138 39.635 21.138 39.685C21.138 39.765 21.108 39.84 21.048 39.91C20.988 39.97 20.913 40 20.823 40H19.158C18.978 40 18.843 39.955 18.753 39.865C18.663 39.765 18.598 39.675 18.558 39.595L16.728 36.16H14.913V39.625C14.913 39.735 14.878 39.825 14.808 39.895C14.738 39.965 14.648 40 14.538 40H12.903ZM14.913 34.255H16.833C17.383 34.255 17.788 34.13 18.048 33.88C18.318 33.63 18.453 33.28 18.453 32.83C18.453 32.38 18.323 32.025 18.063 31.765C17.803 31.505 17.393 31.375 16.833 31.375H14.913V34.255ZM23.1276 40C23.0176 40 22.9276 39.965 22.8576 39.895C22.7876 39.825 22.7526 39.735 22.7526 39.625V29.875C22.7526 29.765 22.7876 29.675 22.8576 29.605C22.9276 29.535 23.0176 29.5 23.1276 29.5H29.9226C30.0326 29.5 30.1226 29.535 30.1926 29.605C30.2626 29.675 30.2976 29.765 30.2976 29.875V31.075C30.2976 31.175 30.2626 31.26 30.1926 31.33C30.1226 31.4 30.0326 31.435 29.9226 31.435H25.0626V33.79H29.5926C29.7026 33.79 29.7926 33.825 29.8626 33.895C29.9326 33.965 29.9676 34.055 29.9676 34.165V35.275C29.9676 35.375 29.9326 35.46 29.8626 35.53C29.7926 35.6 29.7026 35.635 29.5926 35.635H25.0626V38.065H30.0426C30.1526 38.065 30.2426 38.1 30.3126 38.17C30.3826 38.24 30.4176 38.33 30.4176 38.44V39.625C30.4176 39.735 30.3826 39.825 30.3126 39.895C30.2426 39.965 30.1526 40 30.0426 40H23.1276ZM35.9808 40.15C35.0208 40.15 34.2158 40.01 33.5658 39.73C32.9258 39.45 32.4408 39.085 32.1108 38.635C31.7808 38.185 31.6058 37.705 31.5858 37.195C31.5858 37.115 31.6158 37.045 31.6758 36.985C31.7358 36.915 31.8108 36.88 31.9008 36.88H33.5058C33.6358 36.88 33.7358 36.91 33.8058 36.97C33.8758 37.02 33.9408 37.085 34.0008 37.165C34.0708 37.335 34.1808 37.5 34.3308 37.66C34.4908 37.82 34.7058 37.955 34.9758 38.065C35.2458 38.165 35.5808 38.215 35.9808 38.215C36.6308 38.215 37.1158 38.11 37.4358 37.9C37.7658 37.69 37.9308 37.405 37.9308 37.045C37.9308 36.785 37.8408 36.575 37.6608 36.415C37.4908 36.255 37.2158 36.11 36.8358 35.98C36.4658 35.85 35.9708 35.71 35.3508 35.56C34.6008 35.4 33.9608 35.195 33.4308 34.945C32.9108 34.685 32.5158 34.355 32.2458 33.955C31.9858 33.545 31.8558 33.04 31.8558 32.44C31.8558 31.84 32.0208 31.31 32.3508 30.85C32.6808 30.38 33.1458 30.015 33.7458 29.755C34.3458 29.485 35.0608 29.35 35.8908 29.35C36.5608 29.35 37.1508 29.44 37.6608 29.62C38.1808 29.8 38.6108 30.035 38.9508 30.325C39.3008 30.615 39.5658 30.925 39.7458 31.255C39.9258 31.585 40.0208 31.905 40.0308 32.215C40.0308 32.295 40.0008 32.37 39.9408 32.44C39.8808 32.5 39.8058 32.53 39.7158 32.53H38.0358C37.9358 32.53 37.8458 32.51 37.7658 32.47C37.6858 32.43 37.6208 32.36 37.5708 32.26C37.5108 32 37.3308 31.775 37.0308 31.585C36.7408 31.385 36.3608 31.285 35.8908 31.285C35.4008 31.285 35.0108 31.375 34.7208 31.555C34.4408 31.735 34.3008 32.01 34.3008 32.38C34.3008 32.62 34.3708 32.825 34.5108 32.995C34.6608 33.155 34.9058 33.3 35.2458 33.43C35.5958 33.55 36.0558 33.685 36.6258 33.835C37.5058 34.015 38.2208 34.23 38.7708 34.48C39.3208 34.73 39.7258 35.055 39.9858 35.455C40.2458 35.845 40.3758 36.34 40.3758 36.94C40.3758 37.61 40.1858 38.185 39.8058 38.665C39.4358 39.145 38.9208 39.515 38.2608 39.775C37.6108 40.025 36.8508 40.15 35.9808 40.15ZM42.361 40C42.251 40 42.161 39.965 42.091 39.895C42.021 39.825 41.986 39.735 41.986 39.625V29.875C41.986 29.765 42.021 29.675 42.091 29.605C42.161 29.535 42.251 29.5 42.361 29.5H49.156C49.266 29.5 49.356 29.535 49.426 29.605C49.496 29.675 49.531 29.765 49.531 29.875V31.075C49.531 31.175 49.496 31.26 49.426 31.33C49.356 31.4 49.266 31.435 49.156 31.435H44.296V33.79H48.826C48.936 33.79 49.026 33.825 49.096 33.895C49.166 33.965 49.201 34.055 49.201 34.165V35.275C49.201 35.375 49.166 35.46 49.096 35.53C49.026 35.6 48.936 35.635 48.826 35.635H44.296V38.065H49.276C49.386 38.065 49.476 38.1 49.546 38.17C49.616 38.24 49.651 38.33 49.651 38.44V39.625C49.651 39.735 49.616 39.825 49.546 39.895C49.476 39.965 49.386 40 49.276 40H42.361ZM54.1192 40C54.0092 40 53.9192 39.965 53.8492 39.895C53.7792 39.825 53.7442 39.735 53.7442 39.625V31.585H51.0142C50.9142 31.585 50.8292 31.55 50.7592 31.48C50.6892 31.41 50.6542 31.325 50.6542 31.225V29.875C50.6542 29.765 50.6892 29.675 50.7592 29.605C50.8292 29.535 50.9142 29.5 51.0142 29.5H58.8742C58.9842 29.5 59.0742 29.535 59.1442 29.605C59.2142 29.675 59.2492 29.765 59.2492 29.875V31.225C59.2492 31.325 59.2142 31.41 59.1442 31.48C59.0742 31.55 58.9842 31.585 58.8742 31.585H56.1592V39.625C56.1592 39.735 56.1242 39.825 56.0542 39.895C55.9842 39.965 55.8942 40 55.7842 40H54.1192Z" fill="#EDF6F9"/>
</svg>
