<svg width="67" height="67" viewBox="0 0 67 67" fill="none" xmlns="http://www.w3.org/2000/svg">
<path d="M33.0503 63.0519C49.6188 63.0519 63.0503 49.6204 63.0503 33.0519C63.0503 16.4833 49.6188 3.05188 33.0503 3.05188C16.4817 3.05188 3.05029 16.4833 3.05029 33.0519C3.05029 49.6204 16.4817 63.0519 33.0503 63.0519Z" fill="white" stroke="#84A59D" stroke-width="6"/>
<path d="M11.0508 33.0516C11.0508 34.1566 11.4984 35.1562 12.2223 35.8802L23.5359 47.1942C25.098 48.7561 27.6308 48.7561 29.1929 47.1942C30.755 45.6317 30.755 43.0993 29.1929 41.5373L24.7074 37.0517H51.0507C53.2601 37.0517 55.0508 35.261 55.0508 33.0518C55.0508 30.8423 53.2601 29.0517 51.0507 29.0517H24.7082L29.1929 24.567C30.755 23.0045 30.7554 20.4717 29.1933 18.9096C27.6312 17.3474 25.0984 17.3474 23.5362 18.9096L12.225 30.2208C11.4995 30.9449 11.0508 31.9457 11.0508 33.0516Z" fill="#F28482"/>
</svg>
