<svg width="55" height="55" viewBox="0 0 55 55" fill="none" xmlns="http://www.w3.org/2000/svg">
<path d="M44.5945 16.4657H40.7068C40.2332 16.4657 39.8492 16.8497 39.8492 17.3233V54.1424C39.8492 54.6161 40.2332 55 40.7068 55H44.5945C45.0681 55 45.4521 54.6161 45.4521 54.1424V17.3233C45.4521 16.8497 45.0681 16.4657 44.5945 16.4657Z" fill="#CCCCCC"/>
<path d="M14.2931 16.4657H10.4054C9.93178 16.4657 9.54785 16.8497 9.54785 17.3233V54.1424C9.54785 54.6161 9.93178 55 10.4054 55H14.2931C14.7667 55 15.1507 54.6161 15.1507 54.1424V17.3233C15.1508 16.8497 14.7667 16.4657 14.2931 16.4657Z" fill="#CCCCCC"/>
<path d="M45.4521 17.3233C45.4521 16.8497 45.0681 16.4657 44.5945 16.4657H40.7068C40.2332 16.4657 39.8492 16.8497 39.8492 17.3233V30.0919H45.4522V17.3233H45.4521Z" fill="#CCCCCC"/>
<path d="M45.4522 35.4275H39.8492V47.1673H45.4522V35.4275Z" fill="#CCCCCC"/>
<path d="M15.1508 17.3233C15.1508 16.8497 14.7668 16.4657 14.2932 16.4657H10.4054C9.93178 16.4657 9.54785 16.8497 9.54785 17.3233V30.0919H15.1508V17.3233Z" fill="#CCCCCC"/>
<path d="M15.1508 35.4275H9.54785V47.1673H15.1508V35.4275Z" fill="#CCCCCC"/>
<path d="M42.8793 7.31812H42.1932C39.8288 7.31812 37.9053 9.24161 37.9053 11.6061V17.3233C37.9053 17.7969 38.2892 18.1808 38.7628 18.1808H46.3096C46.7833 18.1808 47.1672 17.7969 47.1672 17.3233V11.6061C47.1673 9.24161 45.2438 7.31812 42.8793 7.31812Z" fill="#EB6836"/>
<path d="M39.7349 17.3233V11.6061C39.7349 9.43562 41.3562 7.63791 43.4512 7.35732C43.2639 7.33229 43.0734 7.31812 42.8795 7.31812H42.1934C39.8289 7.31812 37.9054 9.24161 37.9054 11.6061V17.3233C37.9054 17.7969 38.2893 18.1808 38.7629 18.1808H40.5924C40.1188 18.1808 39.7349 17.7969 39.7349 17.3233Z" fill="#EB6836"/>
<path d="M12.8066 7.31812H12.1205C9.75602 7.31812 7.83252 9.24161 7.83252 11.6061V17.3233C7.83252 17.7969 8.21645 18.1808 8.69007 18.1808H16.2369C16.7105 18.1808 17.0944 17.7969 17.0944 17.3233V11.6061C17.0945 9.24161 15.171 7.31812 12.8066 7.31812Z" fill="#EB6836"/>
<path d="M9.66214 17.3233V11.6061C9.66214 9.43562 11.2835 7.63791 13.3784 7.35732C13.1912 7.33229 13.0006 7.31812 12.8067 7.31812H12.1206C9.75614 7.31812 7.83264 9.24161 7.83264 11.6061V17.3233C7.83264 17.7969 8.21657 18.1808 8.69019 18.1808H10.5197C10.0461 18.1808 9.66214 17.7969 9.66214 17.3233Z" fill="#EB6836"/>
<path d="M26.6424 16.4658L25.2131 16.8659L14.6934 27.3857L14.6361 28.472H24.1268L26.1279 27.843L36.6476 17.3233L36.1331 16.4658H26.6424Z" fill="#666666"/>
<path d="M9.43343 16.4657L8.11848 17.0374L0.514512 24.6414L0.114258 25.7848V27.6143C0.114258 28.0879 0.498184 28.4719 0.971807 28.4719H7.03212L8.28992 28.3003L18.8096 17.7806L19.0383 16.4656H9.43343V16.4657Z" fill="#666666"/>
<path d="M43.8513 16.4658L42.5935 16.9231L32.1309 27.3857L31.8451 28.472H41.1643L42.5935 27.843L53.1133 17.3233L53.1705 16.4658H43.8513Z" fill="#666666"/>
<path d="M0.971929 16.4657C0.498306 16.4657 0.11438 16.8497 0.11438 17.3233V25.7848L9.43355 16.4656H0.971929V16.4657Z" fill="#F7D04A"/>
<path d="M19.0385 16.4658L7.03223 28.472H14.6361L26.6424 16.4658H19.0385Z" fill="#F7D04A"/>
<path d="M36.133 16.4658L24.1268 28.472H31.8451L43.8513 16.4658H36.133Z" fill="#F7D04A"/>
<path d="M54.0281 16.4658H53.1705L41.1643 28.472H54.0282C54.5018 28.472 54.8857 28.0881 54.8857 27.6144V17.3234C54.8857 16.8497 54.5017 16.4658 54.0281 16.4658Z" fill="#F7D04A"/>
<path d="M26.6424 33.2745L25.2131 33.6746L14.6934 44.1944L14.6361 45.2807H24.1268L26.1279 44.6517L36.6476 34.132L36.1331 33.2745H26.6424Z" fill="#666666"/>
<path d="M9.43343 33.2745L8.11848 33.8462L0.514512 41.4501L0.114258 42.5936V44.4231C0.114258 44.8968 0.498184 45.2807 0.971807 45.2807H7.03212L8.28992 45.1091L18.8096 34.5894L19.0383 33.2745H9.43343Z" fill="#666666"/>
<path d="M43.8513 33.2745L42.5935 33.7318L32.1309 44.1944L31.8451 45.2807H41.1643L42.5935 44.6517L53.1133 34.132L53.1705 33.2745H43.8513Z" fill="#666666"/>
<path d="M0.971929 33.2745C0.498306 33.2745 0.11438 33.6584 0.11438 34.132V42.5935L9.43355 33.2744H0.971929V33.2745Z" fill="#F7D04A"/>
<path d="M19.0385 33.2744L7.03223 45.2807H14.6361L26.6424 33.2744H19.0385Z" fill="#F7D04A"/>
<path d="M36.133 33.2744L24.1268 45.2807H31.8451L43.8513 33.2744H36.133Z" fill="#F7D04A"/>
<path d="M54.0281 33.2744H53.1705L41.1643 45.2807H54.0282C54.5018 45.2807 54.8857 44.8967 54.8857 44.4231V34.1321C54.8857 33.6584 54.5017 33.2744 54.0281 33.2744Z" fill="#F7D04A"/>
</svg>
