<svg width="182" height="85" viewBox="0 0 182 85" fill="none" xmlns="http://www.w3.org/2000/svg">
<path d="M22.0711 4.08598C12.4765 4.91766 4.84985 11.7092 3.94171 21.2428C3.84087 22.3015 2.98897 23.1667 1.92553 23.1667C0.86209 23.1667 -0.00828868 22.3009 0.0758587 21.2407C1.00432 9.54377 10.3464 0.956294 22.0693 0.0747894C23.1708 -0.0080353 24.0691 0.895431 24.0691 2C24.0691 3.10457 23.1715 3.99059 22.0711 4.08598Z" fill="#FFFCAD"/>
<path d="M3.94104 63.7572C4.8425 73.2906 12.4146 80.082 22.0019 80.914C23.1024 81.0095 24 81.8954 24 83C24 84.1046 23.1016 85.0081 22.0001 84.9252C10.2835 84.0434 0.998071 75.4561 0.0753842 63.7593C-0.00824436 62.6991 0.86209 61.8333 1.92553 61.8333C2.98897 61.8333 3.84093 62.6985 3.94104 63.7572Z" fill="#FFFCAD"/>
<path d="M158.998 80.9165C168.649 80.1066 176.875 73.4773 177.894 63.997C178.012 62.8987 178.895 62 180 62C181.105 62 182.01 62.8995 181.911 63.9997C180.868 75.6464 170.781 84.0648 158.999 84.927C157.898 85.0076 157 84.1046 157 83C157 81.8954 157.897 81.0088 158.998 80.9165Z" fill="#FFFCAD"/>
<path d="M177.894 21.003C176.875 11.5227 168.649 4.89336 158.998 4.08354C157.897 3.99118 157 3.10457 157 2C157 0.895431 157.898 -0.00761587 158.999 0.0730071C170.781 0.935238 180.868 9.35361 181.911 21.0003C182.01 22.1005 181.105 23 180 23C178.895 23 178.012 22.1013 177.894 21.003Z" fill="#FFFCAD"/>
</svg>
