<svg width="69" height="133" viewBox="0 0 69 133" fill="none" xmlns="http://www.w3.org/2000/svg">
<path d="M39.744 130.909L49.9451 129.938L55.6832 127.834L57.7553 126.701L58.0741 126.863L59.668 126.377L60.1462 125.406L60.7837 124.111L61.8995 120.551L62.8558 115.534L63.1746 111.002V105.499L62.3776 93.1992L61.7401 81.7083L61.2619 72.9687L61.2619 64.8765L61.4213 54.3566V53.0618L64.9279 55.004L66.203 55.4895H66.5218L66.8406 54.5184L67 53.5474L66.5218 52.0908L65.5655 50.6342L64.6091 49.825L61.4213 48.3684V45.2933L61.8995 41.2472L62.2182 38.334L62.0589 28.4615L61.5807 23.9299L60.9431 21.6641L59.8274 17.9417L57.9147 12.7626L56.1614 9.68761L55.2576 7.98339C55.1205 7.72444 54.9022 7.51728 54.6376 7.39751L51.8578 6.12704L45.3227 4.02306L39.2658 2.40462L34.9622 2.08093L30.8181 2.08093L24.6018 3.69937L16.6322 6.28888L14.0819 7.90732L11.8504 11.6297L9.93772 16.1614L8.18441 21.0167L7.38745 25.5483L7.06867 30.2418L6.90928 37.2011L7.38745 41.7327L7.70624 44.6459L7.54684 48.3684L5.47475 49.3394L4.04023 50.1486L3.24327 51.1197L2.4463 52.7382L2.12753 54.0329L2.28692 55.004L2.76509 55.6513L3.40266 55.1658L5.31536 54.1947L7.22806 53.3855L7.70624 53.0618L7.86563 54.0329L7.70624 59.6974L7.86563 71.3502L7.22806 85.4307L6.4311 98.54C6.4311 98.54 5.79353 108.898 5.95293 112.782C6.11232 116.667 6.74989 117.314 7.38745 120.875C8.02502 124.435 8.66259 124.759 8.66259 124.759L9.45955 126.377L11.5316 126.701L14.4007 128.158L19.9794 130.1L23.8048 130.423L28.9053 130.747L34.0059 131.071L39.744 130.909Z" fill="#F90101"/>
<path d="M12.488 39.1432L11.5317 42.542L13.285 50.1486L15.0383 55.004L16.951 59.0501L20.4576 59.2119L36.3968 59.0501L49.3076 58.7264H51.8578L54.2487 53.0618L55.8426 46.7499L56.9584 42.3801L56.3208 39.7906C56.3208 39.7906 55.6832 38.8196 54.2487 37.0393C52.8142 35.259 48.67 31.6984 47.873 31.3747C47.0761 31.0511 45.1634 30.08 42.7725 29.4326C40.3816 28.7852 36.2374 28.4615 34.1653 28.4615C32.0932 28.4615 28.2678 28.6234 26.1957 29.2708C24.1236 29.9181 21.0952 31.2129 21.0952 31.2129L18.0667 32.9932L14.7195 36.2301L12.488 39.1432Z" fill="#292D38"/>
<path d="M29.5078 4.83228C29.5078 4.83228 29.0296 7.42178 28.0733 11.306C27.1169 15.1903 26.32 18.4272 26.0012 19.2364C25.6824 20.0456 21.6976 24.9009 21.6976 24.9009L17.8722 29.2707L16.7565 30.8892L15.6407 32.6695L14.6844 34.2879L13.5925 35.8707L13.5686 35.9063C13.5686 35.9063 12.4529 38.1722 12.1341 37.6866C11.8153 37.2011 12.1341 35.7445 12.7717 34.2879C13.4093 32.8313 15.6407 26.8431 16.2783 24.0917C16.9159 21.3404 17.8722 16.3232 17.8722 14.8666C17.8722 13.41 18.191 8.231 18.191 8.231L24.0885 6.12703L29.5078 4.83228Z" fill="#F90101"/>
<path d="M61.4213 25.872C61.4213 25.872 60.1461 23.768 59.8273 23.2825C59.5086 22.797 58.871 22.1496 58.871 22.1496L58.074 17.7798L57.1177 14.3811L56.0019 11.306L55.0456 9.68761L52.8141 7.90732L51.2202 7.0981L50.5826 6.77441L50.2638 7.25994V8.23101L49.7649 8.14523L44.65 6.35524L38.7876 4.83228H29.8616L24.1235 6.28888L18.226 8.39285V7.0981L18.0666 6.93626L16.6321 7.58363L15.1976 8.39285L12.9661 10.4968L12.0097 12.7626L11.2128 14.7048L10.4158 17.2943L10.097 19.8838L9.61885 21.9878V22.3114C9.61885 22.3114 8.6625 23.4444 8.34372 24.0917C8.02494 24.7391 7.54676 25.7102 7.54676 25.7102L7.70615 22.797L8.98129 18.589L10.894 13.0863L12.8067 9.36392L14.4006 7.25994L19.3418 5.31781L26.0362 3.052L30.9774 2.08093L38.15 2.08093L43.0912 3.21384L47.076 4.50859L52.3359 6.28888L54.7268 7.58363L55.6832 8.87839L57.1177 11.4679L58.871 15.6758L60.2179 19.4533L61.1025 22.3114L61.4213 24.4154V25.872Z" fill="#F90101"/>
<path d="M48.9887 109.384L49.1481 95.1413L47.8729 93.3611L45.9602 92.8755H22.0514L21.0951 93.3611L20.1387 94.3321L19.6606 96.4361V110.678L26.6738 124.921C26.6738 124.921 33.2089 125.892 34.484 125.892C35.7591 125.892 40.8597 125.244 40.8597 125.244L42.9318 124.597L48.9887 109.384Z" fill="#292D38"/>
<path d="M44.0476 100.864V114.397C44.0476 115.035 43.885 115.663 43.5742 116.218L42.1062 118.845C41.2375 120.399 39.6133 121.36 37.8536 121.36H31.6326C30.2092 121.36 28.8591 120.716 27.9506 119.602L25.4705 116.563C25.013 116.001 24.7612 115.296 24.7612 114.567V101.594C24.7612 99.8979 26.1001 98.5157 27.7689 98.4882L41.4384 98.2584C42.8729 98.2357 44.0476 99.4091 44.0476 100.864Z" fill="#373D49"/>
<path d="M54.0892 45.4551C54.0892 45.4551 52.8141 50.6342 52.3359 52.9C51.8577 55.1658 50.9014 56.9461 50.9014 56.9461H37.3531V54.3825C37.3531 54.1009 37.1283 53.871 36.8494 53.871H33.7636C33.4575 53.871 33.2089 54.1235 33.2089 54.4343V56.9461H17.2697C17.2697 56.9461 16.154 52.9 15.5164 49.0157C14.8788 45.1315 14.7194 42.7038 14.7194 42.7038C14.7194 42.7038 23.6454 38.1722 25.8769 37.5248C28.1084 36.8774 34.6434 36.23 37.9907 36.5537C41.3379 36.8774 43.7288 37.2011 46.9166 38.9814C50.1044 40.7617 53.4517 43.9985 54.0892 45.4551Z" fill="#373D49"/>
<path d="M58.2334 45.4552C58.2334 45.4552 58.3051 53.1201 58.1888 56.4088C58.074 59.6974 57.7919 67.2426 57.3743 71.6431C56.9566 76.0437 56.5327 81.0641 56.5327 81.0641L55.9636 85.4711L54.7698 93.2946C54.7698 93.2946 52.7965 85.4225 52.2466 82.0271C51.6983 78.6332 51.2201 72.8068 51.6983 69.0844C52.1765 65.362 54.3442 57.5627 54.934 55.5542C55.5237 53.5474 57.277 47.5591 57.277 47.5591C57.277 47.5591 58.2334 45.1315 58.2334 45.4552Z" fill="#424242"/>
<path d="M52.2483 82.0287L56.5614 80.4313L56.6427 79.1641L52.1765 80.8991L52.2483 82.0287Z" fill="#141111"/>
<path d="M52.4953 82.6793L55.7453 81.2437C55.927 81.1628 56.1263 81.3166 56.0976 81.5156C55.9254 82.7602 55.4329 86.2722 55.044 88.5041C54.5658 91.2554 54.4064 91.7409 54.4064 91.7409C54.4064 91.7409 52.6547 84.1359 52.4953 82.6793Z" fill="#191616" stroke="#1E1818" stroke-miterlimit="10"/>
<path d="M10.7188 45.4552C10.7188 45.4552 10.647 53.1201 10.7634 56.4088C10.8798 59.6974 11.1603 67.2426 11.5779 71.6431C11.9955 76.0437 12.4195 81.0641 12.4195 81.0641L12.9885 85.4711L14.1824 93.2946C14.1824 93.2946 16.1556 85.4225 16.7055 82.0271C17.2539 78.6332 17.732 72.8068 17.2539 69.0844C16.7757 65.362 14.6079 57.5627 14.0182 55.5542C13.4284 53.5474 11.6751 47.5591 11.6751 47.5591C11.6751 47.5591 10.7188 45.1315 10.7188 45.4552Z" fill="#424242"/>
<path d="M16.7055 82.0287L12.3908 80.4313L12.3095 79.1641L16.7756 80.8991L16.7055 82.0287Z" fill="#141111"/>
<path d="M16.3931 82.4364L13.4379 81.4055C13.277 81.3246 13.1032 81.4783 13.1271 81.6774C13.2786 82.922 13.7121 86.434 14.0532 88.6658C14.474 91.4172 14.6143 91.9027 14.6143 91.9027C14.6143 91.9027 16.2528 83.893 16.3931 82.4364Z" fill="#191616" stroke="#1E1818" stroke-miterlimit="10"/>
<path d="M60.9431 65.2001C60.9431 65.2001 59.8274 74.5871 59.3492 77.6621C58.871 80.7371 57.0093 88.6643 57.0635 90.6889C57.1177 92.7136 59.4512 99.1259 60.1972 98.9948C60.9431 98.8637 61.3336 98.1888 61.3767 93.9954C61.4213 89.802 61.2954 79.2029 61.2954 79.2029L60.9431 65.2001Z" fill="#F90101"/>
<path d="M7.93418 65.2001C7.93418 65.2001 9.04992 74.5871 9.5281 77.6621C10.0063 80.7371 11.868 88.6643 11.8138 90.6889C11.7596 92.7136 9.42608 99.1259 8.68013 98.9948C7.93418 98.8637 7.54367 98.1888 7.50064 93.9954C7.45601 89.802 7.58192 79.2029 7.58192 79.2029L7.93418 65.2001Z" fill="#F90101"/>
<path d="M58.7117 21.9877C58.7117 21.9877 58.0741 16.6469 57.2771 14.5429C56.4802 12.4389 55.6051 10.3172 54.9277 9.59857C54.2487 8.87836 50.9015 6.61255 50.5827 6.77439C50.2639 6.93623 50.2639 8.55467 50.2639 8.55467L52.336 11.1442L54.5675 14.0574L55.6832 16.6469L56.4802 18.9127L56.9584 20.2074L58.7117 21.9877Z" fill="#302F2F"/>
<path opacity="0.44" d="M57.277 20.4017C57.277 20.5089 57.4911 20.5959 57.7552 20.5959C58.0193 20.5959 58.2334 20.5089 58.2334 20.4017C58.2334 20.2944 58.0193 20.2075 57.7552 20.2075C57.4911 20.2075 57.277 20.2944 57.277 20.4017Z" fill="#A5A5A5"/>
<path d="M9.77831 21.9877C9.77831 21.9877 10.4159 16.6469 11.2128 14.5429C12.0098 12.439 12.8849 10.3172 13.5623 9.59859C14.2397 8.88 17.5885 6.61257 17.9073 6.77441C18.2261 6.93626 18.2261 8.5547 18.2261 8.5547L16.154 11.1442L13.9225 14.0574L12.8068 16.6469L12.0098 18.9127L11.5316 20.2075L9.77831 21.9877Z" fill="#302F2F"/>
<path opacity="0.44" d="M10.2565 20.4017C10.2565 20.5089 10.4706 20.5959 10.7347 20.5959C10.9988 20.5959 11.2129 20.5089 11.2129 20.4017C11.2129 20.2944 10.9988 20.2075 10.7347 20.2075C10.4706 20.2075 10.2565 20.2944 10.2565 20.4017Z" fill="#A5A5A5"/>
<path d="M39.1781 4.96985C39.1781 4.96985 43.2522 5.68358 44.4078 6.18854C45.5618 6.69349 49.8654 8.15009 49.8654 8.15009L47.7933 8.63562L44.1432 7.96558C44.1432 7.96558 39.8061 5.83572 39.1781 4.96985Z" fill="#383434"/>
<path d="M29.6226 4.96985C29.6226 4.96985 25.5485 5.68358 24.3929 6.18854C23.2389 6.69349 18.9353 8.15009 18.9353 8.15009L21.0074 8.63562L24.6575 7.96558C24.6575 7.96558 28.993 5.83572 29.6226 4.96985Z" fill="#383434"/>
<path d="M54.4193 93.0373C54.4193 93.0373 51.5311 102.28 50.7421 104.852C49.9531 107.424 48.8294 110.678 48.8294 110.678C48.8294 110.678 43.0913 124.273 43.4101 124.273C43.7288 124.273 49.2438 114.728 50.3978 112.056C51.5502 109.384 53.0628 103.316 53.0628 103.316L54.738 94.332L54.4193 93.0373Z" fill="#F90101"/>
<path d="M8.07596 83.4885C8.12059 83.4222 8.32143 83.7362 8.34374 83.8122C8.65934 84.8804 10.7808 91.987 10.6262 93.0373C10.4589 94.1703 8.62108 99.0256 8.28636 97.7308C7.96758 96.496 7.26306 84.7105 8.07596 83.4885Z" fill="#F90101"/>
<path d="M56.8706 121.188C56.8706 121.188 59.6679 122.331 59.8273 122.817C59.9214 123.103 60.0696 123.444 60.1764 123.678C60.2577 123.854 60.2593 124.056 60.1844 124.236L59.3492 126.215L57.5114 126.817L55.6831 126.539C55.6831 126.539 56.3207 124.921 56.4801 124.273C56.6395 123.626 56.9407 121.339 56.8706 121.188Z" fill="#3A3535"/>
<path d="M11.7882 121.188C11.7882 121.188 8.99092 122.331 8.83153 122.817C8.73748 123.103 8.58925 123.444 8.48246 123.678C8.40117 123.854 8.39958 124.056 8.47449 124.236L9.3097 126.215L11.1475 126.817L12.9741 126.539C12.9741 126.539 12.3366 124.921 12.1772 124.273C12.0178 123.626 11.7165 121.339 11.7882 121.188Z" fill="#3A3535"/>
<path d="M56.9583 90.6097C56.9583 90.6097 56.1613 98.3782 55.6832 101.291C55.1938 104.274 53.2923 112.459 53.2923 112.459C53.2923 112.459 58.7116 101.13 59.668 101.453C60.6243 101.777 60.7263 108.061 60.7263 108.061L61.4213 97.8927C61.4213 97.8927 60.7837 99.673 59.9867 98.7019C59.1898 97.7309 56.6395 92.39 56.9583 90.6097Z" fill="#F90101"/>
<path d="M46.5643 124.701C46.5643 124.701 37.9986 126.256 34.0058 126.054C27.6302 125.73 22.8484 124.435 22.8484 124.435L29.1874 130.457L40.6094 130.402L46.5643 124.701Z" fill="#F90101"/>
<path d="M34.245 2C34.245 2 37.1937 2.08092 38.6283 2.24277C40.0628 2.40461 52.1766 5.80334 54.408 7.58362C56.6395 9.36391 60.0665 18.8318 60.8634 22.3924C61.6604 25.9529 61.9792 32.9122 61.9792 35.8254C61.9792 38.7386 61.1822 44.565 61.1822 44.565C61.1822 44.565 60.8634 71.4311 61.0228 75.1536C61.1822 78.876 62.6167 102.667 62.7761 105.58C62.9355 108.493 62.9355 114.644 61.8198 119.499C60.704 124.354 59.9071 125.163 59.9071 125.163L59.2695 126.458L57.3568 126.782C57.3568 126.782 52.0969 129.857 46.3588 130.342C40.6207 130.828 34.4044 130.99 34.4044 130.99" stroke="#DD0303" stroke-width="4" stroke-miterlimit="10"/>
<path d="M34.4043 2C34.4043 2 31.4508 2.08092 30.0163 2.24277C28.5817 2.40461 16.468 5.80334 14.2365 7.58362C12.005 9.36391 8.57807 18.8318 7.78111 22.3924C6.98415 25.9529 6.66537 32.9122 6.66537 35.8254C6.66537 38.7386 7.46233 44.565 7.46233 44.565C7.46233 44.565 7.78111 71.4311 7.62172 75.1536C7.46233 78.876 6.0278 102.667 5.86841 105.58C5.70902 108.493 5.70902 114.644 6.82476 119.499C7.9405 124.354 8.73746 125.163 8.73746 125.163L9.37503 126.458L11.2877 126.782C11.2877 126.782 16.5477 129.857 22.2858 130.342C28.0239 130.828 34.5637 130.99 34.5637 130.99" stroke="#DD0303" stroke-width="4" stroke-miterlimit="10"/>
<path d="M56.8787 42.2992C56.8787 42.2992 55.2847 49.2585 54.4878 52.1717C53.6908 55.0849 51.7781 58.6455 51.7781 58.6455C51.7781 58.6455 39.3456 59.131 34.5638 59.131C29.7821 59.131 17.0307 59.131 17.0307 59.131C17.0307 59.131 14.1617 53.7901 13.3647 50.7151C12.5677 47.6401 11.6114 42.7847 11.6114 42.7847L12.249 39.7097C12.249 39.7097 15.7556 32.7504 23.8846 29.999C32.0135 27.2477 43.4897 28.3806 48.5903 31.9412C53.6908 35.5017 56.4005 39.7097 56.4005 39.7097L56.8787 42.2992Z" stroke="#1E1818" stroke-width="2" stroke-miterlimit="10"/>
<path d="M52.3062 9.35412C52.033 9.00538 51.7934 8.70006 51.6029 8.45756C51.8127 8.57802 52.0343 8.71115 52.2598 8.8537C52.7632 9.17201 53.2704 9.52726 53.7008 9.88101C54.1442 10.2455 54.4514 10.5643 54.6081 10.8029C55.0093 11.414 55.4531 12.5165 55.8537 13.6759C56.1213 14.4504 56.3401 15.1578 56.5095 15.7053C56.544 15.817 56.5765 15.922 56.6069 16.0196C56.1379 14.7982 55.5317 13.5003 54.8004 12.5553C53.922 11.4201 53.0042 10.245 52.3062 9.35412ZM50.3576 7.8406C50.3582 7.84077 50.3589 7.84096 50.3596 7.84118C50.3498 7.83893 50.3485 7.83807 50.3576 7.8406Z" stroke="#1E1818" stroke-width="2" stroke-miterlimit="10"/>
<path d="M13.7453 12.5553C13.014 13.5003 12.4077 14.7982 11.9388 16.0196C11.9692 15.922 12.0017 15.817 12.0362 15.7053C12.2056 15.1578 12.4243 14.4504 12.692 13.6759C13.0926 12.5165 13.5363 11.414 13.9376 10.8029C14.0942 10.5643 14.4015 10.2455 14.8449 9.88101C15.2753 9.52726 15.7824 9.17201 16.2859 8.8537C16.5114 8.71115 16.7329 8.57802 16.9428 8.45756C16.7523 8.70006 16.5127 9.00538 16.2395 9.35412C15.5415 10.245 14.6237 11.4201 13.7453 12.5553ZM18.1881 7.8406C18.1971 7.83807 18.1959 7.83893 18.186 7.84118C18.1868 7.84096 18.1875 7.84077 18.1881 7.8406Z" stroke="#040404" stroke-width="2" stroke-miterlimit="10"/>
<path d="M58.0979 45.3872C58.1234 45.3111 58.2334 45.3273 58.2334 45.4082C58.2318 47.8035 58.2175 59.3155 58.074 62.9327C57.9146 66.9788 56.3207 83.1632 56.3207 83.1632L54.7268 93.6831L52.7344 84.5389C52.7344 84.5389 50.9811 75.7993 51.778 69.0019C52.575 62.2044 55.6034 53.6267 55.6034 53.6267C56.2697 51.0598 57.658 46.7402 58.0979 45.3872Z" stroke="#1E1818" stroke-width="2" stroke-miterlimit="10"/>
<path d="M51.9088 78.9294L53.7705 78.4714C53.7705 78.4714 54.1196 70.5442 54.6631 65.4445C55.205 60.3448 57.5959 49.5013 57.5959 49.5013L58.0741 47.721L58.1888 45.7206C58.1888 45.7206 55.205 55.1658 54.4081 57.1079C53.6111 59.0501 51.539 68.7607 51.539 69.8936C51.539 71.0265 51.9758 78.9148 51.9758 78.9148L53.9299 78.4714C53.9299 78.4714 54.4081 66.4949 55.0456 62.287C55.6832 58.079 57.4365 50.1486 57.4365 50.1486C57.4365 50.1486 57.4365 50.194 57.4349 50.2814C57.4158 51.5373 57.5066 60.8287 57.3568 64.31C57.1974 68.0324 56.2411 78.5523 56.2411 78.5523L52.1766 79.928" fill="#191616"/>
<path d="M51.9088 78.9294L53.7705 78.4714C53.7705 78.4714 54.1196 70.5442 54.6631 65.4445C55.205 60.3448 57.5959 49.5013 57.5959 49.5013L58.0741 47.721L58.1888 45.7206C58.1888 45.7206 55.205 55.1658 54.4081 57.1079C53.6111 59.0501 51.539 68.7607 51.539 69.8936C51.539 71.0265 51.9758 78.9148 51.9758 78.9148L53.9299 78.4714C53.9299 78.4714 54.4081 66.4949 55.0456 62.287C55.6832 58.079 57.4365 50.1486 57.4365 50.1486C57.4365 50.1486 57.4365 50.194 57.4349 50.2814C57.4158 51.5373 57.5066 60.8287 57.3568 64.31C57.1974 68.0324 56.2411 78.5523 56.2411 78.5523L52.1766 79.928" stroke="#1E1818" stroke-miterlimit="10"/>
<path d="M16.5892 78.3613L14.6398 77.8548C14.6398 77.8548 14.4916 70.0749 14.0612 65.0593C13.6309 60.0438 11.4122 49.3427 11.4122 49.3427L10.9579 47.5834L10.8925 45.6186C10.8925 45.6186 13.7759 54.9684 14.5617 56.8959C15.3475 58.8235 17.2618 68.4047 17.23 69.5149C17.1981 70.6252 16.5191 78.3435 16.5191 78.3435L14.4725 77.8483C14.4725 77.8483 14.3003 66.0951 13.7457 61.9519C13.191 57.8087 11.562 49.9819 11.562 49.9819C11.562 49.9819 11.562 50.0273 11.5604 50.1114C11.5444 51.343 11.3914 60.5665 11.452 63.9847C11.5174 67.6375 12.7271 78.227 12.7271 78.227L16.2784 79.3308" fill="#191616"/>
<path d="M16.5892 78.3613L14.6398 77.8548C14.6398 77.8548 14.4916 70.0749 14.0612 65.0593C13.6309 60.0438 11.4122 49.3427 11.4122 49.3427L10.9579 47.5834L10.8925 45.6186C10.8925 45.6186 13.7759 54.9684 14.5617 56.8959C15.3475 58.8235 17.2618 68.4047 17.23 69.5149C17.1981 70.6252 16.5191 78.3435 16.5191 78.3435L14.4725 77.8483C14.4725 77.8483 14.3003 66.0951 13.7457 61.9519C13.191 57.8087 11.562 49.9819 11.562 49.9819C11.562 49.9819 11.562 50.0273 11.5604 50.1114C11.5444 51.343 11.3914 60.5665 11.452 63.9847C11.5174 67.6375 12.7271 78.227 12.7271 78.227L16.2784 79.3308" stroke="#1E1818" stroke-miterlimit="10"/>
<path d="M61.501 48.2874C61.501 48.2874 64.6888 49.5822 65.6452 50.8769C66.6015 52.1717 66.9203 53.3046 66.9203 54.1138C66.9203 54.923 66.4421 55.5704 66.4421 55.5704C66.4421 55.5704 61.6604 53.4664 61.3416 52.819" stroke="#CC0909" stroke-width="3" stroke-miterlimit="10"/>
<path d="M66.0436 51.9289C65.6707 51.5793 65.2945 51.2314 64.904 50.9045C64.7095 50.7394 64.5135 50.5775 64.3079 50.4286C64.2059 50.3558 64.1007 50.283 63.9923 50.2263C63.8839 50.1681 63.7659 50.113 63.6528 50.0596C63.4248 49.9544 63.1905 49.8525 62.9546 49.8185C62.8367 49.8023 62.7187 49.8104 62.6215 49.8589C62.5227 49.9075 62.4494 49.9949 62.3952 50.1033C62.282 50.3202 62.2087 50.5678 62.1417 50.8122C62.078 51.0582 62.0254 51.3091 61.9887 51.5599C61.9536 51.8075 61.9154 52.0714 61.9473 52.3028C61.9489 52.3335 61.9616 52.3513 61.9664 52.3772C61.9712 52.3886 61.9776 52.3902 61.9807 52.3983L62.0094 52.4274C62.0509 52.4662 62.1003 52.5051 62.1497 52.5439C62.2501 52.6184 62.3537 52.6912 62.4589 52.7624C62.8797 53.0457 63.3164 53.3078 63.7484 53.5797L66.3624 55.1658C65.4603 54.6932 64.5693 54.1964 63.6878 53.6833C63.2463 53.4292 62.8112 53.1622 62.3808 52.8822C62.274 52.811 62.1672 52.7398 62.062 52.6621C62.0094 52.6232 61.9584 52.5844 61.9058 52.5358C61.8931 52.5229 61.8803 52.5116 61.8676 52.497C61.8548 52.4792 61.8373 52.4582 61.8293 52.4404C61.8182 52.4031 61.799 52.3627 61.7974 52.3287C61.7576 52.0487 61.7974 51.793 61.8309 51.5324C61.8724 51.2751 61.9265 51.021 61.9951 50.7685C62.0668 50.5176 62.1417 50.2684 62.2676 50.0289C62.3282 49.9107 62.427 49.7877 62.5593 49.7262C62.6932 49.6631 62.8399 49.6583 62.9722 49.6777C63.2399 49.7181 63.4758 49.833 63.7054 49.9463C63.8201 50.0046 63.9333 50.0596 64.0465 50.126C64.1612 50.1907 64.2648 50.2684 64.3684 50.3461C64.5725 50.5031 64.7669 50.6714 64.9566 50.8446C65.3312 51.1942 65.6946 51.5535 66.0436 51.9289Z" fill="#BC0822"/>
<path d="M10.7953 45.303C10.7761 45.2415 10.6869 45.2561 10.6869 45.3192C10.6885 47.4992 10.7012 59.2685 10.8463 62.9343C11.0057 66.9804 12.5996 83.1648 12.5996 83.1648L14.0819 94.3321L16.1859 84.5405C16.1859 84.5405 17.9392 75.8009 17.1423 69.0035C16.3453 62.206 13.3169 53.6283 13.3169 53.6283C12.6363 51.0032 11.2001 46.5492 10.7953 45.303Z" stroke="#1E1818" stroke-width="2" stroke-miterlimit="10"/>
<path d="M7.41934 48.2874C7.41934 48.2874 4.23151 49.5822 3.27516 50.8769C2.31881 52.1717 2.00002 53.3046 2.00002 54.1138C2.00002 54.923 2.4782 55.5704 2.4782 55.5704C2.4782 55.5704 7.25995 53.4664 7.57874 52.819" stroke="#DD0303" stroke-width="3" stroke-miterlimit="10"/>
<path d="M2.87666 51.9289C3.22573 51.5534 3.58914 51.1941 3.96531 50.8445C4.15498 50.673 4.34943 50.5047 4.55345 50.346C4.65546 50.2684 4.75907 50.1907 4.87543 50.1259C4.98859 50.0596 5.10177 50.0046 5.21653 49.9463C5.44605 49.833 5.68195 49.7197 5.94973 49.6776C6.08202 49.6598 6.22867 49.6631 6.36255 49.7262C6.49644 49.7877 6.59527 49.9107 6.65424 50.0288C6.78016 50.2684 6.85507 50.5176 6.9268 50.7685C6.99534 51.0193 7.04953 51.275 7.09098 51.5324C7.12445 51.7929 7.16429 52.047 7.12444 52.3286C7.12285 52.3626 7.10373 52.4031 7.09257 52.4403C7.0846 52.4597 7.06706 52.4792 7.05431 52.497C7.03996 52.5115 7.02881 52.5229 7.01606 52.5358C6.96505 52.5844 6.91246 52.6232 6.85986 52.662C6.75466 52.7397 6.64946 52.8109 6.54107 52.8821C6.11231 53.1621 5.67717 53.4292 5.23406 53.6833C4.35262 54.1963 3.46163 54.6916 2.55947 55.1658L5.17189 53.5765C5.60384 53.3062 6.04058 53.0424 6.46138 52.7591C6.56658 52.6879 6.67018 52.6167 6.7706 52.5407C6.82001 52.5034 6.86942 52.4646 6.91086 52.4241L6.93955 52.395C6.94274 52.3869 6.95071 52.3837 6.9539 52.374C6.95868 52.3481 6.97143 52.3319 6.97303 52.2995C7.00491 52.0681 6.96665 51.8043 6.93158 51.5566C6.89333 51.3058 6.84232 51.0549 6.77856 50.8089C6.71162 50.5645 6.63831 50.3169 6.52514 50.1C6.47094 49.99 6.39762 49.9042 6.29879 49.8557C6.19997 49.8071 6.08362 49.8006 5.96567 49.8152C5.72977 49.8508 5.49546 49.9528 5.26753 50.0563C5.15437 50.1098 5.03642 50.1648 4.92803 50.223C4.81964 50.2797 4.71604 50.3525 4.61244 50.4253C4.40682 50.5742 4.21076 50.7361 4.0163 50.9012C3.6242 51.2313 3.24963 51.5793 2.87666 51.9289Z" fill="#BC0822"/>
<path d="M60.704 74.9916C60.704 74.9916 60.8634 76.6101 60.8634 77.5811C60.8634 78.5522 60.8634 79.1996 60.8634 79.1996L60.2258 79.3614C60.2258 79.3614 60.0664 78.2285 60.2258 76.7719C60.3852 75.3153 60.704 74.9916 60.704 74.9916Z" fill="#A00808"/>
<path d="M8.10467 74.9916C8.10467 74.9916 7.94528 76.6101 7.94528 77.5811C7.94528 78.5522 7.94528 79.1996 7.94528 79.1996L8.58285 79.3614C8.58285 79.3614 8.74224 78.2285 8.58285 76.7719C8.42345 75.3153 8.10467 74.9916 8.10467 74.9916Z" fill="#A00808"/>
<path d="M28.6663 130.585C28.6663 130.809 31.271 130.99 34.4841 130.99C37.6972 130.99 40.3019 130.809 40.3019 130.585C40.3019 130.362 37.6972 130.181 34.4841 130.181C31.271 130.181 28.6663 130.362 28.6663 130.585Z" fill="#9B0000"/>
<path d="M54.0095 45.3742C54.0095 45.3742 50.9811 40.1952 44.2866 37.7676C37.5922 35.3399 28.1912 36.714 25.0002 37.9294C21.1748 39.386 14.8613 42.8009 14.8613 42.8009" stroke="#1E1818" stroke-miterlimit="10"/>
<path d="M46.1899 92.8755H22.4118C20.9804 92.8755 19.8201 94.0537 19.8201 95.5071V111.002L26.6739 124.759C26.6739 124.759 32.2526 125.892 35.5999 125.892C38.9471 125.892 42.9319 124.759 42.9319 124.759L48.9888 109.384L49.1195 95.8793C49.1354 94.2253 47.8188 92.8755 46.1899 92.8755Z" stroke="#1E1818" stroke-width="3" stroke-miterlimit="10"/>
<path d="M56.7177 79.1009C56.7177 79.1009 54.4144 80.0072 52.1798 80.8569" stroke="#1E1818" stroke-width="2" stroke-miterlimit="10"/>
<path d="M56.5758 80.3001C56.5758 80.3001 53.8215 81.4266 52.2818 81.8911" stroke="#1E1818" stroke-width="2" stroke-miterlimit="10"/>
<path d="M12.2026 79.1091L16.7915 80.7372" stroke="#1E1818" stroke-width="2" stroke-miterlimit="10"/>
<path d="M12.2982 79.962L16.6321 81.5464" stroke="#1E1818" stroke-width="2" stroke-miterlimit="10"/>
</svg>
