<svg width="64" height="135" viewBox="0 0 64 135" fill="none" xmlns="http://www.w3.org/2000/svg">
<path d="M2.83364 22.1778C2.56826 23.7547 2.55743 38.4382 2.86072 40.5227C3.16401 42.618 4.92959 42.5046 4.89168 43.8601C4.85919 45.2209 5.67157 72.3467 5.67157 72.3467C5.67157 72.3467 2.22164 85.7556 1.47425 94.5473C0.72144 103.339 0.878501 108.934 0.878501 108.934C1.53382 112.017 5.89904 114.237 6.12109 114.48C6.34856 114.717 6.64643 116.165 6.64643 116.165C15.1548 118.438 25.0226 119.518 35.0149 119.189C42.6947 119.124 50.2065 118.222 57.5288 116.338C57.5397 115.603 57.166 114.474 57.8105 114.41C59.2348 114.766 60.773 112.86 62.1053 110.656C63.1397 105.98 62.8635 99.9692 61.7911 91.8148C61.7911 91.8148 58.2383 72.8705 58.2708 68.8689C58.3087 64.8672 59.1157 43.5036 59.1157 43.5036C60.4805 43.3254 60.9084 41.6783 61.4716 40.1339L61.7586 22.8961C61.7153 21.5784 60.9354 19.4507 59.2348 18.565C57.9892 10.038 53.1744 2.79616 44.0649 0.938457C36.1902 0.46323 27.6601 0.393026 20.0237 1.04646C11.667 2.81236 6.33231 8.9147 5.20039 17.7874C3.83558 19.1267 3.22359 20.6226 2.83364 22.1778Z" fill="#74EF48"/>
<path d="M3.38606 22.2913C3.1261 26.4117 3.19109 30.7643 3.20192 34.8848C3.22359 36.4617 3.23983 38.0548 3.32649 39.6262C3.35898 40.6685 3.51063 41.4029 4.35551 42.0564C4.83211 42.4236 5.42244 42.9906 5.42786 43.6927C5.3737 44.6809 6.18608 70.57 6.21316 72.4007C5.45494 75.4033 4.7617 78.4328 4.12804 81.4732C2.83364 87.4946 1.91835 93.5483 1.64756 99.71C1.47966 102.777 1.36593 105.861 1.41467 108.912C1.85336 110.797 4.33384 112.8 6.27274 113.918C6.3269 113.956 6.35398 113.967 6.45688 114.048C6.97139 114.68 6.97139 115.322 7.17719 116.041C7.18261 116.046 6.78725 115.63 6.78725 115.63C10.8979 116.726 15.0952 117.488 19.3196 117.985C25.6671 118.768 32.0849 118.795 38.4703 118.546C44.8502 118.282 51.2085 117.391 57.388 115.803C57.3988 115.798 56.9818 116.321 56.9818 116.321C56.9602 115.576 56.5323 114.021 57.7401 113.864H57.7455L57.8375 113.853C58.195 113.978 58.5416 113.88 58.9478 113.632C60.1014 112.838 60.8867 111.575 61.6341 110.37C62.544 105.791 62.1973 99.17 61.4987 93.9047C61.2604 91.5988 60.5022 87.9266 60.1122 85.6098C59.2078 80.0097 58.0379 74.4906 57.7238 68.8041C57.9079 62.826 58.3196 49.1578 58.5849 43.023L59.0399 42.9636C60.3072 42.6558 60.4805 41.0357 60.9571 39.9503C60.9625 39.9341 60.9246 40.1231 60.9246 40.1231C60.9733 36.5157 61.1521 26.8113 61.2062 23.2957C61.2712 21.5676 60.3289 19.6397 58.7366 18.9161L58.6987 18.6407C57.6263 10.416 52.4596 3.04458 43.9566 1.46769C40.3767 1.29488 35.9194 1.09507 32.0416 1.13287C28.1638 1.11127 23.7282 1.32728 20.1483 1.6189C11.9649 3.20118 6.6681 9.74635 5.74198 17.8522L5.7149 18.0412L5.58492 18.1708C4.44216 19.2725 3.74351 20.7738 3.38606 22.2913ZM2.2758 22.0645C2.70366 20.3094 3.51063 18.6623 4.81586 17.404L4.6588 17.7172C5.61741 9.10372 11.2662 2.14273 19.9696 0.45783C28.0013 -0.195607 36.0602 -0.087601 44.092 0.393026C50.5315 1.53249 55.8824 6.29556 58.1517 12.3547C58.937 14.3258 59.4569 16.3887 59.7656 18.4786L59.4786 18.079C61.2496 19.0457 62.1865 21.0006 62.2894 22.9285L62.0024 40.1339V40.2257L61.9699 40.3121C61.4554 41.6784 60.9625 43.7845 59.1753 44.0329C59.1753 44.0383 59.6519 43.5091 59.6465 43.5199L59.0399 60.3904C58.9478 63.1986 58.8503 66.0175 58.8016 68.8149C58.8828 71.542 59.3919 74.3772 59.7873 77.1044C60.4209 81.1222 61.1846 85.5504 61.9211 89.5737L62.3057 91.6582L62.5765 93.7751C63.2047 99.4022 63.795 105.137 62.6306 110.764L62.6144 110.851L62.571 110.926C61.7424 112.244 60.8867 113.643 59.5327 114.55C59.0561 114.858 58.3737 115.106 57.6805 114.928L57.87 114.939C57.87 114.944 57.9296 114.923 57.9675 114.885C58.0054 114.847 57.9946 114.836 57.9892 114.869C57.9513 115.425 58.1192 116.111 58.0758 116.753C53.7702 117.866 49.3833 118.671 44.9639 119.151C32.0254 120.388 18.7943 119.977 6.1915 116.591C6.07776 116.024 5.94778 115.447 5.75281 114.912C5.73656 114.847 5.66616 114.771 5.74739 114.858C3.50521 113.438 0.992233 111.753 0.342325 108.988C0.293582 105.856 0.4019 102.756 0.575209 99.6452C0.846004 93.4673 1.77212 87.2947 3.07736 81.2464C3.71102 78.2168 4.39884 75.2089 5.15706 72.2009C5.07041 71.7797 4.33926 43.6333 4.36092 43.7575C4.32843 43.3525 3.99264 43.1688 3.66769 42.8718C3.23983 42.5262 2.77407 42.0132 2.55201 41.4137C1.98334 39.3076 2.24331 37.0503 2.12416 34.8902C2.06458 31.8012 2.10791 28.4314 2.1404 25.3316C2.16207 24.4892 2.15124 22.9339 2.2758 22.0645Z" fill="#223051"/>
<path d="M3.65686 126.225C3.49438 124.092 3.47813 121.765 3.65686 119.178C3.84641 118.103 4.65338 117.277 6.39189 116.829C13.6005 118.282 19.8071 118.94 24.5568 119.254C28.4942 119.513 33.2493 119.81 39.5047 119.383C46.1825 118.924 51.7338 117.833 55.7957 116.829C57.583 116.532 59.029 117.299 60.1285 119.178C60.5347 123.806 60.318 127.079 59.3702 128.726C59.3702 128.726 58.0813 133.564 50.7806 134.105C43.48 134.645 24.8114 134.461 11.0279 134.105C7.92459 133.176 5.46035 131.318 3.96015 128.04L3.65686 126.225Z" fill="#222F51"/>
<path d="M3.12068 126.29C2.92029 123.893 2.90405 121.527 3.12068 119.14C3.33732 117.563 5.01083 116.629 6.45146 116.564C22.6829 119.34 39.5751 120.42 55.6712 116.305C57.74 115.824 59.771 117.245 60.6646 119.011C60.865 121.495 61.0221 124.017 60.6375 126.506C60.4967 127.338 60.2909 128.186 59.8414 128.996L59.8956 128.866C58.2762 133.413 53.2394 134.731 48.9338 134.758C36.2931 135.228 23.6578 134.915 11.0225 134.65C7.69712 133.834 4.78878 131.35 3.44564 128.207L3.43481 128.137L3.12068 126.29ZM4.19303 126.161L4.49632 127.954C4.85377 128.693 6.0561 130.654 7.15553 131.464C8.0979 132.393 10.3076 133.343 11.0604 133.564C23.6578 133.834 36.2877 134.142 48.8796 133.678C52.7249 133.662 57.4584 132.544 58.872 128.521C59.2348 127.878 59.4406 127.122 59.5706 126.328C59.9281 123.984 59.7873 121.592 59.5977 119.221L59.6681 119.448C59.2511 118.741 58.7312 118.109 58.0812 117.725C57.5126 117.326 56.4781 117.239 55.9365 117.353C39.7105 121.479 22.5963 120.669 6.34856 117.094C6.34856 117.094 6.47854 117.088 6.46771 117.094C5.43327 117.515 4.35009 118.12 4.19845 119.275C4.12262 121.268 4.01972 123.957 4.19303 126.161Z" fill="#223051"/>
<path d="M22.0276 1.00326C15.366 2.18053 10.8438 5.62052 7.42632 10.5996C7.26385 10.8372 7.06346 11.3178 7.37216 11.3124L18.139 11.1396C18.204 11.1396 18.2635 11.1234 18.3231 11.0964C20.2295 10.173 21.6702 8.93091 22.3471 7.16501C22.358 7.1326 22.3688 7.1002 22.3688 7.0624C22.58 4.97788 22.6234 3.06078 22.4988 1.32188C22.4825 1.11667 22.2605 0.960057 22.0276 1.00326Z" fill="white"/>
<path d="M22.0763 1.26788C18.5993 1.6513 15.1657 2.88257 12.5714 5.2641C10.7192 6.77078 9.06734 8.53668 7.78377 10.5564C7.66462 10.7238 7.53464 10.8858 7.61046 11.0856C7.68087 11.253 7.77294 11.0586 7.5888 10.875C7.4534 10.7508 7.30176 10.7832 7.41549 10.767L7.57797 10.7508C10.2751 10.7292 14.7486 10.6482 17.4457 10.6104L18.1011 10.5996C19.1734 10.0974 20.5491 9.15772 21.2531 8.07766C21.4806 7.78604 21.7243 7.21361 21.8218 7.0084C21.8543 6.72218 21.8976 6.18215 21.9193 5.89053C22.0709 4.38385 21.968 2.88797 21.9518 1.38128C21.9572 1.36508 21.9843 1.43528 22.0222 1.43528C22.1251 1.46769 22.1792 1.26788 22.0763 1.26788ZM21.9843 0.738646C23.4845 0.387626 23.0729 2.41274 23.127 3.31459C23.1162 4.58906 23.0458 5.87973 22.9158 7.1434C22.2821 9.26032 20.3866 10.7454 18.4531 11.6365C18.2311 11.7229 17.7003 11.6851 17.4674 11.7013L14.8353 11.7445C13.4001 11.7715 8.96986 11.8417 7.59963 11.8741C7.41007 11.8363 7.26385 11.9227 6.94431 11.6905C6.38647 11.1828 7.1122 10.632 7.3505 10.2594C9.07276 7.98045 11.0279 5.80413 13.4596 4.26504C14.2937 3.96803 14.9869 3.40099 15.7939 3.02837L16.3788 2.72596C18.1715 1.88351 20.0345 1.19227 21.9843 0.738646Z" fill="#223051"/>
<path d="M41.6169 0.879053C48.2785 2.05632 53.1907 5.66372 56.6136 10.6428C56.776 10.8804 56.5811 11.1936 56.2724 11.1882L45.5055 11.0208C45.4405 11.0208 45.381 11.0046 45.3214 10.9776C43.415 10.0542 41.9744 8.8121 41.2974 7.0462C41.2865 7.0138 41.2757 6.9814 41.2757 6.94359C41.0645 4.85908 41.0212 2.94197 41.1457 1.20307C41.1674 0.99246 41.3894 0.841251 41.6169 0.879053Z" fill="white"/>
<path d="M41.6656 0.614439C47.856 1.7647 52.8657 4.99408 56.5323 10.0866L56.7327 10.3566C56.7652 10.3998 56.7977 10.4484 56.8356 10.4916C57.0414 10.74 57.0739 11.1396 56.8573 11.4258C56.7327 11.6311 56.424 11.7499 56.2399 11.7445C55.5791 11.7985 54.913 11.6905 54.2522 11.7175C52.1129 11.6689 47.7206 11.6149 45.6301 11.5717C45.4676 11.5825 45.2185 11.55 45.0777 11.469C43.2904 10.6104 41.6007 9.27652 40.8424 7.37562C40.7774 7.26221 40.7233 6.98139 40.7233 6.90579C40.6962 6.68978 40.6529 6.12815 40.6366 5.90673C40.5608 4.34605 40.4037 2.75296 40.6095 1.20307C40.6529 0.668442 41.2432 0.501032 41.6656 0.614439ZM41.5682 1.14907C41.4382 1.17067 41.5519 1.40288 41.6656 1.28408C41.6765 1.28408 41.6873 1.21927 41.6873 1.26788C41.6386 3.10398 41.5898 4.95088 41.8065 6.78698C41.8119 6.83559 41.8227 6.92199 41.8173 6.86799C41.7956 6.81939 41.8498 6.94359 41.8498 6.95439C42.4564 8.57448 44.1461 9.85975 45.5597 10.4808C46.0579 10.4862 48.4139 10.524 48.9609 10.5294L54.2685 10.6104C54.9292 10.659 55.5954 10.578 56.2561 10.6482C56.294 10.6536 56.2128 10.7022 56.2507 10.7562C56.2669 10.8048 56.3319 10.8372 56.3644 10.8264C56.4402 10.7994 56.2994 10.6968 56.2886 10.6536C52.9741 5.66912 47.5257 2.06712 41.5682 1.14907Z" fill="#223051"/>
<path d="M48.0564 65.2939C37.3979 63.9924 26.5824 64.2462 16.1893 65.4505C14.3533 63.0635 12.4198 55.3033 10.7138 48.9363L8.92654 49.0335C15.8914 67.9778 18.7239 85.0806 9.82016 96.945C10.7842 101.114 12.2736 106.433 13.6546 110.781C13.66 110.802 13.6979 110.797 13.6979 110.775C14.467 102.47 15.5231 93.2944 17.944 92.29C27.1673 91.9768 35.9844 92.1766 45.7384 92.29C48.8092 92.8624 49.2154 102.934 49.5458 111.839C49.5458 111.866 49.5783 111.871 49.5891 111.85C51.398 107.902 53.4236 101.497 54.1926 96.5508C44.9856 84.1247 48.8796 67.0382 55.0863 49.1307L53.3965 48.9309C51.4955 56.4266 49.6487 62.9555 48.0564 65.2939Z" fill="#CAEB6D"/>
<path d="M41.8823 1.06806C34.1917 0.555036 27.2594 0.792649 21.2369 1.23547C21.9572 8.25046 18.8268 11.5122 12.019 11.1612C8.27121 20.3255 7.93542 34.9766 8.43369 48.8931L10.7084 48.9309C11.7374 43.9465 17.0071 40.9007 31.0126 40.3823C44.7148 41.0681 51.3764 44.1679 53.4019 48.9309L55.46 48.9633C55.3571 31.6608 54.1168 16.0701 50.9864 11.1018C44.5686 11.3556 40.615 8.67169 41.8823 1.06806Z" fill="#223051"/>
<path d="M10.8654 48.0561C9.97722 43.2066 20.8036 40.5551 31.8358 40.0366C41.8119 40.1014 53.8135 43.8601 53.4831 48.2937C53.1528 52.7274 49.1071 63.7332 47.9481 64.9536C37.0676 64.0302 25.6833 64.2138 16.1568 65.0616C15.3281 64.6836 11.7536 52.911 10.8654 48.0561Z" fill="#2C3E60"/>
<path d="M8.73156 49.3198C8.11415 63.5171 8.75322 82.6612 9.5981 96.9828C12.6635 93.64 15.7072 87.9265 15.274 77.3041C15.339 69.3441 11.8511 57.5498 8.73156 49.3198Z" fill="#233150"/>
<path d="M55.3083 49.2658C55.5195 65.6773 55.5737 85.4802 54.4418 96.5238C51.3872 93.6508 48.7605 86.7115 48.9826 75.657C49.5891 67.5728 52.3296 57.1016 55.3083 49.2658Z" fill="#233150"/>
<path d="M13.4488 110.824C13.4759 104.16 14.3858 97.8307 16.108 95.3951C16.5521 93.4348 17.2941 92.1766 19.1788 92.3332C26.2791 91.9227 36.6397 92.0416 45.7438 92.29C47.022 92.6194 47.3036 94.1477 47.8452 95.1791C49.8383 100.579 50.9052 106.104 49.9682 111.396C48.2893 117.412 40.7233 118.849 31.852 118.465C22.6613 119.032 14.8299 116.932 13.4488 110.824Z" fill="#233151"/>
<path d="M8.58533 51.1829C8.56908 51.6365 8.36869 52.0523 8.03291 52.3223C6.50562 53.5482 2.32455 56.81 1.27386 57.1016C0.472308 57.323 0.0390359 56.1944 0.00112456 55.1413C-0.020539 54.4501 0.271919 53.7966 0.781014 53.397L8.54742 47.4459C8.82363 47.2298 8.72614 47.7159 8.7099 48.0885L8.58533 51.1829Z" fill="#C8EB62"/>
<path d="M55.2758 51.1451C55.2921 51.5987 55.4925 52.0145 55.8282 52.2845C57.3555 53.5104 61.5366 56.7722 62.5873 57.0638C63.3888 57.2852 63.8221 56.1566 63.86 55.1035C63.8817 54.4123 63.5892 53.7588 63.0801 53.3592L55.0484 47.3217C54.7721 47.1057 55.1404 47.6781 55.1567 48.0507L55.2758 51.1451Z" fill="#C8EB62"/>
<path d="M16.5895 71.5169C16.5895 68.8154 18.7796 66.6253 21.4811 66.6253H42.7557C45.4572 66.6253 47.6473 68.8154 47.6473 71.5169V85.027C47.6473 87.7286 45.4572 89.9186 42.7557 89.9186H21.4811C18.7796 89.9186 16.5895 87.7286 16.5895 85.027V71.5169Z" fill="url(#paint0_linear_152_158)"/>
<path d="M19.1291 26.4863C19.013 26.0512 19.2715 25.6045 19.7066 25.4883L21.8821 24.9076C22.3171 24.7915 22.7639 25.0501 22.88 25.4851L23.0602 26.1602C23.1763 26.5953 22.9178 27.0421 22.4828 27.1582L20.3073 27.7389C19.8722 27.855 19.4255 27.5965 19.3093 27.1614L19.1291 26.4863Z" fill="#74EF48" fill-opacity="0.9"/>
<path d="M44.8007 26.4863C44.9168 26.0512 44.6582 25.6045 44.2232 25.4883L42.0477 24.9076C41.6127 24.7915 41.1659 25.0501 41.0498 25.4851L40.8695 26.1602C40.7534 26.5953 41.012 27.0421 41.447 27.1582L43.6225 27.7389C44.0575 27.855 44.5043 27.5965 44.6204 27.1614L44.8007 26.4863Z" fill="#74EF48" fill-opacity="0.9"/>
<path d="M18.3527 21.0512C18.2366 20.6161 18.4951 20.1693 18.9301 20.0532L21.1056 19.4725C21.5407 19.3564 21.9874 19.6149 22.1036 20.05L22.2838 20.7251C22.3999 21.1602 22.1414 21.607 21.7063 21.7231L19.5308 22.3038C19.0958 22.4199 18.649 22.1614 18.5329 21.7263L18.3527 21.0512Z" fill="#74EF48" fill-opacity="0.95"/>
<path d="M44.8007 21.0512C44.9168 20.6161 44.6582 20.1693 44.2232 20.0532L42.0477 19.4725C41.6127 19.3564 41.1659 19.6149 41.0498 20.05L40.8695 20.7251C40.7534 21.1602 41.012 21.607 41.447 21.7231L43.6225 22.3038C44.0575 22.4199 44.5043 22.1614 44.6204 21.7263L44.8007 21.0512Z" fill="#74EF48" fill-opacity="0.95"/>
<defs>
<linearGradient id="paint0_linear_152_158" x1="31.9306" y1="0" x2="31.9306" y2="135" gradientUnits="userSpaceOnUse">
<stop stop-color="white" stop-opacity="0.76"/>
<stop offset="0.317708" stop-color="white" stop-opacity="0.62"/>
<stop offset="1" stop-color="white" stop-opacity="0"/>
</linearGradient>
</defs>
</svg>
