<svg width="65" height="134" viewBox="0 0 65 134" fill="none" xmlns="http://www.w3.org/2000/svg">
<path d="M44.491 132.893H20.2076C13.2783 132.893 7.66016 127.906 7.66016 121.755V117.339C7.66016 111.188 13.2783 106.202 20.2076 106.202H44.491C51.4204 106.202 57.0385 111.188 57.0385 117.339V121.755C57.0385 127.906 51.4204 132.893 44.491 132.893Z" fill="#6D131C"/>
<path d="M49.65 45.5294H15.0477C9.64377 45.5294 5.26306 41.6409 5.26306 36.8443L5.26306 16.9252C5.26306 12.1285 9.64377 8.24003 15.0477 8.24003H49.6514C55.0553 8.24003 59.436 12.1285 59.436 16.9252V36.8443C59.4346 41.6409 55.0539 45.5294 49.65 45.5294Z" fill="#B12420"/>
<path d="M44.7226 131.911C36.6415 133.985 28.0636 133.986 19.9812 131.914L19.9732 131.911C13.1724 131.911 7.65869 127.017 7.65869 120.981V117.133C7.65869 111.096 13.1724 106.202 19.9732 106.202H44.7226C51.5233 106.202 57.0371 111.096 57.0371 117.133V120.981C57.0384 127.017 51.5247 131.911 44.7226 131.911Z" fill="url(#paint0_linear_2_1066)"/>
<path d="M60.4481 96.2289C60.4481 88.5934 59.6017 89.63 59.6017 89.63L32.3478 89.5825L5.09397 89.63C5.09397 89.63 4.24756 88.5934 4.24756 96.2289C4.24756 103.864 4.90648 114.631 6.07699 114.631C6.07699 114.631 5.68994 132.208 32.3478 132.208C59.0057 132.208 58.6186 114.631 58.6186 114.631C59.7892 114.631 60.4481 103.863 60.4481 96.2289Z" fill="#6D131C"/>
<path d="M12.0663 126.716C12.0663 126.716 13.131 130.157 21.3353 130.962C21.3353 130.962 18.9568 126.716 12.0663 126.716Z" fill="white"/>
<path d="M52.6324 126.716C52.6324 126.716 51.5677 130.158 43.3634 130.962C43.3621 130.962 45.7406 126.716 52.6324 126.716Z" fill="white"/>
<path d="M60.4481 96.0767C60.4481 88.6148 59.6017 89.6276 59.6017 89.6276L32.3478 89.5812L5.09397 89.6276C5.09397 89.6276 4.24756 88.6148 4.24756 96.0767C4.24756 103.539 4.90648 112.189 6.07699 112.189C6.07699 112.189 5.68994 131.239 32.3478 131.239C59.0057 131.239 58.6186 112.189 58.6186 112.189C59.7892 112.188 60.4481 103.537 60.4481 96.0767Z" fill="#9B1B1B"/>
<path d="M32.3495 0.0394317C32.3495 0.0394317 17.1489 -0.570409 14.915 3.00897L32.3495 3.00897L49.7839 3.00897C47.5487 -0.571598 32.3495 0.0394317 32.3495 0.0394317Z" fill="#393B3D"/>
<path d="M32.3494 0.253039C32.3494 0.253039 20.1796 -0.229602 18.3917 2.59967L32.3494 2.59967L46.3071 2.59967C44.5178 -0.228414 32.3494 0.253039 32.3494 0.253039Z" fill="#ADB1B5"/>
<path d="M32.3497 1.23021C32.3497 1.23021 19.7258 0.948472 17.8696 2.59967L32.3497 2.59967L46.8297 2.59967C44.9735 0.949661 32.3497 1.23021 32.3497 1.23021Z" fill="#393B3D"/>
<path d="M49.7841 3.00871C48.473 2.17776 32.3497 2.18252 32.3497 2.18252C32.3497 2.18252 16.2264 2.17776 14.9152 3.00871C13.6041 3.83966 3.3494 8.99893 6.64665 19.7133C9.9439 30.4277 32.801 29.8131 32.801 29.8131C32.801 29.8131 54.7541 30.4289 58.0513 19.7133C61.3499 8.99893 51.0939 3.83966 49.7841 3.00871Z" fill="#D41F25"/>
<path d="M7.43675 14.356L19.5423 3.51917C19.5423 3.51917 15.4147 4.39768 13.1393 5.697C11.0474 6.89291 6.22205 10.5056 6.53141 14.0529C6.5649 14.4594 7.11399 14.6449 7.43675 14.356Z" fill="#393B3D"/>
<path d="M7.16905 14.5839L18.85 3.93729C18.85 3.93729 15.0854 4.75278 13.0095 5.96057C10.9337 7.16717 5.91015 11.0319 7.16905 14.5839Z" fill="white"/>
<path d="M7.60535 14.5839L18.8497 4.29393C18.8497 4.29393 15.2257 5.08208 13.2275 6.24945C11.2294 7.41563 6.39333 11.1507 7.60535 14.5839Z" fill="white"/>
<path d="M7.76874 14.5839L18.8497 5.75846C18.8497 5.75846 15.2779 6.43488 13.3092 7.43583C11.3405 8.43558 6.57412 11.6393 7.76874 14.5839Z" fill="#FEFEFE"/>
<path d="M8.88309 14.5839L18.8499 5.61348C18.8499 5.61348 15.637 6.30058 13.8665 7.31816C12.096 8.33574 7.80767 11.5906 8.88309 14.5839Z" fill="white"/>
<path d="M57.2608 14.356L45.1553 3.5191C45.1553 3.5191 49.2828 4.39762 51.5582 5.69694C53.6502 6.89285 58.4755 10.5055 58.1661 14.0528C58.1326 14.4594 57.5835 14.6448 57.2608 14.356Z" fill="#393B3D"/>
<path d="M57.5286 14.5839L45.8477 3.93726C45.8477 3.93726 49.6123 4.75275 51.6881 5.96054C53.764 7.16714 58.7889 11.0318 57.5286 14.5839Z" fill="white"/>
<path d="M57.092 14.5839L45.8477 4.2939C45.8477 4.2939 49.4717 5.08205 51.4698 6.24942C53.468 7.4156 58.3054 11.1507 57.092 14.5839Z" fill="white"/>
<path d="M56.9287 14.5839L45.8477 5.75843C45.8477 5.75843 49.4195 6.43485 51.3882 7.43579C53.3569 8.43555 58.1246 11.6393 56.9287 14.5839Z" fill="#FEFEFE"/>
<path d="M55.8144 14.5839L45.8477 5.61344C45.8477 5.61344 49.0605 6.30055 50.831 7.31813C52.6029 8.33571 56.8898 11.5906 55.8144 14.5839Z" fill="white"/>
<path d="M57.506 13.9904C57.143 12.4534 47.9812 6.65338 45.3 4.9796C42.6175 3.30582 32.3508 3.79558 32.3495 3.79558C32.3481 3.79558 22.0814 3.30582 19.3989 4.9796C16.7164 6.65338 7.55454 12.4522 7.19294 13.9904C6.83001 15.5275 4.25061 50.9825 4.25061 59.3038C4.25061 67.6252 5.21219 106.366 7.19294 114.092C9.1737 121.816 8.11703 125.127 12.0598 126.716C15.9999 128.306 24.7505 130.525 32.3495 130.525C39.9484 130.525 48.6977 128.306 52.6405 126.718C56.5819 125.128 55.5266 121.817 57.5073 114.093C59.4881 106.368 60.4497 67.6264 60.4497 59.305C60.4497 50.9837 57.8689 15.5287 57.506 13.9904Z" fill="#D41F25"/>
<path d="M32.3493 1.61275C32.3493 1.61275 22.9892 1.11466 20.5438 2.81697C18.0983 4.51929 9.74672 10.4192 9.41727 11.9824C9.08647 13.5468 6.73474 49.6128 6.73474 58.0769C6.73474 66.5409 7.61196 105.951 9.41727 113.809C11.2226 121.666 10.2597 125.034 13.8529 126.651C17.4461 128.268 25.4227 130.525 32.3493 130.525L32.3493 1.61275Z" fill="#D41F25"/>
<path d="M32.3494 1.61275C32.3494 1.61275 41.7094 1.11466 44.1549 2.81697C46.6003 4.51929 54.9519 10.4192 55.2814 11.9824C55.6122 13.5468 57.9639 49.6128 57.9639 58.0769C57.9639 66.5409 57.0867 105.951 55.2814 113.809C53.4761 121.666 54.439 125.034 50.8458 126.651C47.2512 128.268 39.276 130.525 32.3494 130.525L32.3494 1.61275Z" fill="#D41F25"/>
<path d="M49.7544 73.2479C49.9098 53.1874 55.2816 39.5522 55.2816 39.5522C55.0097 21.7267 45.7835 4.14119 44.155 2.8169C42.5265 1.49143 32.3495 1.61268 32.3495 1.61268C32.3495 1.61268 22.1724 1.49261 20.5439 2.8169C18.9154 4.14238 9.68789 21.7267 9.41736 39.5522C9.41736 39.5522 14.7891 53.1862 14.9445 73.2479C15.0998 93.3084 11.8267 111.571 11.9834 114.892C12.0811 116.967 12.7869 121.044 13.3039 123.807C13.6735 125.79 15.1842 127.455 17.2842 128.209C20.2787 129.285 25.2675 130.525 32.3495 130.525C39.4314 130.525 44.4188 129.286 47.4161 128.209C49.516 127.456 51.0254 125.791 51.3964 123.807C51.912 121.044 52.6191 116.967 52.7169 114.892C52.8709 111.571 49.5978 93.3084 49.7544 73.2479Z" fill="#D41F25"/>
<path d="M32.3493 33.4909C32.3493 33.4909 12.9315 34.0615 10.5422 39.6083C10.5422 39.6083 13.6212 47.2759 14.4154 54.9196C14.4622 55.3726 14.9243 55.6983 15.4319 55.6365C17.8532 55.344 24.662 54.6141 32.3493 54.6141C40.038 54.6141 46.8454 55.344 49.2668 55.6365C49.7744 55.6983 50.2364 55.3714 50.2833 54.9196C51.0775 47.2747 54.1564 39.6083 54.1564 39.6083C51.7672 34.0627 32.3493 33.4909 32.3493 33.4909Z" fill="#0C0C12"/>
<path d="M32.3494 36.0525C32.3494 36.0525 13.8971 36.5435 11.6271 41.3068C11.6271 41.3068 14.3391 47.4135 15.2149 53.7295C15.3248 54.5212 16.1256 55.0894 17.0189 54.9979C19.7818 54.7149 25.7214 54.1978 32.3494 54.1978C38.9774 54.1978 44.917 54.7137 47.6798 54.9979C48.5731 55.0894 49.374 54.5212 49.4838 53.7295C50.3597 47.4135 53.0717 41.3068 53.0717 41.3068C50.8003 36.5423 32.3494 36.0525 32.3494 36.0525Z" fill="#393B3D"/>
<path d="M16.3695 79.2879C16.3695 86.9662 15.3811 95.4635 15.3811 95.4635C15.3811 95.4635 20.8319 97.6128 32.3495 97.6128V55.1773C32.3495 55.1773 24.6233 55.2736 15.3811 56.1771C15.3811 56.1783 16.3695 71.6109 16.3695 79.2879Z" fill="#D41F25"/>
<path d="M49.3219 56.1786C40.0797 55.2739 32.3535 55.1788 32.3535 55.1788V97.6143C43.8711 97.6143 49.3219 95.465 49.3219 95.465C49.3219 95.465 48.3335 86.9677 48.3335 79.2894C48.3335 71.6112 49.3219 56.1786 49.3219 56.1786Z" fill="#D41F25"/>
<path d="M43.7775 56.1783C37.554 55.2737 32.3496 55.1786 32.3483 55.1786C32.3469 55.1786 27.1439 55.2749 20.9191 56.1783C20.9191 56.1783 21.5847 71.6109 21.5847 79.288C21.5847 86.965 20.9191 95.4635 20.9191 95.4635C20.9191 95.4635 24.59 97.6128 32.3483 97.6128C40.1053 97.6128 43.7775 95.4635 43.7775 95.4635C43.7775 95.4635 43.1119 86.9662 43.1119 79.288C43.1119 71.6097 43.7775 56.1783 43.7775 56.1783Z" fill="#D41F25"/>
<path d="M51.5277 111.779L49.5804 96.0774C49.5804 96.0774 46.8041 98.4027 32.3509 98.4027H32.3496C17.8963 98.4027 15.1201 96.0774 15.1201 96.0774L13.1714 111.779C13.1714 111.779 13.0134 113.134 15.5928 114.209C18.1722 115.283 23.9457 116.964 32.3455 116.965C32.3469 116.965 32.3482 116.965 32.3496 116.965C32.3509 116.965 32.3522 116.965 32.3536 116.965C40.7534 116.964 46.5269 115.283 49.1063 114.209C51.6857 113.134 51.5277 111.779 51.5277 111.779Z" fill="#0C0C12"/>
<path d="M50.8724 110.953L48.9908 96.5221C48.9908 96.5221 46.3096 98.6596 32.3505 98.6596H32.3492C18.3901 98.6596 15.7089 96.5221 15.7089 96.5221L13.8273 110.953C13.8273 110.953 13.6746 112.198 16.1656 113.186C18.6566 114.174 24.2333 115.72 32.3452 115.721C32.3465 115.721 32.3478 115.721 32.3492 115.721C32.3505 115.721 32.3519 115.721 32.3532 115.721C40.4651 115.72 46.0431 114.174 48.5328 113.186C51.0251 112.197 50.8724 110.953 50.8724 110.953Z" fill="#393B3D"/>
<path d="M31.8966 2.17994C29.9654 2.17637 22.4254 2.23107 21.0714 3.33306C19.5152 4.59909 10.7016 21.3976 10.4418 38.4266C10.4418 38.4266 12.3623 35.6734 19.4148 33.964C20.308 18.5718 24.7637 4.48854 25.6115 3.33425C26.3842 2.281 30.5158 2.18232 31.8966 2.17994Z" fill="#D41F25"/>
<path d="M54.2557 38.4255C53.9959 21.3964 45.1823 4.59796 43.6261 3.33193C42.2721 2.22994 34.7321 2.17525 32.8009 2.17881C34.1817 2.18238 38.3146 2.28106 39.086 3.33193C39.9338 4.48622 44.3895 18.5707 45.2827 33.9617C52.3352 35.6723 54.2557 38.4255 54.2557 38.4255Z" fill="#D41F25"/>
<path d="M32.8008 2.17923C32.5182 2.1779 32.3495 2.18187 32.3495 2.18187C32.3495 2.18187 32.5129 2.17923 32.8008 2.17923Z" fill="#B12420"/>
<path d="M31.8967 2.17923C32.1847 2.18055 32.3481 2.18187 32.3481 2.18187C32.3494 2.18187 32.1793 2.1779 31.8967 2.17923Z" fill="#B12420"/>
<path d="M32.8007 2.17984C32.5127 2.18103 32.3493 2.18222 32.3493 2.18222C32.3493 2.18222 32.1846 2.17984 31.898 2.17984C30.5172 2.1834 26.3843 2.28208 25.6129 3.33295C24.7651 4.48725 20.3094 18.5718 19.4161 33.9628C22.5902 33.1937 26.8035 32.635 32.3493 32.635C37.8952 32.635 42.1085 33.1925 45.2825 33.9628C44.3906 18.5706 39.9335 4.48725 39.0858 3.33295C38.3144 2.28089 34.1814 2.18221 32.8007 2.17984Z" fill="#D41F25"/>
<path d="M55.915 43.6571C55.915 43.6571 51.1526 57.0438 51.4646 70.7052C51.7767 84.3665 52.7463 100.434 55.3833 106.063C55.3833 106.063 56.3502 88.7435 56.3502 82.934C56.3502 77.1245 56.3502 62.5585 56.3502 59.6104C56.3502 56.6623 55.915 43.6571 55.915 43.6571Z" fill="#0C0C12"/>
<path d="M55.7249 43.6571C55.7249 43.6571 51.1661 57.0438 51.4634 70.7052C51.7621 84.3665 52.6902 100.434 55.2147 106.063C55.2147 106.063 56.1414 88.7435 56.1414 82.934C56.1414 77.1245 56.1414 62.5585 56.1414 59.6104C56.1428 56.6623 55.7249 43.6571 55.7249 43.6571Z" fill="#292B2F"/>
<path d="M51.4498 71.6567L56.1426 70.4941V74.0723L51.561 74.4348L51.4498 71.6567Z" fill="#0C0C12"/>
<path d="M8.80525 43.3526C8.80525 43.3526 13.5676 56.7392 13.2556 70.4006C12.9435 84.0619 11.9739 100.129 9.33693 105.758C9.33693 105.758 8.36865 88.4389 8.36865 82.6294C8.36865 76.8199 8.36865 62.2539 8.36865 59.3058C8.36865 56.3577 8.80525 43.3526 8.80525 43.3526Z" fill="#0C0C12"/>
<path d="M8.99536 43.3526C8.99536 43.3526 13.5542 56.7392 13.2569 70.4006C12.9582 84.0619 12.0301 100.129 9.50562 105.758C9.50562 105.758 8.57886 88.4389 8.57886 82.6294C8.57886 76.8199 8.57886 62.2539 8.57886 59.3058C8.57886 56.3577 8.99536 43.3526 8.99536 43.3526Z" fill="#292B2F"/>
<path d="M13.2703 71.3506L8.57886 70.188V73.7674L13.1591 74.1288L13.2703 71.3506Z" fill="#0C0C12"/>
<path d="M32.3495 117.455C21.9716 117.455 14.7423 114.719 14.7423 114.719C14.7423 114.719 17.7382 126.19 21.8457 127.861C25.9532 129.533 32.3495 129.076 32.3495 129.076C32.3495 129.076 38.7458 129.532 42.8533 127.861C46.9608 126.19 49.9567 114.719 49.9567 114.719C49.9567 114.719 42.7274 117.455 32.3495 117.455Z" fill="#D41F25"/>
<path d="M8.00342 43.2733H8.95782C8.95782 43.2733 9.16039 45.8874 8.00342 46.332V43.2733Z" fill="#6D131C"/>
<path d="M0.995133 49.0163C0.995133 49.0163 1.03047 49.1031 1.60013 49.1043C2.16842 49.1055 2.29758 48.2923 7.67461 47.1618C7.67461 47.1618 8.1654 46.4129 6.71884 46.6518C5.27092 46.8908 0.985616 48.271 0.995133 49.0163Z" fill="#393B3D"/>
<path d="M3.12937 44.3167C3.12937 44.3167 5.39166 42.971 7.40652 42.7083C7.72193 42.6679 8.002 42.8878 8.002 43.166L8.002 46.2294C8.002 46.4446 7.83342 46.63 7.59414 46.6788C6.54048 46.8927 3.7031 47.5204 2.18449 48.3585L0.994879 49.0159C0.585654 49.2417 0.0459111 49.0087 0.00784366 48.5879C-0.0220665 48.2563 0.0268777 47.8319 0.271597 47.3373C0.769193 46.3316 1.68824 45.2083 3.12937 44.3167Z" fill="#9B1B1B"/>
<path d="M0.41171 48.164C0.275755 48.4374 0.202341 48.6882 0.166992 48.9153C0.365487 49.1091 0.712176 49.1733 0.994962 49.0164L2.18457 48.359C3.70319 47.5209 6.54057 46.8932 7.59422 46.6792C7.8335 46.6305 8.00208 46.445 8.00208 46.2299V43.6823C7.8906 43.5742 7.72474 43.5123 7.54664 43.5349C5.53178 43.7965 3.26949 45.1433 3.26949 45.1433C1.82836 46.0349 0.909305 47.1583 0.41171 48.164Z" fill="#9B1B1B"/>
<path d="M8.00355 44.2173C7.93965 44.2019 7.87303 44.1948 7.80234 44.2043C5.78749 44.4658 3.52519 45.8127 3.52519 45.8127C2.08407 46.7031 1.16502 47.8276 0.66742 48.8333C0.622555 48.9249 0.585852 49.0128 0.553223 49.0984C0.698694 49.1186 0.855043 49.0949 0.995076 49.0176L2.18468 48.3602C3.7033 47.5221 6.54067 46.8945 7.59432 46.6805C7.8336 46.6317 8.00219 46.4463 8.00219 46.2311V44.2173H8.00355Z" fill="#9B1B1B"/>
<path d="M56.8894 43.4692H55.935C55.935 43.4692 55.7324 46.0833 56.8894 46.5279V43.4692Z" fill="#6D131C"/>
<path d="M63.8968 49.2123C63.8968 49.2123 63.8614 49.2991 63.2918 49.3003C62.7235 49.3014 62.5943 48.4883 57.2173 47.3578C57.2173 47.3578 56.7265 46.6089 58.1731 46.8478C59.6223 47.0868 63.9077 48.4669 63.8968 49.2123Z" fill="#393B3D"/>
<path d="M61.7624 44.513C61.7624 44.513 59.5001 43.1673 57.4853 42.9046C57.1698 42.8641 56.8898 43.0841 56.8898 43.3622V46.4245C56.8898 46.6397 57.0584 46.8251 57.2976 46.8739C58.3513 47.0878 61.1887 47.7155 62.7073 48.5536L63.8969 49.211C64.3061 49.4368 64.8459 49.2038 64.884 48.783C64.9139 48.4514 64.8649 48.027 64.6202 47.5324C64.124 46.5279 63.2036 45.4045 61.7624 44.513Z" fill="#9B1B1B"/>
<path d="M64.4802 48.36C64.6161 48.6334 64.6895 48.8842 64.7249 49.1113C64.5264 49.3051 64.1797 49.3693 63.8969 49.2123L62.7073 48.5549C61.1887 47.7169 58.3513 47.088 57.2976 46.874C57.0584 46.8253 56.8898 46.6398 56.8898 46.4247V43.8771C57.0013 43.769 57.1671 43.7071 57.3452 43.7297C59.3601 43.9913 61.6224 45.3381 61.6224 45.3381C63.0635 46.2297 63.9839 47.3543 64.4802 48.36Z" fill="#9B1B1B"/>
<path d="M56.8898 44.412C56.9537 44.3966 57.0203 44.3894 57.091 44.3989C59.1059 44.6605 61.3681 46.0074 61.3681 46.0074C62.8093 46.8977 63.7283 48.0223 64.2259 49.028C64.2708 49.1195 64.3075 49.2075 64.3401 49.2931C64.1947 49.3133 64.0383 49.2895 63.8983 49.2123L62.7087 48.5549C61.19 47.7168 58.3527 47.0879 57.299 46.874C57.0597 46.8252 56.8911 46.6398 56.8911 46.4246V44.412H56.8898Z" fill="#9B1B1B"/>
<defs>
<linearGradient id="paint0_linear_2_1066" x1="32.3487" y1="106.067" x2="32.3487" y2="133.666" gradientUnits="userSpaceOnUse">
<stop stop-color="#50070C"/>
<stop offset="1" stop-color="#B12420"/>
</linearGradient>
</defs>
</svg>
