<svg width="55" height="55" viewBox="0 0 55 55" fill="none" xmlns="http://www.w3.org/2000/svg">
<g clip-path="url(#clip0_2_1016)">
<path d="M44.5457 32.7485C44.5457 38.7283 42.1947 44.1423 38.361 48.142C34.3127 52.366 28.606 54.9998 22.2944 54.9998C10.0031 54.9998 0.0432129 45.0399 0.0432129 32.7485C0.0432129 31.0902 0.228622 29.4708 0.570006 27.91C2.78439 17.9502 11.6616 10.4973 22.2944 10.4973C26.2258 10.4973 29.9132 11.5118 33.1127 13.3068C33.1225 13.3068 33.1322 13.3068 33.1419 13.3166L41.4141 21.3645C43.4043 24.6909 44.5457 28.5832 44.5457 32.7485Z" fill="#2F2E3C"/>
<path d="M38.3614 48.1423C34.313 52.3663 28.6062 55.0001 22.2946 55.0001C10.0032 55.0001 0.0432129 45.0401 0.0432129 32.7486C0.0432129 31.0903 0.228624 29.4709 0.570011 27.9101C4.23794 40.3869 15.7684 49.4885 29.4354 49.4885C32.5376 49.4885 35.5422 49.0201 38.3614 48.1423Z" fill="#20202B"/>
<path d="M44.0069 18.7722L41.4143 21.3648L41.4117 21.3621C40.5752 22.1986 38.067 21.0464 35.8093 18.7886C33.5516 16.5309 32.3994 14.0225 33.2358 13.1862L33.1129 13.307L35.8224 10.5975" fill="#20202B"/>
<path d="M44.0008 18.7712C44.8372 17.9348 43.6851 15.4267 41.4276 13.1692C39.1701 10.9117 36.662 9.75961 35.8257 10.596C34.9893 11.4323 36.1414 13.9404 38.3989 16.1979C40.6564 18.4555 43.1645 19.6075 44.0008 18.7712Z" fill="#2F2E3C"/>
<path d="M46.8039 8.96641L40.5002 15.2701C40.3388 15.4316 40.1265 15.5133 39.9144 15.5133C39.7021 15.5133 39.4898 15.4315 39.3273 15.2701C39.0045 14.9463 39.0045 14.4211 39.3273 14.0972L42.3078 11.1167C42.3089 11.1156 42.3111 11.1133 42.3122 11.1123L45.631 7.79454C45.9549 7.47067 46.48 7.47067 46.8039 7.79454C47.1279 8.11842 47.1279 8.64253 46.8039 8.96641Z" fill="#8FA3A9"/>
<path d="M46.8038 8.9664L43.485 12.2852C43.3236 12.4466 43.1113 12.5284 42.8991 12.5284C42.6869 12.5284 42.4746 12.4465 42.3121 12.2852C41.9904 11.9624 41.9893 11.4405 42.3077 11.1167C42.3087 11.1156 42.311 11.1133 42.3121 11.1123L45.6309 7.79454C45.9547 7.47067 46.4799 7.47067 46.8038 7.79454C47.1278 8.11842 47.1278 8.64253 46.8038 8.9664Z" fill="#EC1422"/>
<path d="M18.2526 14.6399C13.3014 15.4136 27.5415 26.2298 35.6862 30.3122C36.8225 30.8817 38.1737 30.1222 38.3026 28.8576C38.4446 27.4644 38.3271 25.5019 37.3564 23.0944C35.6453 18.8508 25.8941 13.4205 18.2526 14.6399Z" fill="#525464"/>
<path d="M46.4496 5.58625C45.9915 5.58625 45.6204 5.21511 45.6204 4.75706V0.829188C45.6204 0.371142 45.9915 0 46.4496 0C46.9076 0 47.2787 0.371142 47.2787 0.829188V4.75717C47.2786 5.21511 46.9074 5.58625 46.4496 5.58625Z" fill="#F49F00"/>
<path d="M46.4496 17.2515C45.9915 17.2515 45.6204 16.8803 45.6204 16.4223V12.4943C45.6204 12.0362 45.9915 11.6651 46.4496 11.6651C46.9076 11.6651 47.2787 12.0362 47.2787 12.4943V16.4224C47.2786 16.8803 46.9074 17.2515 46.4496 17.2515Z" fill="#F49F00"/>
<path d="M43.9634 6.49151C43.7268 6.49151 43.4918 6.39075 43.3278 6.19534L40.803 3.18614C40.5085 2.8352 40.5543 2.31238 40.9051 2.01804C41.2561 1.72338 41.7789 1.76947 42.0732 2.1202L44.5982 5.12929C44.8926 5.48024 44.8468 6.00306 44.496 6.2974C44.3406 6.42791 44.1515 6.49151 43.9634 6.49151Z" fill="#F49F00"/>
<path d="M51.4616 15.4272C51.2249 15.4272 50.99 15.3265 50.8259 15.1311L48.301 12.1221C48.0066 11.7711 48.0523 11.2483 48.4032 10.954C48.7539 10.6597 49.2769 10.7054 49.5713 11.0561L52.0962 14.0651C52.3906 14.4161 52.3449 14.9389 51.994 15.2332C51.8387 15.3637 51.6495 15.4272 51.4616 15.4272Z" fill="#F49F00"/>
<path d="M42.6408 8.78326C42.5929 8.78326 42.5446 8.77918 42.4957 8.77058L38.6274 8.08845C38.1764 8.00896 37.8753 7.57895 37.9549 7.12799C38.0345 6.67714 38.4639 6.37561 38.9154 6.45553L42.7837 7.13766C43.2347 7.21715 43.5358 7.64716 43.4562 8.09812C43.3854 8.5002 43.0355 8.78326 42.6408 8.78326Z" fill="#F49F00"/>
<path d="M54.1284 10.8089C54.0805 10.8089 54.0323 10.8048 53.9834 10.7962L50.1151 10.1141C49.6642 10.0346 49.3631 9.60458 49.4427 9.15362C49.5223 8.70266 49.9519 8.40102 50.4031 8.48116L54.2714 9.16329C54.7223 9.24278 55.0234 9.67279 54.9438 10.1238C54.8729 10.5258 54.5232 10.8089 54.1284 10.8089Z" fill="#F49F00"/>
<path d="M49.8003 7.52067C49.5137 7.52067 49.2352 7.372 49.0814 7.10602C48.8525 6.70942 48.9883 6.20239 49.3849 5.97337L52.7868 4.00927C53.1833 3.78057 53.6903 3.91603 53.9194 4.31274C54.1483 4.70934 54.0126 5.21637 53.616 5.44539L50.2142 7.40949C50.0837 7.48479 49.941 7.52067 49.8003 7.52067Z" fill="#F49F00"/>
</g>
<defs>
<clipPath id="clip0_2_1016">
<rect width="55" height="55" fill="white"/>
</clipPath>
</defs>
</svg>
