<svg width="57" height="129" viewBox="0 0 57 129" fill="none" xmlns="http://www.w3.org/2000/svg">
<path d="M8.99893 126.454L7.09296 125.086C7.09296 125.086 5.77377 125.907 4.89289 124.676C4.01202 123.445 2.83988 97.5853 2.2531 80.7553C1.66632 63.9268 2.54578 36.8348 2.54578 36.8348C2.54578 36.8348 0.932495 31.9096 1.07954 28.6257C1.22659 25.3417 1.51927 20.5537 1.51927 20.5537V17.1326H1.959L3.27819 12.4805C3.27819 12.4805 4.01202 6.1871 5.33121 5.22924C6.6504 4.27138 16.9155 1.12468 27.4718 1.12468L29.5984 1.05608C40.1561 1.05608 50.4198 4.20277 51.739 5.16064C53.0582 6.1185 53.792 12.4119 53.792 12.4119L55.1112 17.064H55.5509V20.4851C55.5509 20.4851 55.8436 25.2745 55.9907 28.5571C56.1377 31.8397 54.5259 36.7662 54.5259 36.7662C54.5259 36.7662 55.4053 63.8568 54.8185 80.6867C54.2318 97.5153 53.0596 123.375 52.1787 124.607C51.2979 125.84 49.9787 125.018 49.9787 125.018L48.0727 126.386L32.5733 127.7C30.0098 127.918 27.4308 127.924 24.866 127.72L8.99893 126.454Z" fill="#383838"/>
<path d="M10.172 55.7717L6.71915 44.4106C5.83828 41.512 7.29886 38.4392 10.196 37.1079C14.1239 35.303 20.3183 33.2316 28.3522 33.0047C36.9927 32.7606 43.5038 35.1829 47.3581 37.1831C49.8042 38.4523 51.0683 41.07 50.4956 43.6269L47.7526 55.876C47.508 56.9697 46.2765 57.603 45.1538 57.2099C42.0559 56.1253 35.8007 54.4207 28.0581 54.897C21.0337 55.3284 16.0482 56.5198 13.3222 57.3431C11.986 57.7455 10.5565 57.0344 10.172 55.7717Z" fill="#191919"/>
<path d="M9.80414 105.115L12.222 97.658C12.649 96.3426 14.0106 95.4916 15.4768 95.6262L23.3976 96.3505C26.4022 96.6249 29.4252 96.6672 32.4368 96.4745L43.1119 95.7937C44.2657 95.7199 45.3304 96.3769 45.7093 97.3968L48.499 104.904C48.7294 105.524 48.4057 106.202 47.7609 106.464C45.6089 107.334 40.0748 108.978 28.7917 109.078C16.9063 109.184 11.9236 107.169 10.2707 106.246C9.85505 106.012 9.66416 105.547 9.80414 105.115Z" fill="#282828"/>
<path d="M11.5746 104.71L13.786 98.5023C14.1762 97.4073 15.4219 96.6988 16.7623 96.8109L24.0044 97.4139C26.7517 97.6421 29.5159 97.6777 32.2702 97.5168L42.0305 96.9494C43.0853 96.8888 44.0581 97.435 44.4045 98.2833L46.9552 104.533C47.1659 105.049 46.8704 105.614 46.2808 105.831C44.3126 106.557 39.2536 107.924 28.9362 108.008C18.0688 108.097 13.5131 106.42 12.0002 105.649C11.6213 105.458 11.4474 105.07 11.5746 104.71Z" fill="#5B5B5B"/>
<path d="M6.506 90.47L5.47949 79.2501L5.47949 45.866C5.47949 45.866 8.11929 53.802 9.14579 60.7802C10.1723 67.7583 9.73257 80.072 9.14579 83.0828C8.55902 86.0936 6.506 90.47 6.506 90.47Z" fill="#282828"/>
<path d="M50.3474 90.47L51.3739 79.2501V45.866C51.3739 45.866 48.7341 53.802 47.7076 60.7802C46.6811 67.7583 47.1209 80.072 47.7076 83.0828C48.2944 86.0936 50.3474 90.47 50.3474 90.47Z" fill="#282828"/>
<path d="M3.56735 112.088C3.56735 112.088 2.10111 110.309 1.95406 106.478C1.80701 102.646 1.66138 95.5324 1.66138 94.027C1.66138 92.5215 2.3952 89.3748 2.3952 89.3748" fill="#444343"/>
<path d="M53.4271 112.088C53.4271 112.088 54.8934 110.309 55.0404 106.478C55.1875 102.646 55.3331 95.5324 55.3331 94.027C55.3331 92.5215 54.5993 89.3748 54.5993 89.3748" fill="#444343"/>
<path d="M11.2088 53.7797C10.5159 51.7887 9.27028 47.9942 8.47848 45.5692C7.98926 44.0691 8.57604 42.437 9.95037 41.5346C12.7188 39.7178 18.3392 37.178 28.132 37.178C38.3306 37.178 44.7244 39.8709 47.8421 41.6546C49.2192 42.4423 49.8089 44.0269 49.2659 45.4465L46.233 53.372C45.9418 54.1319 45.1005 54.5792 44.2521 54.4262L32.8248 52.3666L30.6248 49.6302H27.1055L25.3466 52.7769L13.1416 54.8589C12.2989 55.0014 11.4732 54.5396 11.2088 53.7797Z" fill="#6D6D6D"/>
<path d="M7.29215 124.9L7.15076 122.657C7.15076 122.657 19.0277 123.977 30.1977 123.845C41.3677 123.713 50.841 122.657 50.841 122.657L49.2984 125.633L48.0131 126.352C48.0131 126.352 32.156 127.912 28.986 127.923C25.816 127.934 8.98886 126.484 8.98886 126.484L7.29215 124.9Z" fill="#141414"/>
<path d="M6.09012 125.362L4.39342 100.822L4.25202 42.2416C4.25202 42.2416 4.11063 21.2636 4.25202 18.6248C4.39342 15.9861 6.21738 4.76746 6.21738 4.76746C6.21738 4.76746 5.25591 5.24113 4.96605 5.66596C4.6762 6.09081 4.11063 7.41017 3.68645 9.38923C3.26228 11.3683 3.16189 12.9199 3.16189 12.9199L1.98975 17.1735H1.56557C1.56557 17.1735 1.56557 20.472 1.56557 21.5275C1.56557 22.583 1 28.5201 1 29.9714C1 31.4228 2.58359 36.9931 2.58359 36.9931C2.58359 36.9931 2.07034 60.0888 2.03075 64.952C1.99116 69.8152 2.55532 89.2113 2.55532 89.2113L3.54506 110.849C3.54506 110.849 4.25202 121.404 4.39342 122.723C4.53481 124.043 5.082 124.782 5.30398 125.072C5.52455 125.362 6.09012 125.362 6.09012 125.362Z" fill="#1E1D1D"/>
<path d="M50.8406 125.296L52.5373 100.756L52.6787 42.1757C52.6787 42.1757 52.8201 21.1977 52.6787 18.5589C52.5373 15.9202 50.7134 4.70155 50.7134 4.70155C50.7134 4.70155 51.6749 5.17521 51.9647 5.60004C52.2546 6.02489 52.8201 7.34425 53.2443 9.32331C53.6685 11.3024 53.7689 12.854 53.7689 12.854L54.941 17.1076H55.3652C55.3652 17.1076 55.3652 20.406 55.3652 21.4615C55.3652 22.517 55.9308 28.4542 55.9308 29.9055C55.9308 31.3568 54.3472 36.9272 54.3472 36.9272C54.3472 36.9272 54.8604 60.0228 54.9 64.886C54.9396 69.7492 54.3754 89.1453 54.3754 89.1453L53.3857 110.783C53.3857 110.783 52.6787 121.338 52.5373 122.657C52.396 123.977 51.8488 124.716 51.6268 125.006C51.4062 125.296 50.8406 125.296 50.8406 125.296Z" fill="#1E1D1D"/>
<path d="M4.60536 44.8145L5.45372 45.87L5.7365 92.9715L7.15043 125.032L6.41094 125.296L6.01929 125.164L4.60536 106.033L4.32258 100.624L4.32258 81.6249L4.03979 67.6396L4.03979 56.0291L4.18119 44.2867L4.60536 44.8145Z" fill="#2B2929"/>
<path d="M52.2547 44.8145L51.4063 45.87L51.1235 92.9715L49.7096 125.032L50.4491 125.296L50.8407 125.164L52.2547 106.033L52.5374 100.624V81.6249L52.8202 67.6396L52.8202 56.0291L52.6788 44.2867L52.2547 44.8145Z" fill="#2B2929"/>
<path d="M12.0995 80.5694L12.2409 91.5202L7.71638 103.79C7.71638 103.79 6.69694 99.5565 6.44385 97.1935C6.16106 94.5547 6.44385 90.8605 6.44385 90.8605C6.44385 90.8605 9.04971 85.199 9.44278 80.7066C9.83585 76.2141 10.12 65.9243 9.27169 60.7788C8.42334 55.6333 5.4541 44.9463 5.4541 44.9463L5.87828 44.4186L10.6856 58.5359L12.0995 80.5694Z" fill="#2B2929"/>
<path d="M45.7511 80.5694V91.5202L50.1343 103.79C50.1343 103.79 51.4068 99.5683 51.4068 97.1935C51.4068 94.8186 50.5584 90.8605 50.5584 90.8605C50.5584 90.8605 47.9837 86.116 47.5892 81.6249C47.1947 77.1337 46.8822 65.5285 47.7306 60.383C48.5789 55.2374 51.5482 44.8144 51.5482 44.8144L51.124 44.2867L47.165 58.5359L45.7511 80.5694Z" fill="#2B2929"/>
<path opacity="0.7" d="M6.72632 91.6521C6.72632 91.6521 6.72632 96.006 7.0091 98.2489C7.29189 100.492 7.85746 101.811 7.99885 101.547C8.14024 101.283 11.5337 92.7076 11.6751 91.2562C11.8164 89.8049 11.6751 83.4719 11.6751 83.4719C11.6751 83.4719 11.2509 89.8049 10.9681 91.1243C10.6853 92.4437 8.56442 98.5128 8.14024 97.7212C7.71606 96.9295 6.72632 91.6521 6.72632 91.6521Z" fill="#6D6D6D"/>
<path opacity="0.7" d="M50.4169 91.5201C50.4169 91.5201 50.841 96.006 50.5583 98.2489C50.2755 100.492 49.9135 101.811 49.7721 101.547C49.6307 101.283 46.2373 92.7076 46.0959 91.2562C45.9545 89.8049 46.0959 83.4719 46.0959 83.4719C46.0959 83.4719 46.5201 89.8049 46.8029 91.1243C47.0857 92.4437 49.2066 98.5128 49.6307 97.7212C50.0549 96.9295 50.4169 91.5201 50.4169 91.5201Z" fill="#6D6D6D"/>
<path d="M8.98846 77.139L6.58479 78.0626L6.302 60.6469L6.302 50.6196C6.302 50.6196 8.1401 57.0845 8.56428 60.6469C8.98846 64.2092 8.98846 77.139 8.98846 77.139Z" fill="#5B5B5B"/>
<path d="M9.41277 79.3819L6.72632 80.1736L7.80656 87.5225L8.98577 84.0195L9.41277 79.3819Z" fill="#4C4B4B"/>
<path d="M7.27611 88.6228L6.44331 76.3474C6.44331 76.3474 6.16052 48.3767 6.16052 48.2447C6.16052 48.1128 5.45356 45.7379 5.45356 45.7379L5.43518 74.4079C5.43518 74.4079 5.49174 78.7315 5.54406 79.056C5.59496 79.3819 6.51825 90.5768 6.51825 90.5768L7.27611 88.6228Z" fill="#050505"/>
<path d="M47.8718 77.139L50.2755 78.0626L50.5583 60.6469V50.6196C50.5583 50.6196 48.7202 57.0845 48.296 60.6469C47.8718 64.2092 47.8718 77.139 47.8718 77.139Z" fill="#5B5B5B"/>
<path d="M47.4475 79.3819L50.134 80.1736L49.0537 87.5225L47.8745 84.0195L47.4475 79.3819Z" fill="#4C4B4B"/>
<path d="M49.5842 88.6228L50.417 76.3474C50.417 76.3474 50.6998 48.3767 50.6998 48.2447C50.6998 48.1128 51.4068 45.7379 51.4068 45.7379L51.4252 74.4079C51.4252 74.4079 51.3686 78.7315 51.3163 79.056C51.264 79.3806 50.3421 90.5768 50.3421 90.5768L49.5842 88.6228Z" fill="#050505"/>
<path d="M9.22597 47.8636C9.22597 47.8636 8.28147 45.0784 8.28147 44.9465C8.28147 44.8145 8.14573 43.065 9.27405 42.1586C9.8891 41.6652 12.2815 40.1677 16.0991 38.9446C19.2903 37.9221 23.4769 37.0909 28.4539 37.1952C39.3878 37.426 43.8459 39.8458 43.8459 39.8458C43.8459 39.8458 48.5599 41.4039 49.1339 42.9107C49.708 44.4174 49.2782 45.3357 49.2782 45.3357C49.2782 45.3357 48.7126 47.225 48.574 47.2725C48.4369 47.3213 45.7504 44.5506 43.7709 43.4951C41.7914 42.4397 39.105 41.2522 39.105 41.2522L35.2874 40.7245L31.7526 40.4606L29.6317 41.5161L28.2178 41.648L25.9555 40.3287C25.9555 40.3287 19.8756 40.7245 17.3306 41.5161C14.7855 42.3077 10.1705 45.238 9.22597 47.8636Z" fill="#383838"/>
<path d="M48.9121 105.434L49.6657 104.38C49.694 104.34 49.7011 104.293 49.6855 104.248L46.0715 93.6127C46.0489 93.5454 45.981 93.5018 45.9061 93.5058L31.7386 94.1457C29.5809 94.2433 27.4205 94.2301 25.2642 94.1061L12.505 93.3752C12.4315 93.3712 12.365 93.4121 12.3396 93.4768L8.16567 104.252C8.1487 104.294 8.15294 104.342 8.17698 104.381L9.20773 106.065C9.24449 106.124 9.31943 106.155 9.39154 106.137L9.68281 106.069C9.76906 106.049 9.82137 105.97 9.8044 105.889L9.7026 105.412C9.69695 105.387 9.69836 105.362 9.70684 105.338L12.2321 97.3518C12.2378 97.3346 12.2448 97.3201 12.2561 97.3056C12.365 97.1657 12.997 96.3675 13.5131 96.0073C14.0462 95.6353 14.8634 95.6009 14.9567 95.5983C14.9638 95.5983 14.9681 95.5983 14.9751 95.5983L28.0582 96.6182C28.0666 96.6182 28.0737 96.6195 28.0822 96.6182L42.4745 95.7659L43.5109 95.75C43.5307 95.75 43.5491 95.7527 43.5675 95.758L44.7255 96.1274C44.7495 96.1353 44.7707 96.1472 44.7877 96.163L45.3928 96.7198C45.4084 96.7343 45.4211 96.7514 45.4296 96.7699L46.0319 98.1117C46.0334 98.1157 46.0348 98.1183 46.0362 98.1223L48.4498 104.776L48.6053 105.29C48.6095 105.306 48.6124 105.323 48.6109 105.341C48.601 105.496 48.8188 105.564 48.9121 105.434Z" fill="#070707"/>
<path d="M14.5027 92.8395L13.0887 58.2719C13.0887 58.2719 20.4411 56.029 28.0763 55.8971C35.7115 55.7651 44.4779 58.14 44.4779 58.14L43.3467 92.9714L29.2089 93.4886C29.0194 93.4952 28.83 93.4952 28.6405 93.486L14.5027 92.8395Z" fill="#4C4C4C"/>
<path d="M51.4151 44.3817C51.4151 44.3817 53.9517 40.3286 50.5583 36.1066C47.1649 31.8846 34.8638 29.7736 27.5114 30.0375C20.159 30.3014 6.30252 34.1275 5.45417 37.426C4.60582 40.7244 5.31278 44.8145 5.31278 44.8145L6.30252 44.1548C6.30252 44.1548 5.87835 40.764 7.99923 38.6332C10.1201 36.5024 19.452 33.3359 27.7941 32.8082C36.1363 32.2804 44.4784 35.4469 46.4579 36.5024C48.4374 37.5579 50.5399 39.6095 50.5498 41.553C50.5583 43.4951 51.1423 44.478 51.4151 44.3817Z" fill="#2B2929"/>
<path d="M6.73511 111.631C6.73511 111.631 16.412 114.016 26.875 114.279C37.3381 114.543 50.308 111.799 50.308 111.799L49.7806 122.855C49.7806 122.855 34.6248 123.936 26.5781 123.792C18.5329 123.647 7.1508 122.657 7.1508 122.657L6.73511 111.631Z" fill="#2D2D2D"/>
<path d="M6.04919 6.15952C6.04919 6.15952 21.2899 2.99038 26.0972 2.72651C30.9046 2.46263 51.0303 6.09223 51.0303 6.09223L50.6995 4.70557C50.6995 4.70557 42.1382 1.4665 33.2686 1.10632C24.4005 0.747447 22.0081 1.41242 21.8611 1.40978C21.7141 1.40714 16.4825 1.93489 16.4825 1.93489L12.0782 2.96004L6.1609 4.70557L6.04919 6.15952Z" fill="#2D2D2D"/>
<path d="M8.93807 77.2366C8.93807 77.2366 9.20105 65.4626 8.49409 60.4489C7.78713 55.4353 6.26575 50.5576 6.26575 50.5576" stroke="#020202" stroke-width="0.75" stroke-miterlimit="10"/>
<path d="M47.8899 77.3053C47.8899 77.3053 47.518 66.3861 48.225 61.3725C48.9319 56.3589 50.4872 50.6856 50.4872 50.6856" stroke="#020202" stroke-width="0.75" stroke-miterlimit="10"/>
<path d="M8.99893 126.454L7.09296 125.086C7.09296 125.086 5.77377 125.907 4.89289 124.676C4.01202 123.445 2.83988 97.5853 2.2531 80.7553C1.66632 63.9268 2.54578 36.8348 2.54578 36.8348C2.54578 36.8348 0.932495 31.9096 1.07954 28.6257C1.22659 25.3417 1.51927 20.5537 1.51927 20.5537V17.1326H1.959L3.27819 12.4805C3.27819 12.4805 4.01202 6.1871 5.33121 5.22924C6.6504 4.27138 16.9155 1.12468 27.4718 1.12468L29.5984 1.05608C40.1561 1.05608 50.4198 4.20277 51.739 5.16064C53.0582 6.1185 53.792 12.4119 53.792 12.4119L55.1112 17.064H55.5509V20.4851C55.5509 20.4851 55.8436 25.2745 55.9907 28.5571C56.1377 31.8397 54.5259 36.7662 54.5259 36.7662C54.5259 36.7662 55.4053 63.8568 54.8185 80.6867C54.2318 97.5153 53.0596 123.375 52.1787 124.607C51.2979 125.84 49.9787 125.018 49.9787 125.018L48.0727 126.386L32.5733 127.7C30.0098 127.918 27.4308 127.924 24.866 127.72L8.99893 126.454Z" stroke="#474545" stroke-width="2" stroke-miterlimit="10"/>
<path d="M9.80414 105.115L12.222 97.658C12.649 96.3426 14.0106 95.4916 15.4768 95.6262L23.3976 96.3505C26.4022 96.6249 29.4252 96.6672 32.4368 96.4745L43.1119 95.7937C44.2657 95.7199 45.3304 96.3769 45.7093 97.3968L48.499 104.904C48.7294 105.524 48.4057 106.202 47.7609 106.464C45.6089 107.334 40.0748 108.978 28.7917 109.078C16.9063 109.184 11.9236 107.169 10.2707 106.246C9.85505 106.012 9.66416 105.547 9.80414 105.115Z" stroke="#7C7A7A" stroke-miterlimit="10"/>
<path d="M6.506 90.47L5.47949 79.2501L5.47949 45.866C5.47949 45.866 8.11929 53.802 9.14579 60.7802C10.1723 67.7583 9.73257 80.072 9.14579 83.0828C8.55902 86.0936 6.506 90.47 6.506 90.47Z" stroke="#020202" stroke-width="2" stroke-miterlimit="10"/>
<path d="M7.26951 125.118C7.2384 124.949 7.2384 122.76 7.2384 122.76C7.2384 122.76 19.5551 123.991 29.9658 123.855C40.3765 123.719 50.7872 122.76 50.7872 122.76L49.321 125.359" stroke="#020202" stroke-width="2" stroke-miterlimit="10"/>
<path d="M8.26477 104.152L10.2626 98.7293L12.2803 93.3133L12.3044 93.2499L12.3765 93.2539L16.4839 93.4729L20.5899 93.7051L28.802 94.1709H28.785L37.4368 93.7711L41.7634 93.5732L46.0901 93.3872L46.1678 93.3845L46.189 93.4531L48.0597 99.2095L49.9076 104.973L47.9423 99.2439L46.001 93.5072L46.0999 93.5719L41.7748 93.7975L37.451 94.0099L28.8006 94.4308L28.7921 94.4321L28.7836 94.4308L20.5744 93.9387L16.4684 93.6919L12.3651 93.432L12.4599 93.3726L10.3729 98.7662L8.26477 104.152Z" fill="#020202"/>
<path d="M7.70655 87.7851L6.50613 78.2922L6.21204 48.3279" stroke="#020202" stroke-miterlimit="10"/>
<path d="M5.95993 125.328L4.51915 106.073L4.51632 106.035L4.55308 106.007C4.7383 105.868 4.9009 105.674 5.03381 105.476C5.16672 105.276 5.26852 105.057 5.34629 104.833C5.50606 104.383 5.55272 103.899 5.53151 103.425C5.52444 103.187 5.47778 102.954 5.42123 102.723C5.35194 102.496 5.27418 102.269 5.15824 102.057C4.93767 101.633 4.6266 101.236 4.24909 100.938L4.21232 100.909V100.868C4.14021 92.8514 4.0978 84.8349 4.05962 76.8184L4.0073 64.7936L3.98892 52.7689C3.98327 44.7524 3.98185 36.7359 4.05679 28.718C4.078 26.7139 4.09355 24.7098 4.13597 22.7057L4.16567 21.2029L4.22081 19.6988C4.23212 19.1975 4.27595 18.6974 4.30988 18.1974C4.3424 17.6973 4.39189 17.1973 4.43289 16.6973C4.61105 14.6984 4.85424 12.7062 5.14268 10.7205C5.43112 8.73352 5.76339 6.75314 6.15929 4.78333C5.78036 6.75578 5.46647 8.7388 5.19641 10.7271C4.92635 12.7154 4.70295 14.7076 4.54177 16.7065C4.37068 18.704 4.30282 20.7042 4.28868 22.7083C4.25616 24.7111 4.25191 26.7152 4.2406 28.7194L4.22929 34.7318L4.23212 40.7441L4.24909 52.7689L4.40037 100.868L4.36361 100.798C4.77789 101.129 5.08895 101.536 5.32084 101.983C5.44102 102.204 5.52162 102.443 5.59231 102.681C5.65028 102.922 5.69694 103.168 5.70401 103.416C5.7238 103.909 5.67291 104.408 5.50324 104.879C5.33639 105.35 5.07199 105.796 4.64498 106.127L4.67892 106.061L5.95993 125.328Z" fill="#020202"/>
<path d="M2.39962 35.1936C2.38266 34.6685 2.36993 34.1447 2.36003 33.6196L2.32751 32.0455V32.0376L2.33034 32.0284C2.73614 30.4214 3.06275 28.7959 3.3215 27.1652C3.44451 26.3485 3.54208 25.5292 3.58025 24.7085C3.61136 23.8905 3.57459 23.0659 3.53076 22.2426C3.43886 20.5947 3.27343 18.9455 3.19001 17.291C3.14901 16.4638 3.11224 15.6352 3.12355 14.8066L3.14618 14.1852C3.15325 13.9781 3.17728 13.7709 3.19284 13.5651L3.20556 13.4107L3.2296 13.2564L3.27767 12.949C3.2904 12.846 3.31868 12.7458 3.34695 12.6455L3.42755 12.3447L3.36392 12.6495C3.34271 12.7511 3.32009 12.8513 3.31302 12.9556L3.2805 13.263L3.26353 13.416L3.25788 13.5704C3.25222 13.7762 3.23667 13.982 3.23949 14.1892L3.24515 14.808C3.27202 15.6326 3.32009 16.4572 3.38654 17.2818C3.52652 18.9297 3.68629 20.5762 3.79941 22.2294C3.85031 23.0567 3.8998 23.8866 3.85314 24.7217C3.80648 25.5542 3.70044 26.3788 3.56894 27.1995C3.43745 28.0201 3.27767 28.8355 3.08821 29.6456C2.90015 30.4557 2.69796 31.2618 2.47032 32.0627L2.47315 32.0455L2.44063 33.6196C2.42932 34.1447 2.41659 34.6685 2.39962 35.1936Z" fill="#020202"/>
<path d="M2.25232 42.5819L4.89211 45.0452V45.4555C4.89211 45.4555 5.47889 86.2281 5.47889 90.8802C5.47889 95.5323 7.23781 122.76 7.23781 122.76" stroke="#020202" stroke-miterlimit="10"/>
<path d="M9.43826 79.3873C9.29121 79.5245 6.65283 80.2079 6.65283 80.2079" stroke="#020202" stroke-width="2" stroke-miterlimit="10"/>
<path d="M9.58413 77.1985L6.5343 78.0746" stroke="#020202" stroke-width="2" stroke-miterlimit="10"/>
<path d="M5.45384 78.8543C1.63483 79.1182 2.34887 79.1182 2.06042 79.1182" stroke="#020202" stroke-width="2" stroke-miterlimit="10"/>
<path d="M3.42623 112.088C3.42623 112.088 1.96 110.309 1.81295 106.478C1.6659 102.646 1.52026 95.5324 1.52026 94.027C1.52026 92.5215 2.25409 89.3748 2.25409 89.3748" stroke="#020202" stroke-width="2" stroke-miterlimit="10"/>
<path d="M50.3474 90.47L51.3739 79.2501V45.866C51.3739 45.866 48.7341 53.802 47.7076 60.7802C46.6811 67.7583 47.1209 80.072 47.7076 83.0828C48.2944 86.0936 50.3474 90.47 50.3474 90.47Z" stroke="#020202" stroke-width="2" stroke-miterlimit="10"/>
<path d="M49.1455 87.7851L50.3473 78.2922L50.64 48.3279" stroke="#020202" stroke-miterlimit="10"/>
<path d="M50.8933 125.328L52.2535 106.068C52.2535 106.068 51.227 105.383 51.227 103.604C51.227 101.826 52.5462 100.868 52.5462 100.868C52.5462 100.868 52.9859 26.71 52.5462 19.1843C52.1064 11.6586 50.6925 4.78332 50.6925 4.78332" stroke="#020202" stroke-width="2" stroke-miterlimit="10"/>
<path d="M54.4523 35.1936C54.4353 34.6685 54.4226 34.1447 54.4127 33.6196L54.3802 32.0455L54.383 32.0627C54.1554 31.2605 53.9532 30.4557 53.7652 29.6456C53.5757 28.8355 53.4173 28.0201 53.2844 27.1995C53.1529 26.3788 53.0483 25.5529 53.0002 24.7217C52.955 23.8866 53.0031 23.0567 53.054 22.2294C53.1671 20.5749 53.3268 18.9284 53.4668 17.2818C53.5333 16.4585 53.5813 15.6339 53.6082 14.808L53.6139 14.1892C53.6167 13.9833 53.6011 13.7775 53.5955 13.5704L53.5898 13.416L53.5729 13.263L53.5403 12.9556C53.5347 12.8526 53.5121 12.7511 53.4894 12.6495L53.4258 12.3447L53.5064 12.6455C53.5333 12.7458 53.563 12.846 53.5757 12.949L53.6238 13.2564L53.6478 13.4107L53.6605 13.5651C53.6761 13.7722 53.7001 13.9781 53.7072 14.1852L53.7298 14.8066C53.7411 15.6352 53.7029 16.4638 53.6634 17.291C53.5813 18.9455 53.4159 20.5934 53.3226 22.2426C53.2788 23.0659 53.242 23.8918 53.2731 24.7085C53.3113 25.5292 53.4088 26.3485 53.5319 27.1652C53.7906 28.7959 54.1158 30.4227 54.523 32.0284L54.5258 32.0376V32.0455L54.4933 33.6196C54.4834 34.1447 54.4693 34.6685 54.4523 35.1936Z" fill="#020202"/>
<path d="M54.5989 42.5819L51.9591 45.0452V45.4555C51.9591 45.4555 51.3723 86.2281 51.3723 90.8802C51.3723 95.5323 49.6134 122.76 49.6134 122.76" stroke="#020202" stroke-miterlimit="10"/>
<path d="M47.4152 79.3873C47.5622 79.5245 50.2006 80.2079 50.2006 80.2079" stroke="#020202" stroke-width="2" stroke-miterlimit="10"/>
<path d="M47.2682 77.1985L50.3194 78.0746" stroke="#020202" stroke-width="2" stroke-miterlimit="10"/>
<path d="M54.893 79.1128C54.7459 79.1128 51.4062 78.8542 51.4062 78.8542" stroke="#020202" stroke-width="2" stroke-miterlimit="10"/>
<path d="M53.4271 112.088C53.4271 112.088 54.8934 110.309 55.0404 106.478C55.1875 102.646 55.3331 95.5324 55.3331 94.027C55.3331 92.5215 54.5993 89.3748 54.5993 89.3748" stroke="#020202" stroke-width="2" stroke-miterlimit="10"/>
<path d="M19.8491 6.87056L10.8127 7.77829C10.5695 7.80336 10.3716 7.59753 10.4225 7.37456L10.759 5.9127L20.4359 4.81762L19.8491 6.87056Z" fill="#0A0909" stroke="#4C4B4B" stroke-width="2" stroke-miterlimit="10"/>
<path d="M37.5401 6.87056L46.5765 7.77829C46.8197 7.80336 47.0177 7.59753 46.9668 7.37456L46.6303 5.9127L36.9534 4.81762L37.5401 6.87056Z" fill="#0A0909" stroke="#4C4B4B" stroke-width="2" stroke-miterlimit="10"/>
<path d="M5.40601 44.9766L6.28547 44.0188" stroke="#020202" stroke-miterlimit="10"/>
<path d="M51.593 44.9766L50.8606 43.7443" stroke="#020202" stroke-miterlimit="10"/>
<path d="M8.04593 103.4C8.92397 101.028 9.78788 98.6488 10.6221 96.2621C11.0378 95.068 11.4535 93.874 11.8239 92.6694C11.9116 92.3673 12.0049 92.0652 12.0756 91.7604C12.1548 91.4582 12.1562 91.1455 12.1703 90.8329C12.1916 90.2062 12.1845 89.5795 12.1817 88.9514C12.152 86.442 12.0643 83.9325 11.9682 81.4244C11.8706 78.9163 11.7589 76.4082 11.6359 73.9C11.5199 71.3919 11.3941 68.8838 11.2541 66.377C11.1834 65.1236 11.1085 63.8702 11.0251 62.6181C10.9388 61.366 10.8596 60.1113 10.7168 58.8658L10.6857 58.6336C10.6744 58.5571 10.656 58.4832 10.6405 58.408L10.4864 57.9594L10.1767 57.0635L9.556 55.2718L8.31599 51.6884L5.85718 44.515L8.38244 51.6686L9.63518 55.2494L10.2615 57.0398L10.574 57.9343L10.7296 58.3829C10.7451 58.4621 10.7663 58.5412 10.7776 58.6204L10.8102 58.8552C10.9558 60.106 11.0392 61.3581 11.1297 62.6115C11.2159 63.8649 11.2951 65.1183 11.3701 66.3717C11.5185 68.8785 11.6528 71.3866 11.7759 73.8948C11.8918 76.4029 11.9964 78.9123 12.0855 81.4218C12.1732 83.9312 12.2538 86.4407 12.275 88.9528C12.2764 89.5808 12.2806 90.2088 12.258 90.8368C12.2425 91.1482 12.2382 91.4701 12.1576 91.7788C12.0855 92.0876 11.9908 92.3884 11.9017 92.6919C11.5256 93.8978 11.1085 95.0918 10.6857 96.2845C9.8303 98.6633 8.94518 101.034 8.04593 103.4Z" fill="#020202"/>
<path d="M49.9291 103.4C49.0284 101.034 48.1433 98.6633 47.2879 96.2819C46.8665 95.0892 46.448 93.8964 46.0719 92.6892C45.9828 92.3858 45.8881 92.0849 45.816 91.7762C45.7354 91.4675 45.7311 91.1455 45.7156 90.8342C45.6915 90.2062 45.6972 89.5781 45.6986 88.9501C45.7198 86.438 45.8004 83.9286 45.8881 81.4191C45.9772 78.9097 46.0818 76.4003 46.1977 73.8921C46.3193 71.384 46.4551 68.8759 46.6035 66.3691C46.6785 65.1157 46.7576 63.8623 46.8439 62.6089C46.9344 61.3555 47.0178 60.1034 47.1634 58.8526L47.196 58.6178C47.2073 58.5399 47.2285 58.4594 47.244 58.3803L47.3996 57.9317L47.712 57.0372L48.3384 55.2468L49.5911 51.666L52.1164 44.5124L49.6576 51.6858L48.4176 55.2692L47.7969 57.0609L47.4872 57.9568L47.3331 58.4053C47.319 58.4806 47.3006 58.5544 47.2879 58.631L47.2568 58.8632C47.1154 60.1087 47.0362 61.3634 46.9485 62.6155C46.8651 63.8675 46.7916 65.1209 46.7195 66.3744C46.5795 68.8812 46.4522 71.3893 46.3377 73.8974C46.2147 76.4055 46.1016 78.9137 46.0054 81.4218C45.9093 83.9299 45.8216 86.4394 45.7919 88.9488C45.7891 89.5755 45.782 90.2035 45.8032 90.8302C45.8174 91.1442 45.8202 91.4556 45.898 91.7577C45.9687 92.0625 46.062 92.3646 46.1497 92.6668C46.5201 93.8727 46.9358 95.0667 47.3515 96.2594C48.1871 98.6488 49.051 101.026 49.9291 103.4Z" fill="#020202"/>
<path d="M11.2088 53.7797C10.5159 51.7887 9.27028 47.9942 8.47848 45.5692C7.98926 44.0691 8.57604 42.437 9.95037 41.5346C12.7188 39.7178 18.3392 37.178 28.132 37.178C38.3306 37.178 44.7244 39.8709 47.8421 41.6546C49.2192 42.4423 49.8089 44.0269 49.2659 45.4465L46.233 53.372C45.9418 54.1319 45.1005 54.5792 44.2521 54.4262L32.8248 52.3666L30.6247 49.6302H27.1055L25.3466 52.7769L13.1416 54.8589C12.2989 55.0014 11.4732 54.5396 11.2088 53.7797Z" stroke="#020202" stroke-miterlimit="10"/>
<path d="M9.32837 47.7052C9.32837 47.7052 12.2962 42.3762 18.4552 41.2811C24.6143 40.1861 26.0805 40.3233 26.0805 40.3233L28.1335 41.6915L29.5998 41.5543L31.6528 40.4592C31.6528 40.4592 35.9045 40.4592 38.984 41.2798C42.0635 42.1005 46.1158 44.6653 48.4884 47.2144" stroke="#020202" stroke-miterlimit="10"/>
<path d="M10.3319 126.022L15.0417 126.262L19.7486 126.518C21.3181 126.593 22.8861 126.687 24.4556 126.753C25.2403 126.788 26.0236 126.825 26.8084 126.85C27.2 126.862 27.5917 126.878 27.9833 126.882L28.5701 126.891L29.1512 126.882C29.9289 126.853 30.7122 126.796 31.4941 126.74L33.8426 126.56L38.5397 126.192L43.2396 125.828C44.8076 125.718 46.3742 125.594 47.9423 125.494C46.3827 125.684 44.8203 125.846 43.2594 126.022L38.5708 126.496C37.0084 126.655 35.4418 126.792 33.8766 126.932C33.0932 127.001 32.3099 127.064 31.5266 127.125C30.7419 127.184 29.9586 127.246 29.1654 127.278L28.5673 127.284L27.9748 127.274C27.5789 127.269 27.1859 127.252 26.7928 127.238C26.3983 127.225 26.0067 127.207 25.6136 127.188C25.2205 127.171 24.8274 127.153 24.4358 127.127C22.8649 127.038 21.2969 126.941 19.7288 126.821C18.1608 126.705 16.5942 126.583 15.0275 126.456C13.4609 126.313 11.8957 126.183 10.3319 126.022Z" fill="#707070"/>
<path d="M10.172 55.7717L6.71915 44.4106C5.83828 41.512 7.29886 38.4392 10.196 37.1079C14.1239 35.303 20.3183 33.2316 28.3522 33.0047C36.9927 32.7606 43.5038 35.1829 47.3581 37.1831C49.8042 38.4523 51.0683 41.07 50.4956 43.6269L47.7526 55.876C47.508 56.9697 46.2765 57.603 45.1538 57.2099C42.0559 56.1253 35.8007 54.4207 28.0581 54.897C21.0337 55.3284 16.0482 56.5198 13.3222 57.3431C11.986 57.7455 10.5565 57.0344 10.172 55.7717Z" stroke="#707070" stroke-width="2" stroke-miterlimit="10"/>
</svg>
