<svg width="238" height="48" viewBox="0 0 238 48" fill="none" xmlns="http://www.w3.org/2000/svg">
<path d="M0 12C0 5.37259 5.37258 0 12 0H226C232.627 0 238 5.37258 238 12V35.9091C238 42.5365 232.627 47.9091 226 47.9091H12C5.37258 47.9091 0 42.5365 0 35.9091V12Z" fill="#E03C3C"/>
<path d="M2.98746 13.3082C2.98746 11.98 3.23215 10.6648 3.70758 9.4377C4.183 8.21059 4.87984 7.09562 5.7583 6.15643C6.63677 5.21725 7.67966 4.47224 8.82743 3.96396C9.9752 3.45568 11.2054 3.19407 12.4477 3.19407L12.4477 5.8267C11.5287 5.8267 10.6188 6.02022 9.76976 6.3962C8.92075 6.77218 8.14931 7.32326 7.4995 8.01799C6.8497 8.71271 6.33424 9.53746 5.98257 10.4452C5.63089 11.3529 5.44989 12.3257 5.44989 13.3082L2.98746 13.3082Z" fill="white"/>
<path d="M12.4477 44.7151C11.2054 44.7151 9.9752 44.4535 8.82743 43.9452C7.67966 43.4369 6.63677 42.6919 5.7583 41.7528C4.87983 40.8136 4.183 39.6986 3.70758 38.4715C3.23215 37.2444 2.98746 35.9292 2.98746 34.601L5.44989 34.601C5.44989 35.5835 5.63089 36.5563 5.98257 37.464C6.33424 38.3717 6.8497 39.1965 7.4995 39.8912C8.14931 40.5859 8.92074 41.137 9.76976 41.513C10.6188 41.889 11.5287 42.0825 12.4477 42.0825V44.7151Z" fill="white"/>
<path d="M235.013 34.601C235.013 35.9292 234.768 37.2444 234.292 38.4715C233.817 39.6986 233.12 40.8136 232.242 41.7528C231.363 42.6919 230.32 43.4369 229.173 43.9452C228.025 44.4535 226.795 44.7151 225.552 44.7151L225.552 42.0825C226.471 42.0825 227.381 41.889 228.23 41.513C229.079 41.137 229.851 40.5859 230.5 39.8912C231.15 39.1965 231.666 38.3717 232.017 37.464C232.369 36.5563 232.55 35.5835 232.55 34.601H235.013Z" fill="white"/>
<path d="M225.552 3.19407C226.795 3.19407 228.025 3.45568 229.173 3.96396C230.32 4.47225 231.363 5.21725 232.242 6.15643C233.12 7.09562 233.817 8.21059 234.292 9.4377C234.768 10.6648 235.013 11.98 235.013 13.3082L232.55 13.3082C232.55 12.3257 232.369 11.3529 232.017 10.4452C231.666 9.53746 231.15 8.71271 230.5 8.01799C229.851 7.32327 229.079 6.77218 228.23 6.3962C227.381 6.02022 226.471 5.8267 225.552 5.8267V3.19407Z" fill="white"/>
</svg>
