<svg width="72" height="131" viewBox="0 0 72 131" fill="none" xmlns="http://www.w3.org/2000/svg">
<path d="M14.0114 45.9983L9.33578 48.5839L9.38378 50.2852L3 52.4265C3 52.4265 3.56469 50.4266 4.27054 49.4267C4.9764 48.4267 12.882 42.427 12.882 42.427" fill="#AA5202"/>
<path d="M14.0114 45.9983L9.33578 48.5839L9.38378 50.2852L3 52.4265C3 52.4265 3.56469 50.4266 4.27054 49.4267C4.9764 48.4267 12.882 42.427 12.882 42.427" stroke="#AA5202" stroke-width="3" stroke-miterlimit="10"/>
<path d="M57.9888 45.9983L62.6644 48.5839L62.6164 50.2852L69.0002 52.4265C69.0002 52.4265 68.4355 50.4266 67.7296 49.4267C67.0238 48.4267 59.1181 42.427 59.1181 42.427" fill="#AA5202"/>
<path d="M57.9888 45.9983L62.6644 48.5839L62.6164 50.2852L69.0002 52.4265C69.0002 52.4265 68.4355 50.4266 67.7296 49.4267C67.0238 48.4267 59.1181 42.427 59.1181 42.427" stroke="#AA5202" stroke-width="3" stroke-miterlimit="10"/>
<path d="M35.8919 2.00001C35.8919 2.00001 46.9032 4.42847 48.5973 5.14272C50.2913 5.85698 60.3144 14.8566 60.3144 14.8566C60.3144 14.8566 62.5732 17.8565 63.1379 22.8563C63.7026 27.856 62.5732 40.5698 62.5732 40.5698C62.5732 40.5698 62.1497 69.14 62.2908 73.5684C62.432 77.9967 62.5732 88.4249 62.5732 88.4249C62.5732 88.4249 63.7026 103.567 63.7026 106.567C63.7026 109.567 63.3496 114.924 60.1027 120.209C56.8558 125.495 35.9625 128.923 35.9625 128.923H35.8213C35.8213 128.923 14.928 125.495 11.681 120.209C8.4341 114.924 8.08118 109.567 8.08118 106.567C8.08118 103.567 9.21054 88.4249 9.21054 88.4249C9.21054 88.4249 9.35172 77.9967 9.49289 73.5684C9.63406 69.14 9.21054 40.5698 9.21054 40.5698C9.21054 40.5698 8.08118 27.856 8.64586 22.8563C9.21054 17.8565 11.4693 14.8566 11.4693 14.8566C11.4693 14.8566 21.4924 5.85698 23.1865 5.14272C24.8805 4.42847 35.8919 2.00001 35.8919 2.00001Z" fill="#FF812C"/>
<path d="M21.1378 104.067C21.1378 104.067 24.8083 108.353 25.6553 108.638C26.5024 108.924 28.6199 109.495 28.6199 109.495L37.9372 109.924L44.0076 109.495L46.5487 108.781L47.8192 107.353L51.0662 104.21L51.9132 71.4972C51.9132 71.4972 52.3367 61.9262 52.7602 60.212C53.1838 58.4978 58.6894 37.6417 58.6894 37.6417C58.6894 37.6417 57.2777 34.2133 55.5837 32.9276C53.8896 31.642 48.6663 28.6421 46.1252 28.0707C43.5841 27.4993 35.8197 26.9279 35.8197 26.9279C35.8197 26.9279 26.5024 27.4993 24.526 28.4993C22.5496 29.4992 17.8909 31.642 16.6204 32.7848C15.3498 33.9276 13.3734 37.6417 13.3734 37.6417L18.8791 58.4978C18.8791 58.4978 20.0085 66.4974 20.1496 70.0687C20.2908 73.64 21.1378 104.067 21.1378 104.067Z" fill="#232322"/>
<path d="M15.3541 88.6391L13.9424 80.7824C13.9424 80.7824 12.813 72.0685 12.6719 69.9257C12.5307 67.783 12.3895 57.3549 12.3895 57.3549L12.9542 42.0699C12.9542 42.0699 17.0482 55.9264 17.4717 58.4977C17.8952 61.069 17.754 65.7831 17.754 65.7831L16.907 76.6397L15.9188 84.4965L15.3541 88.6391Z" fill="#020202"/>
<path d="M56.6004 88.6391L58.0121 80.7824C58.0121 80.7824 59.1414 72.0685 59.2826 69.9257C59.4238 67.783 59.565 57.3549 59.565 57.3549L59.0003 42.0699C59.0003 42.0699 54.9063 55.9264 54.4828 58.4977C54.0593 61.069 54.2004 65.7831 54.2004 65.7831L55.0475 76.6397L56.0357 84.4965L56.6004 88.6391Z" fill="#0F0E0E"/>
<path d="M51.4928 81.6396C51.4928 81.6396 43.8695 83.211 35.8227 82.9253C27.776 82.6396 20.4322 81.6525 20.4322 81.6525C20.4322 81.6525 20.2247 72.1301 20.0482 68.8145C19.8703 65.4975 19.3057 60.3549 19.3057 60.3549L18.741 58.2122C18.741 58.2122 28.623 54.9266 35.2581 54.9266C44.8577 54.9266 53.256 58.2607 53.256 58.2607L51.9107 72.1687L51.4928 81.6396Z" fill="#020202"/>
<path d="M9.1439 78.7824C9.28507 78.7824 11.4026 84.4964 12.2497 86.6392C13.0967 88.7819 14.2261 90.4961 14.2261 90.4961L14.7907 90.9247L15.3554 88.0677C15.3554 88.0677 14.7851 86.6606 13.6586 78.1496C12.532 69.6385 12.2864 65.7644 12.4092 58.9162C12.532 52.0679 12.9555 41.6412 12.9555 41.6412C12.9555 41.6412 10.1321 36.2129 10.2733 29.4989C10.4144 22.785 22.1316 6.78571 22.1316 6.78571L19.1727 8.14708L13.9818 12.6697L11.2615 14.7853C11.2615 14.7853 10.4144 15.7853 9.56741 18.6423C8.72039 21.4993 8.50439 25.1077 8.50439 25.1077L8.93214 37.4272L9.22437 40.1699L9.35566 62.8545C9.35566 62.8545 9.67047 73.2041 9.51377 74.5997C9.35566 75.9968 9.1439 78.7824 9.1439 78.7824Z" fill="#F76400"/>
<path d="M62.5044 78.9252C62.3632 78.9252 60.4673 84.4964 59.6203 86.6392C58.7732 88.7819 57.6439 90.4961 57.6439 90.4961L57.0792 90.9247L56.7164 88.3534C56.7164 88.3534 57.0862 86.6606 58.2128 78.1496C59.3393 69.64 59.585 65.7644 59.4621 58.9162C59.3379 52.0693 58.9144 41.6412 58.9144 41.6412C58.9144 41.6412 61.7378 36.2129 61.5967 29.4989C61.4555 22.785 49.7383 6.78571 49.7383 6.78571L52.6972 8.14708L57.8881 12.6697L60.6085 14.7853C60.6085 14.7853 61.4555 15.7853 62.3025 18.6423C63.1495 21.4993 63.3655 25.1077 63.3655 25.1077L62.9378 37.4272L62.6456 40.1699L62.5143 62.8545C62.5143 62.8545 62.1995 73.2041 62.3562 74.5997C62.5143 75.9968 62.5044 78.9252 62.5044 78.9252Z" fill="#F76400"/>
<path d="M24.2443 107.638L27.35 121.638L26.503 109.067L24.2443 107.638Z" fill="#FF812C"/>
<path d="M35.3963 4.35691L24.9496 7.78534C24.9496 7.78534 24.8084 15.4993 24.1026 18.642C23.3967 21.7848 23.2556 23.6418 22.5497 25.2132C21.8438 26.7845 21.4203 27.7845 21.4203 27.7845L20.4321 29.0702C20.4321 29.0702 24.3849 27.4988 26.7849 26.9274C29.1848 26.356 35.114 26.0703 35.114 26.0703L35.3963 4.35691Z" fill="#FF812C"/>
<path d="M36.6691 4.35691L47.1158 7.78534C47.1158 7.78534 47.2569 15.4993 47.9628 18.642C48.6687 21.7848 48.8098 23.6418 49.5157 25.2132C50.2215 26.7845 50.6451 27.7845 50.6451 27.7845L51.6333 29.0702C51.6333 29.0702 47.6805 27.4988 45.2805 26.9274C42.8806 26.356 36.9514 26.0703 36.9514 26.0703L36.6691 4.35691Z" fill="#FF812C"/>
<path d="M9.13672 89.1164L9.28071 78.4968C9.28071 78.4968 9.8694 80.4996 10.9875 83.4266C12.1041 86.3536 13.1502 88.4835 13.1502 88.4835C13.1502 88.4835 13.9394 90.0677 14.2217 90.3534C14.504 90.6391 15.0687 91.2106 15.0687 91.2106L14.504 93.639L14.2217 94.2104L13.657 94.0676L12.81 93.2105L11.5395 91.782L9.28071 89.2106L9.13954 89.0678" fill="#191817"/>
<path d="M62.784 89.0679L62.64 78.4484C62.64 78.4484 62.0513 80.4512 60.9332 83.3782C59.8166 86.3052 58.8312 88.4965 58.8312 88.4965C58.8312 88.4965 57.9842 90.0679 57.7018 90.3536C57.4195 90.6393 56.996 91.3535 56.996 91.3535L57.4167 93.5906L57.699 94.162L58.2637 94.0191L59.1107 93.162L60.3812 91.7335L62.64 89.1622L62.7811 89.0194" fill="#191817"/>
<path d="M24.5869 101.861L23.7808 87.4135C23.7286 86.4822 24.5022 85.7208 25.4212 85.8008C28.1374 86.0336 33.4497 86.4165 37.0933 86.2122C40.4631 86.0222 44.4554 85.5822 46.7607 85.3065C47.7518 85.1879 48.603 86.0108 48.5324 87.0178L47.5329 101.299C47.4525 102.439 46.6224 103.377 45.5114 103.583C43.1157 104.027 39.3803 105.02 35.3992 105.211C31.5678 105.396 27.879 104.4 26.1483 103.874C25.2617 103.604 24.6391 102.797 24.5869 101.861Z" fill="#3F3D3B"/>
<path d="M21.1982 55.8648C20.3752 56.0591 19.5451 55.5662 19.3122 54.7434C18.1814 50.7379 15.1758 39.857 15.636 38.927C16.2007 37.7842 28.4827 34.4986 34.8354 34.2129C41.1882 33.9272 55.7289 38.0699 56.0112 39.3556C56.2371 40.3812 53.4927 50.5107 52.3774 54.5563C52.1219 55.4805 51.1902 56.0362 50.2669 55.8119L41.3293 53.6406L40.6644 50.5679C40.4767 49.6965 39.7073 49.0808 38.8249 49.0951L32.9508 49.1922C32.2294 49.2037 31.604 49.7022 31.4233 50.4093L30.6003 53.6406L21.1982 55.8648Z" fill="#3F3D3B"/>
<path d="M58.4081 38.0699C58.4081 38.0699 45.8438 32.9273 39.4911 32.6416C33.1384 32.3559 31.7267 32.3559 28.9033 32.9273C26.0799 33.4987 19.4448 35.3558 19.4448 35.3558C19.4448 35.3558 12.951 37.9271 13.2333 37.7842C13.5157 37.6414 14.7862 34.7844 16.0567 33.4987C17.3273 32.2131 23.68 28.2132 27.2093 27.6418C30.7385 27.0704 36.5265 26.7847 36.5265 26.7847C36.5265 26.7847 44.4928 27.3561 47.4264 28.4989C50.3599 29.6417 56.1126 33.2044 56.1126 33.2044L58.6904 37.6414L58.4081 38.0699Z" fill="#353535"/>
<path d="M38.0782 127.209C38.0782 127.209 35.1136 127.638 32.0078 126.78C28.9021 125.923 24.1022 124.066 24.1022 124.066L18.5966 121.781C18.5966 121.781 17.6084 121.352 18.1731 121.209C18.7377 121.066 29.7491 123.923 34.4077 124.352C39.0664 124.781 50.2189 121.066 50.2189 121.066C50.2189 121.066 52.1953 120.638 52.1953 120.781C52.1953 120.924 52.1953 121.209 51.9129 121.495C51.6306 121.781 48.8072 123.495 48.8072 123.495L40.6192 126.638L38.0782 127.209Z" fill="#FF812C"/>
<path d="M56.2227 84.8535C56.2227 84.8535 58.1991 76.711 58.7638 69.8541C59.3285 62.9973 58.4815 53.4262 58.4815 53.4262L57.6344 47.4265C57.6344 47.4265 53.8595 58.836 54.1941 62.3459C54.5287 65.8543 56.2227 84.8535 56.2227 84.8535Z" fill="#333232"/>
<path d="M15.9693 85.1394C15.9693 85.1394 13.9929 76.9969 13.4282 70.14C12.8636 63.2832 13.7106 53.7121 13.7106 53.7121L14.5576 47.7123C14.5576 47.7123 18.3325 59.1219 17.998 62.6318C17.6634 66.1416 15.9693 85.1394 15.9693 85.1394Z" fill="#333232"/>
<path d="M20.7842 81.711C20.7842 81.711 37.16 84.4252 51.4183 81.711" stroke="#050505" stroke-width="2" stroke-miterlimit="10"/>
<path d="M19.0424 58.3336C19.0424 58.3336 27.068 55.0695 35.6795 54.9266C44.2909 54.7838 53.0436 58.355 53.0436 58.355" stroke="#050505" stroke-width="2" stroke-miterlimit="10"/>
<path d="M13.5159 37.6414C13.5159 37.6414 25.7978 32.3559 35.2562 32.3559C44.7147 32.3559 58.2671 38.0699 58.2671 38.0699" stroke="#050505" stroke-width="2" stroke-miterlimit="10"/>
<path d="M15.3521 87.9251C15.3521 87.9251 13.1639 77.4255 12.5993 66.8546C12.0346 56.2836 13.0228 42.1413 13.0228 42.1413C13.0228 42.1413 16.1285 52.8552 17.5403 58.5692C18.952 64.2833 14.9992 92.5677 14.4345 93.9963C13.8698 95.4248 9.23938 88.825 9.23938 88.825" stroke="#050505" stroke-width="2" stroke-miterlimit="10"/>
<path d="M9.5304 78.6367C9.5304 78.6367 12.5712 89.4676 15.0573 91.2318" stroke="#050505" stroke-miterlimit="10"/>
<path d="M13.8688 79.7109L10.6218 82.2822" stroke="#050505" stroke-miterlimit="10"/>
<path d="M56.7148 88.4965C56.7148 88.4965 58.8323 77.4255 59.397 66.8546C59.9617 56.2836 58.9735 42.1413 58.9735 42.1413C58.9735 42.1413 55.8677 52.8552 54.456 58.5692C53.0443 64.2833 56.9971 92.5677 57.5618 93.9963C58.1265 95.4248 62.7569 88.825 62.7569 88.825" stroke="#050505" stroke-width="2" stroke-miterlimit="10"/>
<path d="M62.4706 78.6367C62.4706 78.6367 59.4298 89.4676 56.9437 91.2318" stroke="#050505" stroke-miterlimit="10"/>
<path d="M58.1982 79.5679L61.2193 82.1863" stroke="#050505" stroke-miterlimit="10"/>
<path d="M19.0679 24.846L15.8901 27.3201C15.7956 27.393 15.6657 27.2973 15.7066 27.1844L19.0538 17.8377C19.082 17.7577 19.1314 17.6848 19.1964 17.6291L22.0621 15.1435L19.2994 24.506C19.2585 24.6402 19.178 24.7588 19.0679 24.846Z" fill="#383333" stroke="#050505" stroke-miterlimit="10"/>
<path d="M52.5365 24.846L55.7142 27.3201C55.8088 27.393 55.9387 27.2973 55.8977 27.1844L52.5506 17.8377C52.5224 17.7577 52.4729 17.6848 52.408 17.6291L49.5422 15.1435L52.305 24.506C52.3445 24.6402 52.4249 24.7588 52.5365 24.846Z" fill="#383333" stroke="#050505" stroke-miterlimit="10"/>
<path d="M19.9421 7.99924C20.552 7.64925 21.176 7.32356 21.8098 7.01928C22.4437 6.71358 23.086 6.42502 23.741 6.16503C25.0497 5.63363 26.4303 5.32365 27.7898 4.98366C29.1535 4.64796 30.5243 4.34654 31.8937 4.04084C33.2644 3.738 34.6352 3.43945 36.0074 3.1466L36.0356 3.14088L36.0638 3.1466L40.2425 4.01513C41.6344 4.30797 43.0292 4.58796 44.4197 4.8908L46.5076 5.33936L47.03 5.45078C47.198 5.48649 47.3942 5.53078 47.5565 5.60078C47.8939 5.73363 48.2158 5.88933 48.5348 6.04932C49.1715 6.37359 49.7969 6.71786 50.4195 7.06785C51.042 7.4164 51.659 7.77496 52.2716 8.14209C51.0152 7.46783 49.7602 6.78643 48.4756 6.17646C48.1551 6.02361 47.8318 5.87362 47.5029 5.7522C47.421 5.72077 47.3391 5.6922 47.2587 5.67505C47.181 5.6522 47.0907 5.63792 47.0031 5.61935L46.4794 5.51649L44.3844 5.10794C42.9868 4.83938 41.5935 4.54939 40.1973 4.26941L36.0102 3.42372H36.0667C34.6931 3.708 33.3209 3.99799 31.9501 4.29226L27.8406 5.19365C26.4741 5.50792 25.1005 5.79362 23.7919 6.29217C22.4733 6.77358 21.1929 7.35927 19.9421 7.99924Z" fill="#A54E00"/>
<g opacity="0.56">
<path d="M47.471 108.138L46.7652 111.538L46.0438 114.937L44.5742 121.725L44.4373 121.704L44.9483 115.419L45.2151 112.278L45.4946 109.138L45.28 112.284L45.0528 115.428L44.5756 121.715L44.4387 121.694L45.9337 114.911L46.6946 111.524L47.471 108.138Z" fill="#FF812C"/>
</g>
<path d="M26.7193 126.709C26.2958 126.566 15.2844 122.852 14.155 121.995C13.0257 121.138 11.4728 117.852 11.4728 117.852L26.7193 126.709Z" fill="#281B05" stroke="#A03A12" stroke-width="2" stroke-miterlimit="10"/>
<path d="M45.2075 126.709C45.631 126.566 56.6424 122.852 57.7718 121.995C58.9011 121.138 60.454 117.852 60.454 117.852L45.2075 126.709Z" fill="#281B05" stroke="#A03A12" stroke-width="2" stroke-miterlimit="10"/>
<path d="M50.7171 104.71C50.7171 104.853 49.719 124.058 49.719 124.058L49.4465 105.924" stroke="#9B4200" stroke-width="3" stroke-miterlimit="10"/>
<path d="M21.4857 104.71C21.4857 104.853 22.4838 124.058 22.4838 124.058L22.7563 105.924" stroke="#9B4200" stroke-width="3" stroke-miterlimit="10"/>
<path d="M15.8231 84.7637C15.8231 84.7637 13.7987 77.7826 13.234 68.2117C12.6693 58.6407 14.3634 47.2127 14.3634 47.2127" stroke="#161616" stroke-miterlimit="10"/>
<path d="M56.1764 84.7637C56.1764 84.7637 58.2008 77.7826 58.7655 68.2117C59.3302 58.6407 57.6361 47.2127 57.6361 47.2127" stroke="#161616" stroke-miterlimit="10"/>
<path d="M21.1982 55.8648C20.3752 56.0591 19.5451 55.5662 19.3122 54.7434C18.1814 50.7379 15.1758 39.857 15.636 38.927C16.2007 37.7842 28.4827 34.4986 34.8354 34.2129C41.1882 33.9272 55.7289 38.0699 56.0112 39.3556C56.2371 40.3812 53.4927 50.5107 52.3774 54.5563C52.1219 55.4805 51.1902 56.0362 50.2669 55.8119L41.3293 53.6406L40.6644 50.5679C40.4767 49.6965 39.7073 49.0808 38.8249 49.0951L32.9508 49.1922C32.2294 49.2037 31.604 49.7022 31.4233 50.4093L30.6003 53.6406L21.1982 55.8648Z" stroke="#050505" stroke-miterlimit="10"/>
<path d="M36.1786 26.8565C36.1786 26.8565 28.1319 27.4279 25.0261 28.4279C21.9203 29.4278 19.5204 30.9992 17.1205 32.5706C14.7206 34.1419 13.4501 37.7132 13.4501 37.7132C13.4501 37.7132 18.2499 55.5695 19.0969 59.4264C19.9439 63.2834 20.3675 77.2827 20.3675 77.2827L21.0733 104.139C21.0733 104.139 23.7556 107.138 25.5908 108.567C27.426 109.995 35.8963 109.853 35.8963 109.853H36.1786C36.1786 109.853 44.6489 109.995 46.4841 108.567C48.3193 107.138 51.0016 104.139 51.0016 104.139L51.7074 77.2827C51.7074 77.2827 52.1309 63.2834 52.978 59.4264C53.825 55.5695 58.6248 37.7132 58.6248 37.7132C58.6248 37.7132 57.3543 34.1419 54.9544 32.5706C52.5545 30.9992 50.1546 29.4278 47.0488 28.4279C43.943 27.4279 35.8963 26.8565 35.8963 26.8565H36.1786Z" stroke="#050505" stroke-width="3" stroke-miterlimit="10"/>
<path d="M35.8919 2C35.8919 2 46.9032 4.42847 48.5973 5.14273C50.2913 5.85698 60.3144 14.8566 60.3144 14.8566C60.3144 14.8566 62.5732 17.8565 63.1379 22.8563C63.7026 27.856 62.5732 40.5698 62.5732 40.5698C62.5732 40.5698 62.1497 69.14 62.2908 73.5684C62.432 77.9967 62.5732 88.4249 62.5732 88.4249C62.5732 88.4249 63.7026 103.567 63.7026 106.567C63.7026 109.567 63.3496 114.924 60.1027 120.209C56.8558 125.495 35.9625 128.923 35.9625 128.923H35.8213C35.8213 128.923 14.928 125.495 11.681 120.209C8.4341 114.924 8.08118 109.567 8.08118 106.567C8.08118 103.567 9.21054 88.4249 9.21054 88.4249C9.21054 88.4249 9.35172 77.9967 9.49289 73.5684C9.63406 69.14 9.21054 40.5698 9.21054 40.5698C9.21054 40.5698 8.08118 27.856 8.64586 22.8563C9.21054 17.8565 11.4693 14.8566 11.4693 14.8566C11.4693 14.8566 21.4924 5.85698 23.1865 5.14273C24.8805 4.42847 35.8919 2 35.8919 2Z" stroke="#F76400" stroke-width="3" stroke-miterlimit="10"/>
<path d="M11.3323 117.566C11.3323 117.566 9.77937 111.71 9.6382 107.995C9.49703 104.281 9.49703 89.5677 9.49703 89.5677C9.49703 89.5677 7.92014 103.719 8.1432 107.571C8.36766 111.424 10.0617 116.567 11.3323 117.566Z" fill="#FF812C"/>
<path d="M60.2113 117.852C60.2113 117.852 61.7642 111.995 61.9054 108.281C62.0465 104.567 62.3628 89.9248 62.3628 89.9248C62.3628 89.9248 63.6234 104.004 63.4004 107.857C63.1759 111.71 61.4818 116.852 60.2113 117.852Z" fill="#FF812C"/>
<path d="M8.88 45.4954L12.5999 44.284V45.4825C12.5999 45.9568 12.2893 46.3739 11.839 46.5053L9.31199 47.2453L9.07059 50.5694" stroke="#AA5202" stroke-width="3" stroke-miterlimit="10" stroke-linecap="round"/>
<path d="M63.0457 45.3524L59.5376 44.141V45.5281C59.5376 45.8924 59.7719 46.2138 60.1164 46.3209L62.6377 47.1037L62.8664 50.4279" stroke="#AA5202" stroke-width="3" stroke-miterlimit="10" stroke-linecap="round"/>
<path d="M17.8817 60.3514C17.5373 60.2828 12.5469 57.9686 12.5469 57.9686" stroke="#141110" stroke-width="3" stroke-miterlimit="10"/>
<path d="M54.3353 60.3514C54.6798 60.2828 59.6702 57.9686 59.6702 57.9686" stroke="#141110" stroke-width="3" stroke-miterlimit="10"/>
</svg>
