<svg width="69" height="136" viewBox="0 0 69 136" fill="none" xmlns="http://www.w3.org/2000/svg">
<path d="M46.9809 135.154H21.4785C14.2016 135.154 8.30064 130.083 8.30064 123.826V119.335C8.30064 113.079 14.1999 108.007 21.4785 108.007H46.9809C54.2578 108.007 60.1588 113.078 60.1588 119.335V123.826C60.1588 130.083 54.2596 135.154 46.9809 135.154Z" fill="#040D59"/>
<path d="M52.399 46.3047L16.0597 46.3047C10.3851 46.3047 5.78523 42.3507 5.78523 37.4728L5.78523 17.2159C5.78523 12.338 10.3851 8.38394 16.0597 8.38394L52.399 8.38394C58.0736 8.38394 62.6735 12.338 62.6735 17.2159L62.6735 37.4728C62.6752 42.3492 58.0753 46.3047 52.399 46.3047Z" fill="url(#paint0_linear_2_1128)"/>
<path d="M47.2265 134.155C38.7391 136.263 29.7309 136.265 21.2452 134.157L21.2365 134.155C14.0937 134.155 8.30416 129.179 8.30416 123.039V119.125C8.30416 112.985 14.0937 108.008 21.2365 108.008H47.2265C54.3693 108.008 60.1588 112.985 60.1588 119.125V123.039C60.1588 129.179 54.3676 134.155 47.2265 134.155Z" fill="url(#paint1_linear_2_1128)"/>
<path d="M63.7391 97.865C63.7391 90.1005 62.8508 91.1546 62.8508 91.1546L34.2289 91.1067L5.60696 91.1546C5.60696 91.1546 4.71868 90.1005 4.71868 97.865C4.71868 105.629 5.41188 116.581 6.63981 116.581C6.63981 116.581 6.23399 134.458 34.2289 134.458C62.2238 134.458 61.818 116.581 61.818 116.581C63.0459 116.581 63.7391 105.629 63.7391 97.865Z" fill="#040D59"/>
<path d="M12.9294 128.873C12.9294 128.873 14.0476 132.374 22.6639 133.191C22.6639 133.191 20.1663 128.873 12.9294 128.873Z" fill="white"/>
<path d="M55.5306 128.873C55.5306 128.873 54.4125 132.374 45.7961 133.191C45.7961 133.191 48.2938 128.873 55.5306 128.873Z" fill="white"/>
<path d="M63.7391 97.711C63.7391 90.1232 62.8508 91.1518 62.8508 91.1518L34.2289 91.1054L5.60696 91.1518C5.60696 91.1518 4.71868 90.1217 4.71868 97.711C4.71868 105.299 5.41188 114.098 6.63981 114.098C6.63981 114.098 6.23399 133.471 34.2289 133.471C62.2238 133.471 61.818 114.098 61.818 114.098C63.0459 114.098 63.7391 105.3 63.7391 97.711Z" fill="#020F6D"/>
<path d="M34.229 0.0402265C34.229 0.0402265 18.266 -0.581106 15.9199 3.06005L34.229 3.06005L52.5381 3.06005C50.192 -0.581106 34.229 0.0402265 34.229 0.0402265Z" fill="#393B3D"/>
<path d="M34.2292 0.259031C34.2292 0.259031 21.4483 -0.232045 19.5708 2.64555L34.2292 2.64555L48.8876 2.64555C47.01 -0.232045 34.2292 0.259031 34.2292 0.259031Z" fill="#ADB1B5"/>
<path d="M34.2296 1.25154C34.2296 1.25154 20.9715 0.965571 19.0225 2.64392L34.2296 2.64392L49.4366 2.64392C47.4876 0.965571 34.2296 1.25154 34.2296 1.25154Z" fill="#393B3D"/>
<path d="M52.5387 3.05994C51.1627 2.21553 34.2296 2.22002 34.2296 2.22002C34.2296 2.22002 17.2965 2.21553 15.9205 3.05994C14.5446 3.90436 3.77368 9.15201 7.23798 20.0486C10.7005 30.9451 34.7051 30.3193 34.7051 30.3193C34.7051 30.3193 57.7587 30.9451 61.223 20.0486C64.6856 9.15201 53.9164 3.90436 52.5387 3.05994Z" fill="#1B1CBF"/>
<path d="M8.06702 14.6003L20.7799 3.57944C20.7799 3.57944 16.4447 4.47176 14.0551 5.79528C11.8588 7.011 6.79034 10.6851 7.1143 14.2933C7.15262 14.7051 7.72912 14.8937 8.06702 14.6003Z" fill="#393B3D"/>
<path d="M7.78547 14.8322L20.0525 4.00455C20.0525 4.00455 16.0988 4.83399 13.9199 6.06168C11.741 7.28938 6.4635 11.2195 7.78547 14.8322Z" fill="white"/>
<path d="M8.41599 14.8325L20.0525 5.8569C20.0525 5.8569 16.3008 6.54411 14.2334 7.5622C12.1659 8.58029 7.1602 11.8367 8.41599 14.8325Z" fill="#FEFEFE"/>
<path d="M60.3923 14.6003L47.6794 3.57944C47.6794 3.57944 52.0146 4.47176 54.4042 5.79528C56.6006 7.011 61.669 10.6851 61.345 14.2933C61.3085 14.7051 60.7319 14.8937 60.3923 14.6003Z" fill="#393B3D"/>
<path d="M60.6739 14.8322L48.4069 4.00455C48.4069 4.00455 52.3606 4.83399 54.5395 6.06168C56.7184 7.28938 61.9959 11.2195 60.6739 14.8322Z" fill="white"/>
<path d="M60.2139 14.8323L48.405 4.367C48.405 4.367 52.2107 5.168 54.3094 6.35527C56.4082 7.54254 61.4889 11.3394 60.2139 14.8323Z" fill="white"/>
<path d="M60.0432 14.8325L48.4067 5.8569C48.4067 5.8569 52.1584 6.54411 54.2258 7.5622C56.2932 8.58029 61.299 11.8367 60.0432 14.8325Z" fill="#FEFEFE"/>
<path d="M60.6499 14.229C60.2702 12.666 50.6471 6.76704 47.8307 5.06474C45.0143 3.36243 34.2313 3.861 34.2295 3.861C34.2278 3.861 23.4447 3.36243 20.6284 5.06474C17.812 6.76704 8.18892 12.6645 7.80922 14.229C7.42952 15.7921 4.71939 51.8505 4.71939 60.3141C4.71939 68.7777 5.72959 108.178 7.80922 116.034C9.88885 123.889 8.78111 127.256 12.9195 128.873C17.0596 130.489 26.2489 132.747 34.2278 132.747C42.2084 132.747 51.3978 130.489 55.5361 128.873C59.6762 127.258 58.5667 123.891 60.6464 116.034C62.726 108.178 63.7362 68.7777 63.7362 60.3141C63.7397 51.8505 61.0296 15.7936 60.6499 14.229Z" fill="url(#paint2_linear_2_1128)"/>
<path d="M34.229 1.64067C34.229 1.64067 24.3987 1.13312 21.8314 2.86537C19.264 4.59762 10.4927 10.5969 10.1461 12.1869C9.79946 13.7784 7.32969 50.4565 7.32969 59.0654C7.32969 67.6742 8.25106 107.754 10.1461 115.744C12.0428 123.736 11.0309 127.162 14.8052 128.804C18.5795 130.448 26.9555 132.744 34.229 132.744L34.229 1.64067Z" fill="#1B1CBF"/>
<path d="M34.2287 1.64067C34.2287 1.64067 44.0591 1.13312 46.6264 2.86537C49.1937 4.59762 57.9651 10.5969 58.3117 12.1869C58.6583 13.7769 61.1281 50.4565 61.1281 59.0654C61.1281 67.6742 60.2067 107.754 58.3117 115.744C56.4167 123.735 57.4269 127.162 53.6525 128.804C49.8782 130.448 41.5022 132.744 34.2287 132.744L34.2287 1.64067Z" fill="#1B1CBF"/>
<path d="M52.5085 74.4939C52.6723 54.0917 58.3137 40.2263 58.3137 40.2263C58.0281 22.0968 48.3388 4.21293 46.6284 2.86546C44.9181 1.518 34.2308 1.64076 34.2308 1.64076C34.2308 1.64076 23.5435 1.518 21.8332 2.86546C20.1228 4.21293 10.4335 22.0968 10.1479 40.2263C10.1479 40.2263 15.7894 54.0917 15.9531 74.4939C16.1168 94.8961 12.6786 113.469 12.8424 116.846C12.9451 118.957 13.6871 123.103 14.2288 125.915C14.6172 127.932 16.2039 129.625 18.4089 130.391C21.5562 131.486 26.7936 132.746 34.2308 132.746C41.668 132.746 46.9054 131.486 50.0527 130.391C52.2577 129.625 53.8427 127.932 54.2328 125.915C54.7745 123.103 55.5165 118.957 55.6193 116.846C55.7812 113.469 52.3448 94.8961 52.5085 74.4939Z" fill="#1B1CBF"/>
<path d="M34.2294 34.0608C34.2294 34.0608 13.8371 34.6417 11.3273 40.2816C11.3273 40.2816 14.5599 48.079 15.3942 55.8539C15.443 56.3135 15.9289 56.6459 16.4619 56.583C19.0048 56.2851 26.1547 55.5425 34.2294 55.5425C42.3041 55.5425 49.4539 56.2851 51.9968 56.583C52.5298 56.6459 53.014 56.3135 53.0645 55.8539C53.8988 48.079 57.1315 40.2816 57.1315 40.2816C54.6234 34.6417 34.2294 34.0608 34.2294 34.0608Z" fill="#0C0C12"/>
<path d="M34.2295 36.666C34.2295 36.666 14.851 37.1645 12.4684 42.0095C12.4684 42.0095 15.3178 48.2198 16.2357 54.6428C16.3507 55.4482 17.1919 56.0247 18.1307 55.9318C21.0325 55.6429 27.2696 55.1189 34.2295 55.1189C41.1895 55.1189 47.4266 55.6429 50.3284 55.9318C51.2654 56.0247 52.1084 55.4482 52.2234 54.6428C53.143 48.2198 55.9907 42.0095 55.9907 42.0095C53.608 37.1645 34.2295 36.666 34.2295 36.666Z" fill="#393B3D"/>
<path d="M17.4495 80.6383C17.4495 88.4476 16.4115 97.0894 16.4115 97.0894C16.4115 97.0894 22.1348 99.2753 34.2311 99.2753L34.2311 56.1174C34.2311 56.1174 26.1164 56.2147 16.4115 57.134C16.4115 57.134 17.4495 72.829 17.4495 80.6383Z" fill="#1B1CBF"/>
<path d="M52.0543 57.134C42.3494 56.2147 34.2347 56.1174 34.2347 56.1174L34.2347 99.2753C46.3293 99.2753 52.0543 97.0894 52.0543 97.0894C52.0543 97.0894 51.0163 88.4476 51.0163 80.6383C51.0163 72.829 52.0543 57.134 52.0543 57.134Z" fill="#1B1CBF"/>
<path d="M46.2321 57.134C39.6953 56.2147 34.2315 56.1174 34.2298 56.1174C34.2281 56.1174 28.7643 56.2147 22.2276 57.134C22.2276 57.134 22.9277 72.829 22.9277 80.6368C22.9277 88.4461 22.2276 97.0879 22.2276 97.0879C22.2276 97.0879 26.0837 99.2737 34.2298 99.2737C42.3759 99.2737 46.2321 97.0879 46.2321 97.0879C46.2321 97.0879 45.5336 88.4461 45.5336 80.6368C45.5336 72.829 46.2321 57.134 46.2321 57.134Z" fill="#1B1CBF"/>
<path d="M54.3708 113.68L52.326 97.7122C52.326 97.7122 49.4103 100.078 34.2312 100.078H34.2294C19.0502 100.078 16.1346 97.7122 16.1346 97.7122L14.0898 113.68C14.0898 113.68 13.9243 115.059 16.6327 116.152C19.3411 117.245 25.4058 118.954 34.2259 118.956C34.2277 118.956 34.2294 118.956 34.2294 118.956C34.2312 118.956 34.2329 118.956 34.2329 118.956C43.0548 118.954 49.1177 117.245 51.8261 116.152C54.538 115.057 54.3708 113.68 54.3708 113.68Z" fill="#0C0C12"/>
<path d="M53.6829 112.84L51.7078 98.1646C51.7078 98.1646 48.8914 100.339 34.2312 100.339H34.2295C19.5693 100.339 16.7529 98.1646 16.7529 98.1646L14.7778 112.84C14.7778 112.84 14.6175 114.107 17.2336 115.111C19.8497 116.116 25.7054 117.688 34.226 117.688C34.2277 117.688 34.2295 117.688 34.2295 117.688C34.2312 117.688 34.233 117.688 34.233 117.688C42.7518 117.686 48.6092 116.116 51.2253 115.111C53.8431 114.107 53.6829 112.84 53.6829 112.84Z" fill="#393B3D"/>
<path d="M33.7552 2.21718C31.7261 2.21268 23.8082 2.26958 22.387 3.38947C20.7532 4.67705 11.4959 21.7614 11.2242 39.0794C11.2242 39.0794 13.2411 36.2782 20.647 34.5399C21.584 18.8869 26.2641 4.56327 27.1541 3.38798C27.9657 2.32048 32.3044 2.22017 33.7552 2.21718Z" fill="#1B1CBF"/>
<path d="M57.2351 39.0794C56.9634 21.7614 47.7061 4.67556 46.0724 3.38947C44.6511 2.26958 36.7314 2.21268 34.7041 2.21718C36.1532 2.22017 40.4936 2.32048 41.3035 3.38947C42.1935 4.56327 46.8736 18.8868 47.8106 34.5414C55.2182 36.2797 57.2351 39.0794 57.2351 39.0794Z" fill="#1B1CBF"/>
<path d="M34.7051 2.21741C34.409 2.21741 34.2296 2.22059 34.2296 2.22059C34.2296 2.22059 34.402 2.21741 34.7051 2.21741Z" fill="#B12420"/>
<path d="M33.7552 2.21729C34.0566 2.21729 34.229 2.22047 34.229 2.22047C34.229 2.22047 34.0513 2.2157 33.7552 2.21729Z" fill="#B12420"/>
<path d="M34.7052 2.21741C34.4039 2.21741 34.2298 2.2204 34.2298 2.2204C34.2298 2.2204 34.0573 2.2189 33.756 2.21741C32.3069 2.2204 27.9665 2.32071 27.1566 3.38971C26.2666 4.5635 21.5866 18.8871 20.6495 34.5417C23.9832 33.7587 28.4072 33.1913 34.2315 33.1913C40.0558 33.1913 44.4798 33.7587 47.8135 34.5417C46.8764 18.8886 42.1964 4.565 41.3064 3.38971C40.4947 2.32071 36.1544 2.2204 34.7052 2.21741Z" fill="#1B1CBF"/>
<path d="M58.9795 44.4004C58.9795 44.4004 53.9789 58.0144 54.3064 71.9083C54.6338 85.8022 55.6527 102.143 58.4204 107.866C58.4204 107.866 59.4358 90.2534 59.4358 84.3455C59.4358 78.4375 59.4358 63.6228 59.4358 60.6255C59.4358 57.6266 58.9795 44.4004 58.9795 44.4004Z" fill="#0C0C12"/>
<path d="M58.779 44.4004C58.779 44.4004 53.991 58.0144 54.3045 71.9083C54.618 85.8022 55.5934 102.143 58.2443 107.866C58.2443 107.866 59.2179 90.2534 59.2179 84.3455C59.2179 78.4375 59.2179 63.6228 59.2179 60.6255C59.2162 57.6266 58.779 44.4004 58.779 44.4004Z" fill="#292B2F"/>
<path d="M54.2901 72.8755L59.2157 71.6927V75.3324L54.405 75.7007L54.2901 72.8755Z" fill="#0C0C12"/>
<path d="M9.50574 44.089C9.50574 44.089 14.5063 57.7029 14.1788 71.5969C13.8514 85.4908 12.8324 101.831 10.0648 107.555C10.0648 107.555 9.04941 89.9419 9.04941 84.034C9.04941 78.1261 9.04941 63.3114 9.04941 60.314C9.04941 57.3167 9.50574 44.089 9.50574 44.089Z" fill="#0C0C12"/>
<path d="M9.70447 44.089C9.70447 44.089 14.4925 57.7029 14.179 71.5969C13.8655 85.4908 12.8901 101.831 10.2392 107.555C10.2392 107.555 9.26555 89.9419 9.26555 84.034C9.26555 78.1261 9.26555 63.3114 9.26555 60.314C9.26555 57.3167 9.70447 44.089 9.70447 44.089Z" fill="#292B2F"/>
<path d="M14.1948 72.5654L9.26748 71.3827V75.0223L14.0781 75.3906L14.1948 72.5654Z" fill="#0C0C12"/>
<path d="M34.2291 119.453C23.3312 119.453 15.7372 116.671 15.7372 116.671C15.7372 116.671 18.8828 128.337 23.197 130.037C27.5113 131.736 34.2291 131.273 34.2291 131.273C34.2291 131.273 40.947 131.738 45.2613 130.037C49.5755 128.337 52.7211 116.671 52.7211 116.671C52.7211 116.671 45.1289 119.453 34.2291 119.453Z" fill="#1B1CBF"/>
<path d="M8.67786 44.0096H9.66542C9.66542 44.0096 9.87617 46.6671 8.67786 47.1207V44.0096Z" fill="url(#paint3_linear_2_1128)"/>
<path d="M1.42779 49.8502C1.42779 49.8502 1.46437 49.9386 2.05308 49.9401C2.64178 49.9416 2.7759 49.1136 8.33723 47.9653C8.33723 47.9653 8.8458 47.2032 7.34792 47.4457C5.85003 47.6883 1.41734 49.0926 1.42779 49.8502Z" fill="#393B3D"/>
<path d="M3.63643 45.071C3.63643 45.071 5.97732 43.7026 8.06043 43.4361C8.38614 43.3942 8.677 43.6188 8.677 43.9017V47.0159C8.677 47.2345 8.50283 47.4231 8.25551 47.4725C7.16518 47.6896 4.23036 48.3289 2.65932 49.1808L1.42792 49.8486C1.00468 50.0777 0.445581 49.8426 0.405522 49.4129C0.37417 49.0745 0.424682 48.6448 0.678975 48.1403C1.19453 47.1207 2.14551 45.9768 3.63643 45.071Z" fill="#4344B0"/>
<path d="M0.825289 48.9833C0.68595 49.2618 0.609311 49.5163 0.570992 49.7469C0.776516 49.9445 1.13531 50.0089 1.42792 49.8502L2.65933 49.1825C4.23037 48.3291 7.16518 47.6913 8.25551 47.4742C8.50283 47.4248 8.677 47.2361 8.677 47.0175V44.4274C8.56205 44.3181 8.38962 44.2537 8.205 44.2777C6.12015 44.5442 3.77926 45.9126 3.77926 45.9126C2.29008 46.8184 1.3391 47.9607 0.825289 48.9833Z" fill="#1B1CBF"/>
<path d="M8.67749 44.9693C8.6113 44.9543 8.54163 44.9468 8.46848 44.9558C6.38361 45.2223 4.04446 46.5908 4.04446 46.5908C2.55353 47.4966 1.60253 48.6404 1.08872 49.663C1.04169 49.7558 1.00512 49.8456 0.970282 49.9325C1.12181 49.9519 1.28205 49.9295 1.42836 49.8501L2.65977 49.1824C4.23083 48.329 7.16566 47.6912 8.25599 47.4741C8.50332 47.4247 8.67749 47.236 8.67749 47.0175V44.9693Z" fill="#021B8A"/>
<path d="M59.9856 44.2088H58.998C58.998 44.2088 58.7873 46.8663 59.9856 47.3199V44.2088Z" fill="url(#paint4_linear_2_1128)"/>
<path d="M67.234 50.0493C67.234 50.0493 67.1974 50.1376 66.6087 50.1391C66.02 50.1406 65.8859 49.3127 60.3246 48.1643C60.3246 48.1643 59.816 47.4023 61.3139 47.6448C62.8117 47.8873 67.2444 49.2917 67.234 50.0493Z" fill="#393B3D"/>
<path d="M65.0283 45.2704C65.0283 45.2704 62.6874 43.902 60.6043 43.6355C60.2786 43.5935 59.9877 43.8181 59.9877 44.1011V47.2152C59.9877 47.4338 60.1619 47.6225 60.4092 47.6719C61.4995 47.889 64.4344 48.5283 66.0054 49.3802L67.2368 50.0479C67.66 50.277 68.2191 50.0419 68.2575 49.6122C68.2888 49.2739 68.2383 48.8442 67.984 48.3396C67.4702 47.32 66.5192 46.1762 65.0283 45.2704Z" fill="#4344B0"/>
<path d="M67.8399 49.1823C67.9793 49.4608 68.0559 49.7153 68.0942 49.9459C67.8887 50.1435 67.5299 50.2079 67.2373 50.0492L66.0059 49.3814C64.4349 48.528 61.5 47.8902 60.4097 47.6731C60.1624 47.6237 59.9882 47.4351 59.9882 47.2165V44.6264C60.1032 44.5171 60.2756 44.4527 60.4602 44.4766C62.5451 44.7431 64.8842 46.1116 64.8842 46.1116C66.3752 47.0174 67.3261 48.1597 67.8399 49.1823Z" fill="#1B1CBF"/>
<path d="M59.9857 45.1685C60.0518 45.1535 60.1215 45.146 60.1947 45.155C62.2795 45.4215 64.6187 46.7899 64.6187 46.7899C66.1096 47.6957 67.0606 48.8396 67.5744 49.8622C67.6215 49.955 67.658 50.0448 67.6929 50.1317C67.5413 50.1511 67.3811 50.1287 67.2348 50.0493L66.0034 49.3816C64.4323 48.5282 61.4975 47.8904 60.4072 47.6733C60.1598 47.6239 59.9857 47.4352 59.9857 47.2166V45.1685Z" fill="#021B8A"/>
<defs>
<linearGradient id="paint0_linear_2_1128" x1="34.2299" y1="8.38152" x2="34.2299" y2="46.3041" gradientUnits="userSpaceOnUse">
<stop stop-color="#020F6D"/>
<stop offset="1" stop-color="#1B1CBF"/>
</linearGradient>
<linearGradient id="paint1_linear_2_1128" x1="34.2303" y1="107.871" x2="34.2303" y2="135.94" gradientUnits="userSpaceOnUse">
<stop stop-color="#040D59"/>
<stop offset="1" stop-color="#021B8A"/>
</linearGradient>
<linearGradient id="paint2_linear_2_1128" x1="34.2302" y1="3.7932" x2="34.2302" y2="132.746" gradientUnits="userSpaceOnUse">
<stop stop-color="#020F6D"/>
<stop offset="0.0978" stop-color="#051076"/>
<stop offset="0.2572" stop-color="#0C148E"/>
<stop offset="0.4574" stop-color="#181BB6"/>
<stop offset="0.5" stop-color="#1B1CBF"/>
<stop offset="0.599" stop-color="#181BB6"/>
<stop offset="0.7634" stop-color="#10169C"/>
<stop offset="0.9719" stop-color="#041073"/>
<stop offset="1" stop-color="#020F6D"/>
</linearGradient>
<linearGradient id="paint3_linear_2_1128" x1="9.17775" y1="44.0097" x2="9.17775" y2="47.1208" gradientUnits="userSpaceOnUse">
<stop stop-color="#020F6D"/>
<stop offset="0.0978" stop-color="#051076"/>
<stop offset="0.2572" stop-color="#0C148E"/>
<stop offset="0.4574" stop-color="#181BB6"/>
<stop offset="0.5" stop-color="#1B1CBF"/>
<stop offset="0.599" stop-color="#181BB6"/>
<stop offset="0.7634" stop-color="#10169C"/>
<stop offset="0.9719" stop-color="#041073"/>
<stop offset="1" stop-color="#020F6D"/>
</linearGradient>
<linearGradient id="paint4_linear_2_1128" x1="59.4854" y1="44.209" x2="59.4854" y2="47.3201" gradientUnits="userSpaceOnUse">
<stop stop-color="#020F6D"/>
<stop offset="0.0978" stop-color="#051076"/>
<stop offset="0.2572" stop-color="#0C148E"/>
<stop offset="0.4574" stop-color="#181BB6"/>
<stop offset="0.5" stop-color="#1B1CBF"/>
<stop offset="0.599" stop-color="#181BB6"/>
<stop offset="0.7634" stop-color="#10169C"/>
<stop offset="0.9719" stop-color="#041073"/>
<stop offset="1" stop-color="#020F6D"/>
</linearGradient>
</defs>
</svg>
