<svg width="64" height="64" viewBox="0 0 64 64" fill="none" xmlns="http://www.w3.org/2000/svg">
<ellipse cx="32" cy="32" rx="29" ry="29" fill="#B79EF9" stroke="white" stroke-width="5"/>
<path d="M31.2821 26.6154V19.436H27.0577L25.0295 26.6154H31.2821Z" fill="white"/>
<path d="M36.5906 19.436H32.7183V26.6154H38.6191L36.5906 19.436Z" fill="#FF8898"/>
<path d="M25.5655 19.436H21.3875L17.8021 26.6154H23.5373L25.5655 19.436Z" fill="#FF8898"/>
<path d="M46.1444 26.6154L42.6768 19.436H38.0826L40.1108 26.6154H46.1444Z" fill="white"/>
<path d="M26.9747 34.3271C25.1272 34.3271 23.6243 35.8059 23.6243 37.6235V44.5638H30.3251V37.6235C30.3251 35.8059 28.822 34.3271 26.9747 34.3271Z" fill="#94D5D2"/>
<path d="M42.5298 35.2306H36.0683V41.6921H42.5298V35.2306Z" fill="#94D5D2"/>
<path d="M39.7401 29.4695C39.0131 30.8345 37.5868 31.7226 35.8702 31.7226C34.1536 31.7226 32.727 30.8345 32 29.4695C31.2729 30.8345 29.8464 31.7226 28.1303 31.7226C26.4137 31.7226 24.9871 30.8345 24.2601 29.4695C23.5328 30.8345 22.1062 31.7226 20.3896 31.7226C20.0158 31.7226 19.6583 31.676 19.3163 31.596V44.564H22.1881V37.6237C22.1881 35.0144 24.3352 32.8914 26.9744 32.8914C29.6135 32.8914 31.7607 35.0144 31.7607 37.6237V44.564H44.923V31.5374C44.5116 31.6578 44.0717 31.7226 43.6106 31.7226C41.894 31.7226 40.4672 30.8345 39.7401 29.4695ZM43.966 34.5128V42.4102C43.966 42.8067 43.6446 43.1281 43.248 43.1281H35.3506C34.9541 43.1281 34.6327 42.8067 34.6327 42.4102V34.5128C34.6327 34.1163 34.9541 33.7949 35.3506 33.7949H43.248C43.6446 33.7949 43.966 34.1163 43.966 34.5128Z" fill="#FFDAC6"/>
<path d="M23.2628 28.0514H17.5166C17.821 29.3652 18.9549 30.2868 20.3893 30.2868C21.8243 30.2868 22.9584 29.3655 23.2628 28.0514Z" fill="white"/>
<path d="M28.1301 30.2868C29.5645 30.2868 30.6984 29.3652 31.0026 28.0514H25.2571C25.5615 29.3655 26.6956 30.2868 28.1301 30.2868Z" fill="#FF8898"/>
<path d="M35.8702 30.2868C37.3046 30.2868 38.4385 29.3652 38.7429 28.0514H32.9974C33.3016 29.3655 34.4357 30.2868 35.8702 30.2868Z" fill="white"/>
<path d="M43.6103 30.2868C45.0448 30.2868 46.1787 29.3652 46.4831 28.0514H40.7371C41.0415 29.3655 42.1756 30.2868 43.6103 30.2868Z" fill="#FF8898"/>
<path d="M47.8578 26.8618L43.5777 18H20.4998L16.0759 26.8585C16.0093 26.9918 15.988 27.1356 16.0062 27.273C16.0045 27.2931 16.0002 27.3125 16.0002 27.3333C16.0002 28.8876 16.7289 30.2036 17.8805 30.9781V45.9996H46.359V30.8019C47.3704 30.0119 48 28.7764 48 27.3335C48 27.1988 47.9605 27.0739 47.8961 26.9662C47.8851 26.931 47.8744 26.8958 47.8578 26.8618ZM42.6767 19.4359L46.1444 26.6153H40.1107L38.0823 19.4359H42.6767ZM32.7181 19.4359H36.5907L38.6191 26.6153H32.7181V19.4359ZM38.7428 28.0512C38.4386 29.3651 37.3045 30.2867 35.8701 30.2867C34.4356 30.2867 33.3015 29.3651 32.9971 28.0512H38.7428ZM31.2822 19.4359V26.6153H25.0296L27.058 19.4359H31.2822ZM31.0029 28.0512C30.6985 29.3651 29.5646 30.2867 28.1304 30.2867C26.6957 30.2867 25.5618 29.3651 25.2574 28.0512H31.0029ZM21.3877 19.4359H25.5657L23.5372 26.6153H17.8023L21.3877 19.4359ZM17.5168 28.0512H23.263C22.9586 29.3651 21.8244 30.2867 20.3897 30.2867C18.9551 30.2867 17.8212 29.3653 17.5168 28.0512ZM30.3249 44.564H23.6241V37.6236C23.6241 35.8058 25.127 34.3273 26.9745 34.3273C28.822 34.3273 30.3249 35.806 30.3249 37.6236V44.564ZM44.9231 44.564H31.7608V37.6236C31.7608 35.0143 29.6137 32.8914 26.9745 32.8914C24.3353 32.8914 22.1882 35.0143 22.1882 37.6236V44.564H19.3164V31.596C19.6584 31.6759 20.0159 31.7226 20.3897 31.7226C22.1064 31.7226 23.5329 30.8345 24.2602 29.4694C24.9872 30.8345 26.4138 31.7226 28.1304 31.7226C29.8468 31.7226 31.2733 30.8345 32.0001 29.4694C32.7272 30.8345 34.1537 31.7226 35.8703 31.7226C37.5869 31.7226 39.0132 30.8345 39.7403 29.4694C40.4673 30.8345 41.8941 31.7226 43.6107 31.7226C44.0721 31.7226 44.512 31.6577 44.9231 31.5373V44.564ZM43.6105 30.2867C42.1758 30.2867 41.0417 29.3651 40.7373 28.0512H46.4832C46.1791 29.3653 45.0449 30.2867 43.6105 30.2867Z" fill="#3C3F41"/>
<path d="M35.3505 33.7949C34.954 33.7949 34.6326 34.1163 34.6326 34.5128V42.4102C34.6326 42.8067 34.954 43.1281 35.3505 43.1281H43.2479C43.6445 43.1281 43.9659 42.8067 43.9659 42.4102V34.5128C43.9659 34.1163 43.6445 33.7949 43.2479 33.7949H35.3505ZM42.53 41.6923H36.0685V35.2308H42.53V41.6923Z" fill="#586065"/>
</svg>
