<svg width="59" height="28" viewBox="0 0 59 28" fill="none" xmlns="http://www.w3.org/2000/svg">
<path fill-rule="evenodd" clip-rule="evenodd" d="M56.8148 15.7268V2.18519C56.8148 0.978341 55.8365 0 54.6296 0H4.37037C3.16353 0 2.18519 0.978341 2.18519 2.18519V15.7268C2.18528 16.1584 2.05754 16.5804 1.81807 16.9396L0.367111 19.1204C0.12847 19.4783 0.000764815 19.8986 0 20.3288V26.2222C0 26.8256 0.48917 27.3148 1.09259 27.3148H12.3234C12.7938 27.3149 13.2116 27.0139 13.3602 26.5675L13.9546 24.7844C14.1033 24.338 14.521 24.0369 14.9915 24.037H21.0641C21.5346 24.0369 21.9523 24.338 22.101 24.7844L22.6953 26.5675C22.844 27.0139 23.2617 27.3149 23.7322 27.3148H35.2678C35.7383 27.3149 36.156 27.0139 36.3047 26.5675L36.899 24.7844C37.0477 24.338 37.4654 24.0369 37.9359 24.037H44.0085C44.479 24.0369 44.8967 24.338 45.0454 24.7844L45.6398 26.5675C45.7884 27.0139 46.2062 27.3149 46.6766 27.3148H57.9074C58.5108 27.3148 59 26.8256 59 26.2222V20.3288C59.0001 19.8971 58.8724 19.4751 58.6329 19.116L57.1819 16.9352C56.9433 16.5773 56.8156 16.1569 56.8148 15.7268V15.7268Z" fill="#BDC3C7"/>
<path fill-rule="evenodd" clip-rule="evenodd" d="M6.55548 8.74073C5.95206 8.74073 5.46289 8.25156 5.46289 7.64814V4.37036C5.46289 3.76694 5.95206 3.27777 6.55548 3.27777H9.83326C10.4367 3.27777 10.9259 3.76694 10.9259 4.37036C10.9259 4.97379 10.4367 5.46296 9.83326 5.46296H7.64808V7.64814C7.64808 8.25156 7.15891 8.74073 6.55548 8.74073Z" fill="white"/>
</svg>
